<svg id="Layer_1" height="512" viewBox="0 0 512 512" width="512" xmlns="http://www.w3.org/2000/svg" data-name="Layer 1"><circle cx="392.08" cy="439.41" fill="#f58387" r="18.74"/><circle cx="318.82" cy="395.73" fill="#5fa8ed" r="18.74"/><circle cx="200.29" cy="482.26" fill="#f58387" r="18.74"/><circle cx="119.92" cy="416.16" fill="#5fa8ed" r="18.74"/><path d="m402.5 126.69a81.432 81.432 0 0 0 -104.67-74.81 114.013 114.013 0 0 0 -201.48 73.18c0 1.81.05 3.62.13 5.41a81.481 81.481 0 0 0 29.19 157.53h260.63a81.472 81.472 0 0 0 16.2-161.31z" fill="#53d8d8"/><path d="m74.25 206.455a81.46 81.46 0 0 1 52.23-75.985c-.08-1.79-.13-3.6-.13-5.41a114.026 114.026 0 0 1 98.95-113.069 113.955 113.955 0 0 0 -128.95 113.069c0 1.81.05 3.62.13 5.41a81.481 81.481 0 0 0 29.19 157.53h30a81.453 81.453 0 0 1 -81.42-81.545z" fill="#46a5a2"/><g fill="#284268"><path d="m114.263 110.9c-.3 2.089-.541 4.223-.709 6.343a6 6 0 0 0 5.509 6.453c.161.013.321.019.479.019a6 6 0 0 0 5.975-5.528c.147-1.861.356-3.733.622-5.564a6 6 0 0 0 -11.876-1.723z"/><path d="m122.792 98.99a6 6 0 0 0 7.708-3.548 85.291 85.291 0 0 1 79.86-55.542 85.607 85.607 0 0 1 19.308 2.2 6 6 0 0 0 2.711-11.689 97.7 97.7 0 0 0 -22.056-2.511 97.3 97.3 0 0 0 -91.079 63.378 6 6 0 0 0 3.548 7.712z"/><path d="m125.663 294h37.337v15.7a28.288 28.288 0 0 1 -20.193 27 40.358 40.358 0 0 0 -28.807 38.5v16.96a24.733 24.733 0 0 0 5.918 48.739 24.8 24.8 0 0 0 24.782-24.736 24.475 24.475 0 0 0 -18.7-24v-16.963a28.29 28.29 0 0 1 20.193-26.995 40.356 40.356 0 0 0 28.807-38.505v-15.7h50.837l.18 46.491a23.7 23.7 0 0 1 -12.36 21.007 35.683 35.683 0 0 0 -18.657 31.565v65.114a24.72 24.72 0 1 0 30.206 24.083 25.3 25.3 0 0 0 -18.206-23.906v-65.291a23.69 23.69 0 0 1 12.355-21.007 35.769 35.769 0 0 0 18.738-31.59l-.228-46.466h40.135v6.251a34.205 34.205 0 0 0 21.192 31.486 22.237 22.237 0 0 1 13.808 20.409v19.579a24.672 24.672 0 1 0 12 0v-19.579a34.2 34.2 0 0 0 -21.193-31.486 22.237 22.237 0 0 1 -13.807-20.409v-6.251h63v40.857a27.135 27.135 0 0 0 21.226 26.432 15.064 15.064 0 0 1 11.774 14.705v39.413a24.475 24.475 0 0 0 -18.7 24 24.734 24.734 0 1 0 30.7-24v-39.413a27.135 27.135 0 0 0 -21.226-26.432 15.065 15.065 0 0 1 -11.774-14.705v-40.857h21.3a87.471 87.471 0 0 0 72.908-135.752 86.842 86.842 0 0 0 -51.011-36.4 87.437 87.437 0 0 0 -108.3-76.752 119.686 119.686 0 0 0 -89.536-40.096h-.047a120.15 120.15 0 0 0 -119.968 120.058q0 .715.01 1.448a86.656 86.656 0 0 0 -36.722 30.279q-.664.966-1.3 1.927a6 6 0 0 0 5.021 9.288h.072a5.983 5.983 0 0 0 4.986-2.674 77.276 77.276 0 0 1 36.358-29.493 5.835 5.835 0 0 0 3.7-5.731c-.083-1.853-.124-3.487-.124-5.092a108.1 108.1 0 0 1 107.972-108.01h.042a107.744 107.744 0 0 1 82.866 38.731 6 6 0 0 0 6.32 1.9 75.435 75.435 0 0 1 96.963 69.3 6.028 6.028 0 0 0 4.81 5.644 75.472 75.472 0 0 1 -15.02 149.425h-260.629c-41.621 0-75.457-34.1-75.426-75.721 0-.708.012-1.405.034-2.1a6 6 0 1 0 -12-.335c-.025.805-.038 1.609-.039 2.426-.031 48.239 39.184 87.73 87.423 87.73zm6.995 122.163a12.74 12.74 0 1 1 -12.74-12.74 12.753 12.753 0 0 1 12.74 12.74zm80.375 66.1a12.74 12.74 0 1 1 -12.74-12.739 12.754 12.754 0 0 1 12.74 12.736zm105.789-99.274a12.74 12.74 0 1 1 -12.74 12.74 12.754 12.754 0 0 1 12.74-12.743zm73.26 43.681a12.74 12.74 0 1 1 -12.74 12.74 12.754 12.754 0 0 1 12.74-12.743z"/></g></svg>