<svg id="Capa_1" enable-background="new 0 0 512 512" height="512" viewBox="0 0 512 512" width="512" xmlns="http://www.w3.org/2000/svg"><g><g><path d="m351.5 153h-34c-1.657 0-3-1.343-3-3v-34c0-1.657 1.343-3 3-3h34c1.657 0 3 1.343 3 3v34c0 1.657-1.343 3-3 3z" fill="#05e39c"/></g><g><path d="m335 150v-34c0-1.657 1.343-3 3-3h-20.5c-1.657 0-3 1.343-3 3v34c0 1.657 1.343 3 3 3h20.5c-1.657 0-3-1.343-3-3z" fill="#0ed290"/></g><g><path d="m253.5 89c-1.657 0-3-1.343-3-3v-44c0-1.657 1.343-3 3-3h19v-26.427c0-2.802-2.271-5.073-5.073-5.073h-179.331c-1.345 0-2.636.534-3.587 1.486l-44.523 44.523c-.951.951-1.486 2.242-1.486 3.587v238.41c0 2.802 2.271 5.073 5.073 5.073h144.057v-30.838c0-2.761 2.239-5 5-5-2.761 0-5-2.239-5-5v-69.92c0-2.761 2.239-5 5-5h79.87v-95.821z" fill="#fef1da"/><g><path d="m79 295.506v-238.41c0-1.345.534-2.636 1.486-3.587l44.523-44.523c.951-.951 2.242-1.486 3.587-1.486h-40.5c-1.345 0-2.636.534-3.587 1.486l-44.523 44.523c-.951.951-1.486 2.242-1.486 3.587v238.41c0 2.802 2.271 5.073 5.073 5.073h40.5c-2.802 0-5.073-2.271-5.073-5.073z" fill="#fae2c0"/></g></g><g><path d="m297.5 89h-44c-1.657 0-3-1.343-3-3v-44c0-1.657 1.343-3 3-3h44c1.657 0 3 1.343 3 3v44c0 1.657-1.343 3-3 3z" fill="#01d0fb"/></g><g><path d="m271 86v-44c0-1.657 1.343-3 3-3h-20.5c-1.657 0-3 1.343-3 3v44c0 1.657 1.343 3 3 3h20.5c-1.657 0-3-1.343-3-3z" fill="#01c0fa"/></g><g><path d="m435.5 113h-44c-1.657 0-3-1.343-3-3v-44c0-1.657 1.343-3 3-3h44c1.657 0 3 1.343 3 3v44c0 1.657-1.343 3-3 3z" fill="#01d0fb"/></g><g><path d="m409 110v-44c0-1.657 1.343-3 3-3h-20.5c-1.657 0-3 1.343-3 3v44c0 1.657 1.343 3 3 3h20.5c-1.657 0-3-1.343-3-3z" fill="#01c0fa"/></g><g><g><g><g><path d="m468.5 264.741h-275.869c-2.761 0-5-2.239-5-5v-69.92c0-2.761 2.239-5 5-5h275.869c2.761 0 5 2.239 5 5v69.92c0 2.762-2.239 5-5 5z" fill="#7ca1b1"/></g><g><path d="m237 259.741v-69.92c0-2.761 2.239-5 5-5h-49.369c-2.761 0-5 2.239-5 5v69.92c0 2.761 2.239 5 5 5h49.369c-2.761 0-5-2.238-5-5z" fill="#678d98"/></g></g><g><g><path d="m468.5 344.661h-275.869c-2.761 0-5-2.239-5-5v-69.92c0-2.761 2.239-5 5-5h275.869c2.761 0 5 2.239 5 5v69.92c0 2.761-2.239 5-5 5z" fill="#678d98"/></g><g><path d="m237 339.661v-69.92c0-2.761 2.239-5 5-5h-49.369c-2.761 0-5 2.239-5 5v69.92c0 2.761 2.239 5 5 5h49.369c-2.761 0-5-2.239-5-5z" fill="#537983"/></g></g><g><g><path d="m468.5 424.58h-275.869c-2.761 0-5-2.239-5-5v-69.92c0-2.761 2.239-5 5-5h275.869c2.761 0 5 2.239 5 5v69.92c0 2.762-2.239 5-5 5z" fill="#7ca1b1"/></g><g><path d="m237 419.58v-69.92c0-2.761 2.239-5 5-5h-49.369c-2.761 0-5 2.239-5 5v69.92c0 2.761 2.239 5 5 5h49.369c-2.761 0-5-2.238-5-5z" fill="#678d98"/></g></g><g><g><path d="m468.5 504.5h-275.869c-2.761 0-5-2.239-5-5v-69.92c0-2.761 2.239-5 5-5h275.869c2.761 0 5 2.239 5 5v69.92c0 2.761-2.239 5-5 5z" fill="#678d98"/></g><g><path d="m237 499.5v-69.92c0-2.761 2.239-5 5-5h-49.369c-2.761 0-5 2.239-5 5v69.92c0 2.761 2.239 5 5 5h49.369c-2.761 0-5-2.239-5-5z" fill="#537983"/></g></g></g></g><g><path d="m154 381h-44c-1.657 0-3-1.343-3-3v-44c0-1.657 1.343-3 3-3h44c1.657 0 3 1.343 3 3v44c0 1.657-1.343 3-3 3z" fill="#05e39c"/></g><g><path d="m127 378v-44c0-1.657 1.343-3 3-3h-20c-1.657 0-3 1.343-3 3v44c0 1.657 1.343 3 3 3h20c-1.657 0-3-1.343-3-3z" fill="#0ed290"/></g><g><path d="m307 150c0 5.79 4.71 10.5 10.5 10.5h34c5.79 0 10.5-4.71 10.5-10.5v-34c0-5.79-4.71-10.5-10.5-10.5h-34c-5.79 0-10.5 4.71-10.5 10.5zm15-29.5h25v25h-25z"/><path d="m222.688 68.926h-134.376c-4.142 0-7.5 3.358-7.5 7.5s3.358 7.5 7.5 7.5h134.376c4.142 0 7.5-3.358 7.5-7.5s-3.358-7.5-7.5-7.5z"/><path d="m222.688 110.629h-134.376c-4.142 0-7.5 3.358-7.5 7.5s3.358 7.5 7.5 7.5h134.376c4.142 0 7.5-3.358 7.5-7.5s-3.358-7.5-7.5-7.5z"/><path d="m222.688 152.332h-134.376c-4.142 0-7.5 3.358-7.5 7.5s3.358 7.5 7.5 7.5h134.376c4.142 0 7.5-3.358 7.5-7.5s-3.358-7.5-7.5-7.5z"/><path d="m148.549 250.738c4.142 0 7.5-3.358 7.5-7.5s-3.358-7.5-7.5-7.5h-60.237c-4.142 0-7.5 3.358-7.5 7.5s3.358 7.5 7.5 7.5z"/><path d="m391.5 120.5h44c5.79 0 10.5-4.71 10.5-10.5v-44c0-5.79-4.71-10.5-10.5-10.5h-44c-5.79 0-10.5 4.71-10.5 10.5v44c0 5.79 4.71 10.5 10.5 10.5zm4.5-50h35v35h-35z"/><path d="m276.62 217.281h-53.66c-4.142 0-7.5 3.358-7.5 7.5s3.358 7.5 7.5 7.5h53.66c4.142 0 7.5-3.358 7.5-7.5s-3.358-7.5-7.5-7.5z"/><circle cx="436.337" cy="224.781" r="7.5"/><circle cx="415.337" cy="224.781" r="7.5"/><circle cx="394.337" cy="224.781" r="7.5"/><path d="m222.959 297.201c-4.142 0-7.5 3.358-7.5 7.5s3.358 7.5 7.5 7.5h53.66c4.142 0 7.5-3.358 7.5-7.5s-3.358-7.5-7.5-7.5z"/><circle cx="436.337" cy="304.701" r="7.5"/><circle cx="415.337" cy="304.701" r="7.5"/><circle cx="394.337" cy="304.701" r="7.5"/><path d="m222.959 392.121h53.66c4.142 0 7.5-3.358 7.5-7.5s-3.358-7.5-7.5-7.5h-53.66c-4.142 0-7.5 3.358-7.5 7.5s3.358 7.5 7.5 7.5z"/><circle cx="436.337" cy="384.621" r="7.5"/><circle cx="415.337" cy="384.621" r="7.5"/><circle cx="394.337" cy="384.621" r="7.5"/><path d="m481 189.822c0-6.893-5.607-12.5-12.5-12.5h-188.5v-25.322c0-4.142-3.358-7.5-7.5-7.5s-7.5 3.358-7.5 7.5v25.322h-72.369c-6.893 0-12.5 5.607-12.5 12.5v4.213h-91.819c-4.142 0-7.5 3.358-7.5 7.5s3.358 7.5 7.5 7.5h91.819v50.707c0 1.778.379 3.467 1.051 5-.672 1.533-1.051 3.222-1.051 5v23.338h-134.131v-234.978l43.102-43.102h175.898v16.5h-11.5c-5.79 0-10.5 4.71-10.5 10.5v44c0 5.79 4.71 10.5 10.5 10.5h11.5v20.5c0 4.142 3.358 7.5 7.5 7.5s7.5-3.358 7.5-7.5v-20.5h17.5c5.79 0 10.5-4.71 10.5-10.5v-44c0-5.79-4.71-10.5-10.5-10.5h-17.5v-18.927c0-6.933-5.64-12.573-12.573-12.573h-179.33c-3.36 0-6.518 1.308-8.891 3.683l-44.523 44.523c-2.375 2.375-3.683 5.532-3.683 8.89v238.41c0 6.933 5.64 12.573 12.573 12.573h136.558v31.582c0 1.778.379 3.467 1.051 5-.672 1.533-1.051 3.222-1.051 5v69.92c0 1.778.379 3.467 1.051 5-.672 1.533-1.051 3.222-1.051 5v69.92c0 6.893 5.607 12.5 12.5 12.5h275.869c6.893 0 12.5-5.607 12.5-12.5v-69.92c0-1.778-.379-3.467-1.051-5 .672-1.533 1.051-3.222 1.051-5v-69.92c0-1.778-.379-3.467-1.051-5 .672-1.533 1.051-3.222 1.051-5v-16.661c0-4.142-3.358-7.5-7.5-7.5s-7.5 3.358-7.5 7.5v14.161h-270.869v-64.919h270.869v15.758c0 4.142 3.358 7.5 7.5 7.5s7.5-3.358 7.5-7.5v-18.259c0-1.778-.379-3.467-1.051-5 .672-1.533 1.051-3.222 1.051-5zm-188-108.322h-35v-35h35zm173 270.661v64.919h-55c-4.142 0-7.5 3.358-7.5 7.5s3.358 7.5 7.5 7.5h55v64.92h-270.869v-64.92h180.869c4.142 0 7.5-3.358 7.5-7.5s-3.358-7.5-7.5-7.5h-180.869v-64.919zm-270.869-94.92v-64.919h270.869v64.919z"/><path d="m276.62 457.04h-53.66c-4.142 0-7.5 3.358-7.5 7.5s3.358 7.5 7.5 7.5h53.66c4.142 0 7.5-3.358 7.5-7.5s-3.358-7.5-7.5-7.5z"/><circle cx="436.337" cy="464.54" r="7.5"/><circle cx="415.337" cy="464.54" r="7.5"/><circle cx="394.337" cy="464.54" r="7.5"/><path d="m154 323.5h-44c-5.79 0-10.5 4.71-10.5 10.5v44c0 5.79 4.71 10.5 10.5 10.5h44c5.79 0 10.5-4.71 10.5-10.5v-44c0-5.79-4.71-10.5-10.5-10.5zm-4.5 50h-35v-35h35z"/></g></g></svg>