<?xml version="1.0" encoding="UTF-8"?>
<svg xmlns="http://www.w3.org/2000/svg" xmlns:xlink="http://www.w3.org/1999/xlink" xmlns:svgjs="http://svgjs.com/svgjs" version="1.1" width="512" height="512" x="0" y="0" viewBox="0 0 48 48" style="enable-background:new 0 0 512 512" xml:space="preserve" class="">
  <g transform="matrix(-1,-1.2246467991473532e-16,1.2246467991473532e-16,-1,48,48.05078125)">
    <g xmlns="http://www.w3.org/2000/svg" id="MERAH">
      <path d="m46 24v.1a5.86 5.86 0 0 1 -.78 2.9 5.93 5.93 0 0 1 -5.17 3h-15.64l3.8 3.79a6 6 0 0 1 1.38 2.21h-16.06l-11.24-11.29a1 1 0 0 1 -.29-.71.94.94 0 0 1 .28-.66l17.5-17.5a6 6 0 0 1 8.42 8.42l-3.79 3.74h15.64a6 6 0 0 1 5.95 6z" fill="#461022" data-original="#cc0000" style=""/>
      <path d="m46 24v.1a5.86 5.86 0 0 1 -.78 2.9 5.93 5.93 0 0 1 -5.17 3h-15.64l3.8 3.79a6 6 0 0 1 -8.42 8.42l-17.5-17.5a1 1 0 0 1 -.29-.71z" fill="#220912" data-original="#a30000" style="" class=""/>
    </g>
  </g>
</svg>
