<svg id="Layer_3" height="512" viewBox="0 0 64 64" width="512" xmlns="http://www.w3.org/2000/svg" data-name="Layer 3"><circle cx="51" cy="52" fill="#b5b5b5" r="10"/><path d="m50.809 42.01a9.985 9.985 0 0 0 -5.815 17.972 16.685 16.685 0 0 0 5.815-17.972z" fill="#ccc"/><path d="m18 7v19h-16v-24h11z" fill="#ddd"/><path d="m13 2v5h5" fill="#ccc"/><g fill="#b5b5b5"><path d="m6.999 5h2.999v2h-2.999z"/><path d="m4.999 9h9.999v2h-9.999z"/><path d="m4.999 13h9.999v2h-9.999z"/><path d="m4.999 17h7.999v2h-7.999z"/><path d="m33 43v19h-16v-24h11z"/></g><path d="m28 38v5h5" fill="#ccc"/><g fill="#ddd"><path d="m21.999 41h2.999v2h-2.999z"/><path d="m19.999 45h9.999v2h-9.999z"/><path d="m19.999 49h9.999v2h-9.999z"/><path d="m19.999 53h9.999v2h-9.999z"/><path d="m18 43v19h-16v-24h11z"/></g><path d="m13 38v5h5" fill="#ccc"/><path d="m62 15v-4h-2.231a8.943 8.943 0 0 0 -1.156-2.785l1.579-1.579-2.828-2.828-1.579 1.579a8.943 8.943 0 0 0 -2.785-1.156v-2.231h-4v2.231a8.943 8.943 0 0 0 -2.785 1.156l-1.579-1.579-2.828 2.828 1.579 1.579a8.943 8.943 0 0 0 -1.156 2.785h-2.231v4h2.231a8.943 8.943 0 0 0 1.156 2.785l-1.579 1.579 2.828 2.828 1.579-1.579a8.943 8.943 0 0 0 2.785 1.156v2.231h4v-2.231a8.943 8.943 0 0 0 2.785-1.156l1.579 1.579 2.828-2.828-1.579-1.579a8.943 8.943 0 0 0 1.156-2.785zm-11 3a5 5 0 1 1 5-5 5 5 0 0 1 -5 5z" fill="#474747"/><circle cx="20" cy="26" fill="#213d68" r="8"/><path d="m6.999 41h2.999v2h-2.999z" fill="#b5b5b5"/><path d="m4.999 45h9.999v2h-9.999z" fill="#b5b5b5"/><path d="m4.999 49h9.999v2h-9.999z" fill="#b5b5b5"/><path d="m4.999 53h9.999v2h-9.999z" fill="#b5b5b5"/><path d="m25 27h-5a1 1 0 0 1 -1-1v-4h2v3h4z" fill="#ccc"/><path d="m30 8 6 5-6 5v-3h-8v-4h8z" fill="#559b2d"/><path d="m56 33-5 6-5-6h3v-6h4v6z" fill="#559b2d"/><path d="m44 53 5 5 8-8-3-3-5 5-2-2z" fill="#4d8c28"/><path d="m6.999 26h1.999v12h-1.999z" fill="#559b2d"/><path d="m47.987 56.987a16.654 16.654 0 0 0 3.224-7.2l-2.211 2.213-2-2-3 3z" fill="#559b2d"/><path d="m62 10h-1.467a9.858 9.858 0 0 0 -.673-1.619l1.04-1.038a1 1 0 0 0 0-1.415l-2.83-2.828a1.031 1.031 0 0 0 -1.415 0l-1.037 1.038a9.853 9.853 0 0 0 -1.618-.672v-1.466a1 1 0 0 0 -1-1h-4a1 1 0 0 0 -1 1v1.465a9.919 9.919 0 0 0 -1.62.673l-1.037-1.038a1 1 0 0 0 -1.415 0l-2.828 2.828a1 1 0 0 0 0 1.415l1.038 1.037a9.9 9.9 0 0 0 -.673 1.62h-1.465a1 1 0 0 0 -1 1v4a1 1 0 0 0 1 1h1.465a9.9 9.9 0 0 0 .673 1.62l-1.038 1.036a1 1 0 0 0 0 1.415l2.828 2.829a1 1 0 0 0 1.415 0l1.037-1.038a9.919 9.919 0 0 0 1.62.673v1.465a1 1 0 0 0 1 1h4a1 1 0 0 0 1-1v-1.467a9.853 9.853 0 0 0 1.619-.672l1.036 1.039a1 1 0 0 0 1.414 0l2.831-2.829a1 1 0 0 0 0-1.415l-1.04-1.038a9.858 9.858 0 0 0 .673-1.618h1.467a1 1 0 0 0 1-1v-4a1 1 0 0 0 -1-1zm-1 4h-1.232a1 1 0 0 0 -.975.779 7.913 7.913 0 0 1 -1.027 2.473 1 1 0 0 0 .139 1.241l.872.872-1.414 1.413-.872-.872a1 1 0 0 0 -1.24-.138 7.93 7.93 0 0 1 -2.474 1.026 1 1 0 0 0 -.778.976v1.23h-1.999v-1.23a1 1 0 0 0 -.779-.976 7.906 7.906 0 0 1 -2.474-1.026 1 1 0 0 0 -1.24.138l-.871.872-1.414-1.414.872-.871a1 1 0 0 0 .138-1.241 7.913 7.913 0 0 1 -1.027-2.473 1 1 0 0 0 -.975-.779h-1.23v-2h1.23a1 1 0 0 0 .975-.779 7.913 7.913 0 0 1 1.027-2.473 1 1 0 0 0 -.138-1.241l-.872-.872 1.413-1.414.872.872a1 1 0 0 0 1.24.139 7.93 7.93 0 0 1 2.474-1.026 1 1 0 0 0 .779-.976v-1.23h2v1.23a1 1 0 0 0 .778.976 7.93 7.93 0 0 1 2.474 1.026 1 1 0 0 0 1.24-.139l.872-.872 1.414 1.414-.872.872a1 1 0 0 0 -.139 1.241 7.913 7.913 0 0 1 1.027 2.473 1 1 0 0 0 .975.779h1.231z"/><path d="m51 7a6 6 0 1 0 6 6 6.005 6.005 0 0 0 -6-6zm0 10a4 4 0 1 1 4-4 4 4 0 0 1 -4 4z"/><path d="m6.999 5h2.999v2h-2.999z"/><path d="m4.999 9h9.999v2h-9.999z"/><path d="m4.999 13h9.999v2h-9.999z"/><path d="m4.999 17h7.999v2h-7.999z"/><path d="m6.999 41h2.999v2h-2.999z"/><path d="m4.999 45h9.999v2h-9.999z"/><path d="m4.999 49h9.999v2h-9.999z"/><path d="m4.999 53h9.999v2h-9.999z"/><path d="m33.706 42.292-5-5a1 1 0 0 0 -.706-.292h-11a1 1 0 0 0 -1 1v1.586l-2.294-2.294a1 1 0 0 0 -.706-.292h-4v-10h2.061a9.023 9.023 0 1 0 7.939-9.941v-10.059a1 1 0 0 0 -.292-.708l-5-5a1 1 0 0 0 -.708-.292h-11a1 1 0 0 0 -1 1v24a1 1 0 0 0 1 1h5v10h-5a1 1 0 0 0 -1 1v24a1 1 0 0 0 1 1h31a1 1 0 0 0 1-1v-19a1 1 0 0 0 -.294-.708zm-6.706-16.292a7 7 0 1 1 -7-7 7.007 7.007 0 0 1 7 7zm-13-21.585 1.583 1.585h-1.583zm-11-1.415h9v4a1 1 0 0 0 1 1h4v9.526a9.015 9.015 0 0 0 -5.941 7.474h-8.059zm26 37.414 1.584 1.586h-1.584zm-15 0 1.584 1.586h-1.584zm-11 20.586v-22h9v4a1 1 0 0 0 1 1h4v17zm16 0v-18a1 1 0 0 0 -.292-.707l-.708-.707v-2.586h9v4a1 1 0 0 0 1 1h4v17z"/><path d="m21.999 41h2.999v2h-2.999z"/><path d="m19.999 45h9.999v2h-9.999z"/><path d="m19.999 49h9.999v2h-9.999z"/><path d="m19.999 53h9.999v2h-9.999z"/><path d="m20 27h5v-2h-4v-3h-2v4a1 1 0 0 0 1 1z"/><path d="m30.64 7.231a1 1 0 0 0 -1.64.769v2h-7a1 1 0 0 0 -1 1v4a1 1 0 0 0 1 1h7v2a1 1 0 0 0 1.64.769l6-5a1 1 0 0 0 0-1.537zm.36 8.633v-.864a1 1 0 0 0 -1-1h-7v-2h7a1 1 0 0 0 1-1v-.865l3.437 2.865z"/><path d="m53.707 26.292a1 1 0 0 0 -.707-.292h-4a1 1 0 0 0 -1 1v5h-2a1 1 0 0 0 -.769 1.64l5 6a1 1 0 0 0 1.537 0l5-6a1 1 0 0 0 -.768-1.64h-2v-5a1 1 0 0 0 -.293-.708zm-2.707 11.146-2.865-3.438h.865a1 1 0 0 0 1-1v-5h2v5a1 1 0 0 0 1 1h.865z"/><path d="m51 41a11 11 0 1 0 11 11 11.012 11.012 0 0 0 -11-11zm0 20a9 9 0 1 1 9-9 9.009 9.009 0 0 1 -9 9z"/><path d="m53.291 46.292-4.291 4.293-1.293-1.293a1 1 0 0 0 -1.415 0l-3 3a1 1 0 0 0 0 1.415l5 5a1 1 0 0 0 1.415 0l8-8a1 1 0 0 0 0-1.415l-3-3a1 1 0 0 0 -1.416 0zm-4.291 10.293-3.587-3.585 1.587-1.586 1.292 1.293a1 1 0 0 0 1.415 0l4.293-4.293 1.584 1.586z"/></svg>