<svg id="Layer_1" height="512" viewBox="0 0 512 512" width="512" xmlns="http://www.w3.org/2000/svg" data-name="Layer 1"><path d="m344 149h-80.73l-.47-.69.79-.54 57.22-57.21.08-.07a80.8 80.8 0 0 1 23.72 57.28c0 .41 0 .83-.02 1.24z" fill="#5fcda4"/><path d="m383.64 303.81a16.69 16.69 0 1 1 -14.93-9.23 16.529 16.529 0 0 1 14.93 9.23z" fill="#5fa8ed"/><path d="m473.69 210.65a16.693 16.693 0 1 1 9.08 2.69 16.658 16.658 0 0 1 -9.08-2.69z" fill="#5fa8ed"/><path d="m448.2 258.39a16.678 16.678 0 1 1 -10.21-3.5 16.66 16.66 0 0 1 10.21 3.5z" fill="#5fa8ed"/><path d="m29.23 303.88a16.695 16.695 0 0 1 11.8 28.5h-.01a16.692 16.692 0 1 1 -11.79-28.5z" fill="#5fa8ed"/><path d="m297.27 456.77v10.55a33.675 33.675 0 1 1 -67.35 0v-10.55z" fill="#6d7486"/><path d="m104.25 363a16.529 16.529 0 0 1 1.76 7.46 16.69 16.69 0 1 1 -1.76-7.46z" fill="#5fa8ed"/><path d="m230 321h67v136h-67z" fill="#6d6d93"/><path d="m159.63 297.17a16.685 16.685 0 1 1 -10.21-3.5 16.66 16.66 0 0 1 10.21 3.5z" fill="#5fa8ed"/><path d="m185.92 262.99a138.1 138.1 0 1 1 90.59 23.33q-6.375.6-12.92.6-6.525 0-12.91-.6a137.08 137.08 0 0 1 -64.76-23.33zm183.59-114.03a105.915 105.915 0 1 0 -105.92 105.92 105.917 105.917 0 0 0 105.92-105.92z" fill="#a4bdc1"/><path d="m263.59 66.75a80.749 80.749 0 0 1 57.3 23.74l-.08.07-57.22 57.21-.79.54-45.14-66.55-.34-.49a80.516 80.516 0 0 1 46.27-14.52z" fill="#e87187"/><path d="m344 149 .59.01a81.015 81.015 0 1 1 -127.27-67.74l.34.49 45.14 66.55.47.69z" fill="#f3ce7d"/><path d="m276.75 286.32c-4.25.4-8.68.6-13.04.6s-8.555-.2-12.8-.6l.095.07v43.88a12.781 12.781 0 0 0 3.615 9.14 13.261 13.261 0 0 0 9.3 3.79 13.067 13.067 0 0 0 13.08-12.93v-43.88z" fill="#b3d1e7"/><path d="m269.82 491.14a33.577 33.577 0 0 1 -9.82-23.82v-10.32h-30v10.32a33.63 33.63 0 0 0 48.623 30.153 33.788 33.788 0 0 1 -8.803-6.333z" fill="#697077"/><path d="m230 321h30v136h-30z" fill="#565672"/><path d="m229.143 98.69a81.453 81.453 0 0 1 18.177-17.42 80.381 80.381 0 0 1 31.238-13.117 81.394 81.394 0 0 0 -14.968-1.4 80.516 80.516 0 0 0 -46.27 14.52l.34.49z" fill="#ad5e73"/><path d="m212.57 147.77a80.625 80.625 0 0 1 16.573-49.08l-11.483-16.93-.34-.49a81.007 81.007 0 0 0 61.28 146.112 81.029 81.029 0 0 1 -66.03-79.612z" fill="#b59a6b"/><g fill="#284268"><path d="m263.592 234.794a87.02 87.02 0 1 0 -87.019-87.02 87.119 87.119 0 0 0 87.019 87.02zm74.924-90.794h-62.664l44.823-44.823a74.666 74.666 0 0 1 17.841 44.823zm-74.924-71.245a74.671 74.671 0 0 1 48.6 17.937l-48.792 48.788-37.946-56.271a74.548 74.548 0 0 1 38.138-10.454zm-47.782 17.231 42.49 62.882c1.117 1.646 2.977 3.132 4.966 3.132h74.883a75.013 75.013 0 1 1 -122.339-66.014z"/><path d="m482.775 173.956a22.677 22.677 0 0 0 -16.639 38.1l-20.4 38.2a22.681 22.681 0 0 0 -28.4 30.728l-31.695 15.2a22.645 22.645 0 0 0 -28.843-4.23l-18.965-19.6a144.289 144.289 0 0 0 69.953-123.654c-.127-77.756-63.034-141.851-140.778-143.66a143.722 143.722 0 0 0 -115.158 53.272 5.994 5.994 0 1 0 9.307 7.557 131.752 131.752 0 0 1 105.884-48.825c70.069 1.8 126.913 58.835 128.479 128.91 1.678 75.077-59.7 136.516-134.76 134.934-69.334-1.462-126.147-57.086-129.009-126.376a131.441 131.441 0 0 1 9.053-53.869 6.012 6.012 0 0 0 -2.8-7.569l-.017-.008a6.013 6.013 0 0 0 -8.352 3.174 144.266 144.266 0 0 0 47.9 167.8l-19.493 25.347a22.683 22.683 0 0 0 -28.075 32.669l-25.66 31.394a22.638 22.638 0 0 0 -27.607-1.839l-27.38-20.511a22.713 22.713 0 1 0 -8.245 8.817l27.759 20.793a22.694 22.694 0 1 0 42.266 3.39l27.582-33.745a22.682 22.682 0 0 0 28.856-33.63l19.9-25.877a143.362 143.362 0 0 0 57.562 20.815v23.337h-15.082a5.662 5.662 0 0 0 -5.918 5.676v146.647a39.5 39.5 0 1 0 79 0v-146.647a5.5 5.5 0 0 0 -5.728-5.676h-14.272v-23.329a141.9 141.9 0 0 0 43.913-13.342l21.7 22.42a22.69 22.69 0 1 0 42.371 6.189l34.393-16.5a22.679 22.679 0 0 0 30.216-33.156l20.757-38.875a22.691 22.691 0 1 0 6.427-44.453zm-453.55 157.31a10.693 10.693 0 1 1 10.693-10.693 10.705 10.705 0 0 1 -10.693 10.693zm60.095 49.889a10.693 10.693 0 1 1 10.693-10.693 10.705 10.705 0 0 1 -10.693 10.693zm60.1-60.094a10.694 10.694 0 1 1 10.693-10.693 10.705 10.705 0 0 1 -10.698 10.693zm107.58-28.316c2 .107 4.545.169 6.8.172 2.39 0 4.2-.055 7.2-.167v37.521a7 7 0 0 1 -14 0zm34 174.578a27.5 27.5 0 1 1 -55 0v-4.323h55zm0-140.323v124h-55v-124h9v3.271a19 19 0 0 0 38 0v-3.271zm77.708-5.038a10.693 10.693 0 1 1 10.692-10.693 10.705 10.705 0 0 1 -10.692 10.693zm69.281-39.684a10.693 10.693 0 1 1 10.692-10.693 10.706 10.706 0 0 1 -10.692 10.693zm44.786-74.936a10.693 10.693 0 1 1 10.693-10.693 10.7 10.7 0 0 1 -10.693 10.693z"/><path d="m263.6 260.877a111.919 111.919 0 1 0 -111.924-111.919 112.045 112.045 0 0 0 111.924 111.919zm0-211.837a99.919 99.919 0 1 1 -99.919 99.918 100.031 100.031 0 0 1 99.919-99.918z"/><path d="m248 355.66a6 6 0 0 0 -6 6v4.08a6 6 0 0 0 12 0v-4.08a6 6 0 0 0 -6-6z"/><path d="m248 376.583a6 6 0 0 0 -6 6v52.389a6 6 0 0 0 12 0v-52.389a6 6 0 0 0 -6-6z"/></g></svg>