<svg id="Capa_1" enable-background="new 0 0 512 512" height="512" viewBox="0 0 512 512" width="512" xmlns="http://www.w3.org/2000/svg"><g><g><g><path d="m197.634 417.7h116.732v55.173h-116.732z" fill="#678d98"/></g><g><path d="m197.634 417.7h41.634v55.173h-41.634z" fill="#537983"/></g><g><path d="m135.16 494.5v-7.627c0-8.284 6.716-15 15-15h211.68c8.284 0 15 6.716 15 15v7.627c0 5.523-4.477 10-10 10h-221.68c-5.523 0-10-4.477-10-10z" fill="#7ca1b1"/></g><g><path d="m177 494.5v-7.627c0-8.284 6.716-15 15-15h-41.84c-8.284 0-15 6.716-15 15v7.627c0 5.523 4.477 10 10 10h41.84c-5.523 0-10-4.477-10-10z" fill="#678d98"/></g><g><path d="m31.237 379.236v29.464c0 5.523 4.477 10 10 10h429.526c5.523 0 10-4.477 10-10v-29.463h-449.526z" fill="#7ca1b1"/></g><g><g><path d="m73 408.7v-29.463h-41.763v29.463c0 5.523 4.477 10 10 10h41.763c-5.523 0-10-4.478-10-10z" fill="#678d98"/></g></g><path d="m394.738 238.098 17.858-17.858c.563-.563 1.326-.879 2.121-.879h66.046v-67.674c0-8.205-6.652-14.857-14.857-14.857h-144.906v30.491c0 1.657-1.343 3-3 3h-124c-1.657 0-3-1.343-3-3v-30.491h-144.906c-8.205 0-14.857 6.651-14.857 14.857v77.552l8.999-9c.563-.563 1.326-.879 2.121-.879h72.783c1.657 0 3 1.343 3 3v115.04c0 1.657-1.343 3-3 3h-83.903v38.835h449.526v-38.835h-83.904c-1.657 0-3-1.343-3-3v-97.182c0-.794.316-1.557.879-2.12z" fill="#dff6fd"/><g fill="#c8effe"><path d="m40.237 220.24c.563-.563 1.326-.879 2.121-.879h30.642v-67.674c0-8.205 6.652-14.857 14.857-14.857h-41.763c-8.205 0-14.857 6.651-14.857 14.857v77.552z"/><path d="m31.237 340.402h41.763v38.835h-41.763z"/></g><g><g><g><g><path d="m412.596 220.24-17.858 17.858c-.563.563-.879 1.326-.879 2.121v97.182c0 1.657 1.343 3 3 3h90.641c1.657 0 3-1.343 3-3v-115.04c0-1.657-1.343-3-3-3h-72.783c-.796 0-1.559.316-2.121.879z" fill="#62dbfb"/></g></g><g><path d="m426 337.402v-97.182c0-.796.316-1.559.879-2.121l17.858-17.858c.563-.563 1.326-.879 2.121-.879h-32.141c-.796 0-1.559.316-2.121.879l-17.858 17.858c-.563.563-.879 1.326-.879 2.121v97.182c0 1.657 1.343 3 3 3h32.141c-1.657 0-3-1.343-3-3z" fill="#01d0fb"/></g></g><g><g><g><path d="m40.237 220.24-17.858 17.858c-.563.563-.879 1.326-.879 2.121v97.182c0 1.657 1.343 3 3 3h90.641c1.657 0 3-1.343 3-3v-115.04c0-1.657-1.343-3-3-3h-72.783c-.796 0-1.559.316-2.121.879z" fill="#6cf5c2"/></g></g><g><path d="m53 337.402v-97.182c0-.796.316-1.559.879-2.121l17.858-17.858c.563-.563 1.326-.879 2.121-.879h-31.5c-.796 0-1.559.316-2.121.879l-17.858 17.858c-.563.563-.879 1.326-.879 2.121v97.182c0 1.657 1.343 3 3 3h31.5c-1.657 0-3-1.343-3-3z" fill="#05e39c"/></g></g></g><g><g><path d="m227.821 217.677h-51.821c-2.209 0-4 1.791-4 4v21.053h69l-9.491-22.601c-.623-1.486-2.077-2.452-3.688-2.452z" fill="#fed402"/></g><g><path d="m206 217.677h-30c-2.209 0-4 1.791-4 4v21.052h30v-21.052c0-2.209 1.791-4 4-4z" fill="#fac600"/></g><g><path d="m337 347.361h-162c-1.657 0-3-1.343-3-3v-101.631h165c1.657 0 3 1.343 3 3v98.632c0 1.656-1.343 2.999-3 2.999z" fill="#fed402"/></g><g><path d="m202 344.361v-101.631h-30v101.632c0 1.657 1.343 3 3 3h30c-1.657-.001-3-1.344-3-3.001z" fill="#fac600"/></g></g></g><g><g><path d="m216.507 8.379-24.629 24.629c-.562.562-.878 1.325-.878 2.121v132.193c0 1.657 1.343 3 3 3h124c1.657 0 3-1.343 3-3v-156.822c0-1.657-1.343-3-3-3h-99.371c-.796 0-1.559.316-2.122.879z" fill="#fee97d"/></g><g><path d="m221 167.322v-132.193c0-.796.316-1.559.879-2.122l24.629-24.629c.563-.563 1.326-.879 2.121-.879h-30c-.796 0-1.559.316-2.121.879l-24.629 24.629c-.563.563-.879 1.326-.879 2.122v132.193c0 1.657 1.343 3 3 3h30c-1.657 0-3-1.343-3-3z" fill="#fedf30"/></g></g><g><path d="m490.5 267.5c4.143 0 7.5-3.358 7.5-7.5v-37.639c0-5.532-4.303-10.068-9.737-10.461v-60.213c0-1.926-.245-3.796-.705-5.581-2.485-9.636-11.25-16.776-21.651-16.776h-79.722v-46.969c0-4.142-3.357-7.5-7.5-7.5s-7.5 3.358-7.5 7.5v46.969h-42.685v-23.33c0-4.142-3.357-7.5-7.5-7.5s-7.5 3.358-7.5 7.5v56.822h-115v-125.829l21.993-21.993h93.007v56c0 4.142 3.357 7.5 7.5 7.5s7.5-3.358 7.5-7.5v-60.5c0-5.79-4.71-10.5-10.5-10.5h-99.371c-2.805 0-5.441 1.092-7.425 3.076l-24.628 24.628c-1.983 1.983-3.076 4.62-3.076 7.425v94.201h-40.315v-46.969c0-4.142-3.358-7.5-7.5-7.5s-7.5 3.358-7.5 7.5v46.969h-82.091c-10.401 0-19.166 7.14-21.651 16.776-.46 1.785-.705 3.655-.705 5.581v74.446l-6.659 6.659c-1.985 1.983-3.078 4.621-3.078 7.427v97.183c0 5.532 4.304 10.068 9.737 10.461v60.837c0 9.649 7.851 17.5 17.5 17.5h148.897v38.173h-39.975c-12.407 0-22.5 10.093-22.5 22.5v7.627c0 9.649 7.851 17.5 17.5 17.5h221.68c9.649 0 17.5-7.851 17.5-17.5v-7.627c0-12.407-10.094-22.5-22.5-22.5h-39.974v-38.173h148.896c9.649 0 17.5-7.851 17.5-17.5v-60.836c5.434-.393 9.737-4.929 9.737-10.461v-42.403c0-4.142-3.357-7.5-7.5-7.5s-7.5 3.358-7.5 7.5v37.902h-81.641v-90.819l15.222-15.222h66.42v33.139c0 4.142 3.357 7.5 7.5 7.5zm-234.5 54.271c1.919 0 3.839-.732 5.304-2.197l17.685-17.685c2.929-2.929 2.929-7.678 0-10.606-2.93-2.929-7.678-2.929-10.607 0l-4.881 4.881v-45.934h69v89.631h-153v-89.631h69v45.935l-4.881-4.881c-2.929-2.929-7.678-2.929-10.606 0-2.929 2.929-2.929 7.678 0 10.606l17.685 17.685c1.462 1.464 3.382 2.196 5.301 2.196zm-76.5-86.541v-10.053h45.995l4.221 10.053zm-150.5 6.853 15.222-15.222h66.419v106.041h-81.641zm332.84 237.29c4.136 0 7.5 3.364 7.5 7.5v7.627c0 1.378-1.121 2.5-2.5 2.5h-221.68c-1.378 0-2.5-1.122-2.5-2.5v-7.627c0-4.136 3.364-7.5 7.5-7.5h107.84c4.143 0 7.5-3.358 7.5-7.5s-3.357-7.5-7.5-7.5h-52.866v-38.173h101.732v38.173h-13.866c-4.143 0-7.5 3.358-7.5 7.5s3.357 7.5 7.5 7.5zm111.423-70.673c0 1.378-1.121 2.5-2.5 2.5h-429.526c-1.378 0-2.5-1.122-2.5-2.5v-21.963h434.525v21.963zm0-196.839h-58.546c-2.805 0-5.441 1.092-7.425 3.076l-17.854 17.855c-1.985 1.983-3.078 4.621-3.078 7.427v97.183c0 5.79 4.71 10.5 10.5 10.5h76.403v23.834h-434.526v-23.834h76.404c5.79 0 10.5-4.71 10.5-10.5v-115.041c0-5.79-4.71-10.5-10.5-10.5h-72.783c-1.257 0-2.475.231-3.621.651v-60.825c0-4.056 3.3-7.356 7.356-7.356h82.091v33.103l-4.881-4.881c-2.929-2.929-7.678-2.929-10.606 0-2.929 2.929-2.929 7.678 0 10.606l17.685 17.685c1.464 1.464 3.384 2.197 5.303 2.197s3.839-.732 5.303-2.197l17.685-17.685c2.929-2.929 2.929-7.678 0-10.606-2.929-2.929-7.678-2.929-10.606 0l-4.881 4.881v-33.103h40.314v22.991c0 5.79 4.71 10.5 10.5 10.5h54.5v57.408h-2.515l-7.561-18.005c-1.798-4.281-5.959-7.047-10.603-7.047h-51.821c-6.341 0-11.5 5.159-11.5 11.5v122.684c0 5.79 4.71 10.5 10.5 10.5h162c5.79 0 10.5-4.71 10.5-10.5v-98.632c0-5.79-4.71-10.5-10.5-10.5h-73.5v-57.408h54.5c5.79 0 10.5-4.71 10.5-10.5v-22.991h42.685v33.102l-4.881-4.881c-2.93-2.929-7.678-2.929-10.607 0s-2.929 7.678 0 10.606l17.685 17.685c1.465 1.464 3.385 2.197 5.304 2.197s3.839-.732 5.304-2.197l17.685-17.685c2.929-2.929 2.929-7.678 0-10.606-2.93-2.929-7.678-2.929-10.607 0l-4.881 4.881v-33.102h79.722c4.057 0 7.356 3.3 7.356 7.356v60.174z"/><path d="m462.413 239.82h-40.467c-4.143 0-7.5 3.358-7.5 7.5s3.357 7.5 7.5 7.5h40.467c4.143 0 7.5-3.358 7.5-7.5s-3.357-7.5-7.5-7.5z"/><path d="m462.413 261.431h-40.467c-4.143 0-7.5 3.358-7.5 7.5s3.357 7.5 7.5 7.5h40.467c4.143 0 7.5-3.358 7.5-7.5s-3.357-7.5-7.5-7.5z"/><path d="m469.913 290.735c0-4.142-3.357-7.5-7.5-7.5h-40.467c-4.143 0-7.5 3.358-7.5 7.5s3.357 7.5 7.5 7.5h40.467c4.143 0 7.5-3.358 7.5-7.5z"/><path d="m421.946 304.943c-4.143 0-7.5 3.358-7.5 7.5s3.357 7.5 7.5 7.5h18.141c4.143 0 7.5-3.358 7.5-7.5s-3.357-7.5-7.5-7.5z"/><path d="m90.054 239.82h-40.467c-4.142 0-7.5 3.358-7.5 7.5s3.358 7.5 7.5 7.5h40.466c4.142 0 7.5-3.358 7.5-7.5s-3.357-7.5-7.499-7.5z"/><path d="m90.054 261.431h-40.467c-4.142 0-7.5 3.358-7.5 7.5s3.358 7.5 7.5 7.5h40.466c4.142 0 7.5-3.358 7.5-7.5s-3.357-7.5-7.499-7.5z"/><path d="m90.054 283.235h-40.467c-4.142 0-7.5 3.358-7.5 7.5s3.358 7.5 7.5 7.5h40.466c4.142 0 7.5-3.358 7.5-7.5s-3.357-7.5-7.499-7.5z"/><path d="m67.728 304.943h-18.14c-4.142 0-7.5 3.358-7.5 7.5s3.358 7.5 7.5 7.5h18.14c4.142 0 7.5-3.358 7.5-7.5s-3.358-7.5-7.5-7.5z"/><path d="m294 66.452h-2v-35.452c0-4.142-3.357-7.5-7.5-7.5s-7.5 3.358-7.5 7.5v35.452h-4v-22.566c0-4.142-3.357-7.5-7.5-7.5s-7.5 3.358-7.5 7.5v22.566h-4v-30.298c0-4.142-3.358-7.5-7.5-7.5s-7.5 3.358-7.5 7.5v30.298h-4v-14.835c0-4.142-3.358-7.5-7.5-7.5s-7.5 3.358-7.5 7.5v14.835h-2c-4.142 0-7.5 3.358-7.5 7.5s3.358 7.5 7.5 7.5h76c4.143 0 7.5-3.358 7.5-7.5s-3.357-7.5-7.5-7.5z"/><path d="m222.13 91.5h-4.13c-4.142 0-7.5 3.358-7.5 7.5s3.358 7.5 7.5 7.5h4.13c4.142 0 7.5-3.358 7.5-7.5s-3.358-7.5-7.5-7.5z"/><path d="m222.13 113h-4.13c-4.142 0-7.5 3.358-7.5 7.5s3.358 7.5 7.5 7.5h4.13c4.142 0 7.5-3.358 7.5-7.5s-3.358-7.5-7.5-7.5z"/><path d="m222.13 134.5h-4.13c-4.142 0-7.5 3.358-7.5 7.5s3.358 7.5 7.5 7.5h4.13c4.142 0 7.5-3.358 7.5-7.5s-3.358-7.5-7.5-7.5z"/><path d="m294 91.5h-53.696c-4.142 0-7.5 3.358-7.5 7.5s3.358 7.5 7.5 7.5h53.696c4.143 0 7.5-3.358 7.5-7.5s-3.357-7.5-7.5-7.5z"/><path d="m294 113h-53.696c-4.142 0-7.5 3.358-7.5 7.5s3.358 7.5 7.5 7.5h53.696c4.143 0 7.5-3.358 7.5-7.5s-3.357-7.5-7.5-7.5z"/><path d="m294 134.5h-53.696c-4.142 0-7.5 3.358-7.5 7.5s3.358 7.5 7.5 7.5h53.696c4.143 0 7.5-3.358 7.5-7.5s-3.357-7.5-7.5-7.5z"/></g></g></svg>