<svg id="Layer_1" height="512" viewBox="0 0 512 512" width="512" xmlns="http://www.w3.org/2000/svg" data-name="Layer 1"><path d="m460.65 59.65v231.14a19.755 19.755 0 0 1 -19.75 19.76h-369.8a19.755 19.755 0 0 1 -19.75-19.76v-231.14a20.586 20.586 0 0 1 20.59-20.59h368.12a20.586 20.586 0 0 1 20.59 20.59z" fill="#b0b5ca"/><path d="m433.8 79.48v191.32a16.034 16.034 0 0 1 -16.03 16.03h-323.54a16.034 16.034 0 0 1 -16.03-16.03v-191.32a16.715 16.715 0 0 1 16.71-16.71h322.18a16.715 16.715 0 0 1 16.71 16.71z" fill="#a5e2fb"/><path d="m366.32 101.46a15.343 15.343 0 1 1 -12.08 5.9 15.321 15.321 0 0 1 12.08-5.9z" fill="#f58387"/><path d="m265.37 135.31a15.32 15.32 0 1 1 -9.37-3.2 15.29 15.29 0 0 1 9.37 3.2z" fill="#f58387"/><path d="m311.16 111.46a15.3 15.3 0 1 1 14.71-11.02 15.321 15.321 0 0 1 -14.71 11.02z" fill="#f58387"/><path d="m145.68 132.11a15.32 15.32 0 1 1 -15.32 15.32 15.323 15.323 0 0 1 15.32-15.32z" fill="#f58387"/><path d="m200.84 177.01a15.333 15.333 0 1 1 -11.37 5.06 15.321 15.321 0 0 1 11.37-5.06z" fill="#f58387"/><path d="m351.2 150.8h29.83v94.96h-29.83z" fill="#f3ce7d"/><path d="m130.57 181.44h29.82v64.32h-29.82z" fill="#f3ce7d"/><path d="m130.57 245.76h29.82v18.08h-29.82z" fill="#4689d3"/><path d="m185.72 226.35h29.83v19.41h-29.83z" fill="#f3ce7d"/><path d="m185.72 245.76h29.83v18.08h-29.83z" fill="#4689d3"/><path d="m240.88 181.44h29.83v64.32h-29.83z" fill="#f3ce7d"/><path d="m240.88 245.76h29.83v18.08h-29.83z" fill="#4689d3"/><path d="m296.04 130.16h29.83v115.6h-29.83z" fill="#f3ce7d"/><path d="m296.04 245.76h29.83v18.08h-29.83z" fill="#4689d3"/><path d="m351.2 245.76h29.83v18.08h-29.83z" fill="#4689d3"/><path d="m463.76 326.735a19.53 19.53 0 0 0 -19.39-15.735h-376.69a19.557 19.557 0 0 0 -19.415 15.735l-37.265 119.265h490z" fill="#ccd3df"/><path d="m315.27 416.38 9.8 29.66h-138.14l9.8-29.66z" fill="#b0b5ca"/><path d="m11 446v6.35a20.643 20.643 0 0 0 20.59 20.65h448.82a20.643 20.643 0 0 0 20.59-20.65v-6.35z" fill="#6d7486"/><path d="m429.85 333.26 13.82 60.26h-375.34l13.82-60.26z" fill="#b0b5ca"/><path d="m108 270.8v-191.32a16.692 16.692 0 0 1 16.91-16.48h-30a16.692 16.692 0 0 0 -16.91 16.48v191.32a16.352 16.352 0 0 0 16.23 16.2h30a16.352 16.352 0 0 1 -16.23-16.2z" fill="#86bdce"/><path d="m82.15 333-13.82 61h30l13.82-61z" fill="#969aa8"/><g fill="#284268"><path d="m131 175a6 6 0 0 0 -6 6v82a6 6 0 0 0 6 6h30a6 6 0 0 0 6-6v-82a6 6 0 0 0 -6-6zm23 83h-17v-6h17zm0-18h-17v-53h17z"/><path d="m186 220a6 6 0 0 0 -6 6v37a6 6 0 0 0 6 6h30a6 6 0 0 0 6-6v-37a6 6 0 0 0 -6-6zm24 38h-18v-6h18zm0-18h-18v-8h18z"/><path d="m241 175a6 6 0 0 0 -6 6v82a6 6 0 0 0 6 6h30a6 6 0 0 0 6-6v-82a6 6 0 0 0 -6-6zm24 83h-18v-6h18zm0-18h-18v-53h18z"/><path d="m296 124a6 6 0 0 0 -6 6v134a6 6 0 0 0 6 6h30a6 6 0 0 0 6-6v-134a6 6 0 0 0 -6-6zm24 134h-18v-6h18zm0-18h-18v-104h18z"/><path d="m351 145a6 6 0 0 0 -6 6v113a6 6 0 0 0 6 6h30a6 6 0 0 0 6-6v-113a6 6 0 0 0 -6-6zm24 113h-18v-6h18zm0-18h-18v-83h18z"/><path d="m145.684 126.106a21.322 21.322 0 1 0 10.9 39.613l24.811 17.92a21.333 21.333 0 1 0 40.144 3.66l23.988-21.321a21.295 21.295 0 0 0 28.294-30.225l24.755-22.438a21.224 21.224 0 0 0 30.638-5.885l16.485 4.019a21.369 21.369 0 1 0 6.645-10.731l-19.877-4.846a21.316 21.316 0 1 0 -41.2 7.875l-26.676 24.18a21.3 21.3 0 0 0 -27.436 29.44l-21.807 19.382a21.2 21.2 0 0 0 -26.128-2.264l-24.43-17.644a21.275 21.275 0 0 0 -19.1-30.735zm0 30.644a9.322 9.322 0 1 1 9.321-9.322 9.332 9.332 0 0 1 -9.321 9.322zm220.632-49.287a9.322 9.322 0 1 1 -9.316 9.322 9.332 9.332 0 0 1 9.316-9.322zm-55.158-20.644a9.322 9.322 0 1 1 -9.322 9.322 9.333 9.333 0 0 1 9.322-9.322zm-55.158 51.287a9.322 9.322 0 1 1 -9.322 9.322 9.333 9.333 0 0 1 9.322-9.322zm-55.158 44.907a9.322 9.322 0 1 1 -9.322 9.322 9.333 9.333 0 0 1 9.322-9.322z"/><path d="m469.583 325.039a25.5 25.5 0 0 0 -10.43-15.929 25.826 25.826 0 0 0 7.847-18.319v-231.141c0-14.662-12.274-26.65-26.937-26.65h-368.126c-14.663 0-26.937 11.988-26.937 26.65v231.141a25.826 25.826 0 0 0 7.847 18.319 25.621 25.621 0 0 0 -10.516 15.929l-37.094 119.193a5.979 5.979 0 0 0 -.237 1.812v6.306a26.672 26.672 0 0 0 26.591 26.65h448.818a26.672 26.672 0 0 0 26.591-26.65v-6.306a5.994 5.994 0 0 0 -.28-1.812zm-412.583-265.389a14.958 14.958 0 0 1 14.937-14.65h368.126a14.958 14.958 0 0 1 14.937 14.65v231.141a14.465 14.465 0 0 1 -14.1 14.209h-369.8a14.465 14.465 0 0 1 -14.1-14.209zm-3.034 268.642c.065-.21.119-.185.161-.4a13.624 13.624 0 0 1 13.553-10.892h376.691a13.58 13.58 0 0 1 13.5 10.9 3.936 3.936 0 0 0 .161.5l34.814 111.6h-163.437l-8.447-25.715a6.155 6.155 0 0 0 -5.7-4.285h-118.528a6.155 6.155 0 0 0 -5.7 4.285l-8.443 25.715h-163.437zm262.804 111.708h-121.54l5.84-18h109.86zm178.23 12.35a14.658 14.658 0 0 1 -14.591 14.65h-448.818a14.658 14.658 0 0 1 -14.591-14.65v-.35h478z"/><path d="m448.368 397.5a6.261 6.261 0 0 0 1.154-5.2l-13.828-60.45a6.177 6.177 0 0 0 -5.848-4.85h-347.692a6.12 6.12 0 0 0 -5.848 4.79l-13.828 60.319a6.6 6.6 0 0 0 1.154 5.355 6.286 6.286 0 0 0 4.694 2.536h375.348a6.249 6.249 0 0 0 4.694-2.5zm-372.509-9.5 11.074-49h338.134l11.074 49z"/><path d="m103 101.74a6 6 0 0 0 6-6v-7.08a6 6 0 0 0 -12 0v7.08a6 6 0 0 0 6 6z"/><path d="m97 177.972a6 6 0 0 0 12 0v-58.389a6 6 0 0 0 -12 0z"/><path d="m94.2 293h323.568a22.3 22.3 0 0 0 22.232-22.232v-190.857a22.91 22.91 0 0 0 -22.911-22.911h-322.178a22.978 22.978 0 0 0 -22.911 22.911v25.089a6 6 0 0 0 12 0v-25.518a10.482 10.482 0 0 1 10.482-10.482h323.036a10.482 10.482 0 0 1 10.482 10.482v191.318a10.228 10.228 0 0 1 -10.2 10.2h-323.568a10.262 10.262 0 0 1 -10.232-10.232v-123.768a6 6 0 0 0 -12 0v123.8a22.264 22.264 0 0 0 22.2 22.2z"/></g></svg>