<svg id="Capa_1" enable-background="new 0 0 512 512" height="512" viewBox="0 0 512 512" width="512" xmlns="http://www.w3.org/2000/svg"><g><g><path d="m225.3 138.4v-51h-55.4v51.1c9-1.5 18.3-2.4 27.7-2.4s18.7.8 27.7 2.3z" fill="#a8d3d8"/><path d="m169.9 87.4v51.1c8.7-1.5 17.6-2.3 26.7-2.3v-48.8z" fill="#8ebac5"/><path d="m316.8 149.7-20 20c10.8 8.2 20.5 17.8 28.9 28.4l19.7-19.7z" fill="#a8d3d8"/><path d="m311.3 182.2 19-19-13.5-13.5-20 20c5.1 3.9 9.9 8 14.5 12.5z" fill="#8ebac5"/><g><path d="m351.3 184.2-40.3-40.3c-3.9-3.9-3.9-10.2 0-14.1l5.7-5.7c3.9-3.9 10.2-3.9 14.1 0l40.3 40.3c3.9 3.9 3.9 10.2 0 14.1l-5.7 5.7c-3.9 3.9-10.2 3.9-14.1 0z" fill="#7ca1b1"/></g><g><path d="m331.9 143.9c-3.9-3.9-3.9-10.2 0-14.1l2.3-2.3-3.4-3.4c-3.9-3.9-10.2-3.9-14.1 0l-5.7 5.7c-3.9 3.9-3.9 10.2 0 14.1l40.3 40.3c3.9 3.9 10.2 3.9 14.1 0l3.4-3.4z" fill="#678d98"/></g><g><path d="m292.8 368.4c0-44.1 27.2-81.9 65.7-97.6-13.6-76.5-80.4-134.7-160.9-134.7-90.2 0-163.4 73.1-163.4 163.4s73.1 163.4 163.4 163.4c42 0 80.3-15.9 109.2-41.9-8.9-15.5-14-33.5-14-52.6z" fill="#fd5426"/></g><path d="m80.5 366.9c-11.5-19.9-18-42.9-18-67.5s6.6-47.6 18-67.5c23.6-52 73.6-89.4 133-95.1-5.2-.5-10.5-.8-15.9-.8-90.2 0-163.4 73.1-163.4 163.4s73.1 163.4 163.4 163.4c5.4 0 10.7-.3 15.9-.8-59.3-5.6-109.3-43.1-133-95.1z" fill="#ef4424"/><g><path d="m237.8 32.4v45c0 5.5-4.5 10-10 10h-60.3c-5.5 0-10-4.5-10-10v-45c0-5.5 4.5-10 10-10h60.3c5.5 0 10 4.5 10 10z" fill="#fd5426"/></g><g><path d="m192.5 77.4v-45c0-5.5 4.5-10 10-10h-35c-5.5 0-10 4.5-10 10v45c0 5.5 4.5 10 10 10h35c-5.5 0-10-4.5-10-10z" fill="#ef4424"/></g><g><path d="m292.8 368.4c0-33.1 15.4-62.7 39.3-82-6.6-68.5-64.3-122-134.5-122-74.6 0-135.1 60.5-135.1 135.1s60.5 135.1 135.1 135.1c38.6 0 73.3-16.1 97.9-42-1.8-7.8-2.7-15.9-2.7-24.2z" fill="#fff"/></g><g><path d="m104 299.5c0-67.6 49.6-123.5 114.4-133.5-6.8-1-13.7-1.6-20.7-1.6-74.6 0-135.1 60.5-135.1 135.1s60.4 135.1 135 135.1c7.1 0 14-.5 20.7-1.6-64.7-10-114.3-66-114.3-133.5z" fill="#eef5f6"/></g><g><path d="m196.6 282.6c.3 0 .7-.1 1-.1 9.4 0 17 7.6 17 17 0 .3 0 .7-.1 1h44.5c0-.3 0-.7 0-1 0-33.9-27.5-61.4-61.4-61.4-.3 0-.7 0-1 0z" fill="#fac600"/></g><path d="m215.6 299.5c0 9.9-8 18-18 18s-18-8-18-18c0-9.9 8-18 18-18v-60.7c-43.2 0-78.7 35.5-78.7 78.7s35.5 78.7 78.7 78.7 78.7-35.5 78.7-78.7z" fill="#01d0fb"/><g><path d="m150 299.5c0-32.2 19.7-60.1 47.6-72.2v-6.5c-43.2 0-78.7 35.5-78.7 78.7s35.5 78.7 78.7 78.7c5.3 0 10.5-.5 15.5-1.6-35.8-7.3-63.1-39.3-63.1-77.1z" fill="#01c0fa"/></g><g><circle cx="197.6" cy="299.5" fill="#fd5426" r="18"/></g></g><g><g><circle cx="398.1" cy="368.4" fill="#fed402" r="106.4"/></g><g><circle cx="398.1" cy="368.4" fill="#fac600" r="74.6"/></g><g><path d="m362.8 368.4c0-34.4 23.3-63.3 54.9-72-6.3-1.7-12.8-2.6-19.6-2.6-41.2 0-74.6 33.4-74.6 74.6s33.4 74.6 74.6 74.6c6.8 0 13.4-.9 19.6-2.6-31.6-8.7-54.9-37.6-54.9-72z" fill="#e8b800"/></g></g><g><path d="m435.4 166.7c-4.8 17.9-11.6 24.7-29.5 29.5-3.7 1-3.7 6.2 0 7.2 17.9 4.8 24.7 11.6 29.5 29.5 1 3.7 6.2 3.7 7.2 0 4.8-17.9 11.6-24.7 29.5-29.5 3.7-1 3.7-6.2 0-7.2-17.9-4.8-24.7-11.6-29.5-29.5-1-3.6-6.2-3.6-7.2 0z" fill="#fed402"/></g><g><g><path d="m420.3 190.5c-3.8 2.3-8.5 4.1-14.4 5.7-3.7 1-3.7 6.2 0 7.2 17.9 4.8 24.7 11.6 29.5 29.5 1 3.7 6.2 3.7 7.2 0 1.5-5.7 3.2-10.2 5.4-13.9-4.7-16.9-11.2-23.7-27.7-28.5z" fill="#fac600"/></g></g><g><path d="m403.2 85.5c-3.9 14.4-9.3 19.9-23.8 23.8-2.9.8-2.9 5 0 5.8 14.4 3.9 19.9 9.3 23.8 23.8.8 2.9 5 2.9 5.8 0 3.9-14.4 9.3-19.9 23.8-23.8 2.9-.8 2.9-5 0-5.8-14.4-3.9-19.9-9.3-23.8-23.8-.8-3-5-3-5.8 0z" fill="#fed402"/></g><g><g><path d="m390.7 104.9c-3 1.8-6.6 3.1-11.2 4.4-2.9.8-2.9 5 0 5.8 14.4 3.9 19.9 9.3 23.8 23.8.8 2.9 5 2.9 5.8 0 1.3-4.7 2.7-8.5 4.6-11.5-3.9-13.5-9.4-18.7-23-22.5z" fill="#fac600"/></g></g><g><path d="m276.3 292h-10.2c-3.5-32-29-57.5-61-61v-34.2c0-4.1-3.4-7.5-7.5-7.5s-7.5 3.4-7.5 7.5v16.8c-20.1 1.7-38.8 10.5-53.3 25-16.3 16.3-25.3 37.9-25.3 60.8s9 44.5 25.3 60.8 37.9 25.3 60.8 25.3 44.5-9 60.8-25.3 25.3-37.9 25.3-60.8c.1-4.1-3.3-7.4-7.4-7.4zm-71.2-45.9c23.7 3.3 42.5 22.1 45.8 45.8h-29c-2.5-8-8.8-14.4-16.8-16.8zm-7.5 42.9c5.8 0 10.5 4.7 10.5 10.5s-4.7 10.5-10.5 10.5-10.5-4.7-10.5-10.5c.1-5.8 4.8-10.5 10.5-10.5zm50.2 60.7c-13.5 13.5-31.3 21-50.2 21s-36.7-7.4-50.2-21-21-31.3-21-50.2 7.4-36.7 21-50.2c11.7-11.7 26.7-18.9 42.7-20.6v46.4c-10.4 3.2-18 12.9-18 24.3s7.6 21.1 18 24.3v19.3c0 4.1 3.4 7.5 7.5 7.5s7.5-3.4 7.5-7.5v-19.3c8-2.5 14.4-8.8 16.8-16.8h46.4c-1.6 16.1-8.8 31.1-20.5 42.8z"/><path d="m398.1 254.5c-2.7 0-5.3.1-8 .3-2.2-9.4-5-18.6-8.6-27.6-1.5-3.9-5.9-5.8-9.7-4.2s-5.8 5.9-4.2 9.7c3.1 7.9 5.6 16 7.6 24.2-3.9.8-7.7 1.8-11.4 3-5.3-22.3-15.1-43-28.2-61l9.9-9.9.5.5c3.4 3.4 7.9 5.1 12.4 5.1s9-1.7 12.4-5.1l5.7-5.7c6.8-6.8 6.8-17.9 0-24.7l-40.3-40.3c-3.3-3.3-7.7-5.1-12.4-5.1s-9.1 1.8-12.4 5.1l-5.7 5.7c-6.8 6.8-6.8 17.9 0 24.7l.5.5-10.2 10.2c-18.7-13.2-40.1-22.8-63.2-27.6v-12c13 2.5 25.6 6.5 37.8 11.8 3.8 1.7 8.2-.1 9.9-3.9s-.1-8.2-3.9-9.9c-14.1-6.2-28.8-10.6-43.8-13.3v-10.9c7.2-2.2 12.4-8.9 12.4-16.7v-4.4c0-4.1-3.4-7.5-7.5-7.5s-7.5 3.4-7.5 7.5v4.4c0 1.4-1.1 2.5-2.5 2.5h-60.3c-1.4 0-2.5-1.1-2.5-2.5v-45c0-1.4 1.1-2.5 2.5-2.5h60.3c1.4 0 2.5 1.1 2.5 2.5v5.6c0 4.1 3.4 7.5 7.5 7.5s7.5-3.4 7.5-7.5v-5.6c0-9.6-7.9-17.5-17.5-17.5h-60.3c-9.6 0-17.5 7.9-17.5 17.5v45c0 7.9 5.2 14.6 12.4 16.7v10.9c-92.1 16.7-162.3 97.5-162.3 194.5 0 109 88.7 197.6 197.6 197.6 47.1 0 90.4-16.6 124.4-44.2 20.2 18.2 46.9 29.3 76.2 29.3 62.8 0 113.9-51.1 113.9-113.9-.1-62.7-51.2-113.8-114-113.8zm-81.8-119.5 5.7-5.7c.6-.6 1.4-.7 1.8-.7s1.1.1 1.8.7l40.3 40.3c.6.6.7 1.4.7 1.8s-.1 1.1-.7 1.8l-5.7 5.7c-1 1-2.6 1-3.5 0l-40.3-40.3c-1.1-1-1.1-2.6-.1-3.6zm.5 25.3 18.1 18.1-8.7 8.7c-5.6-6.4-11.7-12.4-18.2-17.9zm-119.2-31.7c-6.8 0-13.6.4-20.2 1.2v-34.9h40.4v34.9c-6.6-.8-13.3-1.2-20.2-1.2zm-182.6 170.9c0-88.7 63.5-162.8 147.4-179.2v12c-77.4 16.2-135.7 85-135.7 167.2 0 94.2 76.7 170.9 170.9 170.9 13.9 0 27.7-1.7 41.1-5 4-1 6.5-5.1 5.5-9.1s-5.1-6.5-9.1-5.5c-12.2 3-24.8 4.5-37.5 4.5-85.9 0-155.9-69.9-155.9-155.9s69.9-155.9 155.9-155.9c74.2 0 136.5 52.2 152.1 121.7-4.2 2-8.3 4.2-12.2 6.7-12.8-65.5-70.7-115.1-139.9-115.1-78.6.1-142.6 64-142.6 142.7s64 142.6 142.6 142.6c35.7 0 68.4-13.2 93.4-35 1.6 4.4 3.4 8.6 5.5 12.8-9.2 7.6-19.3 14.2-30.1 19.5-3.7 1.8-5.2 6.3-3.4 10s6.3 5.2 10 3.4c11.2-5.5 21.6-12.2 31.3-19.9 2.2 3.2 4.6 6.3 7.1 9.3-31.2 25-70.8 39.9-113.9 39.9-100.6 0-182.5-81.9-182.5-182.6zm269.3 68.9c0 7.7.8 15.3 2.2 22.6-5.7 5.6-12 10.6-18.7 15.1l-1.2-2.2c-2.1-3.6-6.7-4.8-10.2-2.7-3.6 2.1-4.8 6.7-2.7 10.2l1.3 2.2c-15.1 7.6-31.9 12.3-49.7 13.3v-2.5c0-4.1-3.4-7.5-7.5-7.5s-7.5 3.4-7.5 7.5v2.5c-17.8-1-34.6-5.7-49.7-13.3l1.3-2.2c2.1-3.6.8-8.2-2.7-10.2-3.6-2.1-8.2-.8-10.2 2.7l-1.2 2.2c-14.4-9.5-26.8-21.9-36.4-36.4l2.2-1.2c3.6-2.1 4.8-6.7 2.7-10.2s-6.7-4.8-10.2-2.7l-2.2 1.3c-7.9-15.3-12.6-32.2-13.7-49.9h2.5c4.1 0 7.5-3.4 7.5-7.5s-3.4-7.5-7.5-7.5h-2.5c1-17.8 5.7-34.6 13.3-49.7l2.2 1.3c1.2.7 2.5 1 3.7 1 2.6 0 5.1-1.3 6.5-3.8 2.1-3.6.8-8.2-2.7-10.2l-2.2-1.2c9.5-14.4 21.9-26.8 36.4-36.4l1.2 2.2c1.4 2.4 3.9 3.8 6.5 3.8 1.3 0 2.6-.3 3.7-1 3.6-2.1 4.8-6.7 2.7-10.2l-1.3-2.2c15.1-7.6 31.9-12.3 49.7-13.3v2.5c0 4.1 3.4 7.5 7.5 7.5s7.5-3.4 7.5-7.5v-2.5c17.8 1 34.6 5.7 49.7 13.3l-1.3 2.2c-2.1 3.6-.8 8.2 2.7 10.2 1.2.7 2.5 1 3.7 1 2.6 0 5.1-1.3 6.5-3.8l1.2-2.2c14.4 9.5 26.8 21.9 36.4 36.4l-2.2 1.2c-3.6 2.1-4.8 6.7-2.7 10.2 1.4 2.4 3.9 3.8 6.5 3.8 1.3 0 2.6-.3 3.7-1l2.2-1.3c6.2 12.2 10.4 25.6 12.4 39.7-24 20.9-39.4 51.9-39.4 86.4zm113.8 98.8c-54.5 0-98.9-44.4-98.9-98.9s44.4-98.9 98.9-98.9 98.9 44.4 98.9 98.9c0 54.6-44.4 98.9-98.9 98.9z"/><path d="m466.9 323.5c-2.3-3.5-6.9-4.4-10.4-2.2-3.5 2.3-4.4 6.9-2.2 10.4 7.1 10.9 10.9 23.6 10.9 36.6 0 37-30.1 67.1-67.1 67.1s-67.1-30.1-67.1-67.1 30.1-67.1 67.1-67.1c11.7 0 23.2 3.1 33.3 8.8 3.6 2.1 8.2.8 10.2-2.8 2.1-3.6.8-8.2-2.8-10.2-12.4-7.1-26.5-10.8-40.7-10.8-45.3 0-82.1 36.8-82.1 82.1s36.8 82.1 82.1 82.1 82.1-36.8 82.1-82.1c0-15.9-4.6-31.4-13.3-44.8z"/><path d="m398.1 422.8c4.1 0 7.5-3.4 7.5-7.5v-8.4h1.1c12.7 0 23-10.3 23-23s-10.3-23-23-23h-17.1c-4.4 0-8-3.6-8-8s3.6-8 8-8h30.2c4.1 0 7.5-3.4 7.5-7.5s-3.4-7.5-7.5-7.5h-14.1v-8.4c0-4.1-3.4-7.5-7.5-7.5s-7.5 3.4-7.5 7.5v8.4h-1.1c-12.7 0-23 10.3-23 23s10.3 23 23 23h17.1c4.4 0 8 3.6 8 8s-3.6 8-8 8h-30.2c-4.1 0-7.5 3.4-7.5 7.5s3.4 7.5 7.5 7.5h14.1v8.4c0 4.1 3.4 7.5 7.5 7.5z"/><path d="m428.2 164.8c-4.1 15.3-8.9 20.1-24.2 24.2-5 1.3-8.3 5.7-8.3 10.8s3.3 9.5 8.3 10.8c15.3 4.1 20.1 8.9 24.2 24.2 1.3 5 5.7 8.3 10.8 8.3s9.5-3.3 10.8-8.3c4.1-15.3 8.9-20.1 24.2-24.2 5-1.3 8.3-5.7 8.3-10.8s-3.3-9.5-8.3-10.8c-15.3-4.1-20.1-8.9-24.2-24.2-1.3-5-5.7-8.3-10.8-8.3s-9.5 3.3-10.8 8.3zm31.3 35.1c-10 4.4-16.1 10.5-20.5 20.5-4.4-10-10.5-16.1-20.5-20.5 10-4.4 16.1-10.5 20.5-20.5 4.4 9.9 10.5 16.1 20.5 20.5z"/><path d="m377.5 122.3c11.8 3.2 15.3 6.7 18.5 18.5 1.3 4.6 5.3 7.8 10.1 7.8s8.9-3.1 10.1-7.8c3.2-11.8 6.6-15.3 18.5-18.5 4.6-1.3 7.8-5.3 7.8-10.1s-3.1-8.9-7.8-10.1c-11.8-3.2-15.3-6.7-18.5-18.5-1.3-4.6-5.3-7.8-10.1-7.8s-8.9 3.1-10.1 7.8c-3.2 11.8-6.6 15.3-18.5 18.5-4.6 1.3-7.8 5.3-7.8 10.1.1 4.7 3.2 8.8 7.8 10.1zm28.6-23.2c3.1 5.9 7.2 10 13.1 13.1-5.9 3.1-10 7.2-13.1 13.1-3.1-5.9-7.2-10-13.1-13.1 5.9-3.1 10-7.3 13.1-13.1z"/></g></g></svg>