<svg id="Layer_5" enable-background="new 0 0 64 64" height="512" viewBox="0 0 64 64" width="512" xmlns="http://www.w3.org/2000/svg"><g><g><g><path d="m8 10v-6c0-1.1.9-2 2-2h50c1.1 0 2 .9 2 2v6h-47z" fill="#b4dd7f"/></g><g><path d="m15 10c7.18 0 13 5.82 13 13 0 1.3-.19 2.55-.55 3.74-1.15 3.84-4.03 6.94-7.74 8.38l-.69 1.16c-.67 1.13-1.02 2.41-1.02 3.72l.71 6h41.29c1.1 0 2-.9 2-2v-34z" fill="#e6e9ed"/></g><g><path d="m19.97 56.73c.02.18.03.36.03.55 0 2.61-2.11 4.72-4.72 4.72h-.56c-1.3 0-2.48-.53-3.34-1.38-.85-.86-1.38-2.04-1.38-3.34 0-.19.01-.37.03-.55l1.97-16.73h6l.71 6z" fill="#969faa"/></g><g><path d="m19.71 35.12-.69 1.16c-.67 1.13-1.02 2.41-1.02 3.72h-6c0-1.31-.35-2.59-1.02-3.72l-.69-1.16c1.46.57 3.05.88 4.71.88s3.25-.31 4.71-.88z" fill="#ccd1d9"/></g><g><path d="m10.29 35.12c-4.85-1.89-8.29-6.6-8.29-12.12 0-4.6 2.39-8.64 6-10.94v-.01c2.02-1.3 4.42-2.05 7-2.05 7.18 0 13 5.82 13 13 0 1.3-.19 2.55-.55 3.74-1.15 3.84-4.03 6.94-7.74 8.38-1.46.57-3.05.88-4.71.88s-3.25-.31-4.71-.88z" fill="#fcd770"/></g><g><path d="m23.62 25.59c-1.11 3.71-4.55 6.41-8.62 6.41-4.97 0-9-4.03-9-9s4.03-9 9-9 9 4.03 9 9c0 .9-.13 1.77-.38 2.59z" fill="#69d6f4"/></g><g><path d="m22 38h6v8h-6z" fill="#ff826e"/></g><g><path d="m32 36h6v10h-6z" fill="#ff826e"/></g><g><path d="m42 34h6v12h-6z" fill="#ff826e"/></g><g><path d="m52 32h6v14h-6z" fill="#ff826e"/></g><g><path d="m51 14c3.87 0 7 3.13 7 7s-3.13 7-7 7c-2.74 0-5.12-1.57-6.26-3.87-.48-.94-.74-2-.74-3.13 0-3.87 3.13-7 7-7z" fill="#ff826e"/></g><g><circle cx="51" cy="21" fill="#fc6e51" r="3"/></g><g><path d="m37.68 27.66c.2.4.32.86.32 1.34 0 1.66-1.34 3-3 3s-3-1.34-3-3c0-.3.04-.59.13-.86.37-1.24 1.51-2.14 2.87-2.14 1.18 0 2.19.67 2.68 1.66z" fill="#ff826e"/></g><g><path d="m15 20c1.66 0 3 1.34 3 3 0 .3-.04.59-.13.86-.37 1.24-1.51 2.14-2.87 2.14-1.66 0-3-1.34-3-3s1.34-3 3-3z" fill="#ff826e"/></g></g><g><path d="m25 23c0-5.514-4.486-10-10-10s-10 4.486-10 10 4.486 10 10 10 10-4.486 10-10zm-18 0c0-4.411 3.589-8 8-8s8 3.589 8 8c0 .451-.047.89-.118 1.32l-3.897-1.17c.002-.05.015-.098.015-.15 0-2.206-1.794-4-4-4s-4 1.794-4 4 1.794 4 4 4c1.447 0 2.705-.78 3.408-1.934l3.902 1.171c-1.247 2.802-4.052 4.763-7.31 4.763-4.411 0-8-3.589-8-8zm10 0c0 1.103-.897 2-2 2s-2-.897-2-2 .897-2 2-2 2 .897 2 2z"/><path d="m15 5h2v2h-2z"/><path d="m19 5h2v2h-2z"/><path d="m11 5h2v2h-2z"/><path d="m51 25c2.206 0 4-1.794 4-4s-1.794-4-4-4-4 1.794-4 4 1.794 4 4 4zm0-6c1.103 0 2 .897 2 2s-.897 2-2 2-2-.897-2-2 .897-2 2-2z"/><path d="m60 1h-50c-1.654 0-3 1.346-3 3v7.527c-3.622 2.533-6 6.728-6 11.473 0 5.804 3.551 10.793 8.594 12.912l.524.88c.567.954.872 2.043.881 3.151l-1.96 16.665c-.026.223-.039.446-.039.669 0 3.156 2.567 5.723 5.723 5.723h.554c3.156 0 5.723-2.567 5.723-5.723 0-.224-.013-.446-.039-.67l-1.13-9.607h40.169c1.654 0 3-1.346 3-3v-40c0-1.654-1.346-3-3-3zm-50 2h50c.551 0 1 .448 1 1v5h-52v-5c0-.552.449-1 1-1zm-7 20c0-6.617 5.383-12 12-12s12 5.383 12 12-5.383 12-12 12-12-5.383-12-12zm12 14c.915 0 1.807-.094 2.673-.263-.31.721-.51 1.484-.605 2.263h-4.135c-.095-.779-.296-1.541-.605-2.263.865.169 1.758.263 2.672.263zm.277 24h-.554c-2.053 0-3.723-1.67-3.723-3.723 0-.146.008-.292.025-.436l1.864-15.841h4.228l1.857 15.841c.018.144.026.291.026.436 0 2.053-1.67 3.723-3.723 3.723zm11.723-16h-4v-6h4zm10 0h-4v-8h4zm10 0h-4v-10h4zm10 0h-4v-12h4zm3 0h-1v-14h-8v14h-2v-12h-8v12h-2v-10h-8v10h-2v-8h-8v8h-1.405l-.595-5.057c.01-1.108.314-2.197.881-3.15l.524-.881c3.522-1.48 6.302-4.366 7.667-7.946l2.942.882c-.001.052-.014.1-.014.152 0 2.206 1.794 4 4 4s4-1.794 4-4c0-.287-.033-.566-.091-.836l5.443-2.721c1.436 2.143 3.88 3.557 6.648 3.557 4.411 0 8-3.589 8-8s-3.589-8-8-8-8 3.589-8 8c0 .93.168 1.82.461 2.651l-5.461 2.731c-.734-.84-1.8-1.382-3-1.382-1.447 0-2.705.779-3.408 1.933l-2.938-.881c.221-.984.346-2.003.346-3.052 0-5.096-2.745-9.551-6.826-12h38.826v33c0 .552-.449 1-1 1zm-27-16c0-1.103.897-2 2-2s2 .897 2 2-.897 2-2 2-2-.897-2-2zm12-8c0-3.309 2.691-6 6-6s6 2.691 6 6-2.691 6-6 6-6-2.691-6-6z"/><path d="m31 13h10v2h-10z"/><path d="m31 17h10v2h-10z"/><path d="m39 21h2v2h-2z"/><path d="m35 21h2v2h-2z"/><path d="m31 21h2v2h-2z"/></g></g></svg>