<svg id="Capa_1" enable-background="new 0 0 512 512" height="512" viewBox="0 0 512 512" width="512" xmlns="http://www.w3.org/2000/svg"><g><g><g fill="#05e39c"><path d="m122.667 56.187c-3.184 0-5.227 3.384-3.744 6.201l32.325 61.431h14.103l-13.645-67.633h-29.039z"/><path d="m227.789 56.187h-29.038l-13.645 67.633h14.103l32.325-61.431c1.482-2.818-.561-6.202-3.745-6.202z"/></g><g><g><path d="m165.35 123.82h19.756l13.877-68.785c.529-2.62-1.475-5.068-4.148-5.068h-39.215c-2.673 0-4.676 2.448-4.148 5.068z" fill="#0ed290"/></g></g><path d="m293.797 346.314c-13.389 9.63-29.802 15.32-47.554 15.32-45.039 0-81.55-36.511-81.55-81.55 0-41.291 30.695-75.392 70.508-80.785l-29.139-21.439h-61.668l-66.174 48.687h25.954c4.603 0 8.334 3.731 8.334 8.334v12.977c0 4.603-3.731 8.334-8.334 8.334 4.603 0 8.334 3.731 8.334 8.334v12.977c0 4.603-3.731 8.334-8.334 8.334 4.603 0 8.334 3.731 8.334 8.334v12.977c0 4.603-3.731 8.334-8.334 8.334 4.603 0 8.334 3.731 8.334 8.334v9.96c33.433 2.192 59.968 30.073 59.968 64.051 0 13.435-4.155 25.915-11.238 36.235h98.562c33.971 0 60.787-26.374 63.312-58.434z" fill="#05e39c"/><path d="m104.174 226.547c4.603 0 8.334 3.731 8.334 8.334v5.891c1.814-1.794 3.762-3.468 5.841-4.997l78.717-57.915h-52.672l-66.174 48.687z" fill="#0ed290"/><g><g><path d="m206.925 178.86h-63.394c-7.738 0-14.01-6.273-14.01-14.01 0-7.738 6.273-14.01 14.01-14.01h63.394c7.738 0 14.01 6.273 14.01 14.01 0 7.738-6.273 14.01-14.01 14.01z" fill="#e9b665"/></g><g><path d="m160.586 164.85c0-7.738 6.272-14.01 14.01-14.01h-31.065c-7.738 0-14.01 6.273-14.01 14.01 0 7.738 6.272 14.01 14.01 14.01h31.065c-7.737 0-14.01-6.272-14.01-14.01z" fill="#d8aa5e"/></g><g><path d="m206.925 150.84h-63.394c-7.738 0-14.01-6.273-14.01-14.01 0-7.738 6.273-14.01 14.01-14.01h63.394c7.738 0 14.01 6.273 14.01 14.01 0 7.737-6.273 14.01-14.01 14.01z" fill="#d8aa5e"/></g><g><path d="m160.586 136.83c0-7.738 6.272-14.01 14.01-14.01h-31.065c-7.738 0-14.01 6.272-14.01 14.01s6.272 14.01 14.01 14.01h31.065c-7.737 0-14.01-6.273-14.01-14.01z" fill="#c99c56"/></g></g></g><g><path d="m44.399 404.417h-28.565c-4.603 0-8.334 3.731-8.334 8.334v12.977c0 4.603 3.731 8.334 8.334 8.334h39.466c-5.91-8.612-9.783-18.725-10.901-29.645z" fill="#fac600"/><path d="m44.062 397.827c0-8.125 1.532-15.894 4.298-23.055h-32.526c-4.603 0-8.334 3.731-8.334 8.334v12.977c0 4.603 3.731 8.334 8.334 8.334h28.565c-.222-2.167-.337-4.366-.337-6.59z" fill="#d7aa02"/><path d="m71.655 345.127h-55.821c-4.603 0-8.334 3.731-8.334 8.334v12.977c0 4.603 3.731 8.334 8.334 8.334h32.526c4.656-12.056 12.843-22.361 23.295-29.645z" fill="#fed402"/><path d="m108.269 333.62c1.426 0 2.836.063 4.239.156v-9.96c0-4.603-3.731-8.334-8.334-8.334h-88.34c-4.603 0-8.334 3.731-8.334 8.334v12.977c0 4.603 3.731 8.334 8.334 8.334h55.821c10.394-7.244 23.012-11.507 36.614-11.507z" fill="#e8b800"/><g><path d="m38.992 336.793v-12.977c0-4.603 3.731-8.334 8.334-8.334h-31.492c-4.603 0-8.334 3.731-8.334 8.334v12.977c0 4.603 3.731 8.334 8.334 8.334h31.492c-4.603 0-8.334-3.731-8.334-8.334z" fill="#d7aa02"/></g><g><path d="m104.174 315.482h-88.34c-4.603 0-8.334-3.731-8.334-8.334v-12.977c0-4.603 3.731-8.334 8.334-8.334h88.34c4.603 0 8.334 3.731 8.334 8.334v12.977c0 4.603-3.731 8.334-8.334 8.334z" fill="#fed402"/></g><path d="m112.508 247.858v-12.977c0-4.603-3.731-8.334-8.334-8.334h-88.34c-4.603 0-8.334 3.731-8.334 8.334v12.977c0 4.603 3.731 8.334 8.334 8.334-4.603 0-8.334 3.731-8.334 8.334v12.977c0 4.603 3.731 8.334 8.334 8.334h88.34c4.603 0 8.334-3.731 8.334-8.334v-12.977c0-4.603-3.731-8.334-8.334-8.334 4.603 0 8.334-3.732 8.334-8.334z" fill="#fed402"/><g><path d="m38.992 307.148v-12.977c0-4.603 3.731-8.334 8.334-8.334h-31.492c-4.603 0-8.334 3.731-8.334 8.334v12.977c0 4.603 3.731 8.334 8.334 8.334h31.492c-4.603 0-8.334-3.731-8.334-8.334z" fill="#fac600"/></g><g><path d="m38.992 366.438v-12.977c0-4.603 3.731-8.334 8.334-8.334h-31.492c-4.603 0-8.334 3.731-8.334 8.334v12.977c0 4.603 3.731 8.334 8.334 8.334h31.492c-4.603 0-8.334-3.731-8.334-8.334z" fill="#fac600"/></g><g><path d="m104.174 285.837h-88.34c-4.603 0-8.334-3.731-8.334-8.334v-12.977c0-4.603 3.731-8.334 8.334-8.334h88.34c4.603 0 8.334 3.731 8.334 8.334v12.977c0 4.602-3.731 8.334-8.334 8.334z" fill="#e8b800"/></g><g><path d="m38.992 277.503v-12.977c0-4.603 3.731-8.334 8.334-8.334h-31.492c-4.603 0-8.334 3.731-8.334 8.334v12.977c0 4.603 3.731 8.334 8.334 8.334h31.492c-4.603 0-8.334-3.732-8.334-8.334z" fill="#d7aa02"/></g><g><path d="m38.992 247.858v-12.977c0-4.603 3.731-8.334 8.334-8.334h-31.492c-4.603 0-8.334 3.731-8.334 8.334v12.977c0 4.603 3.731 8.334 8.334 8.334h31.492c-4.603 0-8.334-3.732-8.334-8.334z" fill="#fac600"/></g></g><g><g><circle cx="108.269" cy="397.827" fill="#fed402" r="64.207"/></g><g><path d="m75.587 397.827c0-29.966 20.637-55.198 48.444-62.243-5.046-1.278-10.325-1.964-15.762-1.964-35.404 0-64.207 28.803-64.207 64.207s28.803 64.207 64.207 64.207c5.437 0 10.717-.685 15.762-1.964-27.807-7.046-48.444-32.277-48.444-62.243z" fill="#fac600"/></g></g><g><g><g><path d="m349.047 364.213-37.316-37.316c-5.162 7.2-11.476 13.514-18.676 18.676l37.316 37.316z" fill="#a8d3d8"/></g><g><path d="m408.711 442.081c-8.045 8.045-21.089 8.045-29.134 0l-51.171-51.171c-2.063-2.063-2.063-5.407 0-7.47l21.664-21.664c2.063-2.063 5.407-2.063 7.47 0l51.171 51.171c8.045 8.046 8.045 21.089 0 29.134z" fill="#678d98"/></g><g><path d="m404.832 442.081-51.171-51.171c-2.063-2.063-2.063-5.407 0-7.47l12.771-12.771-8.893-8.893c-2.063-2.063-5.407-2.063-7.47 0l-21.664 21.664c-2.063 2.063-2.063 5.407 0 7.47l51.171 51.171c7.429 7.429 19.113 7.982 27.195 1.69-.669-.522-1.323-1.074-1.939-1.69z" fill="#537983"/></g><g><circle cx="246.243" cy="280.084" fill="#678d98" r="81.55"/></g><path d="m209.652 325.375c-13.205-10.69-21.669-27.017-21.669-45.291s8.464-34.601 21.669-45.291c11.869-17.723 30.49-30.543 52.195-34.75-5.052-.979-10.265-1.508-15.604-1.508-45.039 0-81.55 36.511-81.55 81.55s36.511 81.55 81.55 81.55c5.338 0 10.551-.529 15.604-1.508-21.705-4.209-40.326-17.029-52.195-34.752z" fill="#537983"/><g><circle cx="246.243" cy="280.084" fill="#dff6fd" r="58.261"/></g><g><path d="m214 280.084c0-27.652 19.371-50.85 45.252-56.778-4.186-.959-8.536-1.482-13.009-1.482-32.125 0-58.261 26.136-58.261 58.261s26.136 58.261 58.261 58.261c4.473 0 8.823-.524 13.009-1.482-25.881-5.929-45.252-29.127-45.252-56.78z" fill="#c8effe"/></g></g><g><g><circle cx="423.258" cy="277.458" fill="#fd5426" r="20.261"/></g><g><path d="m423.477 277.458c0-7.449 4.032-13.942 10.021-17.462-3.007-1.768-6.5-2.8-10.24-2.8-11.19 0-20.261 9.071-20.261 20.261s9.071 20.261 20.261 20.261c3.741 0 7.233-1.031 10.24-2.799-5.989-3.519-10.021-10.012-10.021-17.461z" fill="#ef4424"/></g><g><circle cx="334.996" cy="216.477" fill="#01d0fb" r="20.261"/></g><g><path d="m335.477 216.477c0-7.394 3.974-13.844 9.89-17.382-3.037-1.816-6.576-2.879-10.372-2.879-11.19 0-20.261 9.071-20.261 20.261s9.071 20.261 20.261 20.261c3.796 0 7.335-1.063 10.372-2.879-5.916-3.537-9.89-9.987-9.89-17.382z" fill="#01c0fa"/></g><g><circle cx="484.239" cy="216.477" fill="#01d0fb" r="20.261"/></g><g><path d="m484.477 216.477c0-7.445 4.028-13.934 10.011-17.456-3.01-1.771-6.505-2.805-10.25-2.805-11.19 0-20.261 9.071-20.261 20.261s9.071 20.261 20.261 20.261c3.745 0 7.24-1.034 10.25-2.805-5.983-3.521-10.011-10.011-10.011-17.456z" fill="#01c0fa"/></g></g><g><g><circle cx="246.243" cy="280.376" fill="#fed402" r="20.261"/></g></g><g><path d="m244 280.376c0-7.949 4.589-14.81 11.252-18.128-2.716-1.353-5.768-2.133-9.009-2.133-11.19 0-20.261 9.071-20.261 20.261s9.071 20.261 20.261 20.261c3.241 0 6.293-.78 9.009-2.133-6.663-3.318-11.252-10.179-11.252-18.128z" fill="#fac600"/></g></g><g><path d="m100.944 405.326h14.649c3.173 0 5.754 2.582 5.754 5.754s-2.581 5.754-5.754 5.754h-25.81c-4.143 0-7.5 3.358-7.5 7.5s3.357 7.5 7.5 7.5h10.985v6.103c0 4.142 3.357 7.5 7.5 7.5s7.5-3.358 7.5-7.5v-6.112c11.362-.095 20.579-9.361 20.579-20.746 0-11.444-9.311-20.754-20.754-20.754h-14.649c-3.173 0-5.754-2.581-5.754-5.754s2.581-5.754 5.754-5.754h25.812c4.143 0 7.5-3.358 7.5-7.5s-3.357-7.5-7.5-7.5h-10.987v-6.103c0-4.142-3.357-7.5-7.5-7.5s-7.5 3.358-7.5 7.5v6.112c-11.362.096-20.578 9.361-20.578 20.745-.001 11.445 9.31 20.755 20.753 20.755z"/><path d="m484.238 188.716c-15.308 0-27.761 12.454-27.761 27.761 0 5.767 1.769 11.129 4.791 15.572l-22.439 22.439c-4.444-3.022-9.805-4.792-15.572-4.792-7.906 0-15.046 3.328-20.107 8.649l-42.731-30.737c1.499-3.41 2.337-7.174 2.337-11.132 0-15.308-12.453-27.761-27.761-27.761-14.91 0-27.108 11.817-27.732 26.576-15.95-15.031-37.427-24.257-61.021-24.257-3.039 0-6.043.154-9.004.453l-15.304-11.26c4.003-3.909 6.5-9.354 6.5-15.378 0-5.352-1.977-10.242-5.223-14.01 3.246-3.768 5.223-8.658 5.223-14.01 0-10.165-7.096-18.685-16.588-20.919l26.324-50.027c1.931-3.668 1.805-7.978-.338-11.527-2.143-3.55-5.896-5.669-10.043-5.669h-22.609c-.359-.671-.773-1.318-1.266-1.919-2.237-2.733-5.546-4.301-9.078-4.301h-39.216c-3.533 0-6.843 1.568-9.08 4.303-.492.601-.906 1.247-1.264 1.917h-22.609c-4.146 0-7.9 2.119-10.043 5.667s-2.27 7.858-.34 11.527l26.325 50.029c-9.492 2.234-16.588 10.755-16.588 20.919 0 5.352 1.977 10.242 5.223 14.01-3.246 3.768-5.223 8.658-5.223 14.01 0 6.024 2.496 11.469 6.499 15.377l-52.763 38.819h-59.923c-8.73.002-15.834 7.105-15.834 15.836v12.977c0 3.06.887 5.91 2.396 8.334-1.509 2.424-2.396 5.274-2.396 8.334v12.977c0 3.06.887 5.91 2.396 8.334-1.509 2.424-2.396 5.274-2.396 8.334v12.977c0 3.06.887 5.91 2.396 8.334-1.509 2.424-2.396 5.274-2.396 8.334v12.977c0 3.06.887 5.91 2.396 8.334-1.509 2.424-2.396 5.274-2.396 8.334v12.977c0 3.06.887 5.91 2.396 8.334-1.509 2.424-2.396 5.274-2.396 8.334v12.977c0 3.06.887 5.91 2.396 8.334-1.509 2.424-2.396 5.274-2.396 8.334v12.977c0 8.731 7.104 15.834 15.834 15.834h35.668c13.124 16.995 33.682 27.971 56.766 27.971s43.643-10.976 56.767-27.971h34.965c4.143 0 7.5-3.358 7.5-7.5s-3.357-7.5-7.5-7.5h-26.054c3.867-8.804 6.029-18.52 6.029-28.735 0-35.54-25.996-65.109-59.968-70.729v-3.281c0-3.06-.887-5.91-2.396-8.334 1.509-2.424 2.396-5.274 2.396-8.334v-12.977c0-3.06-.887-5.91-2.396-8.334 1.509-2.424 2.396-5.274 2.396-8.334v-12.977c0-3.06-.887-5.91-2.396-8.334 1.509-2.424 2.396-5.274 2.396-8.334v-12.977c0-8.731-7.104-15.834-15.834-15.834h-3.105l44.427-32.687h59.463l12.733 9.368c-35.142 11.926-60.499 45.235-60.499 84.356 0 49.102 39.947 89.05 89.05 89.05 17.065 0 33.021-4.829 46.582-13.186l22.429 22.429c-1.422 10.17-5.633 19.854-12.373 27.966-10.674 12.849-26.377 20.218-43.081 20.218h-24.799c-4.143 0-7.5 3.358-7.5 7.5s3.357 7.5 7.5 7.5h24.8c21.178 0 41.086-9.343 54.619-25.632 4.488-5.401 8.064-11.363 10.734-17.665l49.121 49.12c5.308 5.308 12.364 8.231 19.87 8.231 7.507 0 14.563-2.923 19.871-8.231 10.956-10.956 10.956-28.783-.001-39.74l-10.955-10.955c-2.928-2.93-7.677-2.929-10.606 0s-2.929 7.678.001 10.606l10.954 10.955c5.108 5.108 5.108 13.419 0 18.527-2.474 2.475-5.764 3.837-9.264 3.837-3.499 0-6.789-1.363-9.264-3.837l-49.604-49.603 18.528-18.527 13.9 13.899c2.928 2.93 7.677 2.929 10.606 0s2.929-7.678-.001-10.606l-15.468-15.467c-2.414-2.415-5.624-3.745-9.038-3.745-1.646 0-3.242.316-4.727.907l-26.97-26.97c8.357-13.561 13.186-29.517 13.186-46.581 0-13.176-2.879-25.69-8.037-36.952 2.459.715 5.054 1.106 7.74 1.106 5.904 0 11.379-1.858 15.884-5.013l45.21 32.52c-.387 1.845-.594 3.755-.594 5.713 0 15.308 12.454 27.762 27.762 27.762s27.761-12.454 27.761-27.762c0-4.085-.894-7.963-2.485-11.459l24.246-24.246c3.496 1.591 7.374 2.486 11.459 2.486 15.308 0 27.762-12.454 27.762-27.761s-12.454-27.763-27.762-27.763zm-469.238 105.455c0-.46.374-.834.834-.834h88.34c.46 0 .834.374.834.834v12.977c0 .46-.374.834-.834.834h-88.34c-.46 0-.834-.374-.834-.834zm0 29.645c0-.46.374-.834.834-.834h88.34c.46 0 .834.374.834.834v2.387c-13.09.589-25.269 4.712-35.625 11.424h-53.549c-.46 0-.834-.374-.834-.834zm0 59.29c0-.46.374-.834.834-.834h22.448c-1.05 4.726-1.633 9.623-1.696 14.645h-20.752c-.46 0-.834-.374-.834-.834zm.834 43.456c-.46 0-.834-.374-.834-.834v-12.977c0-.46.374-.834.834-.834h22.126c1.02 5.098 2.59 9.997 4.631 14.645zm27.581-59.29h-27.581c-.46 0-.834-.374-.834-.834v-12.977c0-.46.374-.834.834-.834h36.82c-3.639 4.469-6.749 9.382-9.239 14.645zm121.561 30.555c0 31.268-25.438 56.707-56.707 56.707-31.268 0-56.706-25.438-56.706-56.707s25.438-56.707 56.706-56.707 56.707 25.439 56.707 56.707zm-59.968-162.946v12.977c0 .46-.374.834-.834.834h-18.174c-4.143 0-7.5 3.358-7.5 7.5s3.357 7.5 7.5 7.5h18.174c.46 0 .834.374.834.834v12.977c0 .46-.374.834-.834.834h-88.34c-.46 0-.834-.374-.834-.834v-12.977c0-.46.374-.834.834-.834h35.166c4.143 0 7.5-3.358 7.5-7.5s-3.357-7.5-7.5-7.5h-35.166c-.46 0-.834-.374-.834-.834v-12.977c0-.46.374-.834.834-.834h88.34c.46 0 .834.374.834.834zm99.88-171.194h17.487l-27.169 51.633h-.735zm-14.046-6.22-11.672 57.853h-7.884l-11.672-57.853zm-62.762 6.22h17.487l10.417 51.633h-.735zm15.451 66.633h63.394c3.59 0 6.51 2.92 6.51 6.51s-2.92 6.51-6.51 6.51h-63.394c-3.59 0-6.51-2.92-6.51-6.51s2.92-6.51 6.51-6.51zm0 28.02h63.394c3.59 0 6.51 2.92 6.51 6.51s-2.92 6.51-6.51 6.51h-63.394c-3.59 0-6.51-2.92-6.51-6.51s2.92-6.51 6.51-6.51zm28.662 121.744c0-40.831 33.219-74.05 74.05-74.05 21.402 0 40.701 9.137 54.233 23.702l-6.594 5.087c-11.989-12.613-28.905-20.5-47.639-20.5-36.261 0-65.761 29.5-65.761 65.761s29.5 65.761 65.761 65.761 65.761-29.5 65.761-65.761c0-12.142-3.321-23.518-9.083-33.29l6.619-5.106c6.821 11.203 10.753 24.348 10.753 38.396 0 40.831-33.219 74.05-74.05 74.05s-74.05-33.218-74.05-74.05zm86.812.292c0 7.037-5.725 12.761-12.762 12.761-7.036 0-12.761-5.725-12.761-12.761s5.725-12.761 12.761-12.761c7.037 0 12.762 5.724 12.762 12.761zm4.243-21.921c-4.702-3.656-10.601-5.841-17.005-5.841-15.308 0-27.761 12.454-27.761 27.761s12.453 27.761 27.761 27.761 27.762-12.454 27.762-27.761c0-3.476-.648-6.801-1.82-9.87l18.751-14.465c3.868 7.161 6.068 15.35 6.068 24.044 0 27.99-22.771 50.761-50.761 50.761s-50.761-22.771-50.761-50.761 22.771-50.761 50.761-50.761c13.905 0 26.519 5.624 35.696 14.712zm74.485 105.05-8.069 8.069-24.649-24.65c2.858-2.516 5.553-5.211 8.069-8.069zm-2.737-134.267c-7.037 0-12.762-5.725-12.762-12.761s5.725-12.761 12.762-12.761c7.036 0 12.761 5.725 12.761 12.761s-5.725 12.761-12.761 12.761zm88.262 60.982c-7.037 0-12.762-5.725-12.762-12.762s5.725-12.761 12.762-12.761c7.036 0 12.761 5.725 12.761 12.761s-5.725 12.762-12.761 12.762zm60.98-60.982c-7.036 0-12.761-5.725-12.761-12.761s5.725-12.761 12.761-12.761c7.037 0 12.762 5.725 12.762 12.761s-5.725 12.761-12.762 12.761z"/></g></g></svg>