<?xml version="1.0" encoding="iso-8859-1"?>
<!-- Generator: Adobe Illustrator 19.0.0, SVG Export Plug-In . SVG Version: 6.00 Build 0)  -->
<svg xmlns="http://www.w3.org/2000/svg" xmlns:xlink="http://www.w3.org/1999/xlink" version="1.1" id="Layer_1" x="0px" y="0px" viewBox="0 0 512.188 512.188" style="enable-background:new 0 0 512.188 512.188;" xml:space="preserve" width="512" height="512">
<g>
	<g>
		<g>
			<path style="fill:#54A0FF;" d="M180.213,330.614c-74.045-74.045-74.045-194.524-0.001-268.569     c74.046-74.046,194.525-74.046,268.57-0.001c74.045,74.045,74.045,194.524-0.001,268.57     C374.737,404.658,254.257,404.658,180.213,330.614z"/>
		</g>
		<path style="fill:#338DEF;" d="M200.199,330.614c-74.045-74.045-74.045-194.524,0-268.569    c34.486-34.486,79.044-52.902,124.292-55.265c-51.905-2.711-104.718,15.705-144.278,55.265    c-74.045,74.045-74.045,194.524,0,268.569c39.559,39.559,92.372,57.975,144.277,55.264    C279.242,383.515,234.684,365.099,200.199,330.614z"/>
		<path style="fill:#ACD6FC;" d="M314.497,353.031c-86.427,0-156.491-70.064-156.491-156.491S228.07,40.049,314.497,40.049    c86.428,0,156.491,70.063,156.491,156.491S400.925,353.031,314.497,353.031z"/>
		<path style="fill:#8AC2FF;" d="M177.993,196.54c0-83.069,64.729-151.009,146.498-156.164c-3.305-0.208-6.635-0.327-9.993-0.327    c-86.427,0-156.491,70.063-156.491,156.491c0,89.934,75.793,161.881,166.484,156.164    C242.721,347.549,177.993,279.609,177.993,196.54z"/>
		<path style="fill:#FF6B6B;" d="M29.218,498.198l-16.064-16.064c-8.406-8.406-8.406-22.163,0-30.569l110.248-110.248    c4.667-4.667,12.304-4.667,16.971,0l28.792,28.792c4.667,4.667,4.667,12.304,0,16.971L58.046,498.198    C50.118,506.126,37.146,506.126,29.218,498.198z"/>
		<path style="fill:#EE5253;" d="M25.037,467.94l114.735-114.735c2.468-2.468,5.766-3.616,9.017-3.472l-8.422-8.422    c-4.664-4.664-12.295-4.664-16.959,0L13.143,451.576c-8.401,8.401-8.401,22.147,0,30.548l6.233,6.233    C17.654,481.262,19.525,473.452,25.037,467.94z"/>
		
			<rect x="77.465" y="385.634" transform="matrix(0.7071 0.7071 -0.7071 0.7071 315.4747 39.6929)" style="fill:#EE5253;" width="64.718" height="30.048"/>
		
			<rect x="78.983" y="374.851" transform="matrix(-0.7071 0.7071 -0.7071 -0.7071 432.6027 590.4943)" style="fill:#D83941;" width="30.047" height="19.982"/>
		<path style="fill:#576574;" d="M254.612,341.746V178.024h-49.84c-4.457,0-8.07,3.613-8.07,8.07v114.142    C212.433,318.186,232.216,332.484,254.612,341.746z"/>
		<path style="fill:#15BA8B;" d="M312.522,353.539V121.151h-28.955c0,0-12.32,0-20.888,0c-4.458,0-8.068,3.613-8.068,8.07v212.525    C272.488,349.139,292.028,353.31,312.522,353.539z"/>
		<path style="fill:#FECA57;" d="M370.433,343.17V128.413V64.277h-28.955h-20.885c-4.457,0-8.07,3.613-8.07,8.071v56.066v0v225.126    C332.77,353.761,352.139,350.213,370.433,343.17z"/>
		<path style="fill:#EE5253;" d="M428.343,304.159V15.254c0-4.335-3.514-7.85-7.85-7.85h-21.106c0,0-12.32,0-20.887,0    c-4.457,0-8.068,3.613-8.068,8.071V343.17C392.618,334.63,412.369,321.192,428.343,304.159z"/>
		<path style="fill:#3E4B5A;" d="M216.701,185.095c0-3.046,1.689-5.697,4.181-7.07h-16.111c-4.457,0-8.07,3.613-8.07,8.07v114.142    c6.086,6.944,12.785,13.334,20,19.105V185.095z"/>
		<path style="fill:#11AA7B;" d="M274.612,127.221c0-2.423,1.072-4.591,2.762-6.071c-4.292,0-10.044,0-14.695,0    c-4.458,0-8.068,3.613-8.068,8.071v212.525c6.46,2.672,13.139,4.915,20,6.711V127.221z"/>
		<path style="fill:#F4B537;" d="M332.522,128.414L332.522,128.414V70.348c0-2.423,1.073-4.591,2.764-6.071h-14.694    c-4.457,0-8.07,3.613-8.07,8.071v56.066v0v225.126c6.715,0.075,12.894-0.194,20-1.022V128.414z"/>
		<path style="fill:#D83941;" d="M390.433,13.474c0-2.423,1.073-4.591,2.763-6.071c-4.291,0-10.044,0-14.695,0    c-4.457,0-8.068,3.613-8.068,8.07v327.696c6.917-2.663,13.597-5.802,20-9.378V13.474z"/>
	</g>
	<g>
		<path d="M436.498,41.915v-26.51c0-8.464-6.886-15.35-15.35-15.35h-41.993c-5.321,0-10.022,2.687-12.831,6.772    c-68.227-18.343-140.748,0.824-190.826,50.902c-75.156,75.156-76.939,196.108-5.26,273.418l-14.948,14.554l-8.974-8.974    c-7.602-7.602-19.976-7.602-27.578,0C93.094,362.371,31.496,423.969,8.624,446.841c-11.352,11.352-11.352,29.823,0,41.175    l16.018,16.018c10.873,10.872,28.562,10.872,39.436,0c2.366-2.366,100.832-100.832,110.983-110.983    c7.602-7.604,7.601-19.975,0-27.577l-9.163-9.163l14.943-14.549c32.918,30.529,75.378,48.953,120.384,52.067    c0.176,0.012,0.351,0.019,0.525,0.019c3.906,0,7.2-3.027,7.475-6.983c0.285-4.132-2.832-7.714-6.965-8    c-93.598-6.476-169.435-83.903-169.435-181.683c0-120.658,114.74-207.555,230.764-175.556V40.91    c-105.592-32.838-212.47,46.64-212.47,156.482c0,90.053,73.083,163.832,163.833,163.832c77.195,0,117.943-50.99,119.507-51.772    c0,0,0.024-0.026,0.021-0.024c0.057-0.061,0.114-0.123,0.169-0.187c28.464-30.447,44.134-70.157,44.134-111.849    c0-40.78-14.993-79.665-42.284-109.838V61.433c38.265,34.245,60.579,82.841,60.579,135.748c0,93.077-69.44,170.404-161.19,180.922    c-4.115,0.472-7.068,4.19-6.597,8.306c0.472,4.115,4.186,7.07,8.306,6.597c99.261-11.38,174.48-95.03,174.481-195.824    C512.077,135.617,484.142,79.252,436.498,41.915z M53.47,493.427c-5.023,5.023-13.197,5.023-18.221,0l-16.018-16.018    c-5.504-5.504-5.504-14.458,0-19.962l57.782-57.782l35.109,35.109L53.47,493.427z M122.729,424.168l-35.109-35.109l10.619-10.619    l35.109,35.109L122.729,424.168z M164.453,382.444l-20.498,20.498l-35.109-35.109l20.499-20.499c1.739-1.74,4.625-1.739,6.363,0    l28.746,28.746C166.193,377.821,166.193,380.704,164.453,382.444z M247.767,330.173c-16.236-8.249-30.769-19.384-42.911-32.733    V186.246c0-0.315,0.256-0.571,0.57-0.571h42.341V330.173z M305.677,345.917c-14.7-0.9-29.056-3.946-42.91-9.144    c0-1.675,0-204.691,0-207.401c0-0.314,0.255-0.57,0.567-0.57h42.343V345.917z M363.588,338.078    c-14.14,4.894-28.697,7.519-42.911,8.035V72.499l0,0c0-0.314,0.256-0.57,0.57-0.57h42.341V338.078z M363.588,56.928h-42.341    c-8.586,0-15.57,6.985-15.57,15.57v41.303h-42.343c-8.584,0-15.567,6.985-15.567,15.57v41.303h-42.341    c-8.586,0-15.57,6.985-15.57,15.571v91.697C126.163,179.372,197.342,48.56,314.951,48.56c16.689,0,33.024,2.745,48.637,8.147    V56.928z M463.782,197.392c0,31.059-9.579,60.905-27.284,85.895v-69.052c0-4.142-3.357-7.5-7.5-7.5s-7.5,3.358-7.5,7.5v87.049    c-12.416,12.744-27.107,23.159-42.91,30.662c0-17.074,0-302.022,0-315.943v-0.377c0-0.314,0.255-0.57,0.567-0.57h41.993    c0.192,0,0.35,0.157,0.35,0.35c0,11.517,0,157.461,0,163.83c0,4.142,3.357,7.5,7.5,7.5s7.5-3.358,7.5-7.5v-67.738    C454.203,136.487,463.782,166.333,463.782,197.392z"/>
	</g>
</g>















</svg>
