<svg id="Capa_1" enable-background="new 0 0 512 512" height="512" viewBox="0 0 512 512" width="512" xmlns="http://www.w3.org/2000/svg"><g><g><g><path d="m498.688 100.689h-453.306l-5.812 1.002v347.725c0 8.284 6.716 15 15 15h434.93c8.284 0 15-6.716 15-15v-347.725z" fill="#fdf6ec"/></g><g fill="#fef1da"><path d="m92 214.564v-112.873l5.812-1.002h-52.43l-5.812 1.002v112.873z"/><path d="m92 449.417v-188.76h-7.422c-.772 10.64-9.628 19.038-20.465 19.038s-19.693-8.398-20.465-19.038h-4.078v188.76c0 8.284 6.716 15 15 15h52.43c-8.284 0-15-6.716-15-15z"/></g><g><path d="m504.5 101.691h-464.93v-44.103c0-5.525 4.479-10.005 10.005-10.005h444.92c5.525 0 10.005 4.479 10.005 10.005z" fill="#01d0fb"/></g><g><path d="m102.005 47.583h-52.43c-5.525 0-10.005 4.479-10.005 10.005v44.103h52.43v-44.103c0-5.525 4.479-10.005 10.005-10.005z" fill="#01c0fa"/></g></g><g><g><g><g><path d="m156.605 301.74v12.426c0 12.505 10.137 22.642 22.642 22.642 12.505 0 22.642-10.137 22.642-22.642v-12.426z" fill="#a8d3d8"/></g></g><g><path d="m178 314.167v-12.427h-21.395v12.426c0 12.505 10.137 22.642 22.642 22.642 3.87 0 7.512-.973 10.698-2.684-7.11-3.818-11.945-11.322-11.945-19.957z" fill="#8ebac5"/></g><g><path d="m143.772 270.471v27.26c0 2.767 2.243 5.01 5.01 5.01h70.14c8.301 0 15.03-6.729 15.03-15.03v-17.24z" fill="#7ca1b1"/></g><g><path d="m177 297.73v-27.26h-33.228v27.26c0 2.767 2.243 5.01 5.01 5.01h33.228c-2.767 0-5.01-2.243-5.01-5.01z" fill="#678d98"/></g><path d="m12.51 214.564c-2.767 0-5.01 2.243-5.01 5.01v36.072c0 2.767 2.243 5.01 5.01 5.01h31.138c-.036-.498-.076-.996-.076-1.503 0-11.345 9.197-20.541 20.541-20.541s20.541 9.197 20.541 20.541c0 .507-.04 1.005-.076 1.503h27.128v-46.092z" fill="#7ca1b1"/><g><path d="m32.793 255.646v-36.072c0-2.767 2.243-5.01 5.01-5.01h-25.293c-2.767 0-5.01 2.243-5.01 5.01v36.072c0 2.767 2.243 5.01 5.01 5.01h25.293c-2.766 0-5.01-2.243-5.01-5.01z" fill="#678d98"/></g><g><path d="m285.053 203.749h-164.327c-5.534 0-10.02 4.486-10.02 10.02v47.682c0 5.534 4.486 10.02 10.02 10.02h164.326v-67.722z" fill="#a8d3d8"/></g><g><path d="m285.053 244.722h-133.033c-5.534 0-10.02-4.486-10.02-10.02v-30.952h-21.274c-5.534 0-10.02 4.486-10.02 10.02v47.682c0 5.534 4.486 10.02 10.02 10.02h164.326v-26.75z" fill="#8ebac5"/></g><g><path d="m360.205 282.7h-71.142c-2.767 0-5.01-2.243-5.01-5.01v-80.16c0-2.767 2.243-5.01 5.01-5.01h71.142c2.767 0 5.01 2.243 5.01 5.01v80.16c0 2.767-2.243 5.01-5.01 5.01z" fill="#7ca1b1"/></g><g><path d="m360.205 282.7h-71.142c-2.767 0-5.01-2.243-5.01-5.01v-28.056h81.162v28.056c0 2.767-2.243 5.01-5.01 5.01z" fill="#537983"/></g><g><circle cx="64.113" cy="259.153" fill="#a8d3d8" r="20.541"/></g><g><path d="m60 259.153c0-8.422 5.074-15.651 12.327-18.822-2.517-1.1-5.292-1.719-8.214-1.719-11.345 0-20.541 9.197-20.541 20.541s9.197 20.541 20.541 20.541c2.922 0 5.697-.619 8.214-1.719-7.253-3.171-12.327-10.4-12.327-18.822z" fill="#8ebac5"/></g></g><g><g><circle cx="86.5" cy="151.5" fill="#fd5426" r="14.5"/></g><g><circle cx="187.5" cy="151.5" fill="#fed402" r="14.5"/></g><g><circle cx="350.715" cy="151.5" fill="#05e39c" r="14.5"/></g></g><g><g><path d="m293.969 425.389h-26.17v-52.687c0-1.657 1.343-3 3-3h20.17c1.657 0 3 1.343 3 3z" fill="#fed402"/></g><g><path d="m344.371 425.389h-26.171v-108.374c0-1.657 1.343-3 3-3h20.17c1.657 0 3 1.343 3 3v108.374z" fill="#05e39c"/></g><g><path d="m394.773 425.389h-26.17v-41.55c0-1.657 1.343-3 3-3h20.17c1.657 0 3 1.343 3 3z" fill="#fd5426"/></g><g><path d="m445.175 425.389h-26.17v-86.1c0-1.657 1.343-3 3-3h20.17c1.657 0 3 1.343 3 3z" fill="#01d0fb"/></g></g></g><g><path d="m504.5 339.5c4.142 0 7.5-3.358 7.5-7.5v-274.412c0-9.652-7.853-17.505-17.505-17.505h-93.495c-4.142 0-7.5 3.358-7.5 7.5s3.358 7.5 7.5 7.5h93.495c1.381 0 2.505 1.124 2.505 2.505v36.604h-449.93v-36.604c0-1.381 1.124-2.505 2.505-2.505h316.425c4.142 0 7.5-3.358 7.5-7.5s-3.358-7.5-7.5-7.5h-316.425c-9.652 0-17.505 7.853-17.505 17.505v149.476h-19.56c-6.898 0-12.51 5.612-12.51 12.51v36.072c0 6.898 5.612 12.51 12.51 12.51h19.56v181.261c0 12.407 10.093 22.5 22.5 22.5h434.93c12.407 0 22.5-10.093 22.5-22.5v-82.417c0-4.142-3.358-7.5-7.5-7.5s-7.5 3.358-7.5 7.5v82.417c0 4.136-3.364 7.5-7.5 7.5h-261.368l-24.011-125.751c3.32-4.843 5.268-10.697 5.268-17v-3.926h9.534c12.423 0 22.53-10.107 22.53-22.53v-8.74h35.165c.643 6.299 5.979 11.229 12.445 11.229h71.142c6.898 0 12.51-5.612 12.51-12.51v-80.159c0-6.898-5.612-12.51-12.51-12.51h-71.142c-6.466 0-11.802 4.93-12.445 11.229h-73.618c-4.142 0-7.5 3.358-7.5 7.5s3.358 7.5 7.5 7.5h73.553v52.722h-155.826c-1.39 0-2.52-1.13-2.52-2.52v-47.681c0-1.39 1.13-2.521 2.52-2.521h47.273c4.142 0 7.5-3.358 7.5-7.5s-3.358-7.5-7.5-7.5h-47.273c-7.286 0-13.542 4.473-16.18 10.815h-57.477v-97.873h449.93v222.809c0 4.142 3.358 7.5 7.5 7.5zm-212.947-139.48h66.163v42.114h-66.163zm0 57.114h66.163v18.066h-66.163zm-86.872 156.942 8.18 42.841h-68.038l8.18-42.841zm-37.843-72.451c3.787 1.718 7.986 2.684 12.409 2.684 4.133 0 8.075-.838 11.664-2.35l10.906 57.117h-45.949zm-2.733-27.458v-3.926h30.284v3.926c0 8.35-6.792 15.142-15.142 15.142s-15.142-6.793-15.142-15.142zm-12.833-35.196h75.18v8.74c0 4.152-3.378 7.53-7.53 7.53h-67.65zm-30.545 0h15.546v18.76c0 6.898 5.612 12.51 12.51 12.51h.323v3.926c0 5.893 1.706 11.393 4.642 16.042l-24.194 126.708h-74.984c-4.136 0-7.5-3.364-7.5-7.5v-168.038c4.727 3.637 10.63 5.815 17.043 5.815 12.313 0 22.79-7.981 26.55-19.038h13.883c2.638 6.342 8.895 10.815 16.181 10.815zm-69.655-19.818c0-7.191 5.85-13.041 13.041-13.041s13.041 5.85 13.041 13.041-5.85 13.041-13.041 13.041-13.041-5.85-13.041-13.041zm52.135-37.089v31.092h-11.705c-2.755-12.589-13.985-22.044-27.389-22.044s-24.634 9.455-27.389 22.044h-21.724v-31.092z"/><path d="m75.49 66.901c-4.142 0-7.5 3.358-7.5 7.5s3.358 7.5 7.5 7.5h43.02c4.142 0 7.5-3.358 7.5-7.5s-3.358-7.5-7.5-7.5z"/><path d="m468.58 74.401c0-4.144-3.359-7.504-7.504-7.504-4.144 0-7.504 3.359-7.504 7.504 0 4.144 3.359 7.503 7.504 7.503 4.145.001 7.504-3.359 7.504-7.503z"/><path d="m447.57 74.401c0-4.144-3.359-7.504-7.504-7.504s-7.504 3.359-7.504 7.504c0 4.144 3.359 7.503 7.504 7.503s7.504-3.359 7.504-7.503z"/><path d="m426.56 74.401c0-4.144-3.359-7.504-7.504-7.504s-7.504 3.359-7.504 7.504c0 4.144 3.359 7.503 7.504 7.503s7.504-3.359 7.504-7.503z"/><path d="m329.864 144.5h-121.512c-2.931-8.708-11.168-15-20.852-15s-17.92 6.292-20.852 15h-59.297c-2.931-8.708-11.168-15-20.852-15-12.131 0-22 9.869-22 22s9.869 22 22 22c9.309 0 17.28-5.814 20.488-14h60.025c3.208 8.186 11.179 14 20.488 14s17.28-5.814 20.488-14h122.24c3.208 8.186 11.179 14 20.488 14 12.131 0 22-9.869 22-22s-9.869-22-22-22c-9.684 0-17.921 6.292-20.852 15zm-243.364 14c-3.86 0-7-3.14-7-7s3.14-7 7-7 7 3.14 7 7-3.14 7-7 7zm101 0c-3.86 0-7-3.14-7-7s3.14-7 7-7 7 3.14 7 7-3.14 7-7 7zm170.215-7c0 3.86-3.14 7-7 7s-7-3.14-7-7 3.14-7 7-7 7 3.14 7 7z"/><path d="m290.969 362.202h-20.17c-5.79 0-10.5 4.71-10.5 10.5v45.187h-10.432c-4.142 0-7.5 3.358-7.5 7.5s3.358 7.5 7.5 7.5h213.24c4.142 0 7.5-3.358 7.5-7.5s-3.358-7.5-7.5-7.5h-10.432v-78.6c0-5.79-4.71-10.5-10.5-10.5h-20.17c-5.79 0-10.5 4.71-10.5 10.5v78.6h-9.232v-34.05c0-5.79-4.71-10.5-10.5-10.5h-20.17c-5.79 0-10.5 4.71-10.5 10.5v34.05h-9.232v-100.874c0-5.79-4.71-10.5-10.5-10.5h-20.171c-5.79 0-10.5 4.71-10.5 10.5v100.875h-9.231v-45.187c0-5.79-4.711-10.501-10.5-10.501zm-4.5 55.687h-11.17v-40.687h11.17zm140.035-74.099h11.17v74.1h-11.17zm-50.401 44.549h11.17v29.55h-11.17zm-50.403-66.824h11.17v96.375h-11.17z"/><path d="m463.106 163.147h-61.029c-4.142 0-7.5 3.358-7.5 7.5s3.358 7.5 7.5 7.5h61.029c4.142 0 7.5-3.358 7.5-7.5s-3.357-7.5-7.5-7.5z"/><path d="m463.106 191.161h-61.029c-4.142 0-7.5 3.358-7.5 7.5s3.358 7.5 7.5 7.5h61.029c4.142 0 7.5-3.358 7.5-7.5s-3.357-7.5-7.5-7.5z"/><path d="m463.106 219.174h-61.029c-4.142 0-7.5 3.358-7.5 7.5s3.358 7.5 7.5 7.5h61.029c4.142 0 7.5-3.358 7.5-7.5s-3.357-7.5-7.5-7.5z"/><path d="m463.106 247.187h-61.029c-4.142 0-7.5 3.358-7.5 7.5s3.358 7.5 7.5 7.5h61.029c4.142 0 7.5-3.358 7.5-7.5s-3.357-7.5-7.5-7.5z"/><path d="m463.106 275.2h-61.029c-4.142 0-7.5 3.358-7.5 7.5s3.358 7.5 7.5 7.5h61.029c4.142 0 7.5-3.358 7.5-7.5s-3.357-7.5-7.5-7.5z"/></g></g></svg>