<svg id="Capa_1" enable-background="new 0 0 512.001 512.001" height="512" viewBox="0 0 512.001 512.001" width="512" xmlns="http://www.w3.org/2000/svg"><g><g><path d="m403.23 343.189c-3.52 6.1-9.92 9.5-16.49 9.51-3.22 0-6.49-.83-9.48-2.54l-8.42-4.88c9.06 5.26 12.18 16.88 6.93 25.96-3.52 6.09-9.91 9.5-16.48 9.5-3.22 0-6.49-.82-9.48-2.55l-18.57-10.71c9 5.22 12.07 16.72 6.87 25.73l-.15.26c-5.21 9.02-16.74 12.11-25.76 6.91l-15.95-9.23c8.68 5.05 11.65 16.19 6.62 24.91l-.76 1.32c-5.04 8.73-16.2 11.71-24.92 6.68l-172.45-99.56c-11.74-6.78-21.51-16.52-28.35-28.24l-12.22-20.93 24.163-60.571 40.717-51.819 55.32 31.94 35.56-18.74c8.09-4.26 17.79-4.13 25.76.3l17.56 10.15 10.94 6.32 6.38 3.68c2.62 1.5 5.11 3.2 7.47 5.08l41.44 33.13c5.24 4.18 7.89 10.8 7.01 17.45-.35 2.59-1.19 4.96-2.39 7.04-5.04 8.73-16.58 12.46-26.1 6.97l88.27 50.96c3.07 1.77 5.48 4.28 7.07 7.18 3.17 5.65 3.37 12.77-.11 18.79z" fill="#ffcebf"/><path d="m349.81 378.189-17.69-10.21.37.21z" fill="#ffb09e"/><path d="m274.19 192.909-67.2 69.25-6.432 4.235c-3.242 2.135-6.929 3.502-10.78 3.996-14.872 1.91-28.604-8.245-31.134-23.024-1.744-10.19 2.275-20.511 10.451-26.839l52.737-39.985c2.057-1.56.644-4.831-1.901-4.404 8.09-4.26 17.79-4.13 25.76.3l17.56 10.15z" fill="#ffb09e"/><path d="m382.947 160.571 41.386 54.187 23.499 58.197-12.22 20.934c-6.845 11.723-16.611 21.449-28.358 28.243l-3.914 2.26c-.246-.447-.515-.892-.809-1.322-1.551-2.326-3.666-4.35-6.265-5.851l-135.081-77.988-7.24-4.18-49.944 28.835c-9.509 5.49-21.058 1.766-26.098-6.964-1.2-2.078-2.042-4.456-2.391-7.061-.878-6.641 1.78-13.256 7.005-17.427l41.455-33.137c2.3-1.836 4.735-3.519 7.298-4.999l34.667-20.015c8.045-4.645 17.908-4.843 26.134-.516l35.573 18.734z" fill="#ffcebf"/><path d="m292.07 173.769 35.57 18.73-11.54 6.67c-3.6 2.07-8.01 2.16-11.68.22l-29.67-15.62c-8.21-4.32-18.03-4.13-26.06.47l17.25-9.96c8.04-4.64 17.91-4.84 26.13-.51z" fill="#ffb09e"/><path d="m447.83 272.959-12.22 20.93c-6.84 11.72-16.61 21.45-28.36 28.24l-3.91 2.26c-.25-.44-.51-.89-.81-1.32 6.22-5.49 11.55-11.96 15.76-19.18l6.82-11.68c3.34-5.72 3.36-12.8.04-18.53l-59.52-103.11 17.32-10 41.383 54.189z" fill="#ffb09e"/><path d="m152.895 335.881-13.145 22.768c-3.665 6.348-11.779 8.522-18.127 4.857l-9.942-5.74c-.823-.475-1.569-1.022-2.245-1.631-4.566-4.091-5.807-10.962-2.612-16.496l13.145-22.768c2.625-4.547 6.845-7.595 11.544-8.854 1.967-.527 4.01-.745 6.058-.613 2.862.163 5.716.979 8.366 2.509 9.093 5.25 12.208 16.875 6.958 25.968z" fill="#ffcebf"/><path d="m152.9 335.879-13.15 22.77c-3.66 6.35-11.78 8.52-18.13 4.86l-9.94-5.74c-.82-.48-1.57-1.02-2.24-1.63 5.82 1.91 12.39-.46 15.59-5.99l13.14-22.77c3.72-6.44 3.24-14.17-.6-19.97 2.86.16 5.72.97 8.37 2.5 9.09 5.25 12.21 16.88 6.96 25.97z" fill="#ffb09e"/><path d="m185.813 354.886-13.145 22.768c-3.665 6.348-11.779 8.522-18.127 4.857l-9.933-5.735c-.823-.475-1.578-1.027-2.254-1.636-4.561-4.1-5.793-10.966-2.603-16.491l13.145-22.768c2.625-4.547 6.845-7.595 11.544-8.854 1.967-.527 4.01-.745 6.053-.604 2.867.154 5.721.971 8.371 2.501 9.084 5.244 12.199 16.869 6.949 25.962z" fill="#ffcebf"/><path d="m185.81 354.889-13.14 22.77c-3.67 6.34-11.78 8.52-18.13 4.85l-9.93-5.73c-.83-.48-1.58-1.03-2.26-1.64 5.84 1.91 12.41-.46 15.6-5.98l13.14-22.77c3.72-6.45 3.24-14.16-.6-19.97 2.87.16 5.72.97 8.37 2.5 9.09 5.25 12.2 16.87 6.95 25.97z" fill="#ffb09e"/><path d="m216.144 378.391-8.955 15.511c-3.495 6.053-11.227 8.125-17.28 4.63l-11.016-6.36c-.632-.365-1.226-.777-1.758-1.234-4.656-3.855-6.002-10.624-2.872-16.046l8.955-15.511c2.625-4.547 6.845-7.595 11.544-8.854 1.967-.527 4.01-.745 6.058-.613 2.862.163 5.716.979 8.366 2.509 9.093 5.25 12.208 16.875 6.958 25.968z" fill="#ffcebf"/><path d="m216.14 378.389-8.95 15.51c-3.5 6.06-11.23 8.13-17.28 4.63l-11.02-6.36c-.63-.36-1.22-.77-1.76-1.23 5.68 2.11 12.21-.12 15.34-5.54l8.95-15.51c3.72-6.44 3.24-14.17-.6-19.98 2.86.17 5.72.98 8.37 2.51 9.09 5.25 12.2 16.88 6.95 25.97z" fill="#ffb09e"/><path d="m243.362 407.269-1.95 3.377c-3.095 5.361-9.944 7.203-15.304 4.108l-13.51-7.8c-.199-.115-.402-.244-.596-.367-4.895-3.242-6.487-9.784-3.507-14.946l1.95-3.377c2.625-4.547 6.845-7.595 11.544-8.855 1.967-.527 4.01-.745 6.058-.613 2.862.163 5.716.979 8.366 2.509 9.084 5.246 12.199 16.871 6.949 25.964z" fill="#ffcebf"/><path d="m243.36 407.269-1.95 3.38c-3.09 5.36-9.94 7.2-15.3 4.11l-13.51-7.8c-.2-.12-.4-.25-.6-.37 5.26 2.62 11.71.72 14.69-4.44l1.95-3.38c3.72-6.44 3.24-14.16-.59-19.97 2.86.16 5.71.98 8.36 2.51 9.09 5.24 12.2 16.87 6.95 25.96z" fill="#ffb09e"/><path d="m359.05 295.729-75.39-43.521c-9.806-5.661-21.847-5.826-31.804-.436l-35.816 19.387c-3.52 1.9-8.51 3.03-13.93 3.49-13.84 1.16-27.46-4.05-37.24-13.92l14.84-1.22c5.65 6.82 15.78 9.29 24.29 4.38l49.94-28.84c11.93-6.2 26.4-4.66 36.74 3.93z" fill="#ffb09e"/><path d="m-19.161 188.933h186.53v46.12h-186.53z" fill="#8795de" transform="matrix(.5 -.866 .866 .5 -146.539 170.172)"/><path d="m140.707 142.753-93.265 161.54-26.022-15.024c3.34 1.93 7.61.79 9.54-2.56l86.28-149.44c1.91-3.31.81-7.53-2.46-9.49z" fill="#6c7fd8"/><path d="m414.835 116.359h46.12v186.53h-46.12z" fill="#fedf30" transform="matrix(.866 -.5 .5 .866 -46.145 247.032)"/><path d="m478.53 293.859c3.3-1.94 4.42-6.19 2.51-9.51l-86.28-149.45c-1.93-3.34-6.21-4.48-9.55-2.55l26.024-15.025 93.265 161.54z" fill="#fed402"/><path d="m403.23 343.189c-3.52 6.1-9.92 9.5-16.49 9.51-3.22 0-6.49-.83-9.48-2.54l-8.42-4.88c9.06 5.26 12.18 16.88 6.93 25.96-3.52 6.09-9.91 9.5-16.48 9.5-3.22 0-6.49-.82-9.48-2.55l-18.57-10.71c9 5.22 12.07 16.72 6.87 25.73l-.15.26c-5.21 9.02-16.74 12.11-25.76 6.91l-15.95-9.23c8.68 5.05 11.65 16.19 6.62 24.91l-.76 1.32c-5.04 8.73-16.2 11.71-24.92 6.68l-17.32-10c8.72 5.03 19.88 2.05 24.92-6.68l.76-1.32c5.03-8.72 2.06-19.86-6.62-24.91l15.95 9.23c9.02 5.2 20.55 2.11 25.76-6.91l.15-.26c5.2-9.01 2.13-20.51-6.87-25.73l18.57 10.71c2.99 1.73 6.26 2.55 9.48 2.55 6.57 0 12.96-3.41 16.48-9.5 5.25-9.08 2.13-20.7-6.93-25.96l8.42 4.88c2.99 1.71 6.26 2.54 9.48 2.54 6.57-.01 12.97-3.41 16.49-9.51 3.48-6.02 3.28-13.14.11-18.79-1.59-2.89-3.99-5.4-7.05-7.17l17.3 9.99c3.07 1.77 5.48 4.28 7.07 7.18 3.17 5.65 3.37 12.77-.11 18.79z" fill="#ffb09e"/></g><g><path d="m510.995 275.107-17.217-29.82c-2.07-3.588-6.66-4.814-10.245-2.745-3.587 2.071-4.816 6.658-2.745 10.245l13.467 23.325-26.955 15.562-85.765-148.548 26.955-15.563 54.018 93.561c2.071 3.588 6.66 4.815 10.245 2.745 3.587-2.071 4.816-6.658 2.745-10.245l-57.768-100.056c-2.072-3.587-6.66-4.815-10.245-2.745l-39.945 23.063c-1.723.994-2.979 2.633-3.494 4.554-.515 1.922-.246 3.969.749 5.691l7.908 13.696-45.229 26.11-31.908-16.802c-10.558-5.562-23.033-5.317-33.377.65l-8.24 4.759c-11.613-7.174-24.938-9.647-37.514-3.039l-31.907 16.811-45.228-26.118 7.907-13.695c.995-1.723 1.264-3.77.749-5.691s-1.771-3.56-3.494-4.554l-39.945-23.063c-3.59-2.07-8.175-.843-10.245 2.745l-93.267 161.539c-.994 1.723-1.265 3.77-.749 5.691.515 1.921 1.771 3.56 3.494 4.554l39.945 23.063c1.182.682 2.471 1.006 3.743 1.006 2.592 0 5.113-1.345 6.502-3.751l10.265-17.779c9.97 17.084 20.654 31.774 38.412 41.668-6.913 10.794-7.042 25.195 5.318 32.33l9.938 5.737c3.2 1.848 6.752 2.792 10.352 2.792 1.181 0 2.367-.112 3.547-.317 1.62 4.397 4.721 8.275 9.086 10.796l9.938 5.737c3.263 1.884 6.828 2.778 10.35 2.778 2.163 0 4.307-.344 6.355-.998 1.752 3.26 4.359 5.989 7.644 7.885l11.013 6.358c3.165 1.827 6.624 2.695 10.041 2.695 2.022 0 4.026-.313 5.947-.903 1.581 2.661 3.835 4.969 6.701 6.624l13.51 7.8c2.938 1.696 6.149 2.502 9.321 2.502 6.085 0 12.019-2.969 15.584-8.308l26.177 15.113c16.864 9.736 37.914-2.857 39.319-21.681 16.279 5.857 34.06-6.023 35.305-23.137 17.868 8.406 38.908-5.825 37.718-25.547 26.997 1.018 37.512-36.024 14.24-49.459l-118.084-68.176h29.65c4.143 0 7.5-3.357 7.5-7.5s-3.357-7.5-7.5-7.5h-57.641c-1.299 0-2.626.352-3.75 1.005l-49.945 28.839c-12.129 6.992-23.852-10.472-13.049-19.106l41.452-33.132c12.22-9.774 27.522-16.578 41.033-24.381 5.854-3.38 12.913-3.517 18.889-.369l35.57 18.729c2.278 1.199 5.013 1.147 7.244-.142l48.812-28.178 58.956 102.113c-4.759 8.154-9.132 16.883-14.866 24.411-2.513 3.293-1.881 7.999 1.412 10.512 1.358 1.037 2.957 1.538 4.544 1.538 2.259 0 4.492-1.016 5.968-2.95 4.431-5.797 7.91-12.263 11.579-18.551l10.264 17.778c1.389 2.406 3.91 3.751 6.502 3.751 1.272 0 2.563-.324 3.743-1.006l39.945-23.063c3.588-2.07 4.817-6.657 2.746-10.243zm-385.623 81.9-9.938-5.737c-1.334-.771-2.289-2.015-2.688-3.504-.398-1.488-.193-3.044.577-4.379l13.144-22.765c7.412-12.837 27.35-1.341 19.932 11.508l-13.144 22.765v.001c-1.591 2.755-5.128 3.702-7.883 2.111zm32.923 19.008-9.937-5.737c-2.756-1.591-3.703-5.128-2.113-7.883l13.144-22.765c7.412-12.836 27.345-1.332 19.932 11.508l-13.143 22.765c-1.593 2.755-5.128 3.704-7.883 2.112zm35.361 16.024-11.014-6.358c-1.19-.688-2.042-1.798-2.398-3.126-.355-1.328-.173-2.716.514-3.906l8.958-15.515c7.412-12.836 27.345-1.332 19.932 11.508l-8.957 15.514c-.688 1.191-1.798 2.043-3.127 2.399-1.329.351-2.718.171-3.908-.516zm41.265 14.858c-1.023 1.77-3.295 2.381-5.066 1.358l-13.509-7.8c-1.771-1.022-2.38-3.295-1.357-5.065 3.395-6.587 10.13-11.948 17.672-7.593 7.503 4.333 6.251 12.881 2.26 19.1zm61.457 5.409c-2.794 5.67-9.54 8.663-15.439 5.256l-27.784-16.041c.502-3.501.299-7.099-.644-10.619-1.833-6.839-6.219-12.556-12.351-16.096-4.436-2.561-9.311-3.686-14.087-3.528.406-4.554-.379-9.125-2.231-13.258l68.598 39.605c4.904 3.067 6.982 9.408 3.938 14.681zm-68.676-224.603c-2.895 1.657-5.727 3.589-8.415 5.739l-41.45 33.131c-25.052 20.02 2.205 59.811 29.913 43.813l46.196-26.674 138.574 80.006c12.823 7.404 1.347 27.349-11.507 19.933l-135.092-77.995c-3.59-2.071-8.175-.843-10.245 2.745-2.071 3.587-.842 8.174 2.745 10.245l126.633 73.111c12.597 7.443 1.569 27.475-11.499 19.937l-120.344-69.479c-3.589-2.07-8.175-.843-10.245 2.745-2.071 3.587-.842 8.174 2.745 10.245l101.742 58.74c12.509 7.818 1.346 27.351-11.501 19.936l-91.495-52.824c-4.409-2.544-10.183.115-11.117 5.122-5.236-3.204-11.574-4.428-17.634-3.498-1.671-16.086-18.005-27.198-33.581-22.794-5.692-22.544-36.994-26.956-48.65-6.765l-3.359 5.818c-18.102-9.969-27.281-26.512-37.275-43.638l38.695-67.021c2.071-3.587.842-8.174-2.745-10.245-3.589-2.071-8.176-.843-10.245 2.745l-53.846 93.265-26.955-15.563 85.765-148.548 26.955 15.563-14.078 24.384c-2.071 3.587-.842 8.174 2.745 10.245 3.588 2.07 8.175.842 10.245-2.745l2.421-4.193 48.812 28.187c1.159.669 2.454 1.005 3.751 1.005 1.199 0 2.4-.287 3.496-.864l35.563-18.736c4.733-2.487 10.14-2.912 15.086-1.316z"/><path d="m225.577 142.319c1.465 1.464 3.385 2.196 5.304 2.196s3.839-.732 5.304-2.196c2.929-2.93 2.929-7.678 0-10.607l-29.017-29.017c-2.93-2.928-7.678-2.928-10.607 0-2.929 2.93-2.929 7.678 0 10.607z"/><path d="m256 134.111c4.143 0 7.5-3.357 7.5-7.5v-41.036c0-4.143-3.357-7.5-7.5-7.5s-7.5 3.357-7.5 7.5v41.036c0 4.143 3.357 7.5 7.5 7.5z"/><path d="m281.119 144.516c1.919 0 3.839-.732 5.304-2.196l29.017-29.017c2.929-2.93 2.929-7.678 0-10.607-2.93-2.928-7.678-2.928-10.607 0l-29.017 29.017c-2.929 2.93-2.929 7.678 0 10.607 1.464 1.463 3.384 2.196 5.303 2.196z"/></g></g></svg>