<svg id="Layer_1" height="512" viewBox="0 0 512 512" width="512" xmlns="http://www.w3.org/2000/svg" data-name="Layer 1"><path d="m363.98 96.27a60.039 60.039 0 0 0 -77.15-55.14 84.033 84.033 0 0 0 -148.5 53.93c0 1.34.04 2.67.1 3.99a59.961 59.961 0 0 0 21.51 115.95h192.09a59.96 59.96 0 0 0 11.95-118.73z" fill="#72bcef"/><path d="m321.29 141.86-6.97 18.06-10.78-.31a53.3 53.3 0 0 1 -12.68 13.31l.79 10.77-17.74 7.77-7.45-7.77a59.652 59.652 0 0 1 -18.38.48l-6.97 8.08-18.07-6.97.32-10.78a53.132 53.132 0 0 1 -13.31-12.68l-10.78.8-7.77-17.75 7.77-7.45a59.636 59.636 0 0 1 -.48-18.38l-8.08-6.97 6.97-18.07 10.78.32a53.132 53.132 0 0 1 12.68-13.31l-.79-10.78 17.74-7.76 7.45 7.76a59.342 59.342 0 0 1 18.38-.47l6.98-8.09 18.06 6.98-.31 10.77a53.661 53.661 0 0 1 13.31 12.68l10.77-.79 7.77 17.75-7.77 7.44a59.652 59.652 0 0 1 .48 18.38z" fill="#e87187"/><path d="m256 90.3a36.665 36.665 0 1 1 -36.66 36.66 36.656 36.656 0 0 1 36.66-36.66z" fill="#bc5e72"/><path d="m400.33 251h-288.66a31.867 31.867 0 0 0 -31.67 31.74v168.26h352v-168.26a31.867 31.867 0 0 0 -31.67-31.74z" fill="#7d8595"/><path d="m106 280v171h86.77l21.74 17h82.98l21.74-17h86.77v-171z" fill="#978cac"/><path d="m356.3 352.94a13.81 13.81 0 1 1 -13.82 13.81 13.813 13.813 0 0 1 13.82-13.81z" fill="#53d8d8"/><circle cx="302.3" cy="329.55" fill="#53d8d8" r="13.81"/><circle cx="214.94" cy="388.33" fill="#53d8d8" r="13.81"/><path d="m155.7 325.8a13.815 13.815 0 1 1 -13.81 13.82 13.823 13.823 0 0 1 13.81-13.82z" fill="#53d8d8"/><path d="m129.93 154.98a59.962 59.962 0 0 1 38.5-55.93c-.06-1.32-.1-2.65-.1-3.99a84.03 84.03 0 0 1 69.046-82.7 83.992 83.992 0 0 0 -99.046 82.7c0 1.34.04 2.67.1 3.99a59.961 59.961 0 0 0 21.51 115.95h30a59.971 59.971 0 0 1 -60.01-60.02z" fill="#5da1c6"/><path d="m106 280h30v171h-30z" fill="#7a7489"/><path d="m319.23 449-21.74 17h-82.98l-21.74-17h-127.77v20.53a31.616 31.616 0 0 0 31.64 31.47h318.72a31.616 31.616 0 0 0 31.64-31.47v-20.53z" fill="#6d7486"/><g fill="#284268"><path d="m96.645 507h318.71a37.662 37.662 0 0 0 37.645-37.472v-20.128a6.5 6.5 0 0 0 -6.173-6.4h-8.827v-160.258a37.913 37.913 0 0 0 -37.666-37.742h-62.334v-24h14.035a66.187 66.187 0 0 0 64.7-52.8 65.968 65.968 0 0 0 -47.1-76.745 66.021 66.021 0 0 0 -80.739-57.081 89.784 89.784 0 0 0 -66.533-29.374h-.035c-49.643.02-90.328 40.423-90.328 90.063v.057a66 66 0 0 0 27.937 125.88h26.063v20.15a19 19 0 0 1 -.409 3.85h-73.925a37.913 37.913 0 0 0 -37.666 37.742v160.258h-8.827a6.5 6.5 0 0 0 -6.173 6.4v20.13a37.662 37.662 0 0 0 37.645 37.47zm303.689-250a25.9 25.9 0 0 1 25.666 25.742v160.258h-14v-163.471c0-3.313-2.6-5.529-5.912-5.529h-51.133a20.934 20.934 0 0 0 -9.681-5.013 9.377 9.377 0 0 1 -7.274-9.3v-2.687zm-250.334 32.427v31.311a19.974 19.974 0 0 0 -13.959 18.877 19.83 19.83 0 1 0 25.959-18.877v-31.311a19 19 0 0 1 .321-3.427h52.179a27.938 27.938 0 0 0 -5.5 16.591v66.782a19.906 19.906 0 1 0 12 .178v-66.96a16.1 16.1 0 0 1 8.509-14.1 28.084 28.084 0 0 0 3.81-2.5h62.681v24.676a19.825 19.825 0 1 0 25.924 18.877 19.941 19.941 0 0 0 -13.924-18.868v-24.676h41.151a9.845 9.845 0 0 1 .849 4.01v57.86a19.825 19.825 0 1 0 25.922 18.877 19.94 19.94 0 0 0 -13.922-18.877v-57.86a21.725 21.725 0 0 0 -.383-4.01h38.383v157h-80.768a5.991 5.991 0 0 0 -3.7 1.263l-20.114 15.737h-78.836l-20.116-15.737a5.991 5.991 0 0 0 -3.7-1.263h-80.766v-157h38.214a30.893 30.893 0 0 0 -.214 3.427zm5.7 42.377a7.812 7.812 0 1 1 -7.811 7.811 7.82 7.82 0 0 1 7.811-7.815zm59.238 48.716a7.812 7.812 0 1 1 -7.811 7.811 7.82 7.82 0 0 1 7.815-7.811zm58.282-135.52h-28.993l-.049-24h26.822v13.186a27.342 27.342 0 0 0 2.22 10.814zm-28.955 18.744-.014-6.744h39.322a26.523 26.523 0 0 0 3.619 1.848 14.455 14.455 0 0 1 8.808 13.585v1.567h-53.692a28.067 28.067 0 0 0 1.957-10.256zm58.957-6.744h22.778v2.691a21.694 21.694 0 0 0 5.4 14.309h-23.4v-1.567a27.018 27.018 0 0 0 -4.778-15.433zm6.89 72.553a7.812 7.812 0 1 1 -7.811-7.812 7.82 7.82 0 0 1 7.811 7.812zm15.888-84.553h-38.458a14.77 14.77 0 0 1 -4.542-10.814v-13.186h43zm30.3 113.936a7.812 7.812 0 1 1 -7.812 7.811 7.819 7.819 0 0 1 7.812-7.811zm-196.354-149.936a53.985 53.985 0 0 1 -19.364-104.388 5.975 5.975 0 0 0 3.84-5.855c-.062-1.326-.091-2.531-.091-3.706a78.111 78.111 0 0 1 78-78.051h.031a77.838 77.838 0 0 1 59.864 27.98 6 6 0 0 0 6.32 1.9 54.016 54.016 0 0 1 69.436 49.62 6 6 0 0 0 4.8 5.642 53.961 53.961 0 0 1 -10.75 106.858zm72.309 36h-34.522a30.721 30.721 0 0 0 .267-3.85v-20.15h34.178zm-38.636 12h38.675l.022 6.763a15.991 15.991 0 0 1 -3.754 10.237h-58.77a18.822 18.822 0 0 1 5.9-2.955 31.079 31.079 0 0 0 17.927-14.045zm-107.619 25.742a25.9 25.9 0 0 1 25.666-25.742h65.953a18.811 18.811 0 0 1 -5.312 2.532 31.089 31.089 0 0 0 -18.17 14.468h-48.225c-3.313 0-5.912 2.216-5.912 5.529v163.471h-14zm-15 172.258h119.7l20.116 15.737a5.992 5.992 0 0 0 3.7 1.263h82.974a5.992 5.992 0 0 0 3.7-1.263l20.11-15.737h119.7v14.528a25.65 25.65 0 0 1 -25.645 25.472h-318.71a25.65 25.65 0 0 1 -25.645-25.472z"/><path d="m128 312.833a6 6 0 0 0 6-6v-4.3a6 6 0 0 0 -12 0v4.3a6 6 0 0 0 6 6z"/><path d="m128 398.833a6 6 0 0 0 6-6v-65a6 6 0 0 0 -12 0v65a6 6 0 0 0 6 6z"/><path d="m256 84.3a42.664 42.664 0 1 0 42.664 42.664 42.713 42.713 0 0 0 -42.664-42.664zm0 73.328a30.664 30.664 0 1 1 30.664-30.664 30.7 30.7 0 0 1 -30.664 30.662z"/><path d="m319.5 132.389a65.444 65.444 0 0 0 -.354-13.722l5.5-5.281a6 6 0 0 0 1.344-6.735l-7.761-17.751a6 6 0 0 0 -5.937-3.579l-7.59.558a59.015 59.015 0 0 0 -9.965-9.494l.223-7.564a6 6 0 0 0 -3.837-5.775l-18.065-6.972a6 6 0 0 0 -6.7 1.678l-4.925 5.709a65.412 65.412 0 0 0 -13.725.356l-5.279-5.506a6 6 0 0 0 -6.737-1.344l-17.752 7.768a6 6 0 0 0 -3.578 5.937l.558 7.589a59.1 59.1 0 0 0 -9.494 9.966l-7.565-.227a5.977 5.977 0 0 0 -5.774 3.837l-6.972 18.065a6 6 0 0 0 1.678 6.7l5.709 4.927a65.451 65.451 0 0 0 .355 13.722l-5.5 5.28a6 6 0 0 0 -1.344 6.736l7.765 17.748a6.007 6.007 0 0 0 5.937 3.579l7.59-.558a59.091 59.091 0 0 0 9.966 9.493l-.223 7.565a6 6 0 0 0 3.837 5.774l18.065 6.973a6 6 0 0 0 6.7-1.679l4.926-5.709a65.311 65.311 0 0 0 13.722-.355l5.28 5.505a6 6 0 0 0 6.736 1.345l17.748-7.765a6 6 0 0 0 3.578-5.937l-.558-7.589a59.133 59.133 0 0 0 9.494-9.966l7.565.222a5.987 5.987 0 0 0 5.774-3.837l6.972-18.065a6 6 0 0 0 -1.678-6.7zm-9.253 21.411-6.531-.193a6.026 6.026 0 0 0 -5.169 2.67 47.236 47.236 0 0 1 -11.247 11.816 6 6 0 0 0 -2.416 5.264l.48 6.541-10.021 4.384-4.548-4.742a6 6 0 0 0 -5.409-1.749 53.445 53.445 0 0 1 -16.529.427 6 6 0 0 0 -5.317 2.031l-4.212 4.882-10.161-3.922.192-6.531a6 6 0 0 0 -2.668-5.169 47.257 47.257 0 0 1 -11.816-11.252 6.024 6.024 0 0 0 -5.264-2.416l-6.541.481-4.389-10.022 4.742-4.548a6 6 0 0 0 1.749-5.41 53.413 53.413 0 0 1 -.428-16.529 6 6 0 0 0 -2.03-5.315l-4.882-4.213 3.921-10.161 6.531.192a6 6 0 0 0 5.169-2.67 47.248 47.248 0 0 1 11.252-11.814 6 6 0 0 0 2.416-5.265l-.48-6.54 10.021-4.384 4.547 4.742a6 6 0 0 0 5.411 1.749 53.392 53.392 0 0 1 16.531-.427 6.027 6.027 0 0 0 5.317-2.031l4.212-4.883 10.161 3.922-.193 6.531a6 6 0 0 0 2.669 5.169 47.254 47.254 0 0 1 11.815 11.252 6 6 0 0 0 5.264 2.417l6.542-.481 4.383 10.021-4.742 4.548a6 6 0 0 0 -1.749 5.41 53.441 53.441 0 0 1 .427 16.529 6 6 0 0 0 2.03 5.315l4.881 4.214z"/></g></svg>