<svg id="Capa_1" enable-background="new 0 0 512 512" height="512" viewBox="0 0 512 512" width="512" xmlns="http://www.w3.org/2000/svg"><g><path d="m245.99 84.658h26.122c1.657 0 3 1.343 3 3v99.521l14.556-14.556c2.791-2.791 7.233-3.11 10.363-.705 7.76 5.962 14.973 12.595 21.583 19.791v-104.051c0-1.657 1.343-3 3-3h25.184c2.448 0 3.866-2.774 2.431-4.758l-51.455-71.158c-1.192-1.648-3.642-1.658-4.847-.02l-52.353 71.158c-1.458 1.981-.043 4.778 2.416 4.778z" fill="#05e39c"/><g><g><path d="m312.203 24.548-11.43-15.806c-1.192-1.648-3.642-1.658-4.847-.02l-52.352 71.158c-1.458 1.981-.043 4.778 2.416 4.778h21.989z" fill="#0ed290"/></g></g><g><path d="m281.454 403.5c0-50.194 36.617-91.828 84.594-99.666-.08-6.792-.543-13.491-1.404-20.066-.512-3.913-3.879-6.824-7.825-6.824h-37.074c-3.493 0-6.547-2.307-7.55-5.653-2.335-7.787-5.435-15.242-9.221-22.275-1.657-3.078-1.132-6.868 1.34-9.34l26.204-26.204c2.791-2.791 3.11-7.233.706-10.363-8.993-11.706-19.485-22.199-31.191-31.192-3.13-2.405-7.572-2.086-10.363.705l-26.204 26.204c-2.472 2.472-6.262 2.997-9.34 1.34-7.033-3.786-14.488-6.886-22.275-9.221-3.346-1.003-5.653-4.057-5.653-7.55v-37.074c0-3.946-2.911-7.313-6.824-7.825-7.22-.945-14.582-1.437-22.06-1.437s-14.84.492-22.06 1.437c-3.913.512-6.824 3.879-6.824 7.825v37.074c0 3.493-2.307 6.547-5.653 7.55-7.787 2.335-15.242 5.435-22.275 9.221-3.078 1.657-6.868 1.131-9.34-1.34l-26.204-26.204c-2.791-2.791-7.233-3.11-10.363-.705-11.706 8.993-22.199 19.485-31.191 31.192-2.405 3.13-2.086 7.572.706 10.363l26.204 26.204c2.472 2.472 2.997 6.262 1.34 9.34-3.786 7.033-6.886 14.488-9.221 22.275-1.003 3.346-4.057 5.653-7.55 5.653h-37.075c-3.946 0-7.313 2.911-7.825 6.824-.945 7.22-1.437 14.582-1.437 22.06s.492 14.84 1.437 22.06c.512 3.913 3.879 6.824 7.825 6.824h37.074c3.493 0 6.547 2.307 7.55 5.653 2.335 7.787 5.435 15.242 9.221 22.275 1.657 3.078 1.132 6.868-1.34 9.34l-26.204 26.204c-2.791 2.791-3.11 7.233-.706 10.363 8.993 11.706 19.485 22.199 31.191 31.192 3.13 2.405 7.572 2.086 10.363-.706l26.204-26.204c2.472-2.472 6.262-2.997 9.34-1.34 7.033 3.786 14.488 6.886 22.275 9.221 3.346 1.003 5.653 4.057 5.653 7.55v37.074c0 3.946 2.911 7.313 6.824 7.825 7.22.945 14.582 1.437 22.06 1.437s14.84-.492 22.06-1.437c3.913-.512 6.824-3.879 6.824-7.825v-37.074c0-3.493 2.307-6.547 5.653-7.55 7.787-2.335 15.242-5.435 22.275-9.221 3.078-1.657 6.868-1.131 9.34 1.34l23.421 23.421c-3.518-10.271-5.432-21.287-5.432-32.75z" fill="#7ca1b1"/><path d="m154.375 379.176c-25.158-14.76-42.062-42.072-42.062-73.348s16.904-58.588 42.062-73.348c16.081-28.828 41.332-51.843 71.823-65.073v-21.084c0-3.946-2.911-7.313-6.824-7.825-7.22-.945-14.582-1.437-22.06-1.437s-14.84.492-22.06 1.437c-3.913.512-6.824 3.879-6.824 7.825v37.074c0 3.493-2.307 6.547-5.653 7.55-7.787 2.335-15.242 5.435-22.275 9.221-3.078 1.657-6.868 1.131-9.34-1.34l-26.204-26.204c-2.791-2.791-7.233-3.11-10.363-.705-11.706 8.993-22.199 19.485-31.191 31.192-2.405 3.13-2.086 7.572.706 10.363l26.204 26.204c2.472 2.472 2.997 6.262 1.34 9.34-3.786 7.033-6.886 14.488-9.221 22.275-1.003 3.346-4.057 5.653-7.55 5.653h-37.075c-3.946 0-7.313 2.911-7.825 6.824-.945 7.22-1.437 14.582-1.437 22.06s.492 14.84 1.437 22.06c.512 3.913 3.879 6.824 7.825 6.824h37.074c3.493 0 6.547 2.307 7.55 5.653 2.335 7.787 5.435 15.242 9.221 22.275 1.657 3.078 1.132 6.868-1.34 9.34l-26.204 26.204c-2.791 2.791-3.11 7.233-.706 10.363 8.993 11.706 19.485 22.199 31.191 31.192 3.13 2.405 7.572 2.086 10.363-.706l26.204-26.204c2.472-2.472 6.262-2.997 9.34-1.34 7.033 3.786 14.488 6.886 22.275 9.221 3.346 1.003 5.653 4.057 5.653 7.55v37.074c0 3.946 2.911 7.313 6.824 7.825 7.22.945 14.582 1.437 22.06 1.437s14.84-.492 22.06-1.437c3.913-.512 6.824-3.879 6.824-7.825v-21.084c-30.491-13.233-55.741-36.248-71.822-65.076z" fill="#678d98"/><g><circle cx="197.313" cy="305.828" fill="#dff6fd" r="85"/></g><path d="m151.813 343.507c-8.491-10.236-13.604-23.371-13.604-37.679s5.113-27.443 13.604-37.68c11.716-23.627 34.088-41.032 60.844-45.912-4.979-.908-10.102-1.408-15.343-1.408-46.944 0-85 38.056-85 85s38.056 85 85 85c5.242 0 10.364-.499 15.343-1.408-26.757-4.881-49.129-22.286-60.844-45.913z" fill="#c8effe"/><g><circle cx="197.313" cy="305.828" fill="#678d98" r="51.605"/></g><g><path d="m176.791 305.828c0-23.084 15.159-42.624 36.064-49.219-4.905-1.547-10.125-2.386-15.541-2.386-28.5 0-51.605 23.104-51.605 51.605s23.104 51.605 51.605 51.605c5.416 0 10.636-.839 15.541-2.386-20.905-6.596-36.064-26.135-36.064-49.219z" fill="#537983"/></g><circle cx="197.313" cy="305.828" fill="#fff" r="21.705"/></g><path d="m364.039 179.1h26.122c1.657 0 3 1.343 3 3v120.965c17.145 1.807 33.008 7.904 46.502 17.197v-138.162c0-1.657 1.343-3 3-3h25.184c2.448 0 3.866-2.774 2.431-4.758l-51.457-71.158c-1.192-1.648-3.642-1.658-4.847-.02l-52.352 71.158c-1.457 1.981-.043 4.778 2.417 4.778z" fill="#05e39c"/><g><g><path d="m430.473 119.296-11.651-16.111c-1.191-1.648-3.642-1.658-4.847-.02l-52.352 71.158c-1.458 1.981-.043 4.778 2.416 4.778h22.434z" fill="#0ed290"/></g></g><g><g><circle cx="382.454" cy="403.5" fill="#fd5426" r="101"/></g><g><path d="m310 403.5c0-50.935 37.706-93.056 86.727-99.991-4.664-.66-9.427-1.009-14.273-1.009-55.781 0-101 45.219-101 101s45.219 101 101 101c4.846 0 9.609-.349 14.273-1.009-49.021-6.935-86.727-49.056-86.727-99.991z" fill="#ef4424"/></g><g><circle cx="382.454" cy="403.5" fill="#fff" r="76"/></g><g><path d="m337 403.5c0-36.677 26.115-67.368 60.727-74.458-4.935-1.011-10.043-1.542-15.273-1.542-41.907 0-76 34.093-76 76s34.093 76 76 76c5.23 0 10.338-.531 15.273-1.542-34.612-7.09-60.727-37.781-60.727-74.458z" fill="#eef5f6"/></g></g><g><path d="m282.388 299.401c4.088-.669 6.859-4.525 6.19-8.613-3.503-21.407-14.545-41.012-31.09-55.204-16.732-14.353-38.102-22.257-60.175-22.257-51.005 0-92.5 41.495-92.5 92.5s41.495 92.5 92.5 92.5c42.272 0 79.12-28.565 89.605-69.465 1.029-4.013-1.39-8.099-5.402-9.128-4.013-1.029-8.1 1.39-9.128 5.402-8.784 34.262-39.656 58.19-75.075 58.19-42.734 0-77.5-34.767-77.5-77.5s34.766-77.5 77.5-77.5c18.492 0 36.395 6.621 50.409 18.642 13.867 11.895 23.119 28.317 26.053 46.242.668 4.089 4.522 6.861 8.613 6.191z"/><path d="m197.313 246.723c-32.59 0-59.104 26.514-59.104 59.105 0 32.59 26.514 59.104 59.104 59.104 32.591 0 59.105-26.514 59.105-59.104 0-32.591-26.514-59.105-59.105-59.105zm0 103.209c-24.319 0-44.104-19.785-44.104-44.104 0-24.32 19.785-44.105 44.104-44.105 24.32 0 44.105 19.785 44.105 44.105 0 24.319-19.785 44.104-44.105 44.104z"/><path d="m197.313 276.623c-16.104 0-29.205 13.102-29.205 29.205s13.101 29.205 29.205 29.205 29.205-13.102 29.205-29.205-13.101-29.205-29.205-29.205zm0 43.41c-7.833 0-14.205-6.373-14.205-14.205s6.372-14.205 14.205-14.205 14.205 6.373 14.205 14.205-6.372 14.205-14.205 14.205z"/><path d="m447.164 316.462v-47.462c0-4.142-3.358-7.5-7.5-7.5s-7.5 3.358-7.5 7.5v38.076c-9.738-5.041-20.332-8.645-31.502-10.54v-114.436c0-5.79-4.71-10.5-10.5-10.5h-17.225l43.423-59.021 42.681 59.021h-16.377c-5.79 0-10.5 4.71-10.5 10.5v51.9c0 4.142 3.358 7.5 7.5 7.5s7.5-3.358 7.5-7.5v-47.4h20.685c3.963 0 7.546-2.192 9.35-5.722s1.481-7.718-.841-10.932l-51.458-71.155c-1.958-2.709-5.123-4.334-8.466-4.348-.014 0-.028 0-.042 0-3.327 0-6.486 1.597-8.458 4.277l-52.353 71.158c-2.36 3.208-2.709 7.408-.913 10.961 1.797 3.554 5.388 5.761 9.37 5.761h21.623v108.451c-1.066-.031-2.134-.051-3.208-.051-3.104 0-6.176.138-9.215.395-.242-4.22-.613-8.433-1.159-12.601-.996-7.611-7.558-13.351-15.262-13.351h-37.074c-.167 0-.31-.121-.366-.307-2.457-8.192-5.754-16.158-9.802-23.676-.094-.174-.078-.363.04-.481l26.204-26.204c5.447-5.447 6.027-14.146 1.35-20.235-2.567-3.341-5.261-6.578-8.056-9.724v-96.658h20.684c3.964 0 7.547-2.193 9.351-5.723 1.803-3.53 1.481-7.718-.842-10.93l-51.454-71.157c-1.958-2.708-5.123-4.334-8.465-4.348-.015 0-.029 0-.044 0-3.326 0-6.485 1.597-8.458 4.277l-52.353 71.158c-2.36 3.208-2.709 7.408-.913 10.961 1.797 3.554 5.388 5.761 9.37 5.761h21.623v91.915l-9.451 9.451c-.118.117-.307.133-.481.04-7.516-4.047-15.482-7.345-23.677-9.802-.186-.056-.306-.199-.306-.366v-37.074c0-7.704-5.74-14.265-13.351-15.262-15.209-1.991-30.86-1.991-46.068 0-7.611.996-13.351 7.557-13.351 15.262v37.074c0 .167-.12.31-.307.366-8.192 2.457-16.158 5.754-23.676 9.802-.174.093-.364.078-.48-.04l-26.204-26.204c-5.447-5.448-14.147-6.028-20.235-1.35-12.221 9.389-23.18 20.347-32.57 32.57-4.677 6.089-4.097 14.788 1.35 20.235l26.204 26.204c.118.118.134.307.04.481-4.047 7.518-7.345 15.483-9.801 23.676-.056.186-.199.307-.366.307h-37.074c-7.704 0-14.266 5.74-15.262 13.351-.996 7.604-1.5 15.354-1.5 23.034s.505 15.43 1.5 23.034c.996 7.611 7.558 13.351 15.262 13.351h37.074c.167 0 .31.121.366.307 2.457 8.192 5.754 16.158 9.802 23.676.094.174.078.362-.04.48l-26.205 26.205c-5.447 5.447-6.027 14.146-1.349 20.235 9.39 12.223 20.349 23.181 32.57 32.57 6.088 4.678 14.788 4.097 20.235-1.35l26.204-26.204c.119-.118.307-.134.481-.04 7.52 4.048 15.485 7.346 23.676 9.801.187.056.307.199.307.366v37.074c0 7.704 5.739 14.265 13.351 15.262 7.605.996 15.355 1.5 23.033 1.5s15.428-.504 23.035-1.5c7.61-.998 13.35-7.559 13.35-15.262v-37.074c0-.167.121-.31.306-.366 8.192-2.456 16.158-5.753 23.676-9.801.175-.094.363-.079.482.04l22.251 22.251c15.128 41.726 55.157 71.618 102.041 71.618 59.827 0 108.5-48.673 108.5-108.5 0-35.596-17.232-67.242-43.79-87.038zm-192.276-239.304 43.424-59.021 42.681 59.021h-16.377c-5.79 0-10.5 4.71-10.5 10.5v86.178c-3.08-2.727-6.248-5.357-9.514-7.866-6.088-4.678-14.788-4.098-20.235 1.35l-1.753 1.753v-81.415c0-5.79-4.71-10.5-10.5-10.5zm19.5 335.987-5.62-5.62c-4.835-4.835-12.147-5.897-18.198-2.641-6.628 3.568-13.651 6.475-20.874 8.641-6.579 1.973-10.998 7.894-10.998 14.734v37.074c0 .193-.134.368-.297.389-13.926 1.822-28.25 1.822-42.173 0-.165-.021-.298-.196-.298-.389v-37.074c0-6.84-4.42-12.761-10.999-14.734-7.222-2.165-14.245-5.072-20.874-8.641-2.338-1.259-4.864-1.872-7.364-1.872-3.968 0-7.868 1.546-10.834 4.513l-26.204 26.204c-.137.137-.358.164-.492.062-11.187-8.594-21.217-18.624-29.813-29.813-.103-.134-.075-.354.061-.491l26.204-26.204c4.836-4.836 5.897-12.15 2.641-18.198-3.568-6.627-6.475-13.65-8.641-20.874-1.973-6.579-7.894-10.999-14.734-10.999h-37.073c-.193 0-.367-.133-.389-.298-.912-6.961-1.374-14.055-1.374-21.086s.462-14.125 1.374-21.086c.021-.165.196-.298.389-.298h37.074c6.84 0 12.761-4.42 14.734-10.998 2.166-7.224 5.073-14.247 8.641-20.874 3.256-6.049 2.195-13.362-2.641-18.198l-26.204-26.204c-.137-.137-.164-.357-.061-.49 8.596-11.189 18.626-21.22 29.813-29.813.134-.103.354-.075.491.061l26.204 26.204c4.836 4.836 12.15 5.896 18.198 2.641 6.627-3.568 13.65-6.475 20.873-8.641 6.579-1.972 11-7.893 11-14.734v-37.074c0-.193.133-.367.298-.389 13.922-1.823 28.25-1.823 42.173 0 .164.021.298.196.298.389v37.074c0 6.841 4.42 12.762 10.998 14.734 7.225 2.167 14.248 5.074 20.874 8.641 6.047 3.257 13.362 2.196 18.198-2.64l26.205-26.205c.137-.136.355-.163.49-.061 11.188 8.594 21.218 18.625 29.813 29.813.103.134.076.354-.061.491l-26.204 26.204c-4.836 4.836-5.897 12.149-2.641 18.198 3.568 6.627 6.475 13.65 8.641 20.874 1.973 6.578 7.894 10.998 14.734 10.998h37.074c.193 0 .367.134.389.298.561 4.285.929 8.621 1.144 12.961-48.265 10.99-84.397 54.252-84.397 105.798-.002 3.248.15 6.464.432 9.643zm108.066 83.855c-51.556 0-93.5-41.944-93.5-93.5s41.944-93.5 93.5-93.5 93.5 41.944 93.5 93.5-41.944 93.5-93.5 93.5z"/><path d="m450.01 392.23c.679 4.086 4.539 6.849 8.628 6.168 4.086-.679 6.848-4.542 6.168-8.628-3.203-19.267-13.19-36.92-28.122-49.708-15.104-12.937-34.364-20.062-54.23-20.062-46.042 0-83.5 37.458-83.5 83.5s37.458 83.5 83.5 83.5c18.16 0 35.439-5.754 49.97-16.639 14.039-10.517 24.619-25.481 29.792-42.136 1.229-3.956-.982-8.159-4.938-9.387-3.955-1.228-8.159.983-9.387 4.938-4.243 13.662-12.93 25.942-24.46 34.581-11.915 8.925-26.085 13.643-40.977 13.643-37.771 0-68.5-30.729-68.5-68.5s30.729-68.5 68.5-68.5c16.29 0 32.084 5.844 44.474 16.455 12.259 10.499 20.456 24.98 23.082 40.775z"/><path d="m382.454 342.501c-4.142 0-7.5 3.358-7.5 7.5v53.499c0 2.75 1.504 5.279 3.92 6.591 1.119.607 2.351.909 3.579.909 1.425 0 2.846-.405 4.084-1.209l34.092-22.13c3.475-2.255 4.462-6.9 2.208-10.375-2.256-3.474-6.902-4.461-10.375-2.208l-22.509 14.611v-39.688c.001-4.142-3.357-7.5-7.499-7.5z"/></g></g></svg>