<svg id="Layer_1" height="512" viewBox="0 0 512 512" width="512" xmlns="http://www.w3.org/2000/svg" data-name="Layer 1"><path d="m223.96 249.79-15.96-45.99v.2l-59.74-95.638a80.545 80.545 0 0 1 -3.06-22.036l-1.22-36.413a88.714 88.714 0 0 0 -101.98 87.577v56.44a68.838 68.838 0 0 1 -.78 10.84.831.831 0 0 0 .06.23h-.01a83.731 83.731 0 0 1 -2.53 10.24l-12.48 37.745a129.775 129.775 0 0 0 .73 83.372l196.05-8.032a114.028 114.028 0 0 0 .92-78.535z" fill="#6d7486"/><path d="m56.26 252.985 12.48-37.745a83.731 83.731 0 0 0 2.53-10.24h.01a.831.831 0 0 1 -.06-.23 68.838 68.838 0 0 0 .78-10.84v-56.44a88.725 88.725 0 0 1 72-86.99l-.02-.587a88.714 88.714 0 0 0 -101.98 87.577v56.44a68.838 68.838 0 0 1 -.78 10.84.831.831 0 0 0 .06.23h-.01a83.731 83.731 0 0 1 -2.53 10.24l-12.48 37.745a129.775 129.775 0 0 0 .73 83.372l29.6-1.212a129.781 129.781 0 0 1 -.33-82.16z" fill="#4d515b"/><path d="m223.06 328.325a42.772 42.772 0 0 0 -10.69-1.325h-158.71a42.6 42.6 0 0 0 -42.66 42.61v92.39h244v-92.39a42.643 42.643 0 0 0 -31.94-41.285z" fill="#6d6d93"/><path d="m186.05 327c-10.78 0-19.05-8.79-19.05-19.57v-33.43h-68v33.43c0 10.78-8.24 19.57-19.03 19.57h-.97v50.21a190.823 190.823 0 0 0 108 0v-50.21z" fill="#efc597"/><path d="m186.948 377.21v29.28a190.385 190.385 0 0 1 -107.924 0v-29.28a190.56 190.56 0 0 0 107.924 0z" fill="#a4bdc1"/><path d="m186.948 435.78v26.36h-107.924v-26.36a190.56 190.56 0 0 0 107.924 0z" fill="#a4bdc1"/><path d="m186.948 406.49v29.29a190.56 190.56 0 0 1 -107.924 0v-29.29a190.385 190.385 0 0 0 107.924 0z" fill="#84a0a3"/><path d="m143.82 49.9 1.3 36.4a80.5 80.5 0 0 0 60.88 77.99v15.71h.16l12.84 1.45v-43.96a88.448 88.448 0 0 0 -75.18-87.59z" fill="#4a5160"/><g id="_Path_" data-name=" Path "><g fill="#6994fe"><path d="m304.41 437.96h53.34v24.32h-53.34z"/><path d="m304.41 279.36h53.34v24.32h-53.34z"/><path d="m304.41 385.09h53.34v24.32h-53.34z"/><path d="m304.41 332.23h53.34v24.32h-53.34z"/></g><path d="m387.81 177h84c-4.57 43-40.25 74.83-83.45 74.83a83.912 83.912 0 0 1 -52.39-149.49l47.34 72.25a5.366 5.366 0 0 0 4.5 2.41z" fill="#5fcda4"/><path d="m480.76 161h-71.34l51.08-53.03a86.267 86.267 0 0 1 20.26 53.03z" fill="#eadf53"/><path d="m448.04 95.68-55.7 57.83-44.03-67.21a83.8 83.8 0 0 1 99.73 9.38z" fill="#b9d49b"/><path d="m218.32 177.45a11.078 11.078 0 0 1 2.27 1.22 14.348 14.348 0 0 1 -13.47 25.13v-.01a13.114 13.114 0 0 1 -1.96-.95h-.14v-22.61h.14a12.24 12.24 0 0 1 13.16-2.78z" fill="#efc597"/></g><path d="m356.75 385.09h99.87v24.32h-99.87z" fill="#ea7288"/><path d="m356.75 332.23h144.25v24.32h-144.25z" fill="#f3ce7d"/><path d="m356.75 279.36h99.87v24.32h-99.87z" fill="#ea7288"/><path d="m356.75 437.96h126.2v24.32h-126.2z" fill="#f3ce7d"/><path d="m148.25 108.31-19.555-.66a49.026 49.026 0 0 0 -49.028 49.03 48.881 48.881 0 0 1 -11.108 30.82 51.11 51.11 0 0 1 -8.735 8.47l.176.24v14.43a73 73 0 1 0 146 0v-46.35a81.078 81.078 0 0 1 -57.75-55.98z" fill="#ffd8b7"/><path d="m90 210.64v-84.051a48.807 48.807 0 0 0 -10.333 30.091 48.881 48.881 0 0 1 -11.108 30.82 51.11 51.11 0 0 1 -8.735 8.47l.176.24v14.43a73.048 73.048 0 0 0 88.011 71.451 72.97 72.97 0 0 1 -58.011-71.451z" fill="#d3af94"/><g fill="#284268"><path d="m154 185.85a6 6 0 0 0 6-6 6.594 6.594 0 1 1 13.188 0 6 6 0 0 0 12 0 18.594 18.594 0 1 0 -37.188 0 6 6 0 0 0 6 6z"/><path d="m107.774 222.786a6 6 0 0 0 0 8.485 35.733 35.733 0 0 0 50.476 0 6 6 0 0 0 -8.485-8.485 23.719 23.719 0 0 1 -33.506 0 6 6 0 0 0 -8.485 0z"/><path d="m34 360a6 6 0 0 0 -6 6v2a6 6 0 0 0 12 0v-2a6 6 0 0 0 -6-6z"/><path d="m34 382a6 6 0 0 0 -6 6v48a6 6 0 0 0 12 0v-48a6 6 0 0 0 -6-6z"/><path d="m230.721 324.588a119.993 119.993 0 0 0 -1.035-76.756l-12.9-37.314a20.816 20.816 0 0 0 4.273-1.187 20.466 20.466 0 0 0 12.518-21.731 20.2 20.2 0 0 0 -8.57-13.866h-.007v-36.24a94.672 94.672 0 0 0 -79.38-93.368 5.839 5.839 0 0 0 -1.44-.221 94.515 94.515 0 0 0 -108.18 93.589v56.439a61.445 61.445 0 0 1 -3.034 19.335l-12.446 37.787a136.084 136.084 0 0 0 -.477 83.442 48.5 48.5 0 0 0 -15.043 35.162v92.616a5.725 5.725 0 0 0 5.725 5.725h244.3a5.977 5.977 0 0 0 5.975-5.976v-43.024a6 6 0 0 0 -12 0v37h-34.579a61.177 61.177 0 0 0 -2.982-39.713 6 6 0 1 0 -11.013 4.764 49.118 49.118 0 0 1 1.474 34.949h-8.9v-123h19.365a36.635 36.635 0 0 1 36.635 36.635v7.365a6 6 0 0 0 12 0v-7.388a48.617 48.617 0 0 0 -30.279-45.024zm-12.547-140.988a8.35 8.35 0 0 1 -1.581 14.59 7.991 7.991 0 0 1 -4.593.5v-15.37a6.068 6.068 0 0 1 6.174.28zm-5.174-46.106v33.2a5.109 5.109 0 0 0 -1 .138v-5.793c0-2.965-1.513-5.807-4.484-6.551a74.309 74.309 0 0 1 -56.316-72.188c0-.067 0-.134 0-.2l-.964-28.791a82.668 82.668 0 0 1 62.764 80.185zm-13 31.329v41.812a67 67 0 1 1 -134 0v-11.929a61.586 61.586 0 0 0 14.882-19.867c-.018.337-.049.67-.049 1.011a6 6 0 0 0 12 0 6.594 6.594 0 0 1 13.188 0 6 6 0 0 0 12 0 18.581 18.581 0 0 0 -33.868-10.575 53.52 53.52 0 0 0 1.519-12.6 43.075 43.075 0 0 1 42.928-43.022l15.193.512a85.965 85.965 0 0 0 56.207 54.658zm-152 25.11v-56.439a82.605 82.605 0 0 1 82.5-82.582c2.583 0 5.135.135 7.658.368l1.042 31.126a86.914 86.914 0 0 0 1.45 15.646l-11.751-.4c-.067 0-.134 0-.2 0a55.087 55.087 0 0 0 -55.024 55.025c0 17-10.426 32.475-25.715 39.5.019-.745.04-1.494.04-2.244zm25 262.067h-8.875a49.118 49.118 0 0 1 1.475-34.949 6 6 0 1 0 -11.014-4.764 61.183 61.183 0 0 0 -2.986 39.713h-34.6v-86.341a36.659 36.659 0 0 1 36.659-36.659h19.341zm-19.341-135a48.445 48.445 0 0 0 -23.32 5.945 124.063 124.063 0 0 1 1.61-72.126l12.409-37.786a70.982 70.982 0 0 0 1.99-7.408 39.331 39.331 0 0 0 7.652-3.033v4.043a79.035 79.035 0 0 0 39 68.082v28.714a13.609 13.609 0 0 1 -13.569 13.569zm127.341 135h-96v-12.363a196.237 196.237 0 0 0 96 0zm0-24.767a184.386 184.386 0 0 1 -96 0v-16.879a196.237 196.237 0 0 0 96 0zm0-29.283a184.375 184.375 0 0 1 -96 0v-16.879a196.237 196.237 0 0 0 96 0zm0-29.283a184.4 184.4 0 0 1 -96 0v-40.338a25.091 25.091 0 0 0 20-24.9v-22.94a78.792 78.792 0 0 0 56 .01v22.93a25.134 25.134 0 0 0 20 24.9zm38.117-51.193a49.119 49.119 0 0 0 -6.729-.474h-26.339a13.049 13.049 0 0 1 -13.049-13.049v-29.22a79.244 79.244 0 0 0 37.1-50.844l8.262 23.905a108.012 108.012 0 0 1 .755 69.682z"/><path d="m304 273a6 6 0 0 0 -6 6v24a6 6 0 0 0 6 6h152a6 6 0 0 0 6-6v-24a6 6 0 0 0 -6-6zm47 25h-41v-13h41zm100 0h-88v-13h88z"/><path d="m501 326h-197a6 6 0 0 0 -6 6v24a6 6 0 0 0 6 6h197a6 6 0 0 0 6-6v-24a6 6 0 0 0 -6-6zm-150 25h-41v-13h41zm144 0h-132v-13h132z"/><path d="m304 415h152a6 6 0 0 0 6-6v-24a6 6 0 0 0 -6-6h-152a6 6 0 0 0 -6 6v24a6 6 0 0 0 6 6zm59-24h88v12h-88zm-53 0h41v12h-41z"/><path d="m483 432h-179a6 6 0 0 0 -6 6v24a6 6 0 0 0 6 6h179a6 6 0 0 0 6-6v-24a6 6 0 0 0 -6-6zm-132 24h-41v-12h41zm126 0h-114v-12h114z"/><path d="m391.781 159.48c.187.018.374.026.56.026a6 6 0 0 0 4.321-1.837l55.7-57.824a6 6 0 0 0 -.3-8.618 89.794 89.794 0 0 0 -106.875-10.05 6 6 0 0 0 -1.9 8.411l44.029 67.206a6 6 0 0 0 4.465 2.686zm.108-79.4a77.7 77.7 0 0 1 47.362 16.084l-46.014 47.764-36.374-55.528a77.716 77.716 0 0 1 35.026-8.321z"/><path d="m476.271 172.988a6 6 0 0 0 -4.461-1.988h-83.68l-47.139-71.946a6 6 0 0 0 -8.769-1.395 90.049 90.049 0 1 0 145.554 79.975 5.994 5.994 0 0 0 -1.505-4.646zm-35.7 53.081a78.041 78.041 0 0 1 -105.848-114.687l43.57 66.5a11.33 11.33 0 0 0 9.518 5.118h77.043a77.27 77.27 0 0 1 -24.285 43.069z"/><path d="m485.042 165.2a6 6 0 0 0 1.713-4.321 92.705 92.705 0 0 0 -21.7-56.82 6 6 0 0 0 -8.872-.252l-51.083 53.03a6 6 0 0 0 4.317 10.163h71.339a6 6 0 0 0 4.286-1.8zm-61.514-10.2 36.507-37.9a81.429 81.429 0 0 1 14.334 37.9z"/></g></svg>