<svg id="Capa_1" enable-background="new 0 0 512 512" height="512" viewBox="0 0 512 512" width="512" xmlns="http://www.w3.org/2000/svg"><g><path d="m7.5 89.027v323.734c0 6.296 5.104 11.399 11.399 11.399h371.052l-31.456-31.456c-3.905-3.905-3.905-10.237 0-14.142l24.768-24.768c3.905-3.905 10.237-3.905 14.142 0l70.367 70.367h25.329c6.296 0 11.399-5.104 11.399-11.399v-323.735z" fill="#fdf6ec"/><path d="m48 412.761v-154.115h-1.314c-1.514 0-2.741-1.227-2.741-2.741v-44.517c0-1.514 1.227-2.741 2.741-2.741h1.314v-30.784h-1.314c-1.514 0-2.741-1.228-2.741-2.741v-44.517c0-1.514 1.227-2.741 2.741-2.741h1.314v-38.837h-40.5v323.734c0 6.296 5.104 11.399 11.399 11.399h40.5c-6.295 0-11.399-5.103-11.399-11.399z" fill="#fef1da"/><g><path d="m381.964 355.093-33.458-33.458c-6.478 8.639-14.162 16.317-22.8 22.797l33.459 33.459z" fill="#a8d3d8"/><g><path d="m476.049 446.579-24.768 24.768c-3.905 3.905-10.237 3.905-14.142 0l-78.644-78.644c-3.905-3.905-3.905-10.237 0-14.142l24.768-24.768c3.905-3.905 10.237-3.905 14.142 0l78.644 78.644c3.905 3.906 3.905 10.237 0 14.142z" fill="#678d98"/></g><g><path d="m391.517 392.704c-3.905-3.905-3.905-10.237 0-14.142l15.328-15.328-9.44-9.44c-3.905-3.905-10.237-3.905-14.142 0l-24.768 24.768c-3.905 3.905-3.905 10.237 0 14.142l78.644 78.644c3.905 3.905 10.237 3.905 14.142 0l9.44-9.44z" fill="#537983"/></g><path d="m364.807 283.047v-66.759c-15.454-44.232-57.54-75.966-107.044-75.966-62.611 0-113.367 50.756-113.367 113.367s50.756 113.367 113.367 113.367c51.475 0 94.93-34.311 108.762-81.308-1.012-.48-1.718-1.504-1.718-2.701z" fill="#678d98"/><g><path d="m168.266 253.69c0-58.58 44.432-106.778 101.432-112.743-3.923-.41-7.903-.625-11.935-.625-62.611 0-113.367 50.756-113.367 113.367s50.756 113.367 113.367 113.367c4.031 0 8.012-.214 11.935-.625-57-5.963-101.432-54.161-101.432-112.741z" fill="#537983"/></g><path d="m305.736 286.047c-1.657 0-3-1.343-3-3v-71.437c0-1.657 1.343-3 3-3h16.371c-14.234-20.256-37.761-33.532-64.344-33.532-43.347 0-78.612 35.265-78.612 78.612s35.265 78.612 78.612 78.612c31.815 0 59.255-19.008 71.615-46.255z" fill="#c8effe"/><g><path d="m210.776 253.69c0-37.932 27.005-69.676 62.8-77.014-5.109-1.047-10.398-1.598-15.812-1.598-43.347 0-78.612 35.265-78.612 78.612s35.265 78.612 78.612 78.612c5.415 0 10.703-.551 15.812-1.598-35.795-7.338-62.8-39.082-62.8-77.014z" fill="#99e6fc"/></g></g><g><g><g><g><path d="m271.862 286.047h-28.197c-1.657 0-3-1.343-3-3v-36.1c0-1.657 1.343-3 3-3h28.197c1.657 0 3 1.343 3 3v36.1c0 1.657-1.343 3-3 3z" fill="#fd5426"/></g></g></g><g><path d="m257 283.047v-36.1c0-1.657 1.343-3 3-3h-16.335c-1.657 0-3 1.343-3 3v36.1c0 1.657 1.343 3 3 3h16.335c-1.657 0-3-1.343-3-3z" fill="#ef4424"/></g><g><g><g><path d="m333.933 286.047h-28.197c-1.657 0-3-1.343-3-3v-71.437c0-1.657 1.343-3 3-3h28.197c1.657 0 3 1.343 3 3v71.437c0 1.657-1.343 3-3 3z" fill="#fed402"/></g></g></g><g><path d="m319 283.047v-71.437c0-1.657 1.343-3 3-3h-16.264c-1.657 0-3 1.343-3 3v71.437c0 1.657 1.343 3 3 3h16.264c-1.657 0-3-1.343-3-3z" fill="#fac600"/></g><g><g><g><path d="m396.005 286.047h-28.197c-1.657 0-3-1.343-3-3v-139.724c0-1.657 1.343-3 3-3h28.197c1.657 0 3 1.343 3 3v139.724c0 1.657-1.343 3-3 3z" fill="#05e39c"/></g></g></g><g><path d="m381.803 283.047v-139.724c0-1.657 1.343-3 3-3h-16.995c-1.657 0-3 1.343-3 3v139.724c0 1.657 1.343 3 3 3h16.995c-1.657 0-3-1.343-3-3z" fill="#0ed290"/></g><g><g><g><path d="m458.076 286.047h-28.197c-1.657 0-3-1.343-3-3v-105.527c0-1.657 1.343-3 3-3h28.197c1.657 0 3 1.343 3 3v105.527c0 1.657-1.343 3-3 3z" fill="#01d0fb"/></g></g></g><g><path d="m443.803 283.047v-105.527c0-1.657 1.343-3 3-3h-16.924c-1.657 0-3 1.343-3 3v105.527c0 1.657 1.343 3 3 3h16.924c-1.657 0-3-1.343-3-3z" fill="#01c0fa"/></g></g><g><path d="m91.203 177.862h-44.517c-1.514 0-2.741-1.227-2.741-2.741v-44.517c0-1.514 1.227-2.741 2.741-2.741h44.517c1.514 0 2.741 1.227 2.741 2.741v44.517c0 1.514-1.227 2.741-2.741 2.741z" fill="#01d0fb"/></g><g><path d="m68 175.121v-44.517c0-1.514 1.227-2.741 2.741-2.741h-24.055c-1.514 0-2.741 1.227-2.741 2.741v44.517c0 1.514 1.227 2.741 2.741 2.741h24.056c-1.515 0-2.742-1.227-2.742-2.741z" fill="#01c0fa"/></g><g><path d="m91.203 258.646h-44.517c-1.514 0-2.741-1.227-2.741-2.741v-44.517c0-1.514 1.227-2.741 2.741-2.741h44.517c1.514 0 2.741 1.227 2.741 2.741v44.517c0 1.514-1.227 2.741-2.741 2.741z" fill="#05e39c"/></g><g><path d="m68 255.905v-44.517c0-1.514 1.227-2.741 2.741-2.741h-24.055c-1.514 0-2.741 1.227-2.741 2.741v44.517c0 1.514 1.227 2.741 2.741 2.741h24.056c-1.515 0-2.742-1.227-2.742-2.741z" fill="#0ed290"/></g><g><path d="m493.101 37.731h-474.202c-6.295 0-11.399 5.104-11.399 11.399v39.897h497v-39.897c0-6.295-5.104-11.399-11.399-11.399z" fill="#7ca1b1"/></g><g><path d="m18.899 37.731c-6.295 0-11.399 5.104-11.399 11.399v39.897h82.073v-51.296z" fill="#678d98"/></g><path d="m59.399 37.731h-40.5c-6.295 0-11.399 5.104-11.399 11.399v39.897h40.5v-39.897c0-6.295 5.104-11.399 11.399-11.399z" fill="#537983"/><g><path d="m113.512 288.99h-69.568c-4.143 0-7.5 3.358-7.5 7.5s3.357 7.5 7.5 7.5h69.567c4.143 0 7.5-3.358 7.5-7.5s-3.357-7.5-7.499-7.5z"/><path d="m113.512 319.768h-69.568c-4.143 0-7.5 3.358-7.5 7.5s3.357 7.5 7.5 7.5h69.567c4.143 0 7.5-3.358 7.5-7.5s-3.357-7.5-7.499-7.5z"/><path d="m121.012 358.045c0-4.142-3.357-7.5-7.5-7.5h-69.568c-4.143 0-7.5 3.358-7.5 7.5s3.357 7.5 7.5 7.5h69.567c4.143 0 7.501-3.357 7.501-7.5z"/><path d="m43.944 381.323c-4.143 0-7.5 3.358-7.5 7.5s3.357 7.5 7.5 7.5h41.036c4.143 0 7.5-3.358 7.5-7.5s-3.357-7.5-7.5-7.5z"/><path d="m46.686 185.362h44.518c5.647 0 10.241-4.594 10.241-10.241v-44.517c0-5.647-4.594-10.242-10.241-10.242h-44.518c-5.647 0-10.241 4.594-10.241 10.242v44.517c-.001 5.647 4.593 10.241 10.241 10.241zm4.758-50h35v35h-35z"/><path d="m36.444 255.905c0 5.647 4.594 10.241 10.241 10.241h44.518c5.647 0 10.241-4.594 10.241-10.241v-44.517c0-5.647-4.594-10.242-10.241-10.242h-44.517c-5.647 0-10.241 4.594-10.241 10.242v44.517zm15-39.759h35v35h-35z"/><path d="m461.076 69.854c4.143 0 7.5-3.358 7.5-7.5s-3.357-7.5-7.5-7.5h-23c-4.143 0-7.5 3.358-7.5 7.5s3.357 7.5 7.5 7.5z"/><path d="m458.076 293.547c5.79 0 10.5-4.71 10.5-10.5v-105.527c0-5.79-4.71-10.5-10.5-10.5h-28.197c-5.79 0-10.5 4.71-10.5 10.5v105.527c0 5.79 4.71 10.5 10.5 10.5zm-23.697-111.527h19.197v96.527h-19.197z"/><path d="m271.862 236.447h-28.197c-5.79 0-10.5 4.71-10.5 10.5v36.1c0 5.79 4.71 10.5 10.5 10.5h28.197c5.79 0 10.5-4.71 10.5-10.5v-36.1c0-5.789-4.71-10.5-10.5-10.5zm-4.5 42.1h-19.197v-27.1h19.197z"/><path d="m333.934 201.11h-8.044c-15.761-20.377-40.43-33.532-68.126-33.532-47.482 0-86.112 38.629-86.112 86.112s38.63 86.112 86.112 86.112c33.108 0 61.894-18.793 76.299-46.261 5.73-.07 10.37-4.748 10.37-10.493v-71.438c.001-5.79-4.709-10.5-10.499-10.5zm-76.17 123.692c-39.212 0-71.112-31.901-71.112-71.112s31.9-71.112 71.112-71.112c18.4 0 35.185 7.031 47.824 18.539-5.721.081-10.351 4.753-10.351 10.492v71.438c0 5.79 4.71 10.5 10.5 10.5h10.857c-12.801 18.842-34.384 31.255-58.83 31.255zm71.67-46.255h-19.197v-62.437h19.197z"/><path d="m493.101 30.231h-325.101c-4.143 0-7.5 3.358-7.5 7.5s3.357 7.5 7.5 7.5h325.101c2.15 0 3.899 1.749 3.899 3.899v32.397h-399.927v-36.296h35.927c4.143 0 7.5-3.358 7.5-7.5s-3.357-7.5-7.5-7.5h-114.101c-10.42 0-18.899 8.478-18.899 18.899v363.63c0 10.421 8.479 18.899 18.899 18.899h276.101c4.143 0 7.5-3.358 7.5-7.5s-3.357-7.5-7.5-7.5h-276.101c-2.15 0-3.899-1.75-3.899-3.899v-316.233h482v316.233c0 2.15-1.749 3.899-3.899 3.899h-22.222l-68.169-68.17c-5.421-5.42-13.536-6.518-20.067-3.327l-24.419-24.419c5.616-8.391 10.228-17.508 13.623-27.197h24.159c5.79 0 10.5-4.71 10.5-10.5v-68.043c0-4.142-3.357-7.5-7.5-7.5s-7.5 3.358-7.5 7.5v63.543h-19.197v-130.723h19.197v32.181c0 4.142 3.357 7.5 7.5 7.5s7.5-3.358 7.5-7.5v-36.681c0-5.79-4.71-10.5-10.5-10.5h-28.197c-5.79 0-10.5 4.71-10.5 10.5v41.924c-21.818-31.637-58.291-52.424-99.544-52.424-66.646 0-120.867 54.221-120.867 120.867s54.221 120.867 120.867 120.867c24.803 0 47.876-7.517 67.077-20.385l24.627 24.627c-2.695 6.371-1.461 14.023 3.724 19.208l18.653 18.653h-41.846c-4.143 0-7.5 3.358-7.5 7.5s3.357 7.5 7.5 7.5h56.844l44.99 44.991c3.412 3.412 7.894 5.118 12.375 5.118s8.963-1.706 12.375-5.118l24.768-24.768c5.463-5.463 6.54-13.666 3.254-20.223h8.494c10.421 0 18.899-8.478 18.899-18.899v-363.631c.001-10.421-8.478-18.899-18.898-18.899zm-411.028 51.296h-67.073v-32.397c0-2.15 1.749-3.899 3.899-3.899h63.174zm175.691 278.03c-58.375 0-105.867-47.492-105.867-105.867s47.492-105.867 105.867-105.867c45.723 0 84.766 29.138 99.544 69.819v65.405c0 1.487.315 2.9.875 4.183-14.061 41.987-53.762 72.327-100.419 72.327zm79.088-14.587c4.345-3.772 8.425-7.84 12.195-12.188l22.311 22.31-12.191 12.192zm133.893 96.306-24.768 24.768c-.975.975-2.561.975-3.535 0l-78.643-78.644c-.976-.975-.976-2.561 0-3.536l24.768-24.768c.487-.487 1.127-.731 1.768-.731s1.28.244 1.768.731l78.644 78.644c.974.975.974 2.562-.002 3.536z"/></g></g></svg>