<svg id="Layer_1" height="512" viewBox="0 0 512 512" width="512" xmlns="http://www.w3.org/2000/svg" data-name="Layer 1"><path d="m369.35 56.03-162.37-10.9a175.129 175.129 0 0 0 -101.88 149.62c-.2 3.19-.28 36.37-.28 36.37l-33.6 88.165a7.908 7.908 0 0 0 7.27 10.715h51.51v57.17a38.963 38.963 0 0 0 40.11 38.9c2.76-.08 31.295-.22 51.295-.3a25.249 25.249 0 0 1 21.262 11.522 20.99 20.99 0 0 1 3.333 11.485v52.223h156.07s-6.17-101.88 0-168.22c1.83-19.56 20.57-65.84 20.57-65.84 40.4-77.35 11.83-167.13-53.29-210.91z" fill="#ffd8b7"/><path d="m101.22 319.285 33.6-88.165s.08-33.18.28-36.37a175.088 175.088 0 0 1 98.2-147.85l-26.32-1.77a175.129 175.129 0 0 0 -101.88 149.62c-.2 3.19-.28 36.37-.28 36.37l-33.6 88.165a7.908 7.908 0 0 0 7.27 10.715h30a7.908 7.908 0 0 1 -7.27-10.715z" fill="#d1ad93"/><path d="m272.667 437.292a25.249 25.249 0 0 0 -21.262-11.522c-8.506.034-18.551.079-27.5.125a25.285 25.285 0 0 1 18.767 11.4 20.99 20.99 0 0 1 3.328 11.482v52.223h30v-52.223a20.99 20.99 0 0 0 -3.333-11.485z" fill="#d1ad93"/><path d="m160 387.17v-57.17h-30v57.17a38.963 38.963 0 0 0 40.11 38.9c1.638-.047 12.349-.116 24.968-.181a38.963 38.963 0 0 1 -35.078-38.719z" fill="#d1ad93"/><g id="_Path_" data-name=" Path "><path d="m385.3 108.54c0 31.31-15.48 59.08-39.25 76.95a50.43 50.43 0 0 0 -20.21 36.87h-84.08a50.357 50.357 0 0 0 -20.45-37.11c-23.91-17.76-39.14-45.64-39.02-77.06.08-23.84 9.39-45.96 24.69-63.06a102.68 102.68 0 0 1 70.44-33.94c38.54-2.27 72.82 16.17 91.93 44.84a94.4 94.4 0 0 1 15.95 52.51z" fill="#e87187"/><path d="m241.86 239.19h83.87v19.34h-83.87z" fill="#6d7486"/><path d="m319.49 292.94v.01l-7.47 19.75h-56.45l-7.47-19.75v-.01z" fill="#b0b5ca"/></g><path d="m235 222h98v18h-98z" fill="#b0b5ca"/><path d="m242 274h84v20h-84z" fill="#6d7486"/><path d="m235 258h98v17h-98z" fill="#b0b5ca"/><path d="m348.32 100.78v16.67l-16.18 2.57a49.271 49.271 0 0 1 -6.45 15.56l9.63 13.27-11.79 11.79-13.27-9.63a49.271 49.271 0 0 1 -15.56 6.45l-2.57 16.18h-16.67l-2.57-16.18a49.175 49.175 0 0 1 -15.56-6.45l-13.27 9.63-11.79-11.79 9.63-13.27a49.271 49.271 0 0 1 -6.45-15.56l-16.18-2.57v-16.67l16.18-2.57a49.175 49.175 0 0 1 6.45-15.56l-9.63-13.27 11.79-11.79 13.27 9.63a49.175 49.175 0 0 1 15.56-6.45l2.57-16.18h16.67l2.57 16.18a49.271 49.271 0 0 1 15.56 6.45l13.27-9.63 11.79 11.79-9.63 13.27a49.175 49.175 0 0 1 6.45 15.56z" fill="#f3ce7d"/><path d="m283.79 76.96a32.155 32.155 0 1 1 -32.15 32.15 32.153 32.153 0 0 1 32.15-32.15zm11.3 32.15a11.3 11.3 0 1 0 -11.3 11.3 11.3 11.3 0 0 0 11.3-11.3z" fill="#ceaf72"/><g fill="#284268"><path d="m139.371 148.374a6 6 0 0 0 -7.65 3.671 157.354 157.354 0 0 0 -8.649 43.643c0 .046 0 .093-.007.14-.109 2.812-.206 20.215-.241 35.244a5.921 5.921 0 0 0 5.984 5.928h.015a5.928 5.928 0 0 0 6-5.9c.04-16.973.144-32.582.229-34.776a145.106 145.106 0 0 1 7.99-40.324 5.975 5.975 0 0 0 -3.671-7.626z"/><path d="m147.3 137.771a6 6 0 0 0 5.27-3.123c.814-1.489 1.669-2.989 2.541-4.459a6 6 0 0 0 -10.318-6.126c-.944 1.591-1.87 3.215-2.753 4.829a6 6 0 0 0 5.26 8.879z"/><path d="m78.493 336h45.507v51.167a45.211 45.211 0 0 0 46.331 45.016c2.041-.063 20.187-.183 51.044-.183h.081a18.952 18.952 0 0 1 14.105 6.148 5.834 5.834 0 0 0 4.328 1.852 5.989 5.989 0 0 0 4.464-10 31.011 31.011 0 0 0 -22.9-10h-.133c-21.9 0-48.588.1-51.337.189a33.117 33.117 0 0 1 -33.983-33.022v-57.478a5.689 5.689 0 0 0 -5.689-5.689h-51.818a1.822 1.822 0 0 1 -1.468-.927 1.908 1.908 0 0 1 -.2-1.725l33.6-88.053a5.993 5.993 0 0 0 .395-2.122c.031-13.265.126-33.835.264-36.09a168.48 168.48 0 0 1 76.616-132.493 101.515 101.515 0 0 0 -8.409 22 5.99 5.99 0 0 0 5.839 7.41 6.025 6.025 0 0 0 5.826-4.583 91.035 91.035 0 0 1 23.444-41.341 96.521 96.521 0 0 1 63.373-28.854c27.1-1.59 53.708 7.9 73 26.089 18.4 17.353 28.537 40.513 28.537 65.235 0 28.247-13.434 54.36-36.858 71.971a56.382 56.382 0 0 0 -21.927 35.483h-73.454a56.521 56.521 0 0 0 -22.188-35.662 89.548 89.548 0 0 1 -34.734-53.576 6.013 6.013 0 0 0 -11.783 2.4c4.967 24.117 18.7 45.465 39.363 60.81a45.2 45.2 0 0 1 17.12 26.028h-.033c-3.314 0-5.816 3.049-5.816 6.363v17.831a5.682 5.682 0 0 0 5.816 5.806h1.184v6h-1.184a5.463 5.463 0 0 0 -5.816 5.534v17.831a5.543 5.543 0 0 0 5.816 5.635h1.184v11.936a5.936 5.936 0 0 0 5.857 6.064h2.09l6.011 16.007a6.107 6.107 0 0 0 5.612 3.993h56.449a6.107 6.107 0 0 0 5.612-3.993l6.011-16.007h2.088a6.291 6.291 0 0 0 6.27-6.064v-11.936h.773c3.314 0 6.227-2.321 6.227-5.635v-17.831c0-3.314-2.913-5.534-6.227-5.534h-.773v-6h.773a6.036 6.036 0 0 0 6.227-5.806v-17.831a6.516 6.516 0 0 0 -6.227-6.363h-.022a45.116 45.116 0 0 1 16.907-25.9c26.466-19.9 41.646-49.605 41.646-81.659a100.233 100.233 0 0 0 -4.882-31.006 158.38 158.38 0 0 1 43.35 73.031 156.251 156.251 0 0 1 -12.454 113.689q-.134.258-.243.526c-.779 1.923-19.094 47.337-20.975 67.539-5.259 56.493-1.576 139.361-.363 162.776h-143.737v-19.004a5.992 5.992 0 0 0 -5.992-5.992h-.016a5.992 5.992 0 0 0 -5.992 5.992v25.008a6 6 0 0 0 6 6h155.942a6.214 6.214 0 0 0 2.546-.5 6.017 6.017 0 0 0 3.576-5.863c-.062-1.014-6.079-102.171-.015-167.3 1.65-17.721 18.543-60.146 20.044-63.886a169.366 169.366 0 0 0 -54.28-217.626 105.766 105.766 0 0 0 -14.813-17.312c-21.682-20.445-51.545-31.123-81.932-29.338a108.56 108.56 0 0 0 -71.24 32.49q-1.213 1.239-2.382 2.512a180.549 180.549 0 0 0 -104.339 154.208c-.186 3.041-.265 29.205-.281 35.618l-33.209 86.988a14.093 14.093 0 0 0 1.524 12.887 13.932 13.932 0 0 0 11.352 6.122zm229.381-29h-48.159l-2.938-8h54.035zm12.126-20h-72v-6h72zm7-18h-86v-5h86zm-79-17v-6h72v6zm79-18h-86v-6h86z"/><path d="m283.8 147.272a38.158 38.158 0 1 0 -38.159-38.158 38.2 38.2 0 0 0 38.159 38.158zm0-64.316a26.158 26.158 0 1 1 -26.159 26.158 26.188 26.188 0 0 1 26.159-26.158z"/><path d="m283.8 126.41a17.3 17.3 0 1 0 -17.3-17.3 17.315 17.315 0 0 0 17.3 17.3zm0-22.591a5.3 5.3 0 1 1 -5.3 5.3 5.3 5.3 0 0 1 5.3-5.3z"/><path d="m218.192 94.851a6.119 6.119 0 0 0 -5.192 5.925v16.677a6.119 6.119 0 0 0 5.192 5.925l12.391 1.957a55.162 55.162 0 0 0 4.131 9.885l-7.316 10.1a6 6 0 0 0 .622 7.767l11.8 11.792a6 6 0 0 0 7.769.613l10.1-7.332a55.1 55.1 0 0 0 9.885 4.1l1.957 12.5a6.162 6.162 0 0 0 5.925 5.24h16.677a6.162 6.162 0 0 0 5.926-5.238l1.957-12.414a55.155 55.155 0 0 0 9.884-4.142l10.1 7.31a6 6 0 0 0 7.767-.624l11.792-11.8a6 6 0 0 0 .613-7.769l-7.332-10.1a55.139 55.139 0 0 0 4.1-9.886l12.163-1.957a5.862 5.862 0 0 0 4.9-5.926v-16.678a5.86 5.86 0 0 0 -4.9-5.925l-12.244-1.958a54.787 54.787 0 0 0 -4.057-9.884l7.353-10.1a6 6 0 0 0 -.6-7.768l-11.791-11.793a6 6 0 0 0 -7.764-.613l-10.1 7.332a55.09 55.09 0 0 0 -9.884-4.1l-1.957-12.117a5.821 5.821 0 0 0 -5.926-4.85h-16.677a5.821 5.821 0 0 0 -5.925 4.853l-1.958 12.22a54.847 54.847 0 0 0 -9.884 4.046l-10.1-7.358a6 6 0 0 0 -7.767.6l-11.794 11.786a6 6 0 0 0 -.613 7.764l7.333 10.1a55.29 55.29 0 0 0 -4.165 9.884zm18.064 9.281a6.08 6.08 0 0 0 4.979-4.611 43.272 43.272 0 0 1 5.7-13.667 6 6 0 0 0 -.2-6.734l-6.608-9.12 4.552-4.547 9.12 6.617a6 6 0 0 0 6.735.214 43.162 43.162 0 0 1 13.666-5.662 5.762 5.762 0 0 0 4.611-4.706l1.768-10.916h6.431l1.767 10.916a5.878 5.878 0 0 0 4.611 4.809 43.066 43.066 0 0 1 13.666 5.614 6 6 0 0 0 6.734-.24l9.118-6.631 4.548 4.542-6.618 9.113a6 6 0 0 0 -.214 6.733 43.157 43.157 0 0 1 5.665 13.666 5.812 5.812 0 0 0 4.752 4.61l10.961 1.768v6.433l-10.961 1.767a5.905 5.905 0 0 0 -4.833 4.611 43.089 43.089 0 0 1 -5.624 13.666 6 6 0 0 0 .234 6.734l6.628 9.118-4.543 4.547-9.115-6.617a5.994 5.994 0 0 0 -6.733-.214 43.167 43.167 0 0 1 -13.666 5.665 6.215 6.215 0 0 0 -4.61 5.092l-1.767 11.298h-6.432l-1.766-11.3a6.1 6.1 0 0 0 -4.611-5 43.291 43.291 0 0 1 -13.666-5.71 6 6 0 0 0 -6.734.191l-9.118 6.607-4.548-4.554 6.618-9.12a6 6 0 0 0 .214-6.736 43.162 43.162 0 0 1 -5.665-13.667 6.162 6.162 0 0 0 -5.046-4.611l-11.256-1.769v-6.431z"/></g></svg>