<svg id="Layer_1" height="512" viewBox="0 0 512 512" width="512" xmlns="http://www.w3.org/2000/svg" data-name="Layer 1"><g id="_Path_" data-name=" Path "><path d="m476 281.55v-51.1l-49.515-7.88a150.984 150.984 0 0 0 -19.722-47.68l29.518-40.65-36.13-36.13-40.636 29.5a151.146 151.146 0 0 0 -47.687-19.9l-7.868-49.71h-25.96v386.68a57.828 57.828 0 0 1 -.5 9.17l.345.15h26.11l7.87-49.71a151.032 151.032 0 0 0 47.69-19.835l40.64 29.467 36.14-36.146-29.5-40.658a150.932 150.932 0 0 0 19.685-47.684z" fill="#6994fe"/></g><path d="m278 146.305v219.615a109.808 109.808 0 1 0 0-219.615z" fill="#ccd3df"/><path d="m278.47 179.45a76.55 76.55 0 0 1 0 153.1v-41.94a34.61 34.61 0 0 0 0-69.22z" fill="#6994fe"/><path d="m273.075 34.7a46.861 46.861 0 1 0 -81.375 46.5l-.42.81a75.1 75.1 0 0 0 -105.527 93.74l-.007.01a53.711 53.711 0 0 0 -12.677 97.66 75.138 75.138 0 0 0 18.931 136.59v27.16a56.171 56.171 0 0 0 89.505 45.36 55.5 55.5 0 0 0 97.495-37.85v-386.74a46.663 46.663 0 0 0 -5.925-23.24z" fill="#a0eaea"/><path d="m122 437.17v-27.16a75.138 75.138 0 0 1 -18.931-136.59 53.711 53.711 0 0 1 12.677-97.66l.007-.01a75.069 75.069 0 0 1 54.836-101.25 75.091 75.091 0 0 0 -84.836 101.25l-.007.01a53.711 53.711 0 0 0 -12.677 97.66 75.138 75.138 0 0 0 18.931 136.59v27.16a56.2 56.2 0 0 0 71.191 54.283 56.254 56.254 0 0 1 -41.191-54.283z" fill="#7fb5b4"/><g fill="#284268"><path d="m216.531 265.028a42.24 42.24 0 0 0 -8.26-35.656 6 6 0 0 0 -9.37 7.5 30.261 30.261 0 0 1 3.958 31.406 42.28 42.28 0 0 0 -25.466 44.4 6 6 0 0 0 5.943 5.228 6.067 6.067 0 0 0 .78-.051 6 6 0 0 0 5.177-6.723 30.313 30.313 0 0 1 47.763-28.51 6 6 0 0 0 7.008-9.741 42.123 42.123 0 0 0 -27.533-7.853z"/><path d="m125.209 231.424a6 6 0 0 0 -.108-8.484 22.137 22.137 0 0 1 -6.379-12.178 34.321 34.321 0 0 0 4.622-27.369 6 6 0 1 0 -11.623 2.983 22.347 22.347 0 0 1 -11.789 25.539 6 6 0 1 0 5.268 10.785 34.044 34.044 0 0 0 3.936-2.262 34.125 34.125 0 0 0 7.586 11.1 6 6 0 0 0 8.485-.108z"/><path d="m169.193 129.715a22.269 22.269 0 0 1 25.013 32.319 6 6 0 1 0 10.512 5.788 34.1 34.1 0 0 0 3.915-21.2c.562.028 1.123.044 1.684.044a34.237 34.237 0 0 0 24.463-10.286 6 6 0 1 0 -8.566-8.4 22.247 22.247 0 0 1 -22.082 5.8 34.22 34.22 0 0 0 -37.906-15.684 6 6 0 0 0 2.967 11.627z"/><path d="m144.875 381.087a6 6 0 0 0 .368 1.3 37.933 37.933 0 0 1 -7.464 33.888 6 6 0 1 0 9.265 7.627 49.938 49.938 0 0 0 11.438-33.608 49.956 49.956 0 0 0 44.3-6.508 6 6 0 0 0 -6.869-9.84 37.987 37.987 0 0 1 -40 2.188 50.154 50.154 0 0 0 -12.116-19.47 6 6 0 0 0 -8.485 8.485 38.114 38.114 0 0 1 9.563 15.938z"/><path d="m252 84a6 6 0 0 0 6-6v-2a6 6 0 0 0 -12 0v2a6 6 0 0 0 6 6z"/><path d="m252 196a6 6 0 0 0 6-6v-92a6 6 0 0 0 -12 0v92a6 6 0 0 0 6 6z"/></g><path d="m191.647 81.305a74.567 74.567 0 0 1 21.634 7.7l.42-.81a46.883 46.883 0 0 1 43.439-70.095 46.876 46.876 0 0 0 -65.44 63.1z" fill="#7fb5b4"/><path d="m477.014 224.522-45.584-7.246a156.476 156.476 0 0 0 -17.439-42.114l27.153-37.394a6 6 0 0 0 -.609-7.768l-36.135-36.136a6 6 0 0 0 -7.766-.613l-37.392 27.149a156.55 156.55 0 0 0 -42.114-17.457l-7.246-45.75a6.115 6.115 0 0 0 -5.926-5.193h-20.284a51.674 51.674 0 0 0 -6.388-20.277 52.715 52.715 0 0 0 -72.034-19.764 53.008 53.008 0 0 0 -25 59.2 81.086 81.086 0 0 0 -103.15 100.919 59.707 59.707 0 0 0 -15.5 101.256 81.774 81.774 0 0 0 -7.6 6.666 80.5 80.5 0 0 0 -24.013 57.206c-.205 35.706 23.013 66.206 55.013 77.187v22.778a62.133 62.133 0 0 0 94.736 53.079 62.28 62.28 0 0 0 42.413 16.75 61.893 61.893 0 0 0 60.017-47h21.789a6.115 6.115 0 0 0 5.926-5.188l7.246-45.686a156.576 156.576 0 0 0 42.114-17.489l37.394 27.128a6 6 0 0 0 7.767-.621l36.138-36.144a6 6 0 0 0 .613-7.77l-27.144-37.395a156.484 156.484 0 0 0 17.457-42.115l45.548-7.246a5.937 5.937 0 0 0 4.986-5.922v-51.1a5.937 5.937 0 0 0 -4.986-5.93zm-205.014 220.159a49.921 49.921 0 0 1 -49.968 50.319 50.269 50.269 0 0 1 -32.7-12.148 62.179 62.179 0 0 0 20.018-45.681 5.989 5.989 0 1 0 -11.978 0 50.186 50.186 0 1 1 -100.371 0v-19.677a71 71 0 0 0 13.487 1.506h.922a6 6 0 0 0 -.062-12h-.8a67.485 67.485 0 0 1 -17.211-2.39 6.031 6.031 0 0 0 -1.937-.621 69.116 69.116 0 0 1 19.532-135.406h.443a6 6 0 0 0 .033-12 80.261 80.261 0 0 0 -39.166 9.8 47.7 47.7 0 0 1 9.258-83.133q1.309 2.719 2.833 5.365a6 6 0 0 0 10.394-6 69.107 69.107 0 0 1 100.857-90.17 6 6 0 1 0 7.119-9.66 81.517 81.517 0 0 0 -6.815-4.513l.087-.049a40.938 40.938 0 0 1 46.364-59.763 40.21 40.21 0 0 1 24.521 19.207 40.784 40.784 0 0 1 5.14 20.277zm12-216.672a28.63 28.63 0 0 1 0 55.982zm0 68.176a40.633 40.633 0 0 0 0-80.37v-30.091a70.53 70.53 0 0 1 0 140.552zm186-19.755-44.454 7.07a5.957 5.957 0 0 0 -4.876 4.611 144.648 144.648 0 0 1 -18.962 45.792 6 6 0 0 0 .223 6.734l26.5 36.5-28.89 28.892-36.5-26.492a6 6 0 0 0 -6.734-.214 144.655 144.655 0 0 1 -45.792 18.98 6.155 6.155 0 0 0 -4.61 5.042l-7.071 44.655h-14.922c.056-1.1.088-2.208.088-3.319v-72.919c61.226-3.129 110.117-53.856 110.117-115.762a115.339 115.339 0 0 0 -22.05-68.212 6 6 0 0 0 -9.734 7.019 104.063 104.063 0 0 1 -78.333 164.935v-21.432a82.527 82.527 0 0 0 0-164.62v-21.42a103.031 103.031 0 0 1 48.946 15.5 6.02 6.02 0 0 0 7.436-.79l.047-.045a6 6 0 0 0 -1.014-9.347 113.282 113.282 0 0 0 -55.415-17.341v-76.247h14.834l7.072 44.656a6.077 6.077 0 0 0 4.611 4.977 144.739 144.739 0 0 1 45.792 19.013 6 6 0 0 0 6.734-.2l36.5-26.484 28.893 28.9-26.493 36.5a6 6 0 0 0 -.214 6.735 144.686 144.686 0 0 1 18.981 45.793 5.914 5.914 0 0 0 4.839 4.611l44.451 7.069z" fill="#284268"/></svg>