<svg id="Layer_1" enable-background="new 0 0 512.001 512.001" height="512" viewBox="0 0 512.001 512.001" width="512" xmlns="http://www.w3.org/2000/svg"><g><g clip-rule="evenodd" fill-rule="evenodd"><path d="m376.001 100.001v-40c0-5.5-4.5-10-10-10h-69.999c0-22.092-17.909-40.001-40.001-40.001s-40.001 17.909-40.001 40.001h-69.999c-5.5 0-10 4.5-10 10v39.999c0 5.5 4.5 10 10 10h220c5.5 0 10-4.5 10-9.999z" fill="#ffee80"/><path d="m136.001 100.001v-40.001h-50c-11 0-20 8.999-20 20v402.001c0 11.001 9 20 20 20h340c11 0 20-9 20-20v-402.001c0-11-9-20-20-20l-50 .001v39.999h30v362.001h-300v-362.001z" fill="#8690af"/><path d="m146.001 110c-5.5 0-10-4.5-10-10h-30v362.001h300v-362.001h-30c0 5.499-4.5 10-10 10z" fill="#fff"/><circle cx="256.002" cy="281.001" fill="#b8ecbc" r="100"/><path d="m204.504 293.646c-7.809-7.809-7.809-20.472 0-28.281s20.472-7.809 28.281 0l11.761 11.761 34.671-34.671c7.809-7.809 20.472-7.809 28.281 0s7.809 20.472 0 28.281l-48.812 48.812c-7.809 7.809-20.472 7.809-28.281 0z" fill="#fff"/></g><g><path d="m426.001 50h-42.707c-3.465-5.967-9.91-9.999-17.292-9.999h-61.004c-4.644-22.796-24.849-40.001-48.996-40.001-24.148 0-44.353 17.205-48.997 40.001h-61.004c-7.383 0-13.829 4.032-17.293 9.999h-42.707c-16.542 0-30 13.458-30 30v20c0 5.523 4.478 10 10 10s10-4.477 10-10v-20c0-5.514 4.486-10 10-10h40v20h-19.999c-5.522 0-10 4.477-10 10v362.001c0 5.523 4.478 10 10 10h169.998c5.522 0 10-4.477 10-10s-4.478-10-10-10h-159.998v-342.001h12.705c3.465 5.968 9.91 10 17.294 10h220.001c7.383 0 13.828-4.032 17.293-10h12.707v342.001h-30.002c-5.522 0-10 4.477-10 10s4.478 10 10 10h40.002c5.522 0 10-4.477 10-10v-362.001c0-5.523-4.478-10-10-10h-20.001v-20h40c5.514 0 10 4.486 10 10v402.001c0 5.514-4.486 10-10 10h-340c-5.514 0-10-4.486-10-10v-292.001c0-5.523-4.478-10-10-10s-10 4.477-10 10v292.001c0 16.542 13.458 30 30 30h340c16.542 0 30-13.458 30-30v-402.001c0-16.542-13.458-30-30-30zm-280 50-.002-39.999h70.001c5.522 0 10-4.477 10-10 0-16.543 13.459-30.001 30.002-30.001s30.001 13.458 30.001 30.001c0 5.523 4.478 10 10 10h69.998l.001 39.999z"/><path d="m256.005 40.001h-.008c-5.522 0-9.996 4.477-9.996 10s4.481 10 10.004 10 10-4.477 10-10-4.478-10-10-10z"/><path d="m366.002 281.001c0-60.654-49.346-110-110-110s-110 49.346-110 110 49.346 110 110 110 110-49.346 110-110zm-110 90c-49.626 0-90-40.374-90-90s40.374-90 90-90 90 40.374 90 90-40.374 90-90 90z"/><path d="m314.57 235.383c-5.666-5.666-13.199-8.786-21.212-8.786s-15.546 3.121-21.212 8.786l-27.6 27.6-4.69-4.69c-5.666-5.666-13.199-8.786-21.212-8.786s-15.546 3.121-21.212 8.787c-11.694 11.696-11.694 30.727 0 42.423l25.902 25.902c5.849 5.848 13.53 8.772 21.212 8.772s15.363-2.924 21.212-8.772l48.812-48.812c5.666-5.666 8.786-13.199 8.786-21.212s-3.12-15.546-8.786-21.212zm-14.143 28.282-48.812 48.812c-3.898 3.898-10.24 3.898-14.139 0l-25.902-25.902c-3.897-3.898-3.897-10.241 0-14.139 1.888-1.889 4.398-2.928 7.069-2.928s5.182 1.04 7.069 2.928l11.762 11.761c3.906 3.905 10.236 3.905 14.143 0l34.671-34.671c3.898-3.898 10.24-3.898 14.139 0 1.889 1.888 2.929 4.398 2.929 7.069s-1.04 5.181-2.929 7.07z"/><path d="m66.001 155.004c5.522 0 10-4.477 10-10v-.007c0-5.523-4.478-9.996-10-9.996s-10 4.48-10 10.003 4.477 10 10 10z"/><path d="m321.004 472.001c5.522 0 10-4.477 10-10s-4.478-10-10-10h-.008c-5.522 0-9.996 4.477-9.996 10s4.481 10 10.004 10z"/></g></g></svg>