<svg id="_x33_0" enable-background="new 0 0 64 64" height="512" viewBox="0 0 64 64" width="512" xmlns="http://www.w3.org/2000/svg"><g><g><g><path d="m27 19.82v8.86c-.3-.08-.61-.13-.92-.17l-2.09-.26-1.99-.25-.71-2.82c1.93-1.02 3.32-2.93 3.63-5.18h.01 1.07c.35 0 .69-.06 1-.18z" fill="#fcd770"/></g><g><path d="m62 3v42c0 .55-.45 1-1 1h-20.86c.36-.49.63-1.05.78-1.66l.58-2.34h16.5v-8-28h-30.33c-1.53-2.4-4.21-4-7.27-4h40.6c.55 0 1 .45 1 1z" fill="#fcd770"/></g><g><path d="m27.67 6c.84 1.33 1.33 2.9 1.33 4.6 0 .93-.15 1.85-.44 2.72l-.5 1.5c.58.55.94 1.32.94 2.18 0 .83-.34 1.58-.88 2.12-.31.31-.69.56-1.12.7v8.86c2.09.52 3.9 1.85 4.99 3.74l3.91 6.69.1 2.89h22v-8-28z" fill="#e6e9ed"/></g><g><path d="m54 20c0 1.95-.56 3.77-1.52 5.3l-8.48-5.3v-10c5.52 0 10 4.48 10 10z" fill="#69d6f4"/></g><g><path d="m44 10v10c0-.55-.22-1.05-.59-1.41-.36-.37-.86-.59-1.41-.59-1.1 0-2 .9-2 2h-6c0-5.52 4.48-10 10-10z" fill="#fcd770"/></g><g><path d="m40 20v4h-.42c-.71 0-1.36.29-1.82.76-.47.46-.76 1.11-.76 1.82 0 .22.02.43.08.64-1.9-1.82-3.08-4.38-3.08-7.22z" fill="#ff826e"/></g><g><path d="m44 20 8.48 5.3c-.66 1.05-1.5 1.96-2.48 2.7-1.32.99-2.89 1.66-4.6 1.9l.11-.16c.32-.48.49-1.05.49-1.63 0-1.22-.82-2.29-2-2.6v-.01z" fill="#ff826e"/></g><g><path d="m17.01 10h-.01-2c-2.21 0-4 1.79-4 4h-1c-.92 0-1.74.41-2.29 1.06-.46-.75-.71-1.62-.71-2.51 0-1.59.8-3.08 2.13-3.97l.87-.58-1.17-1.17c-.53-.53-.83-1.25-.83-2 0-.78.32-1.49.83-2s1.22-.83 2-.83h9.57c3.06 0 5.74 1.6 7.27 4 .84 1.33 1.33 2.9 1.33 4.6 0 .93-.15 1.85-.44 2.72l-.5 1.5c-.53-.5-1.26-.82-2.06-.82h-1-4.09c-1.08 0-2.06-.44-2.77-1.14-.7-.71-1.14-1.69-1.14-2.77 0-.03 0-.06.01-.09z" fill="#b27946"/></g><g><path d="m18 56v6h-10v-6h4z" fill="#969faa"/></g><g><path d="m28 56v6h-10v-6h6z" fill="#969faa"/></g><g><path d="m8 52h4v4h-4z" fill="#b4dd7f"/></g><g><path d="m12 46h6v6h-6-4-1c-2.76 0-5-2.24-5-5v-10.22c0-3.91 2.83-7.25 6.68-7.89l3.36-.56 1.96 4.67 4-2 4 2v3h-10z" fill="#b4dd7f"/></g><g><path d="m28 41v15h-4v-7-13h-2v-3l1.99-4.75 2.09.26c.31.04.62.09.92.17 2.09.52 3.9 1.85 4.99 3.74l3.91 6.69 2.1-9.11 6 2-2.5 10-.58 2.34c-.15.61-.42 1.17-.78 1.66-.89 1.23-2.33 2-3.92 2-1.41 0-2.75-.62-3.67-1.69z" fill="#b4dd7f"/></g><g><path d="m23.99 28.25-1.99 4.75-4-2 4-3z" fill="#a0d468"/></g><g><path d="m18 31-4 2-1.96-4.67 1.96-.33z" fill="#a0d468"/></g><g><path d="m24 49v7h-6-6v-4h6 3c1.66 0 3-1.34 3-3z" fill="#e6e9ed"/></g><g><path d="m24 36v13c0-.83-.34-1.58-.88-2.12s-1.29-.88-2.12-.88h-3-6v-10h10z" fill="#e6e9ed"/></g><g><path d="m42.91 25.23h.01l1.03.26c.02 0 .03.01.05.02 1.18.31 2 1.38 2 2.6 0 .58-.17 1.15-.49 1.63l-.11.16-1.4 2.1-6-2-.87-2.6c-.02-.06-.04-.12-.05-.18-.06-.21-.08-.42-.08-.64 0-.71.29-1.36.76-1.82.46-.47 1.11-.76 1.82-.76h.42 1.26c.78 0 1.44.52 1.65 1.23z" fill="#f0d0b4"/></g><g><path d="m44 25.5v.01c-.02-.01-.03-.02-.05-.02l-1.03-.26h-.01c-.21-.71-.87-1.23-1.65-1.23h-1.26v-4c0-1.1.9-2 2-2 .55 0 1.05.22 1.41.59.37.36.59.86.59 1.41z" fill="#f0d0b4"/></g><g><path d="m27 19.82c-.31.12-.65.18-1 .18h-1.07-.01c.06-.32.08-.66.08-1v-5h1c.8 0 1.53.32 2.06.82.58.55.94 1.32.94 2.18 0 .83-.34 1.58-.88 2.12-.31.31-.69.56-1.12.7z" fill="#f0d0b4"/></g><g><path d="m25 14v5c0 .34-.02.68-.08 1-.31 2.25-1.7 4.16-3.63 5.18-.98.53-2.1.82-3.29.82s-2.31-.29-3.29-.82c-.61-.32-1.17-.74-1.66-1.23-1.05-1.05-1.76-2.41-1.97-3.95-.06-.32-.08-.66-.08-1v-5c0-2.21 1.79-4 4-4h2 .01c-.01.03-.01.06-.01.09 0 1.08.44 2.06 1.14 2.77.71.7 1.69 1.14 2.77 1.14z" fill="#f0d0b4"/></g><g><path d="m23.12 46.88c.54.54.88 1.29.88 2.12 0 1.66-1.34 3-3 3h-3v-6h3c.83 0 1.58.34 2.12.88z" fill="#f0d0b4"/></g><g><path d="m21.29 25.18.71 2.82-4 3-4-3 .71-2.82c.98.53 2.1.82 3.29.82s2.31-.29 3.29-.82z" fill="#f0d0b4"/></g><g><path d="m11.08 20h-.01-1.07c-.83 0-1.58-.34-2.12-.88s-.88-1.29-.88-2.12c0-.74.27-1.42.71-1.94.55-.65 1.37-1.06 2.29-1.06h1v5c0 .34.02.68.08 1z" fill="#f0d0b4"/></g></g><g><path d="m61 1h-50.172c-2.11 0-3.828 1.717-3.828 3.829 0 1.022.398 1.983 1.121 2.707l.311.311c-1.526 1.082-2.432 2.829-2.432 4.708 0 .851.195 1.684.554 2.449-.343.59-.554 1.266-.554 1.996 0 2.206 1.794 4 4 4h.263c.498 1.923 1.686 3.57 3.294 4.648l-.369 1.473-4.668.778c-4.357.727-7.52 4.46-7.52 8.878v10.223c0 3.309 2.691 6 6 6v10h22v-19.297l2.794 3.26c1.11 1.295 2.726 2.037 4.431 2.037 1.731 0 3.306-.764 4.387-2h20.388c1.103 0 2-.897 2-2v-42c0-1.103-.897-2-2-2zm-53 16c0-1.103.897-2 2-2v4c-1.103 0-2-.897-2-2zm2.101-4h-.101c-.682 0-1.314.187-1.877.489-.078-.304-.123-.617-.123-.934 0-1.265.628-2.438 1.681-3.14l1.889-1.26-2.035-2.033c-.345-.346-.535-.805-.535-1.293 0-1.009.82-1.829 1.828-1.829h9.568c4.193 0 7.604 3.411 7.604 7.604 0 .818-.131 1.627-.391 2.405l-.097.292c-.467-.191-.977-.301-1.512-.301h-1-4.092c-1.603 0-2.908-1.305-2.908-2.908 0-.975.484-1.879 1.295-2.42l1.26-.84-1.109-1.664-1.26.84c-1.06.706-1.788 1.78-2.063 2.992h-1.123c-2.414 0-4.434 1.721-4.899 4zm24.957 8h3.942v2.059c-1.108.183-2.035.873-2.553 1.826-.758-1.166-1.236-2.486-1.389-3.885zm11.914 7.492c.012-.126.028-.252.028-.379 0-1.408-.795-2.651-2-3.277v-3.031l6.039 3.775c-1.043 1.315-2.443 2.341-4.067 2.912zm-3.972-7.938v3.089c-.475-.395-1.078-.643-1.743-.643h-.257v-3c0-.551.448-1 1-1s1 .449 1 1zm9.108 3.334-7.108-4.442v-8.387c4.493.5 8 4.317 8 8.941 0 1.382-.32 2.703-.892 3.888zm-9.108-6.704c-.314-.112-.648-.184-1-.184-1.302 0-2.402.839-2.816 2h-4.125c.463-4.164 3.776-7.478 7.941-7.941zm-4.21 12.026-.709-2.129c-.054-.162-.081-.33-.081-.5 0-.872.709-1.581 1.581-1.581h1.676c.41 0 .743.333.743.744 0 .32-.204.604-.509.705l-1.808.603.633 1.897 1.808-.603c.863-.288 1.504-.974 1.756-1.813.662.246 1.12.859 1.12 1.58 0 .383-.112.753-.324 1.071l-1.084 1.626zm6.138 3.201 1.07-1.605c1.065-.196 2.072-.543 3.002-1.022v5.216h6v-2h-4v-4.534c2.45-2.037 4-5.103 4-8.466 0-6.065-4.935-11-11-11s-11 4.935-11 11c0 2.93 1.137 5.66 3.191 7.733l.771 2.315-1.472 6.379-2.633-4.514c-1.09-1.869-2.838-3.268-4.857-3.966v-7.503c1.19-.694 2-1.97 2-3.444 0-.901-.31-1.723-.814-2.393l.322-.967c.326-.982.492-2.003.492-3.036 0-1.275-.255-2.49-.708-3.604h27.708v34h-14.22zm-28.822-1.582-1.597.799-1.059-2.522.293-.049zm6.17-1.787.285.036-1.07 2.55-1.597-.799zm.528-1.949-.361-1.445c1.608-1.078 2.796-2.725 3.294-4.648h.263v6.492zm3.196-12.093c1.103 0 2 .897 2 2s-.897 2-2 2zm-14 4v-5c0-1.654 1.346-3 3-3h1.084c.428 2.274 2.428 4 4.824 4h3.092v4c0 3.309-2.691 6-6 6s-6-2.691-6-6zm6 8c.914 0 1.79-.162 2.609-.445l.261 1.044-2.87 2.151-2.869-2.152.261-1.044c.819.284 1.694.446 2.608.446zm-7 26v2h-2v-2zm12-7.444c-.591-.344-1.268-.556-2-.556h-8v-8h10zm-2 1.444c1.103 0 2 .897 2 2s-.897 2-2 2h-2v-4zm0 6c.732 0 1.409-.212 2-.556v2.556h-10v-2zm-12 4h8v4h-8zm10 4v-4h8v4zm17.225-14c-1.121 0-2.183-.488-2.913-1.339l-4.312-5.03v-3.631h-2v18h-2v-20h-14v10h-2v-8h-2v8.586l-1.707 1.707 1.414 1.414 1.707-1.707h8.586v4h-10c-2.206 0-4-1.794-4-4v-10.223c0-3.437 2.46-6.34 5.849-6.905l2.575-.429 2.068 4.929 4.508-2.254 4.509 2.254 2.113-5.037 1.33.166c2.15.269 4.086 1.547 5.178 3.419l3.705 6.352-.808 3.503 1.949.449 2.753-11.928 4.078 1.359-2.859 11.439c-.429 1.712-1.96 2.906-3.723 2.906zm24.775-2h-19.258c.047-.141.107-.275.144-.421l.395-1.579h16.719v-38h-30.821c-.547-.757-1.2-1.43-1.94-2h34.761z"/><path d="m47 37h8v2h-8z"/></g></g></svg>