<svg id="Layer_1" height="512" viewBox="0 0 512 512" width="512" xmlns="http://www.w3.org/2000/svg" data-name="Layer 1"><path d="m355.12 458.7a31.043 31.043 0 0 0 -22.2-9.225 20.9 20.9 0 0 1 -20.92-21.085v-33.39h-117v33.39a20.956 20.956 0 0 1 -20.978 21.15 31.439 31.439 0 0 0 -22.4 9.16 32.663 32.663 0 0 0 -9.262 22.3h222.05a32.7 32.7 0 0 0 -9.29-22.3z" fill="#5a606d"/><path d="m204.022 449.54a20.956 20.956 0 0 0 20.978-21.15v-33.39h-30v33.39a20.956 20.956 0 0 1 -20.978 21.15 31.439 31.439 0 0 0 -22.4 9.16 32.663 32.663 0 0 0 -9.262 22.3h30a32.663 32.663 0 0 1 9.262-22.3 31.439 31.439 0 0 1 22.4-9.16z" fill="#434851"/><path d="m474.85 31h-436.65a20.98 20.98 0 0 0 -21.2 20.89v273.11h479v-273.11a20.931 20.931 0 0 0 -21.15-20.89z" fill="#b4b8e6"/><path d="m68.2 31h-30a20.98 20.98 0 0 0 -21.2 20.89v273.11h30v-273.11a20.98 20.98 0 0 1 21.2-20.89z" fill="#979bba"/><path d="m493.94 323h-476.94v52.44c0 11.68 9.53 21.56 21.2 21.56h436.65c11.68 0 21.15-9.88 21.15-21.56v-52.44z" fill="#7d8595"/><path d="m253.38 349.01a10.575 10.575 0 1 1 -10.57 10.57 10.576 10.576 0 0 1 10.57-10.57z" fill="#5a606d"/><path d="m379.38 187.08a27.6 27.6 0 0 0 8.97-8.53 28.075 28.075 0 0 0 -7.76-38.76 37.65 37.65 0 0 0 -7.66-3.79h-.01a35.772 35.772 0 0 0 2.74-14.1 38.773 38.773 0 0 0 -57.35-33.99l-.23-.39a24.171 24.171 0 1 0 -45.08-12.01v200.12a28.978 28.978 0 0 0 50.487 19.58 29.206 29.206 0 0 0 46.513-23.47v-14.11a38.852 38.852 0 0 0 9.38-70.55z" fill="#ffd8b7"/><path d="m214.875 51.23a24.248 24.248 0 0 0 -20.994 36.32l-.21.42a38.851 38.851 0 0 0 -57.336 33.93 35.773 35.773 0 0 0 2.745 14.1h-.01a37.65 37.65 0 0 0 -7.66 3.79 27.98 27.98 0 0 0 1.21 47.23 38.9 38.9 0 0 0 9.38 70.61v14.11a29.233 29.233 0 0 0 46.548 23.47 28.734 28.734 0 0 0 21.446 9.56 29.024 29.024 0 0 0 29.006-29.14v-200.12a24.148 24.148 0 0 0 -24.125-24.28z" fill="#ffd8b7"/><rect fill="#e87187" height="122" rx="17.74" width="122" x="195" y="119"/><path d="m296.5 139.5v81h-81v-81z" fill="#b75e71"/><path d="m235.56 159.56h40.88v40.88h-40.88z" fill="#e87187"/><path d="m47 375.44v-52.44h-30v52.44c0 11.68 9.53 21.56 21.2 21.56h30c-11.67 0-21.2-9.88-21.2-21.56z" fill="#5b626d"/><path d="m172 271.74v-14.11a38.9 38.9 0 0 1 -9.38-70.61 27.98 27.98 0 0 1 -1.21-47.23 37.65 37.65 0 0 1 7.66-3.79h.01a35.773 35.773 0 0 1 -2.745-14.1 38.506 38.506 0 0 1 23.783-35.616 38.832 38.832 0 0 0 -53.783 35.616 35.773 35.773 0 0 0 2.745 14.1h-.01a37.65 37.65 0 0 0 -7.66 3.79 27.98 27.98 0 0 0 1.21 47.23 38.9 38.9 0 0 0 9.38 70.61v14.11a29.216 29.216 0 0 0 44.22 25 29.135 29.135 0 0 1 -14.22-25z" fill="#d8b79e"/><path d="m205.19 83.29a38.53 38.53 0 0 1 18.481 4.68l.21-.42a24.263 24.263 0 0 1 5.975-31.093 23.931 23.931 0 0 0 -14.981-5.227 24.214 24.214 0 0 0 -22.114 34.076 39.24 39.24 0 0 1 12.429-2.016z" fill="#d8b79e"/><g fill="#284268"><path d="m389.181 186.974a33.642 33.642 0 0 0 -8.869-54 44.868 44.868 0 0 0 -53.2-54.639c.089-.938.149-1.88.149-2.826a30.13 30.13 0 1 0 -60.259 0v37.491h-5v-18.276a6 6 0 1 0 -12 0v18.276h-5v-37.488a30.169 30.169 0 1 0 -60.337 0c0 .946.1 1.888.188 2.826a44.793 44.793 0 0 0 -53.168 54.639 33.752 33.752 0 0 0 -8.865 54 44.829 44.829 0 0 0 -14.9 33.283c0 18.839 12.086 34.991 28.086 41.626v9.86a35.228 35.228 0 0 0 51.794 31 34.932 34.932 0 0 0 57.2-27.117v-28.629h5v18.276a6 6 0 1 0 12 0v-18.276h5v28.629a34.958 34.958 0 0 0 57.241 27.119 35.2 35.2 0 0 0 51.759-31v-9.86c16-6.635 28.086-22.787 28.086-41.626a44.83 44.83 0 0 0 -14.905-33.288zm-156.181 88.655a22.956 22.956 0 0 1 -35.49 19.418 35.032 35.032 0 0 0 8.908-23.3 5.986 5.986 0 1 0 -11.971 0 23.224 23.224 0 0 1 -46.447 0v-6.874c2 .16 3.189.245 4.771.245a6 6 0 1 0 .065-12 32.857 32.857 0 0 1 .016-65.714 6 6 0 0 0 0-12 44.571 44.571 0 0 0 -19.826 4.633 21.722 21.722 0 0 1 1.7-35q.687-.456 1.4-.857c.076.135.141.275.219.409a6 6 0 0 0 10.386-6.011 32.863 32.863 0 0 1 47.969-42.884 6 6 0 1 0 7.129-9.652q-1.461-1.08-2.988-2.03a18.167 18.167 0 1 1 34.16-8.5v37.488h-4v-18.276a6 6 0 1 0 -12 0v18.276h-4.258a23.589 23.589 0 0 0 -23.743 23.742v4.258h-18.276a6 6 0 0 0 0 12h18.276v21h-18.276a6 6 0 0 0 0 12h18.276v21h-18.276a6 6 0 0 0 0 12h18.276v4.258a23.589 23.589 0 0 0 23.742 23.742h4.258v18.276a6 6 0 0 0 12 0v-18.276h4zm-20-39.629a12 12 0 0 1 -12-12v-87a12 12 0 0 1 12-12h87a12 12 0 0 1 12 12v87a12 12 0 0 1 -12 12zm146.143 17.114a6 6 0 0 0 -6 6 6.074 6.074 0 0 0 6.086 6c1.582 0 2.771-.085 4.771-.245v6.874a23.207 23.207 0 0 1 -46.414 0 6.016 6.016 0 0 0 -12.032 0 34.989 34.989 0 0 0 8.864 23.3 22.682 22.682 0 0 1 -12.431 3.724 23.037 23.037 0 0 1 -22.987-23.138v-28.629h4v18.276a6 6 0 1 0 12 0v-18.276h4.258a23.589 23.589 0 0 0 23.742-23.742v-4.258h18.276a6 6 0 1 0 0-12h-18.276v-21h18.276a6 6 0 1 0 0-12h-18.276v-21h18.276a6 6 0 0 0 0-12h-18.276v-4.258a23.589 23.589 0 0 0 -23.742-23.742h-4.258v-18.276a6 6 0 1 0 -12 0v18.276h-4v-37.488a18.169 18.169 0 1 1 36.337 0 18.384 18.384 0 0 1 -2.138 8.5c-1.017.634-2.034 1.31-3.008 2.03a6 6 0 1 0 7.115 9.652 32.863 32.863 0 0 1 47.957 42.878 6 6 0 1 0 10.385 6.011c.078-.134.143-.274.219-.409q.714.4 1.4.857a21.719 21.719 0 0 1 1.7 35 44.571 44.571 0 0 0 -19.826-4.633 6 6 0 0 0 0 12 32.857 32.857 0 1 1 0 65.714z"/><path d="m303 221v-81a6 6 0 0 0 -6-6h-81a6 6 0 0 0 -6 6v81a6 6 0 0 0 6 6h81a6 6 0 0 0 6-6zm-13-7h-68v-68h68z"/><path d="m236 207h41a6 6 0 0 0 6-6v-41a6 6 0 0 0 -6-6h-41a6 6 0 0 0 -6 6v41a6 6 0 0 0 6 6zm6-41h28v28h-28z"/><path d="m474.853 25h-436.648a27.005 27.005 0 0 0 -27.205 26.886v323.558c0 14.97 12.236 27.556 27.205 27.556h150.795v25.393a15.069 15.069 0 0 1 -15.035 15.148 37.6 37.6 0 0 0 -37.664 37.59 5.939 5.939 0 0 0 6.056 5.869h222.05a5.89 5.89 0 0 0 6-5.869 37.511 37.511 0 0 0 -37.491-37.656 14.913 14.913 0 0 1 -14.916-15.082v-25.393h156.853c14.968 0 27.147-12.586 27.147-27.556v-323.558a26.956 26.956 0 0 0 -27.147-26.886zm-141.937 430.41a25.712 25.712 0 0 1 24.784 19.59h-208.637a25.848 25.848 0 0 1 24.9-19.59 26.971 26.971 0 0 0 27.037-27.017v-25.393h105v25.393a26.87 26.87 0 0 0 26.916 27.017zm157.084-79.966c0 8.353-6.8 15.556-15.147 15.556h-436.648c-8.352 0-15.2-7.2-15.2-15.556v-46.444h466.995zm0-58.444h-467v-265.114a14.993 14.993 0 0 1 15.205-14.886h436.648a14.943 14.943 0 0 1 15.147 14.886z"/><path d="m253.382 376.157a16.574 16.574 0 1 0 -16.573-16.574 16.593 16.593 0 0 0 16.573 16.574zm0-21.147a4.574 4.574 0 1 1 -4.573 4.573 4.579 4.579 0 0 1 4.573-4.573z"/><path d="m46 56a6 6 0 0 0 -6 6v2a6 6 0 0 0 12 0v-2a6 6 0 0 0 -6-6z"/><path d="m46 78a6 6 0 0 0 -6 6v82a6 6 0 0 0 12 0v-82a6 6 0 0 0 -6-6z"/></g></svg>