<svg id="Layer_1" height="512" viewBox="0 0 512 512" width="512" xmlns="http://www.w3.org/2000/svg" data-name="Layer 1"><path d="m256 114.52c56.1 0 101.7 16.45 101.7 36.76s-45.6 38.76-101.7 38.76-101.7-18.46-101.7-38.76c0-20.19 45.06-36.56 100.7-36.76z" fill="#978cac"/><path d="m184.3 151.28c0-18.467 37.7-33.5 86.706-36.12-4.9-.263-9.908-.16-15.006-.16h-1c-55.64 0-100.7 16.33-100.7 36.52 0 20.3 45.6 38.64 101.7 38.64 5.1 0 10.1-.214 15-.506-49.007-2.925-86.7-19.918-86.7-38.374z" fill="#7a728e"/><path d="m420.644 224.787h62.427v62.427h-62.427z" fill="#6994fe" transform="matrix(.707 -.707 .707 .707 -48.673 394.492)"/><path d="m485.08 80.84v71.19h-33.22-37.98v-71.19h37.98z" fill="#e87187"/><path d="m451.86 348.07a41.545 41.545 0 1 1 -41.55 41.55 41.553 41.553 0 0 1 41.55-41.55z" fill="#f3ce7d"/><path d="m28.929 224.787h62.427v62.427h-62.427z" fill="#6994fe" transform="matrix(.707 -.707 .707 .707 -163.388 117.483)"/><path d="m93.37 80.84v71.19h-33.23-37.97v-71.19h37.97z" fill="#e87187"/><path d="m60.14 348.07a41.545 41.545 0 1 1 -41.55 41.55 41.547 41.547 0 0 1 41.55-41.55z" fill="#f3ce7d"/><path d="m357.7 151.28v71.65c0 20.32-45.59 36.76-101.7 36.76s-101.7-16.44-101.7-36.76v-71.65c0 20.3 45.6 36.76 101.7 36.76s101.7-16.46 101.7-36.76z" fill="#7e788e"/><path d="m314.93 205.45a9.235 9.235 0 1 1 -9.23 9.23 9.235 9.235 0 0 1 9.23-9.23z" fill="#6addc7"/><path d="m184 177.231c-18.346-6.649-30-15.822-30-25.951v71.65c0 10.14 11.653 19.313 30 25.96z" fill="#565266"/><path d="m256 257.69c-56.11 0-102-16.44-102-36.76v71.66c0 20.31 45.89 36.76 102 36.76s102-16.45 102-36.76v-71.66c0 20.32-45.89 36.76-102 36.76z" fill="#978cac"/><path d="m314.93 274.07a9.235 9.235 0 1 1 -9.23 9.23 9.235 9.235 0 0 1 9.23-9.23z" fill="#6addc7"/><path d="m184 246.944c-18.51-6.651-30-15.847-30-26.014v71.66c0 10.162 11.49 19.358 30 26.011z" fill="#6f697f"/><path d="m357.7 290.59v70.13c0 20.32-45.59 36.76-101.7 36.76h-1c-55.65-.2-100.7-16.56-100.7-36.76v-70.13c0 20.31 45.59 36.76 101.7 36.76s101.7-16.45 101.7-36.76z" fill="#7e788e"/><path d="m314.93 342.69a9.235 9.235 0 1 1 -9.23 9.24 9.244 9.244 0 0 1 9.23-9.24z" fill="#6addc7"/><path d="m184 375.72v-59.174c-18.347-6.648-30-15.821-30-25.956v70.13c0 11.353 14.382 21.493 36.727 28.233-4.437-4.09-6.727-8.553-6.727-13.233z" fill="#565266"/><g fill="#284268"><path d="m458 209.372v-51.372h27.083a5.9 5.9 0 0 0 5.917-5.966v-71.2a5.792 5.792 0 0 0 -5.917-5.834h-27.083v-14.865a38.317 38.317 0 0 0 -38.422-38.135h-327.156a38.317 38.317 0 0 0 -38.422 38.135v14.865h-31.83a6.01 6.01 0 0 0 -6.17 5.835v71.2a6.119 6.119 0 0 0 6.17 5.965h31.83v51.379l-42.31 42.378a6 6 0 0 0 -.034 8.486l42.344 42.378v39.839c-23 2.965-41.541 22.974-41.541 47.156s18.541 44.191 41.541 47.156v15.093a38.317 38.317 0 0 0 38.422 38.135h327.156a38.317 38.317 0 0 0 38.422-38.135v-15.093c23-2.965 41.545-22.974 41.545-47.156s-18.545-44.196-41.545-47.157v-39.831l42.314-42.385a6 6 0 0 0 .036-8.486zm-6.145-122.372h27.145v59h-59v-59zm-125.855 154.289c-18.542 6.709-43.433 10.4-69.895 10.4s-51.51-3.7-70.052-10.4c-16.148-5.844-26.053-13.454-26.053-20.358v-49.188c20 14.593 58.614 22.3 96 22.3s76-7.7 96-22.3v49.188c0 6.904-9.852 14.514-26 20.358zm26 .107v49.189c0 6.9-9.852 14.514-26 20.357-18.542 6.71-43.433 10.4-69.895 10.4s-51.51-3.695-70.052-10.4c-16.148-5.842-26.053-13.453-26.053-20.357v-49.185c20 14.594 58.614 22.3 96 22.3s76-7.71 96-22.3zm-26.215-69.766c-18.548 6.712-43.331 10.409-69.785 10.409s-51.237-3.7-69.785-10.409c-16.151-5.845-25.793-13.453-25.793-20.352s9.642-14.508 25.793-20.353c18.548-6.712 43.331-10.409 69.785-10.409s51.237 3.7 69.785 10.409c16.151 5.845 25.793 13.454 25.793 20.353s-9.642 14.507-25.793 20.352zm-297.785-25.63v-59h59v59zm-3.515 110 35.658-35.658 35.657 35.658-35.657 35.658zm35.658 169.131a35.566 35.566 0 0 1 -.012-71.131h.013a35.566 35.566 0 0 1 0 71.131zm188.857 52.869h-156.578a26.3 26.3 0 0 1 -26.422-26.135v-15.091a47.535 47.535 0 0 0 0-94.316v-39.822l42.461-42.393a6 6 0 0 0 -.034-8.486l-42.427-42.393v-51.364h27.369a5.667 5.667 0 0 0 5.631-5.966v-71.2a5.556 5.556 0 0 0 -5.631-5.834h-27.369v-14.865a26.3 26.3 0 0 1 26.422-26.135h156.578v74.607c-50.026 1.274-101 16.136-101 42.671v209.444c0 26.535 50.974 41.4 101 42.671zm-62.947-96.92c-16.148-5.844-26.053-13.454-26.053-20.358v-49.672c20 14.594 58.614 22.3 96 22.3s76-7.7 96-22.3v49.672c0 6.9-9.852 14.514-26 20.358-18.542 6.709-43.433 10.4-69.895 10.4s-51.505-3.691-70.052-10.4zm259.947 70.785a26.3 26.3 0 0 1 -26.422 26.135h-158.578v-74.562c50.658-.924 103-15.827 103-42.716v-209.444c0-26.889-52.342-41.792-103-42.716v-74.562h158.578a26.3 26.3 0 0 1 26.422 26.135v14.865h-32.116a5.764 5.764 0 0 0 -5.884 5.835v71.2a5.873 5.873 0 0 0 5.884 5.965h32.116v51.372l-42.457 42.385a6 6 0 0 0 .036 8.486l42.421 42.385v39.831a47.535 47.535 0 0 0 0 94.315zm41.406-62.365a35.544 35.544 0 0 1 -35.537 35.5h-.014a35.5 35.5 0 1 1 0-71h.012a35.545 35.545 0 0 1 35.539 35.5zm-35.549-97.842-35.657-35.658 35.658-35.658 35.657 35.658z"/><path d="m284.088 215.3a266.563 266.563 0 0 1 -28.088 1.454 259.98 259.98 0 0 1 -35.089-2.307 6 6 0 1 0 -1.626 11.89 272.085 272.085 0 0 0 36.715 2.417 278.3 278.3 0 0 0 29.359-1.524 6 6 0 1 0 -1.271-11.932z"/><path d="m314.935 199.447a15.235 15.235 0 1 0 15.234 15.234 15.251 15.251 0 0 0 -15.234-15.234zm0 18.469a3.235 3.235 0 1 1 3.234-3.235 3.239 3.239 0 0 1 -3.234 3.235z"/><path d="m220.911 283.07a6 6 0 1 0 -1.626 11.89 272.107 272.107 0 0 0 36.715 2.417 278.427 278.427 0 0 0 29.359-1.524 6 6 0 0 0 -1.271-11.933 266.165 266.165 0 0 1 -28.088 1.457 260 260 0 0 1 -35.089-2.307z"/><path d="m314.935 298.538a15.235 15.235 0 1 0 -15.235-15.238 15.251 15.251 0 0 0 15.235 15.238zm0-18.469a3.235 3.235 0 1 1 -3.235 3.231 3.239 3.239 0 0 1 3.235-3.231z"/><path d="m284.088 352.543a266.292 266.292 0 0 1 -28.088 1.457 259.98 259.98 0 0 1 -35.089-2.307 6 6 0 0 0 -1.626 11.89 272.085 272.085 0 0 0 36.715 2.417 278.568 278.568 0 0 0 29.359-1.524 6 6 0 0 0 -1.271-11.933z"/><path d="m314.935 336.692a15.235 15.235 0 1 0 15.234 15.235 15.252 15.252 0 0 0 -15.234-15.235zm0 18.469a3.235 3.235 0 1 1 3.234-3.234 3.238 3.238 0 0 1 -3.234 3.234z"/><path d="m132 157.46a6 6 0 0 0 -6 6v5.08a6 6 0 0 0 12 0v-5.08a6 6 0 0 0 -6-6z"/><path d="m132 184.806a6 6 0 0 0 -6 6v48.388a6 6 0 0 0 12 0v-48.388a6 6 0 0 0 -6-6z"/></g></svg>