<svg id="Capa_1" enable-background="new 0 0 512 512" height="512" viewBox="0 0 512 512" width="512" xmlns="http://www.w3.org/2000/svg"><g><path d="m449.961 341.828c-1.657 0-3-1.343-3-3v-28.593c0-1.657 1.343-3 3-3h13.47v-176.189l-182.077-115.384c-3.268-2.071-7.438-2.071-10.706 0l-182.078 115.384v186.995h57.514c2.761 0 5 2.239 5 5v144.871h307.346c2.762 0 5-2.239 5-5v-121.084z" fill="#fed402"/><path d="m137.138 318.041v-157.858c0-5.139 2.63-9.92 6.971-12.67l172.653-109.412-35.409-22.439c-3.268-2.071-7.438-2.071-10.706 0l-182.077 115.384v186.995z" fill="#fac600"/><path d="m402.431 277.609c-1.657 0-3-1.343-3-3v-32.568c0-1.657 1.343-3 3-3h10.967v-23.317c0-2.761-2.239-5-5-5h-264.795c-2.761 0-5 2.239-5 5v102.317h7.481c2.761 0 5 2.239 5 5v144.871h262.313v-190.303z" fill="#d8aa5e"/><path d="m143.603 210.724c-2.761 0-5 2.239-5 5v102.317h7.481c2.761 0 5 2.239 5 5v144.871h39.914v-252.188c0-2.761 2.239-5 5-5z" fill="#c99c56"/><g><g><path d="m192.095 176.112h-35.356c-1.657 0-3-1.343-3-3v-35.356c0-1.657 1.343-3 3-3h35.356c1.657 0 3 1.343 3 3v35.356c0 1.657-1.343 3-3 3z" fill="#d8aa5e"/></g><g><path d="m174.643 173.112v-35.356c0-1.657 1.343-3 3-3h-20.904c-1.657 0-3 1.343-3 3v35.356c0 1.657 1.343 3 3 3h20.904c-1.657 0-3-1.343-3-3z" fill="#c99c56"/></g><g><path d="m259.817 176.112h-35.356c-1.657 0-3-1.343-3-3v-35.356c0-1.657 1.343-3 3-3h35.356c1.657 0 3 1.343 3 3v35.356c0 1.657-1.343 3-3 3z" fill="#d8aa5e"/></g><g><path d="m242.365 173.112v-35.356c0-1.657 1.343-3 3-3h-20.904c-1.657 0-3 1.343-3 3v35.356c0 1.657 1.343 3 3 3h20.904c-1.656 0-3-1.343-3-3z" fill="#c99c56"/></g><g><path d="m327.54 176.112h-35.356c-1.657 0-3-1.343-3-3v-35.356c0-1.657 1.343-3 3-3h35.356c1.657 0 3 1.343 3 3v35.356c0 1.657-1.343 3-3 3z" fill="#d8aa5e"/></g><g><path d="m310.088 173.112v-35.356c0-1.657 1.343-3 3-3h-20.904c-1.657 0-3 1.343-3 3v35.356c0 1.657 1.343 3 3 3h20.904c-1.657 0-3-1.343-3-3z" fill="#c99c56"/></g><g><path d="m395.263 176.112h-35.356c-1.657 0-3-1.343-3-3v-35.356c0-1.657 1.343-3 3-3h35.356c1.657 0 3 1.343 3 3v35.356c0 1.657-1.343 3-3 3z" fill="#d8aa5e"/></g><g><path d="m377.811 173.112v-35.356c0-1.657 1.343-3 3-3h-20.904c-1.657 0-3 1.343-3 3v35.356c0 1.657 1.343 3 3 3h20.904c-1.657 0-3-1.343-3-3z" fill="#c99c56"/></g></g><g><g><g><g><path d="m365.269 301.4h-178.536c-5.523 0-10-4.477-10-10v-35.504c0-5.523 4.477-10 10-10h178.536c5.523 0 10 4.477 10 10v35.504c0 5.523-4.478 10-10 10z" fill="#678d98"/></g><g><path d="m218.463 291.4v-35.504c0-5.523 4.477-10 10-10h-41.73c-5.523 0-10 4.477-10 10v35.504c0 5.523 4.477 10 10 10h41.73c-5.523 0-10-4.477-10-10z" fill="#537983"/></g><g><path d="m318.388 104.041h-84.775c-2.761 0-5-2.239-5-5v-18c0-2.761 2.239-5 5-5h84.775c2.761 0 5 2.239 5 5v18c0 2.761-2.238 5-5 5z" fill="#fff"/></g><g><path d="m259.999 99.041v-18c0-2.761 2.239-5 5-5h-31.386c-2.761 0-5 2.239-5 5v18c0 2.761 2.239 5 5 5h31.386c-2.762 0-5-2.239-5-5z" fill="#eef5f6"/></g></g><g><path d="m348.371 328.047c0-1.657 1.343-3 3-3h23.898v-13.647c0-5.523-4.477-10-10-10h-178.536c-5.523 0-10 4.477-10 10v35.504c0 5.523 4.477 10 10 10h161.638z" fill="#3e5959"/><g><path d="m218.463 346.904v-35.504c0-5.523 4.477-10 10-10h-41.73c-5.523 0-10 4.477-10 10v35.504c0 5.523 4.477 10 10 10h41.73c-5.523 0-10-4.477-10-10z" fill="#384949"/></g></g><g><path d="m351.371 362.805c-1.657 0-3-1.343-3-3v-2.901h-161.638c-5.523 0-10 4.477-10 10v35.504c0 5.523 4.477 10 10 10h178.536c5.523 0 10-4.477 10-10v-35.504c0-1.462-.321-2.847-.885-4.099z" fill="#678d98"/><g><path d="m218.463 402.408v-35.504c0-5.523 4.477-10 10-10h-41.73c-5.523 0-10 4.477-10 10v35.504c0 5.523 4.477 10 10 10h41.73c-5.523 0-10-4.477-10-10z" fill="#537983"/></g></g><g><g><path d="m375.269 467.912h-198.536v-45.504c0-5.523 4.477-10 10-10h178.536c5.523 0 10 4.477 10 10z" fill="#3e5959"/></g><g><path d="m218.463 457.912v-35.504c0-5.523 4.477-10 10-10h-41.73c-5.523 0-10 4.477-10 10v45.504h51.73c-5.523 0-10-4.477-10-10z" fill="#384949"/></g></g></g></g><g><g><path d="m35.179 319.505-26.215 26.215c-.938.938-1.464 2.209-1.464 3.536v143.622c0 2.761 2.239 5 5 5h133.585c2.761 0 5-2.239 5-5v-169.837c0-2.761-2.239-5-5-5h-107.37c-1.327 0-2.598.527-3.536 1.464z" fill="#c8effe"/></g><g><path d="m49.415 492.877v-143.622c0-1.326.527-2.598 1.464-3.536l26.215-26.215c.938-.938 2.209-1.464 3.536-1.464h-41.916c-1.326 0-2.598.527-3.536 1.464l-26.214 26.216c-.938.938-1.464 2.209-1.464 3.536v143.622c0 2.761 2.239 5 5 5h41.915c-2.761-.001-5-2.239-5-5.001z" fill="#99e6fc"/></g></g><g><g><path d="m481.554 310.235v28.593c0 1.657-1.343 3-3 3h-28.593c-1.657 0-3-1.343-3-3v-28.593c0-1.657 1.343-3 3-3h28.593c1.657 0 3 1.343 3 3z" fill="#01d0fb"/></g><g><path d="m463.406 338.828v-28.593c0-1.657 1.343-3 3-3h-16.444c-1.657 0-3 1.343-3 3v28.593c0 1.657 1.343 3 3 3h16.444c-1.657 0-3-1.343-3-3z" fill="#01c0fa"/></g><g><path d="m437.999 242.041v32.568c0 1.657-1.343 3-3 3h-32.568c-1.657 0-3-1.343-3-3v-32.568c0-1.657 1.343-3 3-3h32.568c1.657 0 3 1.343 3 3z" fill="#05e39c"/></g><g><path d="m418.431 274.609v-32.568c0-1.657 1.343-3 3-3h-19c-1.657 0-3 1.343-3 3v32.568c0 1.657 1.343 3 3 3h19c-1.657 0-3-1.344-3-3z" fill="#0ed290"/></g></g><g><path d="m386.129 328.047v31.758c0 1.657-1.343 3-3 3h-31.759c-1.657 0-3-1.343-3-3v-31.758c0-1.657 1.343-3 3-3h31.758c1.657 0 3.001 1.343 3.001 3z" fill="#01d0fb"/></g><g><path d="m367.128 359.805v-31.758c0-1.657 1.343-3 3-3h-18.758c-1.657 0-3 1.343-3 3v31.758c0 1.657 1.343 3 3 3h18.758c-1.656 0-3-1.343-3-3z" fill="#01c0fa"/></g><g><path d="m156.738 127.256c-5.79 0-10.5 4.71-10.5 10.5v35.356c0 5.79 4.71 10.5 10.5 10.5h35.356c5.79 0 10.5-4.71 10.5-10.5v-35.356c0-5.79-4.71-10.5-10.5-10.5zm30.856 41.356h-26.356v-26.356h26.356z"/><path d="m224.462 127.256c-5.79 0-10.5 4.71-10.5 10.5v35.356c0 5.79 4.71 10.5 10.5 10.5h35.355c5.79 0 10.5-4.71 10.5-10.5v-35.356c0-5.79-4.71-10.5-10.5-10.5zm30.855 41.356h-26.355v-26.356h26.355z"/><path d="m292.184 183.612h35.355c5.79 0 10.5-4.71 10.5-10.5v-35.356c0-5.79-4.71-10.5-10.5-10.5h-35.355c-5.79 0-10.5 4.71-10.5 10.5v35.356c0 5.789 4.71 10.5 10.5 10.5zm4.5-41.356h26.355v26.356h-26.355z"/><path d="m359.907 127.256c-5.79 0-10.5 4.71-10.5 10.5v35.356c0 5.79 4.71 10.5 10.5 10.5h35.356c5.79 0 10.5-4.71 10.5-10.5v-35.356c0-5.79-4.71-10.5-10.5-10.5zm30.856 41.356h-26.356v-26.356h26.356z"/><path d="m330.888 99.041v-18c0-6.893-5.607-12.5-12.5-12.5h-84.775c-6.893 0-12.5 5.607-12.5 12.5v18c0 6.893 5.607 12.5 12.5 12.5h84.775c6.893 0 12.5-5.607 12.5-12.5zm-15-2.5h-79.775v-13h79.775z"/><path d="m201.268 281.148h126.384c4.143 0 7.5-3.358 7.5-7.5s-3.357-7.5-7.5-7.5h-126.384c-4.143 0-7.5 3.358-7.5 7.5s3.358 7.5 7.5 7.5z"/><circle cx="351.823" cy="273.648" r="7.5"/><path d="m201.268 336.652h126.384c4.143 0 7.5-3.358 7.5-7.5s-3.357-7.5-7.5-7.5h-126.384c-4.143 0-7.5 3.358-7.5 7.5s3.358 7.5 7.5 7.5z"/><path d="m201.268 392.156h126.384c4.143 0 7.5-3.358 7.5-7.5s-3.357-7.5-7.5-7.5h-126.384c-4.143 0-7.5 3.358-7.5 7.5s3.358 7.5 7.5 7.5z"/><circle cx="351.823" cy="384.656" r="7.5"/><path d="m327.652 432.66h-126.384c-4.143 0-7.5 3.358-7.5 7.5s3.357 7.5 7.5 7.5h126.384c4.143 0 7.5-3.358 7.5-7.5s-3.357-7.5-7.5-7.5z"/><circle cx="351.823" cy="440.16" r="7.5"/><path d="m45.258 367.018h68.068c4.143 0 7.5-3.358 7.5-7.5s-3.357-7.5-7.5-7.5h-68.068c-4.143 0-7.5 3.358-7.5 7.5s3.357 7.5 7.5 7.5z"/><path d="m45.258 393.016h68.068c4.143 0 7.5-3.358 7.5-7.5s-3.357-7.5-7.5-7.5h-68.068c-4.143 0-7.5 3.358-7.5 7.5s3.357 7.5 7.5 7.5z"/><path d="m45.258 418.896h68.068c4.143 0 7.5-3.358 7.5-7.5s-3.357-7.5-7.5-7.5h-68.068c-4.143 0-7.5 3.358-7.5 7.5s3.357 7.5 7.5 7.5z"/><path d="m120.826 437.511c0-4.142-3.357-7.5-7.5-7.5h-68.068c-4.143 0-7.5 3.358-7.5 7.5s3.357 7.5 7.5 7.5h68.068c4.143 0 7.5-3.358 7.5-7.5z"/><path d="m45.258 456.008c-4.143 0-7.5 3.358-7.5 7.5s3.357 7.5 7.5 7.5h30.514c4.143 0 7.5-3.358 7.5-7.5s-3.357-7.5-7.5-7.5z"/><path d="m508.513 150.736-223.145-141.409c-5.691-3.606-13.045-3.606-18.734 0l-223.146 141.409c-3.499 2.217-4.538 6.851-2.32 10.35 2.218 3.5 6.853 4.536 10.35 2.32l29.553-18.728v165.863h-42.356c-3.337 0-6.476 1.299-8.84 3.661l-26.215 26.216c-2.36 2.361-3.66 5.5-3.66 8.837v143.622c0 6.893 5.607 12.5 12.5 12.5h73c4.143 0 7.5-3.358 7.5-7.5s-3.357-7.5-7.5-7.5h-70.5v-140.086l24.75-24.75h103.835v164.836h-23.085c-4.143 0-7.5 3.358-7.5 7.5s3.357 7.5 7.5 7.5h25.585c6.893 0 12.5-5.607 12.5-12.5v-17.465h299.846c6.893 0 12.5-5.607 12.5-12.5v-113.584h7.623c5.79 0 10.5-4.71 10.5-10.5v-28.593c0-5.79-4.71-10.5-10.5-10.5h-7.623v-85.742c0-4.142-3.357-7.5-7.5-7.5s-7.5 3.358-7.5 7.5v85.742h-5.971c-5.79 0-10.5 4.71-10.5 10.5v28.593c0 5.79 4.71 10.5 10.5 10.5h5.971v111.084h-35.033v-62.419c0-4.142-3.357-7.5-7.5-7.5s-7.5 3.358-7.5 7.5v62.419h-23.13v-38.004c0-3.718-1.174-7.162-3.159-10 1.985-2.838 3.159-6.282 3.159-10v-32.103h.36c5.79 0 10.5-4.71 10.5-10.5v-31.758c0-5.79-4.71-10.5-10.5-10.5h-.36v-6.147c0-3.718-1.174-7.162-3.159-10 1.985-2.838 3.159-6.282 3.159-10v-35.504c0-9.649-7.851-17.5-17.5-17.5h-178.535c-9.649 0-17.5 7.851-17.5 17.5v35.504c0 3.718 1.174 7.162 3.159 10-1.985 2.838-3.159 6.282-3.159 10v35.504c0 3.718 1.174 7.162 3.159 10-1.985 2.838-3.159 6.282-3.159 10v35.504c0 3.718 1.174 7.162 3.159 10-1.985 2.838-3.159 6.282-3.159 10v38.004h-10.648v-137.371c0-6.886-5.598-12.489-12.482-12.499v-92.318h259.795v13.317h-3.467c-5.79 0-10.5 4.71-10.5 10.5v32.568c0 5.79 4.71 10.5 10.5 10.5h3.467v77.884c0 4.142 3.357 7.5 7.5 7.5s7.5-3.358 7.5-7.5v-77.884h14.101c5.79 0 10.5-4.71 10.5-10.5v-32.568c0-5.79-4.71-10.5-10.5-10.5h-14.101v-15.817c0-6.893-5.607-12.5-12.5-12.5h-264.795c-6.893 0-12.5 5.607-12.5 12.5v94.817h-35.033v-175.369l178.593-113.175c.813-.515 1.863-.515 2.676 0l178.593 113.175v43.821c0 4.142 3.357 7.5 7.5 7.5s7.5-3.358 7.5-7.5v-34.315l29.553 18.728c1.245.79 2.635 1.166 4.008 1.166 2.483 0 4.914-1.233 6.342-3.486 2.217-3.5 1.177-8.133-2.322-10.35zm-54.052 183.592v-19.593h19.594v19.593zm-75.832-1.781v22.758h-22.758v-22.758zm-194.396-76.651c0-1.378 1.121-2.5 2.5-2.5h178.535c1.379 0 2.5 1.122 2.5 2.5v35.504c0 1.378-1.121 2.5-2.5 2.5h-178.535c-1.379 0-2.5-1.122-2.5-2.5zm0 55.504c0-1.378 1.121-2.5 2.5-2.5h178.535c1.379 0 2.5 1.122 2.5 2.5v6.147h-16.397c-5.79 0-10.5 4.71-10.5 10.5v21.357h-154.138c-1.379 0-2.5-1.122-2.5-2.5zm0 55.504c0-1.378 1.121-2.5 2.5-2.5h155.213c1.709 3.488 5.286 5.901 9.425 5.901h16.397v32.103c0 1.378-1.121 2.5-2.5 2.5h-178.535c-1.379 0-2.5-1.122-2.5-2.5zm0 55.504c0-1.378 1.121-2.5 2.5-2.5h178.535c1.379 0 2.5 1.122 2.5 2.5v38.004h-183.535zm222.698-175.867h23.567v23.568h-23.567z"/></g></g></svg>