<svg id="Capa_1" enable-background="new 0 0 512 512" height="512" viewBox="0 0 512 512" width="512" xmlns="http://www.w3.org/2000/svg"><g><g><path d="m466.741 163.952v257.216l-210.737 16.63-210.737-16.63v-257.216c0-21.83 17.69-39.509 39.509-39.509h342.455c21.82 0 39.51 17.679 39.51 39.509z" fill="#f6f9f9"/><path d="m466.741 404.208v16.96l-210.738 16.63-210.737-16.63v-16.96z" fill="#dae7ef"/><path d="m265.977 437.012-9.98.79-210.727-16.63v-257.216c0-21.83 17.68-39.509 39.499-39.509h19.96c-21.82 0-39.509 17.679-39.509 39.509v257.216z" fill="#dae7ef"/><path d="m466.737 421.172h-421.468c-20.856 0-37.763 16.907-37.763 37.763 0 20.856 16.907 37.763 37.763 37.763h421.468c20.856 0 37.763-16.907 37.763-37.763 0-20.856-16.907-37.763-37.763-37.763z" fill="#f6f9f9"/><path d="m498.463 479.407c-6.72 10.4-18.42 17.29-31.73 17.29h-421.464c-10.43 0-19.87-4.23-26.71-11.06-6.83-6.84-11.06-16.28-11.06-26.699 0-20.86 16.91-37.77 37.769-37.77h12.16c-3.81 5.9-6.03 12.93-6.03 20.47 0 10.43 4.23 19.87 11.06 26.71 6.83 6.83 16.27 11.06 26.7 11.06h409.305z" fill="#dae7ef"/><path d="m83.267 364.615v-182.11c0-11.08 8.982-20.063 20.063-20.063h305.349c11.08 0 20.062 8.982 20.062 20.062v182.11c0 10.247-8.307 18.553-18.553 18.553h-308.368c-10.247.001-18.553-8.305-18.553-18.552z" fill="#9dc6fb"/><g><path d="m237.193 280.242h-21.8c-8.128 0-14.717 6.589-14.717 14.717v43.839c0 8.128 6.589 14.717 14.717 14.717h21.8c8.128 0 14.717-6.589 14.717-14.717v-43.838c.001-8.128-6.588-14.718-14.717-14.718z" fill="#f6de81"/><path d="m313.156 222.839h-21.8c-8.128 0-14.717 6.589-14.717 14.717v101.242c0 8.128 6.589 14.717 14.717 14.717h21.8c8.128 0 14.717-6.589 14.717-14.717v-101.241c0-8.129-6.589-14.718-14.717-14.718z" fill="#e28086"/><path d="m389.119 255.071h-21.8c-8.128 0-14.717 6.589-14.717 14.717v69.01c0 8.128 6.589 14.717 14.717 14.717h21.8c8.128 0 14.717-6.589 14.717-14.717v-69.01c0-8.128-6.589-14.717-14.717-14.717z" fill="#c0e3a0"/></g><path d="m300.391 454.425h-88.774c-18.365 0-33.254-14.888-33.254-33.254h155.281c0 18.366-14.888 33.254-33.253 33.254z" fill="#dae7ef"/><circle cx="131.82" cy="142.09" fill="#c0e3a0" r="105.787"/><path d="m257.05 140.081c0 68.91-55.86 124.77-124.77 124.77-68.92 0-124.78-55.86-124.78-124.77 0-68.92 55.86-124.78 124.78-124.78v37.63c-48.13 0-87.15 39.02-87.15 87.15 0 48.12 39.02 87.14 87.15 87.14 48.12 0 87.14-39.02 87.14-87.14z" fill="#f6de81"/><g fill="#f2ce6b"><path d="m151.095 227.221c48.12 0 87.14-39.02 87.14-87.14h-18.815c0 44.941-34.037 81.94-77.733 86.633 3.091.332 6.229.507 9.408.507z"/><path d="m26.315 140.081c0-62.524 45.974-114.298 105.965-123.369v-1.411c-68.92 0-124.78 55.86-124.78 124.78 0 68.91 55.86 124.77 124.78 124.77 3.165 0 6.301-.12 9.407-.352-64.524-4.809-115.372-58.673-115.372-124.418z"/></g><path d="m257.05 140.081h-124.77v-124.78c68.91 0 124.77 55.86 124.77 124.78z" fill="#e28086"/><path d="m344.84 25.686h125.407c18.918 0 34.253 15.336 34.253 34.253v75.263c0 18.917-15.336 34.253-34.253 34.253h-49.663l-35.794 35.795c-9.624 9.624-26.08 2.808-26.08-10.802v-24.992h-13.87c-18.918 0-34.253-15.336-34.253-34.253v-75.264c0-18.917 15.335-34.253 34.253-34.253z" fill="#c0e3a0"/><g fill="#a8d4a4"><path d="m323.236 59.943v75.26c0 18.92 15.33 34.26 34.25 34.26h-12.65c-18.92 0-34.25-15.34-34.25-34.26v-75.26c0-18.92 15.33-34.25 34.25-34.25h12.65c-18.919 0-34.25 15.33-34.25 34.25z"/><path d="m380.357 208.373c-9.52 4.44-21.65-2.24-21.65-13.92v-24.99h12.65v24.99c0 6.62 3.889 11.63 9 13.92z"/></g></g><g><path d="m237.193 272.742h-21.8c-12.25 0-22.217 9.967-22.217 22.218v43.839c0 12.251 9.967 22.218 22.217 22.218h21.8c12.25 0 22.218-9.967 22.218-22.218v-43.839c0-12.251-9.967-22.218-22.218-22.218zm7.218 66.057c0 3.98-3.238 7.218-7.217 7.218h-21.8c-3.979 0-7.217-3.238-7.217-7.218v-43.839c0-3.98 3.238-7.218 7.217-7.218h21.8c3.979 0 7.217 3.238 7.217 7.218z"/><path d="m313.156 215.339h-21.8c-12.251 0-22.218 9.967-22.218 22.217v101.242c0 12.251 9.967 22.218 22.218 22.218h21.8c12.25 0 22.217-9.967 22.217-22.218v-101.241c0-12.251-9.967-22.218-22.217-22.218zm7.217 123.46c0 3.98-3.237 7.218-7.217 7.218h-21.8c-3.979 0-7.218-3.238-7.218-7.218v-101.242c0-3.979 3.238-7.217 7.218-7.217h21.8c3.979 0 7.217 3.238 7.217 7.217z"/><path d="m367.319 361.017h21.799c12.251 0 22.218-9.967 22.218-22.218v-69.01c0-12.25-9.967-22.217-22.218-22.217h-21.799c-12.251 0-22.218 9.967-22.218 22.217v69.01c.001 12.251 9.967 22.218 22.218 22.218zm-7.217-91.228c0-3.979 3.238-7.217 7.218-7.217h21.799c3.979 0 7.218 3.238 7.218 7.217v69.01c0 3.98-3.238 7.218-7.218 7.218h-21.799c-3.979 0-7.218-3.238-7.218-7.218z"/><path d="m171.855 281.331c-3.566-2.106-8.165-.924-10.272 2.642l-28.235 47.783-8.125-13.294c-2.159-3.535-6.775-4.649-10.31-2.489s-4.649 6.776-2.489 10.31l14.632 23.943c1.363 2.231 3.788 3.589 6.399 3.589h.056c2.632-.02 5.062-1.418 6.401-3.685l34.584-58.527c2.108-3.565.925-8.165-2.641-10.272z"/><path d="m512 135.199v-75.26c0-23.021-18.729-41.75-41.75-41.75h-3.57c-4.143 0-7.5 3.358-7.5 7.5s3.357 7.5 7.5 7.5h3.57c14.75 0 26.75 12 26.75 26.75v75.26c0 14.755-12 26.76-26.75 26.76h-49.67c-1.989 0-3.896.79-5.304 2.197l-35.79 35.79c-3.407 3.409-7.352 2.152-8.477 1.684-1.126-.466-4.8-2.362-4.8-7.181v-24.99c0-4.142-3.357-7.5-7.5-7.5h-13.87c-14.75 0-26.75-12.004-26.75-26.76v-75.26c0-14.75 12-26.75 26.75-26.75h92.521c4.143 0 7.5-3.358 7.5-7.5s-3.357-7.5-7.5-7.5h-92.52c-23.021 0-41.75 18.729-41.75 41.75v57.002h-40.569c-10.974-61.945-65.199-109.14-130.241-109.14-72.939 0-132.28 59.341-132.28 132.28 0 35.944 14.42 68.579 37.77 92.443v181.778c-21.398 3.586-37.76 22.231-37.76 44.637 0 12.076 4.707 23.44 13.257 32.003 8.549 8.549 19.915 13.257 32.003 13.257h352.91c4.143 0 7.5-3.358 7.5-7.5s-3.357-7.5-7.5-7.5h-352.91c-8.083 0-15.681-3.148-21.393-8.859-5.718-5.727-8.868-13.328-8.868-21.401 0-16.682 13.561-30.255 30.234-30.269.009 0 .017.001.026.001h126.296c3.531 18.9 20.141 33.254 40.05 33.254h88.774c19.909 0 36.519-14.354 40.051-33.254h126.3c.009 0 .017-.001.026-.001 8.063.007 15.654 3.155 21.366 8.859 5.718 5.727 8.867 13.331 8.867 21.411 0 16.686-13.574 30.26-30.26 30.26h-38.7c-4.143 0-7.5 3.358-7.5 7.5s3.357 7.5 7.5 7.5h38.7c24.956 0 45.26-20.304 45.26-45.26 0-12.082-4.706-23.45-13.261-32.018-6.76-6.749-15.272-11.091-24.499-12.624v-237.534c21.157-2.017 37.761-19.885 37.761-41.565zm-211.609 311.726h-88.774c-11.592 0-21.421-7.7-24.64-18.253h138.055c-3.22 10.553-13.049 18.253-24.641 18.253zm-247.621-33.256v-167.948c7.14 5.387 14.842 10.065 23 13.935v104.955c0 14.37 11.686 26.06 26.05 26.06h308.37c14.364 0 26.05-11.69 26.05-26.06v-182.11c0-1.876-.212-3.729-.584-5.542h23.584v236.71zm292.07-236.71h6.37v17.49c0 9.385 5.387 17.447 14.06 21.039 2.907 1.204 5.908 1.792 8.863 1.792 5.863 0 11.548-2.315 15.961-6.728l30.825-30.826c.204.904.321 1.833.321 2.774v182.11c0 6.099-4.957 11.06-11.05 11.06h-308.37c-6.093 0-11.05-4.961-11.05-11.06v-98.938c13.062 4.327 27.016 6.678 41.51 6.678 62.668 0 115.297-43.809 128.87-102.41h60.555c6.627 4.43 14.584 7.019 23.135 7.019zm-41.75-45.018v3.258c0 7.137 1.802 13.86 4.971 19.742h-44.351c.548-4.88.84-9.836.84-14.86 0-2.734-.094-5.447-.258-8.14zm-53.778.64h-109.532v-109.543c58.704 3.722 105.811 50.834 109.532 109.543zm-124.532-109.534v22.688c-48.697 3.835-87.15 44.683-87.15 94.343 0 25.077 9.709 48.702 27.338 66.524 1.467 1.483 3.399 2.226 5.333 2.226 1.905 0 3.812-.722 5.274-2.168 2.945-2.913 2.971-7.662.058-10.606-14.834-14.994-23.003-34.874-23.003-55.975 0-41.384 31.737-75.484 72.15-79.276v79.278c0 4.142 3.358 7.5 7.5 7.5h79.276c-3.794 40.407-37.893 72.138-79.276 72.138-12.044 0-23.607-2.615-34.368-7.773-3.735-1.79-8.215-.214-10.005 3.521-1.791 3.735-.214 8.215 3.521 10.005 12.801 6.136 26.545 9.247 40.852 9.247 49.66 0 90.506-38.447 94.343-87.138h22.68c-3.881 61.181-54.88 109.77-117.023 109.77-64.668 0-117.28-52.607-117.28-117.27 0-62.148 48.594-113.152 109.78-117.034z"/><path d="m428.103 56.5h-81.781c-4.143 0-7.5 3.358-7.5 7.5s3.357 7.5 7.5 7.5h81.781c4.143 0 7.5-3.358 7.5-7.5s-3.358-7.5-7.5-7.5z"/><path d="m458.765 71.5h10c4.143 0 7.5-3.358 7.5-7.5s-3.357-7.5-7.5-7.5h-10c-4.143 0-7.5 3.358-7.5 7.5s3.357 7.5 7.5 7.5z"/><path d="m428.103 85.764h-81.781c-4.143 0-7.5 3.358-7.5 7.5s3.357 7.5 7.5 7.5h81.781c4.143 0 7.5-3.358 7.5-7.5s-3.358-7.5-7.5-7.5z"/><path d="m458.765 100.764h10c4.143 0 7.5-3.358 7.5-7.5s-3.357-7.5-7.5-7.5h-10c-4.143 0-7.5 3.358-7.5 7.5s3.357 7.5 7.5 7.5z"/><path d="m428.103 115.027h-81.781c-4.143 0-7.5 3.358-7.5 7.5s3.357 7.5 7.5 7.5h81.781c4.143 0 7.5-3.358 7.5-7.5s-3.358-7.5-7.5-7.5z"/><path d="m458.765 130.027h10c4.143 0 7.5-3.358 7.5-7.5s-3.357-7.5-7.5-7.5h-10c-4.143 0-7.5 3.358-7.5 7.5s3.357 7.5 7.5 7.5z"/></g></g></svg>