<svg id="Capa_1" enable-background="new 0 0 512 512" height="512" viewBox="0 0 512 512" width="512" xmlns="http://www.w3.org/2000/svg"><g><g><g><g><g><path d="m430.503 67.16c1.103 0 2 .897 2 2v33.722h29.313v-69.443c0-1.657-1.343-3-3-3h-339.235c-1.657 0-3 1.343-3 3v33.721z" fill="#dff6fd"/></g></g><g><g><path d="m153 30.439h-33.419c-1.657 0-3 1.343-3 3v33.721h33.419v-33.721c0-1.657 1.343-3 3-3z" fill="#c8effe"/></g></g><g><g><path d="m137.889 136.201v-31.319c0-1.103.897-2 2-2h293.614v-33.722c0-1.657-1.343-3-3-3h-339.235c-1.657 0-3 1.343-3 3v67.041z" fill="#ffdcce"/></g></g><g><path d="m125 66.16h-33.732c-1.657 0-3 1.343-3 3v67.041h33.732v-67.041c0-1.657 1.343-3 3-3z" fill="#ffd1be"/></g><g><path d="m232.897 136.201c3.403 0 6.476 1.883 8.02 4.915l28.643 56.235h212.564v-92.47c0-1.657-1.343-3-3-3h-339.235c-1.657 0-3 1.343-3 3v31.32z" fill="#fdf6ec"/></g><g><g><path d="m178 101.882h-38.111c-1.657 0-3 1.343-3 3v31.32h38.111v-31.32c0-1.657 1.343-3 3-3z" fill="#fef1da"/></g></g></g></g><g><g><g><g><path d="m232.897 135.201h-157.005c-5.523 0-10 4.477-10 10v51.151h204.281l-28.364-55.689c-1.708-3.352-5.151-5.462-8.912-5.462z" fill="#fed402"/></g><g><path d="m128 135.201h-52.108c-5.523 0-10 4.477-10 10v51.151h52.108v-51.151c0-5.523 4.477-10 10-10z" fill="#fac600"/></g><path d="m494.5 196.352h-428.608v141.094h124.341c5.523 0 10 4.477 10 10v118.807h294.267c5.523 0 10-4.477 10-10v-249.901c0-5.523-4.477-10-10-10z" fill="#fed402"/><g fill="#fac600"><path d="m67.018 307.06v30.386h50.982v-64.411c-4.355-1.816-9.128-2.823-14.134-2.823-20.318 0-36.848 16.53-36.848 36.848z"/><path d="m103.866 240.212c4.851 0 9.576.529 14.134 1.511v-45.371h-52.108v55.703c10.786-7.462 23.866-11.843 37.974-11.843z"/></g></g></g><g><path d="m452.494 419.317h-125.494c-2.761 0-5-2.239-5-5v-31.905c0-2.761 2.239-5 5-5h125.494c2.761 0 5 2.239 5 5v31.905c0 2.761-2.239 5-5 5z" fill="#fff"/></g><g><path d="m376.506 414.317v-31.905c0-2.761 2.239-5 5-5h-54.506c-2.761 0-5 2.239-5 5v31.905c0 2.761 2.239 5 5 5h54.506c-2.761 0-5-2.239-5-5z" fill="#eef5f6"/></g><g><g><path d="m67.018 338.446v-31.386c0-20.318 16.53-36.848 36.849-36.848s36.849 16.53 36.849 36.848v31.386h30v-31.386c0-36.919-29.929-66.848-66.848-66.848-36.919 0-66.849 29.929-66.849 66.848v31.386z" fill="#7ca1b1"/></g><g><g><path d="m112.357 240.767c-2.783-.353-5.612-.556-8.491-.556-36.919 0-66.849 29.929-66.849 66.848v31.386h16.983v-31.385c0-34.041 25.45-62.118 58.357-66.293z" fill="#678d98"/></g></g><g><path d="m190.232 481.561h-172.732c-5.523 0-10-4.477-10-10v-124.115c0-5.523 4.477-10 10-10h172.732c5.523 0 10 4.477 10 10v124.115c0 5.523-4.477 10-10 10z" fill="#fd5426"/></g><g><path d="m50 471.561v-124.115c0-5.523 4.477-10 10-10h-42.5c-5.523 0-10 4.477-10 10v124.115c0 5.523 4.477 10 10 10h42.5c-5.523 0-10-4.477-10-10z" fill="#ef4424"/></g><g><path d="m7.5 379.118h192.732v60.771h-192.732z" fill="#fff"/></g><g><path d="m7.5 379.118h42.5v60.771h-42.5z" fill="#eef5f6"/></g></g></g><g><path d="m504.5 301.5c4.142 0 7.5-3.358 7.5-7.5v-87.648c0-9.649-7.851-17.5-17.5-17.5h-4.876v-83.97c0-5.79-4.71-10.5-10.5-10.5h-9.808v-60.943c0-5.79-4.71-10.5-10.5-10.5h-339.235c-5.79 0-10.5 4.71-10.5 10.5v25.221h-17.813c-5.79 0-10.5 4.71-10.5 10.5v58.541h-4.876c-9.649 0-17.5 7.851-17.5 17.5v51.15 51.951c-17.548 13.612-28.874 34.881-28.874 58.757v22.886h-12.018c-9.649 0-17.5 7.851-17.5 17.5v124.115c0 9.649 7.851 17.5 17.5 17.5h172.732c8.906 0 16.264-6.692 17.348-15.309h286.92c9.649 0 17.5-7.851 17.5-17.5v-127.251c0-4.142-3.358-7.5-7.5-7.5s-7.5 3.358-7.5 7.5v127.252c0 1.378-1.122 2.5-2.5 2.5h-286.768v-111.306c0-9.649-7.851-17.5-17.5-17.5h-12.017v-22.886c0-40.996-33.353-74.348-74.349-74.348-10.857 0-21.167 2.359-30.475 6.559v-35.42h421.109c1.378 0 2.5 1.122 2.5 2.5v87.649c0 4.142 3.358 7.5 7.5 7.5zm-311.768 170.061c0 1.378-1.122 2.5-2.5 2.5h-172.732c-1.378 0-2.5-1.122-2.5-2.5v-24.172h177.732zm-2.5-126.615c1.378 0 2.5 1.122 2.5 2.5v24.172h-31.732c-4.142 0-7.5 3.358-7.5 7.5s3.358 7.5 7.5 7.5h31.732v45.771h-177.732v-45.771h111c4.142 0 7.5-3.358 7.5-7.5s-3.358-7.5-7.5-7.5h-111v-24.172c0-1.378 1.122-2.5 2.5-2.5zm-115.714-15v-22.886c0-16.183 13.166-29.348 29.349-29.348s29.349 13.166 29.349 29.348v22.886zm29.348-82.234c32.725 0 59.349 26.624 59.349 59.348v22.886h-15v-22.886c0-24.454-19.895-44.348-44.349-44.348s-44.349 19.895-44.349 44.348v22.886h-15v-22.886c.001-32.725 26.624-59.348 59.349-59.348zm-8.098-174.052h261.232c4.142 0 7.5-3.358 7.5-7.5s-3.358-7.5-7.5-7.5h-232.919v-20.721h330.234v56.443h-13.313v-25.222c0-5.79-4.71-10.5-10.5-10.5h-38.502c-4.142 0-7.5 3.358-7.5 7.5s3.358 7.5 7.5 7.5h34.003v20.722h-286.114c-5.79 0-10.5 4.71-10.5 10.5v22.819h-33.621zm-22.376 115.192v-43.65c0-1.378 1.122-2.5 2.5-2.5h157.006c.945 0 1.799.523 2.228 1.365l22.811 44.785zm401.232 0h-199.855l-26.278-51.593c-3.002-5.896-8.978-9.558-15.594-9.558h-88.509v-18.319h330.235v79.47z"/><path d="m321.514 151.082h111.748c4.142 0 7.5-3.358 7.5-7.5s-3.358-7.5-7.5-7.5h-111.748c-4.142 0-7.5 3.358-7.5 7.5s3.358 7.5 7.5 7.5z"/><path d="m327 369.912c-6.893 0-12.5 5.607-12.5 12.5v31.905c0 6.893 5.607 12.5 12.5 12.5h125.494c6.893 0 12.5-5.607 12.5-12.5v-31.905c0-6.893-5.607-12.5-12.5-12.5zm122.994 41.905h-120.494v-26.905h120.494z"/></g></g></svg>