<svg id="Capa_1" enable-background="new 0 0 512 512" height="512" viewBox="0 0 512 512" width="512" xmlns="http://www.w3.org/2000/svg"><g><g><path d="m275.822 477.068c0-8.74 7.086-15.826 15.826-15.826h3.421v-19.391c0-8.959 4.548-17.306 12.076-22.164l19.433-12.539c-6.682-1.33-11.719-7.223-11.719-14.296v-2.491c0-8.053 6.528-14.581 14.581-14.581h6.285c6.026-20.151 10.343-40.524 13.272-61.104h-3.824c-9.75 0-17.654-7.904-17.654-17.654 0-9.75 7.904-17.654 17.654-17.654h1.549c-10.866-7.617-17.976-20.226-17.976-34.503 0-23.261 18.857-42.117 42.117-42.117 4.929 0 9.657.855 14.053 2.411v-133.631c0-6.509-5.276-11.785-11.785-11.785h-65.804c.064.326.102.662.102 1.007v49.556c0 2.883-2.337 5.221-5.221 5.221h-173.406c-2.883 0-5.221-2.337-5.221-5.221v-49.556c0-.345.038-.681.102-1.007h-65.804c-6.509 0-11.785 5.276-11.785 11.785v397.172c0 6.509 5.276 11.785 11.785 11.785h217.943z" fill="#d8aa5e"/><path d="m98.178 468.7v-17.677h-16.728c-3.254 0-5.893-2.638-5.893-5.893v-350.032c0-3.254 2.638-5.893 5.893-5.893h16.728v-17.677c0-6.509 5.276-11.785 11.785-11.785h-52.084c-6.509 0-11.785 5.276-11.785 11.785v397.172c0 6.509 5.276 11.785 11.785 11.785h52.083c-6.508 0-11.784-5.276-11.784-11.785z" fill="#c99c56"/><path d="m355.454 205.672v-110.574c0-3.254-2.638-5.893-5.893-5.893h-43.132v21.1c0 2.327-1.894 4.221-4.221 4.221h-173.406c-2.327 0-4.221-1.894-4.221-4.221v-21.1h-43.131c-3.254 0-5.893 2.638-5.893 5.893v350.032c0 3.254 2.638 5.893 5.893 5.893h213.62v-9.171c0-8.959 4.548-17.306 12.076-22.164l19.433-12.539c-6.682-1.33-11.719-7.223-11.719-14.296v-2.491c0-8.053 6.528-14.581 14.581-14.581h6.285c6.026-20.151 10.343-40.524 13.272-61.104h-3.824c-9.75 0-17.654-7.904-17.654-17.654 0-9.75 7.904-17.654 17.654-17.654h1.549c-10.866-7.617-17.976-20.226-17.976-34.503 0-17.818 11.072-33.042 26.707-39.194z" fill="#fff"/><path d="m128 445.13v-330.685c-1.944-.376-3.418-2.087-3.418-4.14v-21.1h-43.132c-3.254 0-5.893 2.638-5.893 5.893v350.032c0 3.254 2.638 5.893 5.893 5.893h52.443c-3.255 0-5.893-2.638-5.893-5.893z" fill="#eef5f6"/><path d="m266.113 55.529c-1.377-26.757-23.508-48.029-50.608-48.029-27.1 0-49.23 21.272-50.607 48.029z" fill="#ef4424"/><path d="m206.724 55.529c.999-19.391 12.898-35.893 29.69-43.512-6.376-2.893-13.45-4.517-20.909-4.517-27.1 0-49.23 21.272-50.607 48.029z" fill="#d73d24"/><g><path d="m302.209 115.526h-173.407c-2.883 0-5.221-2.337-5.221-5.221v-49.555c0-2.883 2.337-5.221 5.221-5.221h173.407c2.883 0 5.221 2.337 5.221 5.221v49.556c-.001 2.883-2.338 5.22-5.221 5.22z" fill="#fd5426"/></g><g><path d="m165.152 110.306v-49.556c0-2.883 2.337-5.221 5.221-5.221h-41.571c-2.883 0-5.221 2.337-5.221 5.221v49.556c0 2.883 2.337 5.221 5.221 5.221h41.571c-2.883-.001-5.221-2.338-5.221-5.221z" fill="#ef4424"/></g></g><g><g><path d="m150.229 260.567h-27.325v-55.012c0-1.73 1.402-3.132 3.132-3.132h21.06c1.73 0 3.132 1.402 3.132 3.132v55.012z" fill="#fed402"/></g><g><path d="m202.855 260.567h-27.325v-111.067c0-1.73 1.402-3.132 3.132-3.132h21.06c1.73 0 3.132 1.402 3.132 3.132v111.067z" fill="#05e39c"/></g><g><path d="m255.481 260.567h-27.325v-43.383c0-1.73 1.402-3.132 3.132-3.132h21.06c1.73 0 3.132 1.402 3.132 3.132v43.383z" fill="#fd5426"/></g><g><path d="m308.106 260.567h-27.325v-89.898c0-1.73 1.402-3.132 3.132-3.132h21.06c1.73 0 3.132 1.402 3.132 3.132v89.898z" fill="#01d0fb"/></g></g><g><g><path d="m446.658 461.242v-19.391c0-8.959-4.548-17.306-12.076-22.164l-20.77-13.401c-.501.057-1.009.092-1.525.092h-82.847c-.516 0-1.024-.035-1.525-.092l-20.77 13.401c-7.528 4.857-12.076 13.204-12.076 22.164v19.391z" fill="#537983"/><g><g><path d="m413.812 406.286c-.501.057-1.009.092-1.525.092h1.668z" fill="#3e5959"/></g><path d="m337 461.242v-19.391c0-8.959 4.548-17.306 12.076-22.164l20.628-13.31h-40.264c-.516 0-1.024-.035-1.525-.092l-20.77 13.401c-7.528 4.857-12.076 13.204-12.076 22.164v19.391h41.931z" fill="#3e5959"/></g><g><path d="m450.08 504.5h-158.432c-8.741 0-15.826-7.086-15.826-15.826v-11.606c0-8.74 7.086-15.826 15.826-15.826h158.432c8.74 0 15.826 7.086 15.826 15.826v11.606c0 8.74-7.086 15.826-15.826 15.826z" fill="#3e5959"/></g><g><path d="m321.916 488.674v-11.606c0-8.74 7.086-15.826 15.826-15.826h-46.094c-8.74 0-15.826 7.086-15.826 15.826v11.606c0 8.74 7.086 15.826 15.826 15.826h46.094c-8.74 0-15.826-7.086-15.826-15.826z" fill="#384949"/></g><path d="m348.998 314.677c-2.929 20.58-7.247 40.953-13.272 61.104h70.039c-6.032-20.148-10.373-40.519-13.298-61.104z" fill="#537983"/><path d="m348.998 314.677c-2.929 20.58-7.247 40.953-13.272 61.104h31.051c6.026-20.151 10.343-40.524 13.272-61.104z" fill="#3e5959"/><path d="m346.723 279.37h48.282c10.866-7.617 17.976-20.226 17.976-34.503 0-23.261-18.857-42.117-42.117-42.117s-42.117 18.857-42.117 42.117c0 14.277 7.11 26.886 17.976 34.503z" fill="#537983"/><path d="m346.723 279.37h31.029c-10.872-7.613-17.987-20.222-17.987-34.503 0-17.782 11.025-32.979 26.608-39.156-4.801-1.904-10.03-2.961-15.509-2.961-23.261 0-42.117 18.857-42.117 42.117 0 14.277 7.11 26.886 17.976 34.503z" fill="#3e5959"/><g><path d="m396.554 314.677h-51.379c-9.75 0-17.654-7.904-17.654-17.654 0-9.75 7.904-17.654 17.654-17.654h51.379c9.75 0 17.654 7.904 17.654 17.654-.001 9.751-7.905 17.654-17.654 17.654z" fill="#3e5959"/></g><g><path d="m359 297.024c0-9.75 7.904-17.654 17.654-17.654h-31.479c-9.75 0-17.654 7.904-17.654 17.654 0 9.75 7.904 17.654 17.654 17.654h31.479c-9.75-.001-17.654-7.904-17.654-17.654z" fill="#384949"/></g><g><path d="m412.287 407.434h-82.847c-8.053 0-14.581-6.528-14.581-14.581v-2.491c0-8.053 6.528-14.581 14.581-14.581h82.847c8.053 0 14.581 6.528 14.581 14.581v2.491c0 8.053-6.528 14.581-14.581 14.581z" fill="#3e5959"/></g><g><path d="m356 392.853v-2.491c0-8.053 6.528-14.581 14.581-14.581h-41.14c-8.053 0-14.581 6.528-14.581 14.581v2.491c0 8.053 6.528 14.581 14.581 14.581h41.14c-8.053 0-14.581-6.528-14.581-14.581z" fill="#384949"/></g></g></g><g><g><path d="m288.601 319h-170.157c-7.877 0-14.262-6.385-14.262-14.262 0-7.877 6.385-14.262 14.262-14.262h170.158c7.877 0 14.262 6.385 14.262 14.262-.001 7.877-6.386 14.262-14.263 14.262z" fill="#05e39c"/></g><g><path d="m118.444 290.476c-7.877 0-14.262 6.385-14.262 14.262s6.385 14.262 14.262 14.262h74.723v-28.524z" fill="#fd5426"/></g></g><g><path d="m276.628 85.528c0-4.142-3.358-7.5-7.5-7.5h-107.245c-4.142 0-7.5 3.358-7.5 7.5s3.358 7.5 7.5 7.5h107.245c4.142 0 7.5-3.358 7.5-7.5z"/><path d="m454.158 454.107v-12.255c0-11.558-5.798-22.199-15.51-28.465l-9.594-6.19c3.308-3.862 5.313-8.871 5.313-14.343v-2.491c0-12.176-9.905-22.081-22.081-22.081h-.891c-4.244-14.976-7.68-30.554-10.261-46.53 11.689-2.161 20.572-12.423 20.572-24.728 0-9.016-4.77-16.935-11.917-21.377 2.785-3.528 5.126-7.471 6.911-11.772 1.588-3.826-.226-8.214-4.051-9.802-3.826-1.59-8.214.226-9.802 4.051-2.288 5.513-5.88 10.182-10.321 13.746h-43.281c-7.917-6.346-13-16.089-13-27.003 0-19.088 15.529-34.617 34.617-34.617 13.171 0 25.03 7.325 30.95 19.115 1.859 3.702 6.367 5.196 10.068 3.337 3.702-1.859 5.196-6.366 3.337-10.068-5.049-10.056-13.117-17.844-22.803-22.5v-128.606c0-10.634-8.651-19.285-19.285-19.285h-61.493c-2.33-2.58-5.688-4.213-9.43-4.213h-29.437c-4.813-27.256-28.648-48.03-57.264-48.03s-52.45 20.774-57.266 48.029h-29.437c-3.742 0-7.1 1.634-9.43 4.213h-61.493c-10.634 0-19.285 8.651-19.285 19.285v397.173c0 10.634 8.651 19.285 19.285 19.285h210.443v.688c0 12.862 10.464 23.326 23.326 23.326h158.432c12.862 0 23.326-10.464 23.326-23.326v-11.605c0-11.47-8.324-21.026-19.248-22.961zm-23.642-28.117c5.412 3.492 8.643 9.421 8.643 15.861v11.891h-136.59v-11.891c0-6.44 3.231-12.37 8.643-15.861l17.177-11.083c.349.016.699.027 1.051.027h82.847c.353 0 .703-.01 1.052-.027zm-18.229-42.709c3.904 0 7.081 3.177 7.081 7.081v2.491c0 3.904-3.177 7.081-7.081 7.081h-82.847c-3.904 0-7.081-3.176-7.081-7.081v-2.491c0-3.904 3.176-7.081 7.081-7.081zm-66.611-15c4.026-14.835 7.3-30.265 9.786-46.104h30.54c2.476 15.783 5.758 31.214 9.808 46.104zm-.502-81.411h51.379c5.599 0 10.153 4.555 10.153 10.154s-4.555 10.153-10.153 10.153h-51.379c-5.599 0-10.154-4.555-10.154-10.153s4.556-10.154 10.154-10.154zm-30.245-219.627h58.202c2.363 0 4.285 1.922 4.285 4.285v124.154c-2.152-.282-4.339-.432-6.553-.432-2.692 0-5.333.223-7.91.638v-100.79c0-7.385-6.008-13.393-13.393-13.393h-34.632v-14.462zm-99.424-52.243c20.312 0 37.375 14.104 41.952 33.029h-83.904c4.577-18.925 21.641-33.029 41.952-33.029zm53.18 457.985h-210.806c-2.363 0-4.285-1.922-4.285-4.285v-397.172c0-2.363 1.922-4.285 4.285-4.285h58.202v14.462h-34.631c-7.385 0-13.393 6.008-13.393 13.393v350.032c0 7.385 6.008 13.393 13.393 13.393h61.55c4.142 0 7.5-3.358 7.5-7.5s-3.358-7.5-7.5-7.5h-59.943v-346.818h33.024v13.601c0 7.014 5.707 12.721 12.721 12.721h105.198c4.142 0 7.5-3.358 7.5-7.5s-3.358-7.5-7.5-7.5h-102.918v-44.998h168.848v44.997h-30.93c-4.142 0-7.5 3.358-7.5 7.5s3.358 7.5 7.5 7.5h33.209c7.014 0 12.72-5.707 12.72-12.721v-13.6h33.024v104.173c-15.855 8.291-26.707 24.892-26.707 43.99 0 2.794.238 5.532.685 8.2h-6.325v-82.398c0-5.863-4.77-10.632-10.632-10.632h-21.06c-5.863 0-10.633 4.77-10.633 10.632v82.398h-10.301v-35.883c0-5.863-4.77-10.632-10.632-10.632h-21.06c-5.863 0-10.632 4.77-10.632 10.632v35.883h-10.301v-103.568c0-5.863-4.77-10.632-10.632-10.632h-21.06c-5.863 0-10.632 4.77-10.632 10.632v103.567h-10.301v-47.512c0-5.863-4.77-10.632-10.632-10.632h-21.061c-5.863 0-10.632 4.77-10.632 10.632v47.512h-11.223c-4.142 0-7.5 3.358-7.5 7.5s3.358 7.5 7.5 7.5h222.852c1.421 2.671 3.071 5.204 4.938 7.558-7.166 4.438-11.951 12.368-11.951 21.398 0 12.216 8.756 22.422 20.32 24.682-2.601 16.187-5.985 31.573-10.243 46.575h-.658c-12.175 0-22.081 9.905-22.081 22.081v2.491c0 5.472 2.005 10.481 5.313 14.343l-9.594 6.19c-9.711 6.267-15.51 16.908-15.51 28.466v1.671h-109.568c-4.142 0-7.5 3.358-7.5 7.5s3.358 7.5 7.5 7.5h99.558c-4.569 3.479-7.83 8.586-8.873 14.463zm31.921-297.948v78.03h-12.325v-78.03zm-52.626 46.515v31.515h-12.325v-31.515zm-52.625-67.684v99.2h-12.325v-99.2zm-52.626 56.055v43.144h-12.325v-43.144zm315.677 278.751c0 4.591-3.735 8.326-8.326 8.326h-158.432c-4.591 0-8.326-3.735-8.326-8.326v-11.605c0-4.591 3.735-8.326 8.326-8.326h158.432c4.591 0 8.326 3.735 8.326 8.326z"/><path d="m310.363 304.738c0-12-9.763-21.762-21.762-21.762h-170.157c-12 0-21.762 9.762-21.762 21.762s9.762 21.762 21.762 21.762h170.157c12 0 21.762-9.762 21.762-21.762zm-124.696 6.762h-67.223c-.233 0-.463-.012-.69-.035-3.405-.347-6.071-3.231-6.071-6.727s2.666-6.38 6.071-6.727c.227-.023.457-.035.69-.035h67.223zm15-13.523h87.934c3.729 0 6.762 3.033 6.762 6.762s-3.034 6.762-6.762 6.762h-87.934z"/><path d="m302.863 344.559h-151.504c-4.142 0-7.5 3.358-7.5 7.5s3.358 7.5 7.5 7.5h151.504c4.142 0 7.5-3.358 7.5-7.5s-3.358-7.5-7.5-7.5z"/><path d="m289.822 372.75h-138.463c-4.142 0-7.5 3.358-7.5 7.5s3.358 7.5 7.5 7.5h138.463c4.142 0 7.5-3.358 7.5-7.5s-3.358-7.5-7.5-7.5z"/><path d="m287.285 408.441c0-4.142-3.358-7.5-7.5-7.5h-128.426c-4.142 0-7.5 3.358-7.5 7.5s3.358 7.5 7.5 7.5h128.426c4.142 0 7.5-3.358 7.5-7.5z"/><path d="m126.3 344.559h-22.118c-4.142 0-7.5 3.358-7.5 7.5s3.358 7.5 7.5 7.5h22.118c4.142 0 7.5-3.358 7.5-7.5s-3.358-7.5-7.5-7.5z"/><path d="m126.3 372.75h-22.118c-4.142 0-7.5 3.358-7.5 7.5s3.358 7.5 7.5 7.5h22.118c4.142 0 7.5-3.358 7.5-7.5s-3.358-7.5-7.5-7.5z"/><path d="m126.3 400.941h-22.118c-4.142 0-7.5 3.358-7.5 7.5s3.358 7.5 7.5 7.5h22.118c4.142 0 7.5-3.358 7.5-7.5s-3.358-7.5-7.5-7.5z"/></g></g></svg>