<svg id="Layer_1" height="512" viewBox="0 0 512 512" width="512" xmlns="http://www.w3.org/2000/svg" data-name="Layer 1"><path d="m452.96 256a24.025 24.025 0 1 1 7.04 16.98 23.952 23.952 0 0 1 -7.04-16.98z" fill="#f3ce7d"/><path d="m447.56 163.55a24.025 24.025 0 1 1 7.04 16.98 23.952 23.952 0 0 1 -7.04-16.98z" fill="#5fcda4"/><path d="m447.56 348.45a24.025 24.025 0 1 1 7.04 16.98 23.935 23.935 0 0 1 -7.04-16.98z" fill="#5fcda4"/><path d="m268.95 124.65a131.987 131.987 0 1 1 -144.3 118.4 131.976 131.976 0 0 1 144.3-118.4z" fill="#6994fe"/><path d="m64.44 163.55a24.025 24.025 0 1 1 -7.04-16.98 23.935 23.935 0 0 1 7.04 16.98z" fill="#5fcda4"/><path d="m64.44 348.45a24.025 24.025 0 1 1 -7.04-16.98 23.952 23.952 0 0 1 7.04 16.98z" fill="#5fcda4"/><path d="m59.04 256a24.025 24.025 0 1 1 -7.04-16.98 23.952 23.952 0 0 1 7.04 16.98z" fill="#f3ce7d"/><path d="m294.16 194.97a26.364 26.364 0 0 1 37.04 32.88 18.835 18.835 0 0 1 4.36 34.3 26.343 26.343 0 0 1 -6.47 47.82v9.57a19.746 19.746 0 0 1 -31.46 15.91 19.759 19.759 0 0 1 -34.39-13.27v-135.65a16.465 16.465 0 1 1 30.77 8.16z" fill="#e87187"/><path d="m182.91 309.97a26.343 26.343 0 0 1 -6.47-47.82 18.848 18.848 0 0 1 4.36-34.3 26.356 26.356 0 0 1 37.04-32.88l.15-.28a16.466 16.466 0 1 1 30.77-8.16v135.65a19.759 19.759 0 0 1 -34.39 13.27 19.746 19.746 0 0 1 -31.46-15.91z" fill="#e87187"/><path d="m154.65 243.05a132.02 132.02 0 0 1 116.216-118.187c-.638-.072-1.274-.15-1.916-.213a131.987 131.987 0 1 0 2.184 262.487 131.97 131.97 0 0 1 -116.484-144.087z" fill="#597ec6"/><g fill="#284268"><path d="m339.706 225.268c-.421-.281-.855-.537-1.291-.79a32.342 32.342 0 0 0 -31.715-38.678 32.767 32.767 0 0 0 -4.554.335 22.578 22.578 0 0 0 -45.149.4v135.642a25.872 25.872 0 0 0 41.317 20.639 25.4 25.4 0 0 0 10.974 2.482 25.745 25.745 0 0 0 25.712-25.755v-5.408a32.828 32.828 0 0 0 19.142-29.491 32.213 32.213 0 0 0 -9.255-22.644 25.268 25.268 0 0 0 1.745-2.31 24.827 24.827 0 0 0 -6.926-34.424zm-17.858 79.715a6 6 0 0 0 -.046 12c.417 0 1.2-.016 1.2-.032v2.592a13.72 13.72 0 1 1 -27.439 0 5.992 5.992 0 1 0 -11.984 0 25.612 25.612 0 0 0 4.973 15.184 14.127 14.127 0 0 1 -5.674 1.205 13.875 13.875 0 0 1 -13.878-13.755v-135.647a10.553 10.553 0 1 1 20.1 4.5c-.537.35-1.075.7-1.593 1.082a6 6 0 1 0 7.129 9.653 20.344 20.344 0 0 1 29.689 26.542 6 6 0 0 0 9.3 7.37 12.8 12.8 0 0 1 3.024 17.375 12.9 12.9 0 0 1 -1.692 2.041 32.135 32.135 0 0 0 -13.109-2.787 6 6 0 0 0 0 12 20.339 20.339 0 1 1 0 40.678z"/><path d="m287.01 267.944a6.74 6.74 0 0 1 3.652 6.88 6 6 0 0 0 11.9 1.565 18.7 18.7 0 0 0 -9.626-18.864 6.629 6.629 0 0 1 1.254-5.8 6 6 0 1 0 -9.361-7.507 18.562 18.562 0 0 0 -3.635 7.517 18.784 18.784 0 0 0 -.457 3.794 19.159 19.159 0 0 0 -2.632.644 18.723 18.723 0 0 0 -5.069 2.584 6 6 0 1 0 7.012 9.738 6.75 6.75 0 0 1 1.826-.929 6.677 6.677 0 0 1 5.136.378z"/><path d="m282.751 223.6a15.841 15.841 0 0 0 2.1.585c.05.41.1.82.184 1.231a15.912 15.912 0 0 0 1.662 4.538 6 6 0 1 0 10.51-5.79 3.919 3.919 0 0 1 2.653-5.726 3.857 3.857 0 0 1 1.74.043 6 6 0 0 0 2.98-11.624 15.865 15.865 0 0 0 -16.515 5.691 3.918 3.918 0 0 1 -1.244-.235 3.872 3.872 0 0 1 -1.463-.936 6 6 0 1 0 -8.582 8.387 15.761 15.761 0 0 0 5.975 3.836z"/><path d="m312.216 288.553a6 6 0 0 0 -8.486 0 21.448 21.448 0 0 0 -4.55 6.714 9.441 9.441 0 0 1 -8.744-1.084 6 6 0 1 0 -6.881 9.831 21.26 21.26 0 0 0 8.858 3.591 21.494 21.494 0 0 0 3.436.276c.665 0 1.328-.042 1.988-.1a21.28 21.28 0 0 0 4.5 9.6 6 6 0 1 0 9.256-7.638 9.459 9.459 0 0 1 .616-12.694 6 6 0 0 0 .007-8.496z"/><path d="m233.9 256.173a19 19 0 0 0 -2.631-.643 18.765 18.765 0 0 0 -.457-3.792 18.557 18.557 0 0 0 -3.635-7.519 6 6 0 1 0 -9.361 7.507 6.633 6.633 0 0 1 1.254 5.8 18.7 18.7 0 0 0 -9.626 18.864 6 6 0 0 0 11.9-1.565 6.732 6.732 0 0 1 8.787-7.258 6.765 6.765 0 0 1 1.828.93 6 6 0 1 0 7.012-9.738 18.745 18.745 0 0 0 -5.071-2.586z"/><path d="m208.4 219.476a3.846 3.846 0 0 1 1.741-.042 3.918 3.918 0 0 1 2.652 5.725 6 6 0 1 0 10.51 5.79 15.907 15.907 0 0 0 1.662-4.539c.083-.411.134-.821.184-1.23a15.584 15.584 0 0 0 8.075-4.421 6 6 0 1 0 -8.582-8.387 3.943 3.943 0 0 1 -2.707 1.17 15.865 15.865 0 0 0 -16.515-5.69 6 6 0 0 0 2.98 11.624z"/><path d="m222.564 294.178a9.441 9.441 0 0 1 -8.744 1.084 21.448 21.448 0 0 0 -4.55-6.714 6 6 0 1 0 -8.481 8.49 9.457 9.457 0 0 1 .616 12.694 6 6 0 0 0 9.256 7.638 21.28 21.28 0 0 0 4.5-9.6c.661.062 1.323.1 1.989.1a21.491 21.491 0 0 0 3.435-.276 21.26 21.26 0 0 0 8.858-3.591 6 6 0 1 0 -6.881-9.831z"/><path d="m232.416 164.068a22.538 22.538 0 0 0 -22.516 22.064 33.084 33.084 0 0 0 -4.576-.334 32.379 32.379 0 0 0 -31.734 38.68c-.436.253-.874.509-1.295.79a24.829 24.829 0 0 0 -6.941 34.424 25.5 25.5 0 0 0 1.735 2.31 32.181 32.181 0 0 0 -9.234 22.642 32.828 32.828 0 0 0 19.145 29.491v5.408a25.745 25.745 0 0 0 25.709 25.757 25.483 25.483 0 0 0 10.953-2.463 25.907 25.907 0 0 0 41.338-20.66v-135.647a22.592 22.592 0 0 0 -22.584-22.462zm10.584 158.109a13.876 13.876 0 0 1 -13.877 13.755 14.046 14.046 0 0 1 -5.631-1.182 25.588 25.588 0 0 0 4.955-15.207 6.011 6.011 0 0 0 -12.022 0 13.713 13.713 0 1 1 -27.425 0v-2.592c0 .016.781.032 1.2.032a6 6 0 0 0 -.034-12 20.339 20.339 0 1 1 -.009-40.678 6 6 0 0 0 0-12 32.14 32.14 0 0 0 -13.11 2.787 12.785 12.785 0 0 1 -3.584-11.678 12.726 12.726 0 0 1 4.916-7.738 6 6 0 0 0 9.3-7.37 20.343 20.343 0 0 1 29.689-26.542 6 6 0 0 0 7.129-9.653c-.535-.395-1.088-.756-1.641-1.115a10.435 10.435 0 0 1 -1.021-4.466 10.584 10.584 0 0 1 21.167 0z"/><path d="m393.857 262h53.728a29.84 29.84 0 0 0 8.171 15.226 30.056 30.056 0 1 0 -8.171-27.226h-53.725a136.872 136.872 0 0 0 -5.214-32.033 30.069 30.069 0 0 0 29.116-29.967c0-10.181 8.283-18 18.464-18h5.94a32.3 32.3 0 0 0 8.193 15 30.088 30.088 0 0 0 42.453-.168 29.957 29.957 0 1 0 -42.452-42.276 29.408 29.408 0 0 0 -8.194 15.444h-5.94a30.105 30.105 0 0 0 -30.464 30c0 10.18-8.283 18-18.463 18h-2.706a138.052 138.052 0 0 0 -257.27 0h-2.623c-10.18 0-18.463-7.82-18.463-18a30.105 30.105 0 0 0 -30.464-30h-5.94a29.434 29.434 0 0 0 -8.193-15.45 29.949 29.949 0 1 0 -21.226 51.019 29.607 29.607 0 0 0 21.226-8.569 32.3 32.3 0 0 0 8.194-15h5.94c10.181 0 18.464 7.819 18.464 18a30.068 30.068 0 0 0 29.086 29.966 139.535 139.535 0 0 0 -4.648 24.493q-.373 3.784-.533 7.541h-53.728a29.978 29.978 0 1 0 -8.172 27.226 29.84 29.84 0 0 0 8.172-15.226h53.725a136.872 136.872 0 0 0 5.214 32.033 30.069 30.069 0 0 0 -29.116 29.967c0 10.181-8.283 18-18.464 18h-5.94a32.3 32.3 0 0 0 -8.193-15 30.088 30.088 0 0 0 -42.453.168 29.957 29.957 0 1 0 42.452 42.275 29.408 29.408 0 0 0 8.194-15.443h5.94a30.105 30.105 0 0 0 30.464-30c0-10.18 8.283-18 18.463-18h2.706a138.144 138.144 0 0 0 115.052 87.325q6.924.682 13.794.68a138.224 138.224 0 0 0 128.424-88h2.623c10.18 0 18.463 7.82 18.463 18a30.105 30.105 0 0 0 30.464 30h5.94a29.434 29.434 0 0 0 8.193 15.45 29.949 29.949 0 1 0 21.226-51.019 29.607 29.607 0 0 0 -21.226 8.564 32.3 32.3 0 0 0 -8.194 15h-5.94c-10.181 0-18.464-7.819-18.464-18a30.068 30.068 0 0 0 -29.086-29.966 139.535 139.535 0 0 0 4.648-24.493q.376-3.785.533-7.541zm70.384-18.74a18.018 18.018 0 1 1 0 25.48 18.038 18.038 0 0 1 0-25.48zm-5.395-92.449a18.018 18.018 0 1 1 0 25.481 18.015 18.015 0 0 1 0-25.481zm-405.691 25.481a18.015 18.015 0 1 1 5.279-12.74 17.894 17.894 0 0 1 -5.28 12.74zm-5.4 92.448a18.01 18.01 0 1 1 0-25.48 18.039 18.039 0 0 1 0 25.48zm5.4 92.449a18.018 18.018 0 1 1 0-25.481 18.015 18.015 0 0 1 0 25.481zm328.229-92.826a125.98 125.98 0 1 1 -125.614-138.363q6.266 0 12.593.622a126.135 126.135 0 0 1 113.02 137.741zm77.462 67.345a18.015 18.015 0 1 1 -5.279 12.74 17.894 17.894 0 0 1 5.279-12.74z"/><path d="m232.975 153.917a6.052 6.052 0 0 0 1.2-.12c1.765-.358 3.567-.674 5.359-.942a6 6 0 1 0 -1.771-11.868c-2 .3-4 .651-5.971 1.049a6 6 0 0 0 1.186 11.881z"/><path d="m161.255 196.933a6 6 0 0 0 8.375-1.363 105.671 105.671 0 0 1 44.35-35.5 6 6 0 0 0 -4.7-11.042 117.663 117.663 0 0 0 -49.389 39.533 6 6 0 0 0 1.364 8.372z"/></g></svg>