<svg id="Layer_1" height="512" viewBox="0 0 512 512" width="512" xmlns="http://www.w3.org/2000/svg" data-name="Layer 1"><path d="m298.76 334.04v36.42h-87.05v-36.61h87.05z" fill="#46a5a2"/><path d="m420.79 181.87a55.07 55.07 0 0 1 0 110.14h-7.26v-110.14z" fill="#978cac"/><path d="m98.54 180.03v110.13h-6.33a55.065 55.065 0 1 1 0-110.13z" fill="#978cac"/><path d="m336.875 369h-163.145c-31.38 0-56.73 25.9-56.73 57.27v69.73h277v-69.73c0-31.37-25.745-57.27-57.125-57.27z" fill="#53d8d8"/><path d="m347.11 47.68-.16.21v11.68a31.959 31.959 0 0 1 -38.22 31.34 272.674 272.674 0 0 0 -107 0 31.91 31.91 0 0 1 -38.22-31.34v-11.68l-.16-.21a149.078 149.078 0 0 1 183.76 0z" fill="#978cac"/><path d="m312.89 140h-113.32c-44.18 0-79.57 36.04-79.57 80.23v34.62c0 44.18 35.39 80.15 79.57 80.15h113.32a80.219 80.219 0 0 0 80.11-80.15v-34.62a80.281 80.281 0 0 0 -80.11-80.23z" fill="#53d8d8"/><path d="m343.82 206.71a43.6 43.6 0 0 1 -30.83 74.43h-113.51a43.6 43.6 0 0 1 0-87.2h113.51a43.464 43.464 0 0 1 30.83 12.77z" fill="#e87187"/><path d="m303.59 222.9a14.635 14.635 0 1 1 -14.64 14.64 14.632 14.632 0 0 1 14.64-14.64z" fill="#7d8595"/><path d="m208.88 222.9a14.635 14.635 0 1 1 -14.64 14.64 14.632 14.632 0 0 1 14.64-14.64z" fill="#7d8595"/><path d="m306.46 472.05v23.95h-102.46v-23.95a51.23 51.23 0 1 1 102.46 0z" fill="#a5e2fb"/><path d="m203.73 369h-30c-31.38 0-56.73 25.9-56.73 57.27v69.73h30v-69.73c0-31.37 25.35-57.27 56.73-57.27z" fill="#49a5a2"/><path d="m199.57 335h30c-44.18 0-79.57-35.97-79.57-80.15v-34.62c0-44.19 35.39-80.23 79.57-80.23h-30c-44.18 0-79.57 36.04-79.57 80.23v34.62c0 44.18 35.39 80.15 79.57 80.15z" fill="#49a5a2"/><path d="m404.475 170.88c-.24-.01-.6-.02-.837-.02a10.531 10.531 0 0 0 -7.594 3.22 10.819 10.819 0 0 0 -3.044 7.79v110.14a10.8 10.8 0 0 0 10.765 11.01 11.231 11.231 0 0 0 7.892-3.22 11.074 11.074 0 0 0 3.343-7.79v-110.14a11.221 11.221 0 0 0 -10.525-10.99z" fill="#7d8595"/><path d="m116.555 172.24a11.188 11.188 0 0 0 -7.888-3.23 7.931 7.931 0 0 0 -1.2.09 10.862 10.862 0 0 0 -9.467 10.93v110.13a10.744 10.744 0 0 0 3 7.78 11.152 11.152 0 0 0 19-7.78v-110.13a11.17 11.17 0 0 0 -3.445-7.79z" fill="#7d8595"/><g fill="#284268"><path d=""/><path d="m311.987 188h-113.51a49.5 49.5 0 0 0 0 99h113.51a49.5 49.5 0 1 0 0-99zm0 87h-113.51a37.5 37.5 0 1 1 0-75h113.51a37.5 37.5 0 1 1 0 75z"/><path d="m207.878 216.9a20.637 20.637 0 1 0 20.637 20.637 20.661 20.661 0 0 0 -20.637-20.637zm0 29.273a8.637 8.637 0 1 1 8.637-8.636 8.647 8.647 0 0 1 -8.637 8.636z"/><path d="m302.586 216.9a20.637 20.637 0 1 0 20.636 20.637 20.661 20.661 0 0 0 -20.636-20.637zm0 29.273a8.637 8.637 0 1 1 8.636-8.636 8.646 8.646 0 0 1 -8.636 8.636z"/><path d="m143 413.612a6 6 0 0 0 -6 6v5.081a6 6 0 0 0 12 0v-5.081a6 6 0 0 0 -6-6z"/><path d="m143 438.536a6 6 0 0 0 -6 6v30.388a6 6 0 0 0 12 0v-30.388a6 6 0 0 0 -6-6z"/><path d="m421.791 176h-2.371a19.619 19.619 0 0 0 -9.42-9.73v-1.22c0-85.495-69.414-155.05-154.909-155.05-85.384 0-154.8 69.362-154.975 154.7a17.224 17.224 0 0 0 -8.459 9.3h-1.448a61 61 0 1 0 0 122h1.448c2.434 7 8.848 11.094 16.115 11.094a17.323 17.323 0 0 0 15.928-10.534 85.4 85.4 0 0 0 74.87 44.44h7.43v22h-32.27c-34.63 0-62.73 28.64-62.73 63.274v69.726a5.932 5.932 0 0 0 5.919 6h276.626c3.313 0 6.455-2.687 6.455-6v-69.726c0-34.634-28.632-63.274-63.266-63.274h-31.734v-22h6.894a86.253 86.253 0 0 0 75.588-44.986 16.719 16.719 0 0 0 16.285 13c7.266 0 13.22-5.017 15.653-11.017h2.371a61 61 0 1 0 0-122zm-330.791 108h-.791a49 49 0 1 1 0-98h.791zm79-233.4c23-17.951 53.371-28.6 85.5-28.6a141.855 141.855 0 0 1 85.5 28.6v8.968a25.992 25.992 0 0 1 -31.082 25.454 277.4 277.4 0 0 0 -109.355 0 25.354 25.354 0 0 1 -21.3-5.379 25.64 25.64 0 0 1 -9.263-20.075zm-57 239.56a5 5 0 1 1 -10 0v-110.132a5 5 0 1 1 10 0zm187 199.84h-90v-17.954a45 45 0 1 1 90 0zm36.734-115c28.017 0 51.266 23.257 51.266 51.274v63.726h-76v-17.954a57 57 0 1 0 -114 0v17.954h-75v-63.726c0-28.017 22.713-51.274 50.73-51.274zm-118.734-12v-22h75v22zm168-108a74 74 0 0 1 -74 74h-113a74 74 0 0 1 -74-74v-35a74 74 0 0 1 74-74h113a74 74 0 0 1 74 74zm12-89.3c-5.976 1.891-9.756 6.845-10.736 12.953a86.254 86.254 0 0 0 -75.37-44.653h-113.324a85.373 85.373 0 0 0 -73.907 42.778 17.375 17.375 0 0 0 -12.248-13.1 142.57 142.57 0 0 1 45.232-103.02 37.819 37.819 0 0 0 45.277 36.131 265.427 265.427 0 0 1 104.636 0 37.734 37.734 0 0 0 45.226-36.131 142.547 142.547 0 0 1 45.214 104.392zm11 126.312a5 5 0 1 1 -10 0v-110.138a5 5 0 1 1 10 0zm12.791-6.012h-.791v-98h.791a49 49 0 1 1 0 98z"/></g></svg>