<svg id="Layer_1" height="512" viewBox="0 0 512 512" width="512" xmlns="http://www.w3.org/2000/svg" data-name="Layer 1"><path d="m445.62 308.315-24.33-63.663-10.15-26.541s-.08-34.03-.28-37.3a179.678 179.678 0 0 0 -181.47-169.811c-1.55.02-3.09.055-4.63.115-121.67 4.385-196.13 135.873-139.77 243.793 0 0 19.24 47.686 21.11 67.756 6.33 68.08 0 178.336 0 178.336h159.9v-57.278c0-13.587 10.5-25.183 24.075-25.787l53.805.285a39.962 39.962 0 0 0 41.12-39.93v-59.29h53.16a7.866 7.866 0 0 0 7.46-10.685z" fill="#ffd8b7"/><circle cx="333.99" cy="205.82" fill="#4ca987" r="19.06"/><path d="m269.63 140.35a19.055 19.055 0 1 1 -19.06 19.06 19.053 19.053 0 0 1 19.06-19.06z" fill="#5fa8ed"/><circle cx="267.95" cy="299.36" fill="#e87187" r="19.06"/><path d="m249.61 206.5a19.06 19.06 0 1 1 -19.05 19.06 19.056 19.056 0 0 1 19.05-19.06z" fill="#f3ce7d"/><circle cx="160.93" cy="217.54" fill="#4ca987" r="19.06"/><path d="m150.58 125.77a19.055 19.055 0 1 1 -19.06 19.06 19.056 19.056 0 0 1 19.06-19.06z" fill="#f3ce7d"/><path d="m136.1 322.664c-1.87-20.07-21.11-67.756-21.11-67.756-55.09-105.481 14.81-233.458 131.602-243.28q-8.5-.711-17.2-.628c-1.55.02-3.09.055-4.63.115-121.672 4.385-196.132 135.873-139.772 243.793 0 0 19.24 47.686 21.11 67.756 6.33 68.08 0 178.336 0 178.336h30s6.33-110.256 0-178.336z" fill="#d8b79e"/><path d="m152.16 273.05v.15a19.135 19.135 0 1 1 0-.15z" fill="#5fa8ed"/><g fill="#284268"><path d="m100.12 323.035c6.224 66.844.048 176.153-.016 177.25a6.441 6.441 0 0 0 1.627 4.649 6.194 6.194 0 0 0 4.369 2.066h160.339c3.314 0 5.561-3.057 5.561-6.37v-62.43c3-8.488 10.4-14.358 19.314-14.3 31.662.132 50.364.241 52.465.306a45.88 45.88 0 0 0 47.221-45.914v-53.292h47.161a13.781 13.781 0 0 0 13.068-18.746l-34.09-89.254c-.017-6.53-.1-33.429-.286-36.511a185.672 185.672 0 0 0 -187.527-175.482q-2.4.026-4.785.115a166.9 166.9 0 0 0 -83.464 25.3 173.8 173.8 0 0 0 -61.54 227c1.523 3.791 18.887 47.383 20.583 65.613zm15.209-98.035h21.559a25.091 25.091 0 0 0 49.1-7.357 25.042 25.042 0 0 0 -49.621-4.643h-21.038c-4.623 0-8.329-4.178-8.329-8.8v-4.116a20.2 20.2 0 0 0 -20.441-20.084h-14.64a162.251 162.251 0 0 1 75.513-139.4 155.53 155.53 0 0 1 19.568-10.352v29.787a20.506 20.506 0 0 0 20.5 20.384 8.494 8.494 0 0 1 8.5 8.386v41.757a8.592 8.592 0 0 1 -8.561 8.438h-12.5a25.026 25.026 0 1 0 -.057 12h12.561a20.6 20.6 0 0 0 20.557-20.438v-41.757a20.507 20.507 0 0 0 -20.5-20.386 8.493 8.493 0 0 1 -8.5-8.384v-34.5a158.2 158.2 0 0 1 45.972-8.417c1.006-.036 2.017-.051 3.028-.071v51.766a19.829 19.829 0 0 0 19.9 20.187h8.946a8.374 8.374 0 0 1 8.154 8.583v37.159c-11 2.085-20.547 12.347-20.547 24.664a25.044 25.044 0 1 0 32.547-23.875v-37.948a20.384 20.384 0 0 0 -20.156-20.583h-8.944a7.824 7.824 0 0 1 -7.9-8.187v-51.593a173.806 173.806 0 0 1 157.314 121.78h-48.939a20.57 20.57 0 0 0 -20.375 20.583v21.917a25.053 25.053 0 1 0 12 0v-21.917a8.558 8.558 0 0 1 8.375-8.583h52.195a174.437 174.437 0 0 1 4.3 30.195c.14 2.273.237 23.353.27 36.968a6.01 6.01 0 0 0 .394 2.126l7.146 18.711h-42.2a20.254 20.254 0 0 0 -20.48 20.111v26c0 4.624-3.67 7.889-8.293 7.889h-49.4c-2.648-10-12.561-18.946-24.358-18.946a25.193 25.193 0 0 0 -25.057 25.182 25.032 25.032 0 0 0 49.351 5.764h49.464c11.24 0 20.293-8.648 20.293-19.889v-26a8.245 8.245 0 0 1 8.477-8.111h46.784l22.757 59.61a1.637 1.637 0 0 1 -.22 1.683 1.9 1.9 0 0 1 -1.637.707h-52.978a6.427 6.427 0 0 0 -6.183 6.307v58.985a33.869 33.869 0 0 1 -34.782 33.974c-2.826-.089-30.161-.266-52.633-.266h-.137a31.943 31.943 0 0 0 -31.048 23.993 6.007 6.007 0 0 0 -.4 1.417v57.59h-42v-258.016a8.224 8.224 0 0 1 6.954-8.283 24.975 24.975 0 1 0 24.684-28 24.477 24.477 0 0 0 -23.419 16.299h-.219a19.742 19.742 0 0 0 -20 19.984v258.016h-19v-207.413a20.52 20.52 0 0 0 -20.312-20.587h-9.227a25.125 25.125 0 1 0 -.072 12h9.3a8.508 8.508 0 0 1 8.311 8.587v207.413h-62.583c1.217-25 5.085-114.535-.348-172.893-1.927-20.709-20.715-67.384-21.513-69.357-.073-.179-.154-.4-.244-.572a161.57 161.57 0 0 1 -17.748-60.178h14a8.189 8.189 0 0 1 8.436 8.082v4.118c0 11.238 9.089 20.8 20.329 20.8zm32.544-7.461a13.058 13.058 0 1 1 13.059 13.061 13.073 13.073 0 0 1 -13.059-13.061zm15.765-72.712a13.058 13.058 0 1 1 -13.058-13.058 13.073 13.073 0 0 1 13.058 13.058zm105.987 1.521a13.058 13.058 0 1 1 -13.058 13.058 13.073 13.073 0 0 1 13.058-13.058zm64.365 46.417a13.058 13.058 0 1 1 -13.057 13.057 13.072 13.072 0 0 1 13.057-13.057zm-52.984 106.6a13.058 13.058 0 1 1 -13.058-13.065 13.072 13.072 0 0 1 13.058 13.06zm-44.449-73.8a13.058 13.058 0 1 1 13.057 13.058 13.072 13.072 0 0 1 -13.057-13.065zm-90.4 47.49a13.058 13.058 0 1 1 -13.057-13.065 13.071 13.071 0 0 1 13.056 13.058z"/><path d="m135 373a6 6 0 0 0 6-6v-2a6 6 0 0 0 -12 0v2a6 6 0 0 0 6 6z"/><path d="m135 465a6 6 0 0 0 6-6v-72a6 6 0 0 0 -12 0v72a6 6 0 0 0 6 6z"/></g></svg>