<svg id="Layer_1" height="512" viewBox="0 0 512 512" width="512" xmlns="http://www.w3.org/2000/svg" data-name="Layer 1"><path d="m452.76 68.8a57.805 57.805 0 1 1 -57.8-57.8 57.827 57.827 0 0 1 57.8 57.8z" fill="#e87187"/><path d="m367.62 265h-5.71l-.91.04v49.96h6.62a25 25 0 1 0 0-50z" fill="#75967a"/><path d="m312.23 68.8a57.805 57.805 0 1 1 -57.81-57.8 57.826 57.826 0 0 1 57.81 57.8z" fill="#4ca987"/><path d="m289.92 368h-70.92v1.53 30.47h71v-30.3z" fill="#75967a"/><path d="m174.85 68.8a57.805 57.805 0 1 1 -57.81-57.8 57.826 57.826 0 0 1 57.81 57.8z" fill="#4ca987"/><path d="m147.89 265.215-6.67-.215a25.146 25.146 0 0 0 -25.14 25.14 24.891 24.891 0 0 0 25.14 24.86h6.78z" fill="#75967a"/><path d="m361.9 265.155a79.377 79.377 0 0 0 -75.38-54.155h-64.2a79.251 79.251 0 0 0 -75.4 54.485 78.311 78.311 0 0 0 -3.92 24.665v.01a77.992 77.992 0 0 0 4.03 24.9c10.17 30.5 38.31 52.94 71.88 53.94h71.01c33.57-1 61.795-23.44 71.975-53.94a78.031 78.031 0 0 0 4.105-24.9v-.01a78.29 78.29 0 0 0 -4.1-24.995z" fill="#9ac5a1"/><path d="m327.25 398h-145.625a39.49 39.49 0 0 0 -39.625 39.78v63.22h225v-63.22a39.6 39.6 0 0 0 -39.75-39.78z" fill="#9ac5a1"/><path d="m296.21 481.46v19.54h-83.58v-19.54a41.79 41.79 0 1 1 83.58 0z" fill="#75967a"/><path d="m218.91 369h30c-33.57-1-61.71-23.44-71.88-53.94a77.992 77.992 0 0 1 -4.03-24.9v-.01a78.311 78.311 0 0 1 3.92-24.665 79.251 79.251 0 0 1 75.4-54.485h-30a79.251 79.251 0 0 0 -75.4 54.485 78.311 78.311 0 0 0 -3.92 24.665v.01a77.992 77.992 0 0 0 4.03 24.9c10.17 30.5 38.31 52.94 71.88 53.94z" fill="#729376"/><path d="m211.625 398h-30a39.49 39.49 0 0 0 -39.625 39.78v63.22h30v-63.22a39.49 39.49 0 0 1 39.625-39.78z" fill="#729376"/><path d="m325.87 265a35.567 35.567 0 0 1 -25.15 60.72h-92.6a35.565 35.565 0 0 1 0-71.13h92.6a35.486 35.486 0 0 1 25.15 10.41z" fill="#4a5160"/><circle cx="293.05" cy="290.15" fill="#6addc7" r="11.94"/><circle cx="215.79" cy="290.15" fill="#6addc7" r="11.94"/><g fill="#284268"><path d="m149 46.082a6 6 0 0 0 -8.485 0l-32.715 32.718-14.235-14.238a6 6 0 1 0 -8.485 8.485l18.479 18.479a6 6 0 0 0 8.485 0l36.956-36.959a6 6 0 0 0 0-8.485z"/><path d="m394.958 5a63.806 63.806 0 0 0 -13.091 126.254c2.341.49 5.133.836 7.133 1.06v27.286a7.468 7.468 0 0 1 -7.6 7.4h-121.4v-34.686a50.829 50.829 0 0 0 7.32-1.06 63.612 63.612 0 1 0 -26.234 0c2.341.49 4.914.836 6.914 1.06v34.686h-120.554a7.333 7.333 0 0 1 -7.446-7.4v-27.065a70.457 70.457 0 0 0 10.209-1.281 63.856 63.856 0 1 0 -26.217 0c1.307.274 3.008.492 4.008.683v27.663a19.345 19.345 0 0 0 19.446 19.4h120.554v26h-25.679a84.879 84.879 0 0 0 -79.479 54h-1.621a31 31 0 1 0 0 62h1.621a85.879 85.879 0 0 0 70.158 54.009v16.991h-31.409a45.514 45.514 0 0 0 -45.591 45.776v63.224c0 3.313 2.277 6 5.591 6h225.661a5.791 5.791 0 0 0 5.748-6v-63.224a45.647 45.647 0 0 0 -45.748-45.776h-31.252v-16.991c32-3.523 58.627-25.009 70-54.009h1.622a31 31 0 1 0 0-62h-1.622a84.879 84.879 0 0 0 -79.479-54h-26.521v-26h121.4a19.48 19.48 0 0 0 19.6-19.4v-27.286c2-.224 4.749-.57 7.088-1.06a63.809 63.809 0 0 0 -13.13-126.254zm-288.571 114.508a51.8 51.8 0 1 1 21.307 0 51.989 51.989 0 0 1 -21.307 0zm32.713 189.66a19.13 19.13 0 0 1 0-38.026 84.759 84.759 0 0 0 0 38.026zm230.647-38.026a19.13 19.13 0 0 1 0 38.026 84.759 84.759 0 0 0 0-38.026zm-79.747 223.858h-71v-13.541a35.5 35.5 0 1 1 71 0zm37.252-91a33.633 33.633 0 0 1 33.748 33.776v57.224h-59v-13.541a47.5 47.5 0 1 0 -95 0v13.541h-59v-57.224a33.5 33.5 0 0 1 33.591-33.776zm-102.252-12v-16h59v16zm61.522-175a73.5 73.5 0 0 1 0 147h-64.2a73.5 73.5 0 0 1 0-147zm-42.755-97.492a51.8 51.8 0 1 1 21.307 0 51.99 51.99 0 0 1 -21.307 0zm161.844 0a51.809 51.809 0 1 1 41.151-50.7 52.378 52.378 0 0 1 -41.151 50.701z"/><path d="m418.366 45.4a6 6 0 0 0 -8.485 0l-14.923 14.919-14.922-14.919a6 6 0 0 0 -8.486 8.485l14.923 14.915-14.923 14.927a6 6 0 0 0 8.486 8.485l14.922-14.923 14.923 14.923a6 6 0 1 0 8.485-8.485l-14.922-14.927 14.922-14.923a6 6 0 0 0 0-8.477z"/><path d="m286.384 46.082a6 6 0 0 0 -8.486 0l-32.716 32.718-14.238-14.238a6 6 0 0 0 -8.485 8.485l18.48 18.479a6 6 0 0 0 8.485 0l36.96-36.959a6 6 0 0 0 0-8.485z"/><path d="m166.556 290.5a41.557 41.557 0 0 0 41.567 41.5h92.6a41.5 41.5 0 1 0 0-83h-92.6a41.557 41.557 0 0 0 -41.567 41.5zm163.73 0a29.543 29.543 0 0 1 -29.566 29.5h-92.6a29.5 29.5 0 1 1 0-59h92.6a29.543 29.543 0 0 1 29.566 29.5z"/><path d="m197.852 290.155a17.94 17.94 0 1 0 17.94-17.94 17.96 17.96 0 0 0 -17.94 17.94zm17.94-5.94a5.94 5.94 0 1 1 -5.94 5.94 5.947 5.947 0 0 1 5.94-5.94z"/><path d="m293.051 308.1a17.94 17.94 0 1 0 -17.94-17.94 17.961 17.961 0 0 0 17.94 17.94zm0-23.88a5.94 5.94 0 1 1 -5.94 5.94 5.947 5.947 0 0 1 5.94-5.945z"/><path d="m165 429.66a6 6 0 0 0 -6 6v3.08a6 6 0 0 0 12 0v-3.08a6 6 0 0 0 -6-6z"/><path d="m165 450.583a6 6 0 0 0 -6 6v26.389a6 6 0 0 0 12 0v-26.389a6 6 0 0 0 -6-6z"/></g></svg>