<svg id="Layer_1" height="512" viewBox="0 0 512 512" width="512" xmlns="http://www.w3.org/2000/svg" data-name="Layer 1"><path d="m299.41 229.09a150.717 150.717 0 0 1 -43.41 6.63c-.32 0-.63 0-.95-.01-100.77-.69-182.31-112.35-182.31-112.35s82.05-112.36 183.26-112.36 183.26 112.36 183.26 112.36-59.59 81.61-139.85 105.73z" fill="#d0ddd7"/><path d="m102.74 123.36s74.067-101.413 168.26-111.537a140.225 140.225 0 0 0 -15-.823c-101.21 0-183.26 112.36-183.26 112.36s81.54 111.66 182.31 112.35c.32.01.63.01.95.01a140.5 140.5 0 0 0 15-.817c-94.192-10.115-168.26-111.543-168.26-111.543z" fill="#aab5af"/><path d="m254.81 18.23a105.13 105.13 0 1 1 -105.13 105.13 105.124 105.124 0 0 1 105.13-105.13z" fill="#6994fe"/><path d="m179.68 123.36a105.151 105.151 0 0 1 90.13-104.06 105.133 105.133 0 1 0 -15 209.19 106 106 0 0 0 15-1.07 105.151 105.151 0 0 1 -90.13-104.06z" fill="#68c"/><path d="m357.35 358.74a16.731 16.731 0 1 1 -13.76 4.79 16.621 16.621 0 0 1 13.76-4.79z" fill="#e87187"/><path d="m310.63 408.14a16.73 16.73 0 1 1 -11.83 4.9 16.655 16.655 0 0 1 11.83-4.9z" fill="#f3ce7d"/><path d="m266.89 472.44a16.743 16.743 0 1 1 -11.84-4.9 16.737 16.737 0 0 1 11.84 4.9z" fill="#4ca987"/><path d="m199.48 408.14a16.73 16.73 0 1 1 -11.83 4.9 16.672 16.672 0 0 1 11.83-4.9z" fill="#f3ce7d"/><path d="m152.76 358.74a16.731 16.731 0 1 1 -9.91 4.79 16.652 16.652 0 0 1 9.91-4.79z" fill="#e87187"/><path d="m331.97 140.97-8.24 21.35-12.73-.38a63.017 63.017 0 0 1 -14.99 15.74l.94 12.73-20.98 9.18-8.8-9.18a70.4 70.4 0 0 1 -21.73.57l-8.24 9.55-21.35-8.24.38-12.74a63.156 63.156 0 0 1 -15.74-14.98l-12.73.93-9.18-20.97 9.18-8.81a70.02 70.02 0 0 1 -.57-21.72l-9.55-8.24 8.24-21.36 12.74.38a63.285 63.285 0 0 1 14.98-15.73l-.93-12.74 20.97-9.18 8.8 9.18a70.406 70.406 0 0 1 21.73-.56l8.24-9.55 21.36 8.24-.38 12.73a62.975 62.975 0 0 1 15.73 14.99l12.74-.94 9.18 20.98-9.18 8.8a70.4 70.4 0 0 1 .56 21.73z" fill="#f3ce7d"/><path d="m254.81 81.91a41.455 41.455 0 1 1 -41.46 41.45 41.453 41.453 0 0 1 41.46-41.45z" fill="#c4a66a"/><g fill="#284268"><path d="m389.462 62.6c-44.489-37.681-90.64-57.6-133.462-57.6s-88.973 19.919-133.462 57.6c-33.326 28.231-53.789 56.053-54.638 57.224a6 6 0 0 0 0 7.077c.854 1.17 21.317 28.993 54.643 57.221 27.242 23.078 55.11 39.478 82.457 48.738v66.179a15.657 15.657 0 0 1 -10.239 14.5l-29.884 11.085a27.528 27.528 0 0 0 -17.877 25.749v3.7a28.631 28.631 0 0 0 -8.271 4.927h-.06a22.932 22.932 0 0 0 -.029 32.292 22.714 22.714 0 1 0 32.237-32.007 23.76 23.76 0 0 0 -11.877-6.27v-2.642a15.415 15.415 0 0 1 9.971-14.5l30.018-11.085a27.653 27.653 0 0 0 18.011-25.749v-62.568q5.52 1.452 11 2.512v104.445c0 6.089-5.412 11.042-11.5 11.042-12.706 0-23.5 10.337-23.5 23.043v25.455a26.176 26.176 0 0 0 -9.835 5.828 22.843 22.843 0 1 0 32.254.2h-.106a21.275 21.275 0 0 0 -10.313-6.028v-25.455c0-6.089 5.411-11.043 11.5-11.043 12.706 0 23.5-10.337 23.5-23.042v-102.613c3.014.338 6.014.573 9 .722v220.818a21.322 21.322 0 0 0 -10.046 5.839 22.706 22.706 0 1 0 32.159-.194h-.013a19.926 19.926 0 0 0 -10.1-5.645v-220.731q4.972-.179 10-.709v102.513a23.032 23.032 0 0 0 23 23.042 11.019 11.019 0 0 1 11 11.043v25.455a21.114 21.114 0 0 0 -10.259 6.032h-.095a22.642 22.642 0 1 0 32.248-.192 26.413 26.413 0 0 0 -9.894-5.84v-25.455a23.032 23.032 0 0 0 -23-23.043 11.019 11.019 0 0 1 -11-11.042v-104.263c3.321-.616 6.655-1.332 10-2.17v62.044a27.759 27.759 0 0 0 18.125 25.751l29.857 11.085a15.456 15.456 0 0 1 10.018 14.498v2.642a23.606 23.606 0 0 0 -11.823 6.27 22.737 22.737 0 1 0 32.223-.285h-.076a28.911 28.911 0 0 0 -8.324-4.922v-3.7a27.411 27.411 0 0 0 -17.749-25.751l-30.045-11.085a15.627 15.627 0 0 1 -10.206-14.503v-65.5c27.986-9.125 56.551-25.771 84.462-49.412 33.326-28.228 53.789-56.051 54.643-57.221a6 6 0 0 0 0-7.077c-.854-1.176-21.317-28.998-54.643-57.229zm-227.19 305.171a10.732 10.732 0 1 1 -15.178 0 10.744 10.744 0 0 1 15.178 0zm44.8 49.51a10.743 10.743 0 1 1 -7.588-3.138 10.745 10.745 0 0 1 7.584 3.138zm111.149 0a10.732 10.732 0 1 1 -15.177 0 10.747 10.747 0 0 1 15.173 0zm44.8-49.51a10.744 10.744 0 1 1 -7.59-3.139 10.746 10.746 0 0 1 7.584 3.139zm-232.521-192.63a373.386 373.386 0 0 1 -50.2-51.779 373.4 373.4 0 0 1 50.2-51.778c16.1-13.618 37.067-28.655 60.992-39.5a111.024 111.024 0 0 0 0 182.549c-23.923-10.833-44.892-25.875-60.992-39.492zm132.143 301.538a10.734 10.734 0 1 1 -7.59-3.143 10.745 10.745 0 0 1 7.591 3.143zm-7.836-254.189a99.128 99.128 0 1 1 99.128-99.128 99.24 99.24 0 0 1 -99.128 99.128zm126.693-47.349c-17.631 14.91-41.085 31.528-67.879 42.468a111.05 111.05 0 0 0 0-188.493c26.794 10.94 50.247 27.558 67.878 42.468a373.4 373.4 0 0 1 50.2 51.778 373.386 373.386 0 0 1 -50.199 51.779z"/><path d="m254.807 75.906a47.456 47.456 0 1 0 47.456 47.456 47.51 47.51 0 0 0 -47.456-47.456zm0 82.912a35.456 35.456 0 1 1 35.456-35.456 35.5 35.5 0 0 1 -35.456 35.456z"/><path d="m329.329 164.48 8.241-21.352a6 6 0 0 0 -1.677-6.7l-7.168-6.185a76.239 76.239 0 0 0 -.442-17.087l6.908-6.625a6 6 0 0 0 1.344-6.735l-9.178-20.977a5.985 5.985 0 0 0 -5.937-3.579l-9.533.7a68.759 68.759 0 0 0 -12.4-11.815l.28-9.509a6 6 0 0 0 -3.837-5.774l-21.355-8.242a6 6 0 0 0 -6.7 1.678l-6.184 7.169a76.13 76.13 0 0 0 -17.089.442l-6.626-6.908a6 6 0 0 0 -6.736-1.344l-20.976 9.177a6 6 0 0 0 -3.578 5.937l.7 9.534a68.865 68.865 0 0 0 -11.816 12.4l-9.508-.28a5.965 5.965 0 0 0 -5.775 3.838l-8.24 21.351a6 6 0 0 0 1.678 6.7l7.169 6.186a76.171 76.171 0 0 0 .441 17.086l-6.907 6.625a6 6 0 0 0 -1.344 6.736l9.179 20.977a5.988 5.988 0 0 0 5.937 3.578l9.532-.7a68.836 68.836 0 0 0 12.4 11.816l-.279 9.508a6 6 0 0 0 3.836 5.774l21.352 8.241a6 6 0 0 0 6.7-1.678l6.185-7.169a76.055 76.055 0 0 0 17.086-.442l6.625 6.908a6 6 0 0 0 6.735 1.344l20.978-9.177a6 6 0 0 0 3.578-5.937l-.7-9.534a68.8 68.8 0 0 0 11.816-12.4l9.508.28a6 6 0 0 0 5.777-3.836zm-9.666-8.283-8.491-.25a6.028 6.028 0 0 0 -5.169 2.67 56.946 56.946 0 0 1 -13.559 14.237 6 6 0 0 0 -2.416 5.264l.625 8.5-13.251 5.8-5.9-6.155a5.99 5.99 0 0 0 -5.41-1.749 64.283 64.283 0 0 1 -19.873.513 6.014 6.014 0 0 0 -5.317 2.031l-5.48 6.353-13.447-5.191.25-8.491a6 6 0 0 0 -2.669-5.169 56.915 56.915 0 0 1 -14.24-13.56 6 6 0 0 0 -5.264-2.416l-8.5.625-5.8-13.25 6.154-5.9a6 6 0 0 0 1.749-5.409 64.258 64.258 0 0 1 -.513-19.874 6 6 0 0 0 -2.031-5.316l-6.352-5.481 5.189-13.448 8.491.25a6.016 6.016 0 0 0 5.169-2.669 56.955 56.955 0 0 1 13.562-14.242 6 6 0 0 0 2.415-5.263l-.624-8.5 13.25-5.8 5.9 6.154a5.992 5.992 0 0 0 5.41 1.749 64.3 64.3 0 0 1 19.879-.51 6.027 6.027 0 0 0 5.317-2.031l5.48-6.353 13.448 5.191-.245 8.493a6 6 0 0 0 2.668 5.17 56.89 56.89 0 0 1 14.232 13.555 5.99 5.99 0 0 0 5.264 2.416l8.5-.625 5.8 13.25-6.155 5.9a6 6 0 0 0 -1.749 5.41 64.283 64.283 0 0 1 .514 19.873 6 6 0 0 0 2.03 5.316l6.352 5.482z"/><path d="m87.328 162.594a6 6 0 0 0 -8.414 8.557q1.5 1.479 3.058 2.979a6 6 0 1 0 8.332-8.636q-1.513-1.46-2.976-2.9z"/><path d="m159.939 231.668a6 6 0 0 0 2.919-11.247 335.321 335.321 0 0 1 -57.542-41.113 6 6 0 0 0 -7.906 9.027 347.353 347.353 0 0 0 59.622 42.578 5.977 5.977 0 0 0 2.907.755z"/></g></svg>