<svg id="Capa_1" enable-background="new 0 0 512 512" height="512" viewBox="0 0 512 512" width="512" xmlns="http://www.w3.org/2000/svg"><g><g><path d="m296.283 112.739c46.346 5.033 85.973 32.431 107.871 71.178 19.46 4.604 37.61 12.591 53.786 23.323-19.185-73.713-83.152-129.348-161.124-136.097-1.742-.151-3.234 1.243-3.234 2.992v35.623c0 1.541 1.169 2.815 2.701 2.981z" fill="#fed402"/><path d="m118.179 309.51c1.358-1.044 3.286-.905 4.497.306l11.372 11.372c1.073 1.073 2.718 1.301 4.053.582 3.052-1.643 6.288-2.989 9.667-4.002 1.452-.435 2.453-1.761 2.453-3.276v-6.323c-5.155-12.297-8.626-25.475-10.121-39.247-.166-1.532-1.44-2.701-2.981-2.701h-35.623c-1.749 0-3.143 1.492-2.992 3.234 1.452 16.772 5.166 32.896 10.833 48.067 2.724-2.902 5.681-5.583 8.842-8.012z" fill="#fd5426"/><path d="m118.179 309.51c1.358-1.044 3.286-.905 4.497.306l1.359 1.359c-4.414-13.295-7.347-27.267-8.598-41.721-.151-1.742 1.243-3.234 2.992-3.234h-16.933c-1.749 0-3.143 1.492-2.992 3.234 1.452 16.772 5.166 32.896 10.833 48.067 2.724-2.901 5.681-5.582 8.842-8.011z" fill="#ef4424"/><g><path d="m140.1 238.011c7.15-65.839 59.433-118.122 125.272-125.272 1.532-.166 2.701-1.44 2.701-2.98v-35.623c0-1.749-1.492-3.143-3.234-2.992-88.323 7.645-158.69 78.012-166.335 166.335-.151 1.742 1.243 3.234 2.992 3.234h35.623c1.542-.001 2.815-1.17 2.981-2.702z" fill="#01d0fb"/></g><g><path d="m124.011 237.478c6.99-80.756 66.419-146.491 144.062-163.006v-.336c0-1.749-1.492-3.143-3.234-2.992-88.323 7.645-158.69 78.012-166.335 166.335-.151 1.742 1.243 3.234 2.992 3.234h25.507c-1.748-.001-3.143-1.493-2.992-3.235z" fill="#01c0fa"/></g><path d="m404.153 323.016c-21.897 38.747-61.525 66.145-107.871 71.178-1.532.166-2.701 1.44-2.701 2.98v35.623c0 1.749 1.492 3.143 3.234 2.992 77.971-6.749 141.939-62.384 161.124-136.097-16.176 10.733-34.326 18.72-53.786 23.324z" fill="#05e39c"/><path d="m265.372 394.194c-17.004-1.846-33.1-6.71-47.752-14.033h-1.729c-1.516 0-2.841 1.001-3.276 2.453-1.013 3.38-2.359 6.615-4.002 9.667-.719 1.336-.491 2.981.582 4.053l11.372 11.372c1.211 1.211 1.35 3.139.306 4.497-2.928 3.812-6.224 7.328-9.833 10.494 16.82 6.942 34.897 11.455 53.799 13.091 1.742.151 3.234-1.243 3.234-2.992v-35.623c0-1.539-1.169-2.813-2.701-2.979z" fill="#fd5426"/></g><g><g><ellipse cx="365.438" cy="253.466" fill="#c8effe" rx="139.062" ry="74.065"/></g><g><ellipse cx="365.438" cy="253.466" fill="#fff" rx="91.787" ry="74.065"/></g><g><path d="m299 253.466c17.636-39.665 46.179-67.26 79.112-72.956-4.16-.719-8.387-1.109-12.675-1.109-38.228 0-71.923 29.389-91.787 74.065 19.864 44.676 53.559 74.065 91.787 74.065 4.288 0 8.514-.389 12.675-1.109-32.933-5.695-61.476-33.291-79.112-72.956z" fill="#eef5f6"/></g><g><circle cx="365.438" cy="253.466" fill="#01d0fb" r="43.562"/></g><g><path d="m347 253.466c0-19.69 13.067-36.322 31-41.715-3.979-1.197-8.194-1.847-12.562-1.847-24.059 0-43.562 19.503-43.562 43.562s19.503 43.562 43.562 43.562c4.368 0 8.584-.651 12.562-1.847-17.933-5.393-31-22.024-31-41.715z" fill="#01c0fa"/></g><g><circle cx="365.438" cy="253.466" fill="#3e5959" r="15.038"/></g></g><g><g><circle cx="25.723" cy="191.456" fill="#fd5426" r="18.223"/></g><path d="m24.258 191.456c0-7.041 3.999-13.137 9.844-16.172-2.51-1.303-5.355-2.051-8.379-2.051-10.064 0-18.223 8.159-18.223 18.223s8.159 18.223 18.223 18.223c3.024 0 5.869-.748 8.379-2.051-5.844-3.035-9.844-9.131-9.844-16.172z" fill="#ef4424"/><g><circle cx="81.304" cy="137.698" fill="#fed402" r="18.223"/></g><path d="m79.839 137.698c0-7.041 3.999-13.137 9.844-16.172-2.51-1.303-5.355-2.051-8.379-2.051-10.064 0-18.223 8.159-18.223 18.223s8.159 18.223 18.223 18.223c3.024 0 5.869-.748 8.379-2.051-5.845-3.035-9.844-9.132-9.844-16.172z" fill="#fac600"/><g><circle cx="192.465" cy="223.347" fill="#fd5426" r="18.223"/></g><path d="m191 223.347c0-7.041 3.999-13.137 9.844-16.172-2.51-1.303-5.355-2.051-8.379-2.051-10.064 0-18.223 8.159-18.223 18.223s8.159 18.223 18.223 18.223c3.024 0 5.869-.748 8.379-2.051-5.844-3.035-9.844-9.132-9.844-16.172z" fill="#ef4424"/><g><circle cx="248.046" cy="165.944" fill="#fed402" r="18.223"/></g><path d="m246.581 165.944c0-7.041 3.999-13.137 9.844-16.172-2.51-1.303-5.355-2.051-8.379-2.051-10.064 0-18.223 8.159-18.223 18.223s8.159 18.223 18.223 18.223c3.024 0 5.869-.748 8.379-2.051-5.845-3.035-9.844-9.132-9.844-16.172z" fill="#fac600"/></g><g><g><path d="m209.194 338.917 11.372-11.372c1.211-1.211 1.35-3.139.306-4.497-3.903-5.08-8.456-9.634-13.537-13.537-1.358-1.044-3.286-.905-4.497.306l-11.372 11.372c-1.073 1.073-2.718 1.301-4.053.582-3.052-1.643-6.288-2.989-9.667-4.002-1.452-.435-2.453-1.761-2.453-3.277v-16.089c0-1.713-1.264-3.174-2.962-3.396-3.133-.41-6.329-.624-9.574-.624s-6.441.213-9.574.624c-1.698.222-2.962 1.683-2.962 3.396v16.089c0 1.516-1.001 2.841-2.453 3.277-3.379 1.013-6.615 2.359-9.667 4.002-1.336.719-2.981.491-4.053-.582l-11.372-11.372c-1.211-1.211-3.139-1.35-4.497-.306-5.08 3.903-9.634 8.456-13.537 13.537-1.044 1.358-.905 3.286.306 4.497l11.372 11.372c1.073 1.073 1.301 2.718.582 4.053-1.643 3.052-2.989 6.287-4.002 9.667-.435 1.452-1.761 2.453-3.277 2.453h-16.089c-1.713 0-3.174 1.263-3.396 2.962-.41 3.133-.624 6.329-.624 9.574s.213 6.44.624 9.574c.222 1.698 1.683 2.962 3.396 2.962h16.089c1.516 0 2.841 1.001 3.277 2.453 1.013 3.38 2.359 6.615 4.002 9.667.719 1.336.491 2.981-.582 4.053l-11.372 11.372c-1.211 1.211-1.35 3.139-.306 4.497 3.903 5.08 8.456 9.634 13.537 13.537 1.358 1.044 3.286.905 4.497-.306l11.372-11.372c1.073-1.073 2.718-1.301 4.053-.582 3.052 1.643 6.288 2.989 9.667 4.002 1.452.435 2.453 1.761 2.453 3.277v16.089c0 1.713 1.264 3.174 2.962 3.396 3.133.41 6.329.624 9.574.624s6.441-.213 9.574-.624c1.698-.222 2.962-1.683 2.962-3.396v-16.089c0-1.516 1.001-2.841 2.453-3.277 3.379-1.013 6.615-2.359 9.667-4.002 1.336-.719 2.981-.491 4.053.582l11.372 11.372c1.211 1.211 3.139 1.35 4.497.306 5.08-3.903 9.634-8.456 13.537-13.537 1.044-1.358.905-3.286-.306-4.497l-11.372-11.372c-1.073-1.073-1.301-2.718-.582-4.053 1.643-3.052 2.989-6.287 4.002-9.667.435-1.452 1.761-2.453 3.277-2.453h16.089c1.713 0 3.174-1.263 3.396-2.962.41-3.133.624-6.329.624-9.574s-.213-6.44-.624-9.574c-.222-1.698-1.683-2.962-3.396-2.962h-16.089c-1.516 0-2.841-1.001-3.277-2.453-1.013-3.38-2.359-6.615-4.002-9.667-.719-1.336-.491-2.981.582-4.053z" fill="#7ca1b1"/></g><g><g><path d="m130 367.626c0-26.786 19.641-48.982 45.305-52.98-.002-.052-.013-.102-.013-.154v-16.09c0-1.713-1.263-3.174-2.962-3.396-3.133-.41-6.329-.624-9.574-.624s-6.44.213-9.574.624c-1.698.222-2.962 1.683-2.962 3.396v16.09c0 1.516-1.001 2.841-2.453 3.276-3.379 1.013-6.615 2.359-9.667 4.002-1.336.719-2.981.491-4.053-.582l-11.372-11.372c-1.211-1.211-3.139-1.35-4.497-.306-5.08 3.903-9.634 8.456-13.537 13.537-1.044 1.359-.905 3.286.306 4.497l11.372 11.372c1.073 1.073 1.301 2.718.582 4.053-1.643 3.052-2.989 6.288-4.002 9.667-.435 1.452-1.761 2.453-3.276 2.453h-16.089c-1.713 0-3.174 1.263-3.396 2.962-.41 3.133-.624 6.328-.624 9.574s.213 6.44.624 9.574c.222 1.698 1.683 2.962 3.396 2.962h16.089c1.516 0 2.841 1.001 3.276 2.453 1.013 3.38 2.359 6.615 4.002 9.667.719 1.336.491 2.981-.582 4.053l-11.372 11.372c-1.211 1.211-1.35 3.139-.306 4.497 3.903 5.08 8.456 9.634 13.537 13.537 1.358 1.044 3.286.905 4.497-.306l11.372-11.372c1.073-1.073 2.718-1.301 4.053-.582 3.052 1.643 6.288 2.989 9.667 4.002 1.452.435 2.453 1.761 2.453 3.276v16.09c0 1.713 1.263 3.174 2.962 3.396 3.133.41 6.329.624 9.574.624s6.44-.213 9.574-.624c1.698-.222 2.962-1.683 2.962-3.396v-16.09c0-.052.01-.102.013-.154-25.664-3.997-45.305-26.192-45.305-52.978z" fill="#678d98"/></g></g><g><circle cx="162.757" cy="367.626" fill="#fff" r="22.5"/></g><g><path d="m157 367.626c0-9.467 5.849-17.562 14.129-20.884-2.588-1.039-5.412-1.616-8.371-1.616-12.426 0-22.5 10.074-22.5 22.5s10.074 22.5 22.5 22.5c2.96 0 5.783-.577 8.371-1.616-8.28-3.322-14.129-11.418-14.129-20.884z" fill="#eef5f6"/></g></g><g><path d="m266.18 386.737h.001c-8.347-.906-16.537-2.598-24.484-5.02.559-1.086.95-2.276 1.116-3.544.456-3.482.687-7.031.687-10.547 0-3.517-.231-7.065-.687-10.549-.709-5.408-5.366-9.486-10.833-9.486h-13.131c-.663-1.856-1.418-3.681-2.261-5.461l9.282-9.283c3.864-3.866 4.272-10.042.95-14.368-4.3-5.597-9.318-10.616-14.917-14.917-4.327-3.322-10.504-2.913-14.369.952l-9.281 9.281c-1.781-.843-3.605-1.599-5.461-2.261v-13.131c0-5.467-4.078-10.124-9.488-10.833-6.965-.912-14.128-.912-21.097 0-.339.044-.673.105-1.001.179-1.696-6.418-2.927-12.977-3.651-19.638-.582-5.354-5.069-9.391-10.437-9.391h-35.623c-2.938 0-5.761 1.242-7.747 3.406-1.979 2.157-2.969 5.063-2.718 7.975 1.365 15.763 4.654 31.113 9.738 45.798-.707.846-1.403 1.702-2.075 2.577-3.325 4.327-2.917 10.504.95 14.371l9.281 9.282c-.843 1.779-1.598 3.604-2.261 5.461h-13.129c-5.468 0-10.125 4.079-10.833 9.487-.456 3.481-.688 7.031-.688 10.549s.231 7.067.688 10.546c.708 5.41 5.365 9.489 10.833 9.489h13.131c.663 1.857 1.417 3.681 2.261 5.461l-9.281 9.282c-3.866 3.866-4.274 10.044-.951 14.369 4.3 5.598 9.319 10.617 14.916 14.916 4.326 3.324 10.504 2.915 14.369-.951l9.282-9.282c1.78.843 3.605 1.599 5.461 2.261v13.131c0 5.466 4.078 10.124 9.488 10.833 3.482.456 7.031.687 10.547.687s7.065-.231 10.549-.687c5.408-.709 9.486-5.366 9.486-10.833v-13.131c1.856-.663 3.681-1.418 5.461-2.261l9.282 9.283c3.865 3.864 10.042 4.273 14.369.949.157-.121.309-.247.464-.369 16.492 6.346 33.89 10.39 51.823 11.942.298.026.597.039.894.039 2.604 0 5.144-.979 7.079-2.755 2.166-1.986 3.408-4.81 3.408-7.748v-35.623c.001-5.369-4.037-9.856-9.392-10.437zm-133.048-113.016c1.684 12.385 4.922 24.43 9.59 35.897v1.916c-1.856.663-3.681 1.418-5.461 2.261l-9.281-9.28c-3.864-3.866-10.042-4.276-14.37-.952-.279.215-.551.439-.827.657-2.985-9.899-5.119-20.089-6.313-30.499zm42.458 136.578c-4.664 1.399-7.798 5.603-7.798 10.46v12.417c-3.353.255-6.718.255-10.071 0v-12.417c0-4.857-3.134-9.061-7.799-10.46-2.859-.857-5.641-2.009-8.266-3.422-4.287-2.307-9.477-1.553-12.912 1.882l-8.777 8.777c-2.55-2.189-4.932-4.57-7.121-7.122l8.775-8.775c3.436-3.435 4.192-8.624 1.883-12.913-1.412-2.623-2.563-5.404-3.421-8.264-1.398-4.666-5.602-7.801-10.461-7.801h-12.416c-.127-1.676-.192-3.36-.192-5.035s.064-3.359.192-5.036h12.417c4.859 0 9.063-3.135 10.46-7.798.859-2.863 2.01-5.644 3.422-8.267 2.309-4.288 1.553-9.477-1.882-12.912l-8.776-8.777c2.189-2.551 4.571-4.933 7.121-7.121l8.777 8.776c3.434 3.435 8.622 4.191 12.912 1.882 2.625-1.413 5.406-2.564 8.267-3.422 4.665-1.399 7.798-5.603 7.798-10.46v-12.417c3.354-.255 6.718-.255 10.071 0v12.417c0 4.857 3.134 9.061 7.799 10.46 2.86.857 5.641 2.008 8.266 3.421 4.289 2.31 9.478 1.553 12.912-1.882l8.777-8.777c2.551 2.189 4.932 4.571 7.121 7.122l-8.777 8.777s-.001 0-.001.001c-3.433 3.435-4.189 8.624-1.88 12.911 1.413 2.624 2.564 5.405 3.421 8.266 1.399 4.665 5.603 7.798 10.46 7.798h12.417c.127 1.677.192 3.36.192 5.036 0 1.675-.064 3.359-.192 5.035h-12.417c-4.857 0-9.061 3.134-10.46 7.799-.857 2.86-2.009 5.641-3.422 8.266-2.309 4.289-1.552 9.477 1.882 12.912l8.777 8.777c-2.189 2.551-4.571 4.933-7.121 7.122l-8.777-8.777c-3.435-3.435-8.624-4.192-12.912-1.882-2.626 1.414-5.406 2.565-8.268 3.423zm84.983 17.525c-12.397-1.421-24.482-4.171-36.13-8.119.812-.961 1.61-1.934 2.377-2.932 3.323-4.326 2.915-10.502-.951-14.369l-9.281-9.282c.662-1.398 1.253-2.831 1.805-4.278 13.318 6.152 27.51 10.324 42.18 12.318z"/><path d="m510.72 249.277c-12.557-18.642-28.333-34.378-46.303-46.704-8.73-31.46-25.496-60.439-48.877-83.82-31.671-31.67-73.605-51.232-118.078-55.082-2.905-.252-5.816.738-7.973 2.716-2.166 1.986-3.408 4.81-3.408 7.748v35.623c0 5.37 4.038 9.856 9.392 10.437h-.001c30.149 3.274 58.614 16.938 80.151 38.475 4.612 4.612 8.852 9.547 12.715 14.744-7.537-.991-15.182-1.512-22.901-1.512-58.335 0-112.646 28.925-145.283 77.375-1.707 2.533-1.707 5.847 0 8.38 32.637 48.449 86.948 77.374 145.283 77.374 7.719 0 15.364-.521 22.901-1.512-3.863 5.197-8.103 10.132-12.715 14.744-21.537 21.537-50.001 35.201-80.15 38.474-5.354.581-9.392 5.067-9.392 10.437v35.623c0 2.938 1.242 5.762 3.408 7.748 1.936 1.775 4.475 2.755 7.079 2.755.297 0 .596-.013.895-.039 40.273-3.486 77.73-19.39 108.32-45.992 3.126-2.718 3.456-7.455.738-10.581s-7.456-3.456-10.581-.738c-26.931 23.419-59.637 37.838-94.858 41.872v-26.663c32.051-4.374 62.155-19.297 85.149-42.292 8.824-8.824 16.437-18.706 22.742-29.333 12.463-3.196 24.485-7.753 35.873-13.551-6.21 16.3-14.852 31.672-25.776 45.617-2.554 3.261-1.981 7.975 1.279 10.529 3.262 2.556 7.975 1.981 10.529-1.279 15.592-19.904 26.933-42.48 33.576-66.517 17.954-12.321 33.716-28.049 46.265-46.678 1.708-2.531 1.708-5.846.001-8.378zm-124.49-101.214c-22.994-22.994-53.097-37.917-85.148-42.292v-26.66c39.127 4.513 75.845 22.241 103.852 50.249 17.606 17.606 31.141 38.655 39.892 61.578-11.382-5.793-23.397-10.347-35.853-13.541-6.305-10.627-13.919-20.51-22.743-29.334zm-150.714 105.404c16.802-23.32 39.242-41.338 64.768-52.714-13.122 12.819-24.557 29.587-33.486 49.667-.863 1.939-.863 4.154 0 6.094 8.928 20.081 20.364 36.849 33.486 49.667-25.526-11.376-47.967-29.395-64.768-52.714zm129.922 66.564c-33.008 0-64.059-24.811-83.546-66.564 19.487-41.753 50.538-66.564 83.546-66.564s64.059 24.811 83.545 66.564c-19.486 41.753-50.537 66.564-83.545 66.564zm65.154-13.85c13.122-12.819 24.557-29.587 33.485-49.667.863-1.939.863-4.154 0-6.094-8.928-20.081-20.364-36.849-33.486-49.667 25.526 11.376 47.966 29.394 64.768 52.714-16.801 23.319-39.241 41.338-64.767 52.714z"/><path d="m399.153 240.664c1.471 3.872 5.803 5.82 9.675 4.347 3.872-1.471 5.818-5.803 4.347-9.675-7.484-19.698-26.668-32.932-47.737-32.932-28.156 0-51.063 22.907-51.063 51.063s22.907 51.062 51.063 51.062c19.417 0 36.903-10.79 45.635-28.16 1.861-3.701.369-8.209-3.332-10.069-3.7-1.861-8.209-.369-10.069 3.332-6.17 12.273-18.521 19.897-32.234 19.897-19.885 0-36.063-16.177-36.063-36.062s16.178-36.063 36.063-36.063c14.879 0 28.429 9.348 33.715 23.26z"/><path d="m342.9 253.467c0 12.428 10.11 22.538 22.538 22.538s22.538-10.11 22.538-22.538-10.11-22.538-22.538-22.538-22.538 10.11-22.538 22.538zm30.076 0c0 4.157-3.381 7.538-7.538 7.538s-7.538-3.381-7.538-7.538 3.381-7.538 7.538-7.538 7.538 3.381 7.538 7.538z"/><path d="m109.944 169.233c-10.381 21.042-16.866 43.961-18.912 67.598-.252 2.911.738 5.817 2.716 7.974 1.986 2.166 4.811 3.408 7.749 3.408h35.623c5.368 0 9.854-4.037 10.437-9.392 1.284-11.821 4.109-23.281 8.361-34.166l12.482 9.617c-1.068 2.824-1.658 5.881-1.658 9.074 0 14.184 11.54 25.723 25.723 25.723s25.723-11.54 25.723-25.723c0-4.515-1.173-8.76-3.226-12.453l21.363-22.064c3.518 1.809 7.5 2.837 11.72 2.837 14.184 0 25.723-11.54 25.723-25.723s-11.54-25.723-25.723-25.723-25.723 11.54-25.723 25.723c0 4.516 1.173 8.761 3.226 12.453l-21.363 22.064c-3.518-1.809-7.5-2.837-11.72-2.837-5.551 0-10.692 1.773-14.9 4.775l-15.225-11.731c4.839-9.101 10.753-17.681 17.686-25.583 2.732-3.113 2.423-7.852-.69-10.584s-7.852-2.423-10.584.69c-7.137 8.134-13.299 16.916-18.445 26.205l-21.126-16.278c7.557-12.964 16.788-25.005 27.541-35.758 28.007-28.008 64.725-45.736 103.852-50.249v26.661c-22.977 3.135-45.111 11.698-64.246 24.888-3.411 2.351-4.27 7.021-1.919 10.432s7.021 4.27 10.432 1.919c18.198-12.544 39.41-20.433 61.341-22.814 5.354-.581 9.392-5.067 9.392-10.437v-35.623c0-2.938-1.242-5.762-3.408-7.748-2.157-1.979-5.064-2.972-7.973-2.716-44.473 3.85-86.407 23.412-118.078 55.082-11.208 11.208-20.89 23.706-28.905 37.141l-11.84-9.122c1.068-2.824 1.658-5.881 1.658-9.074 0-14.184-11.54-25.723-25.723-25.723s-25.723 11.54-25.723 25.723c0 4.215 1.026 8.193 2.831 11.708l-20.223 19.56c-3.695-2.056-7.945-3.232-12.465-3.232-14.185-.002-25.725 11.538-25.725 25.721s11.54 25.723 25.723 25.723 25.723-11.54 25.723-25.723c0-4.215-1.026-8.193-2.831-11.708l20.223-19.56c3.695 2.056 7.945 3.232 12.465 3.232 5.551 0 10.692-1.773 14.9-4.775zm138.102-14.012c5.913 0 10.723 4.811 10.723 10.723s-4.811 10.723-10.723 10.723-10.723-4.811-10.723-10.723 4.81-10.723 10.723-10.723zm-55.581 57.402c5.913 0 10.723 4.811 10.723 10.723s-4.811 10.723-10.723 10.723-10.723-4.811-10.723-10.723 4.81-10.723 10.723-10.723zm-70.374-34.031 21.508 16.571c-5.137 12.084-8.676 24.846-10.467 38.049h-26.659c2.193-19.018 7.517-37.463 15.618-54.62zm-96.368 23.588c-5.913 0-10.723-4.811-10.723-10.723s4.811-10.723 10.723-10.723 10.723 4.811 10.723 10.723-4.81 10.723-10.723 10.723zm55.581-53.759c-5.913 0-10.723-4.811-10.723-10.723s4.811-10.723 10.723-10.723 10.723 4.811 10.723 10.723-4.811 10.723-10.723 10.723z"/><path d="m192.757 367.626c0-16.542-13.458-30-30-30s-30 13.458-30 30 13.458 30 30 30 30-13.458 30-30zm-30 15c-8.271 0-15-6.729-15-15s6.729-15 15-15 15 6.729 15 15-6.729 15-15 15z"/></g></g></svg>