<svg id="Capa_1" enable-background="new 0 0 512 512" height="512" viewBox="0 0 512 512" width="512" xmlns="http://www.w3.org/2000/svg"><g><g><g><g><path d="m156.443 151.319v78.1c0 1.898-1.539 3.437-3.437 3.437h-94.409v228.131c0 2.598 2.106 4.705 4.705 4.705h436.494c2.598 0 4.705-2.106 4.705-4.705v-309.668z" fill="#fdf6ec"/><path d="m101 460.987v-228.131h-42.403v228.131c0 2.598 2.106 4.705 4.705 4.705h42.403c-2.599-.001-4.705-2.107-4.705-4.705z" fill="#fef1da"/><g><path d="m115.513 435.696h-20.697c-1.805 0-3.268-1.463-3.268-3.268v-20.697c0-1.805 1.463-3.268 3.268-3.268h20.697c1.805 0 3.268 1.463 3.268 3.268v20.697c0 1.805-1.464 3.268-3.268 3.268z" fill="#05e39c"/></g><path d="m495.091 109.266h-338.648v42.053h348.057v-32.644c0-5.197-4.213-9.409-9.409-9.409z" fill="#7ca1b1"/></g></g><g><g><path d="m330.105 435.696h-20.697c-1.805 0-3.268-1.463-3.268-3.268v-20.697c0-1.805 1.463-3.268 3.268-3.268h20.697c1.805 0 3.268 1.463 3.268 3.268v20.697c0 1.805-1.463 3.268-3.268 3.268z" fill="#fd5426"/></g><g><path d="m259.845 275.862c0-47.274-38.901-86.175-86.175-86.175-5.892 0-11.654.605-17.227 1.754v37.977c0 1.898-1.539 3.437-3.437 3.437h-53.874c-7.389 12.688-11.637 27.389-11.637 43.006 0 47.274 38.901 86.175 86.175 86.175 9.31 0 18.559-1.509 27.386-4.468l-27.386-81.707h86.175z" fill="#05e39c"/><g><path d="m121 275.862c0-15.617 4.247-30.318 11.637-43.006h-33.505c-7.389 12.688-11.637 27.389-11.637 43.006 0 47.274 38.901 86.175 86.175 86.175 5.642 0 11.259-.563 16.776-1.658-39.384-7.879-69.446-42.96-69.446-84.517z" fill="#0ed290"/></g><g><g><path d="m209.617 300.788 27.386 81.705c34.162-11.447 58.789-43.689 58.789-81.705z" fill="#fd5426"/></g></g><g><path d="m237.672 300.788h-28.055l27.386 81.705c8.654-2.9 16.692-7.139 23.877-12.463z" fill="#ef4424"/></g></g><g><g><path d="m458.098 216.92h-162.456c-7.52 0-13.616-6.096-13.616-13.616 0-7.52 6.096-13.616 13.616-13.616h162.456c7.52 0 13.616 6.096 13.616 13.616 0 7.519-6.096 13.616-13.616 13.616z" fill="#fd5426"/></g><g><path d="m295.642 189.687c-7.52 0-13.616 6.096-13.616 13.616s6.096 13.616 13.616 13.616h101.358v-27.233h-101.358z" fill="#01d0fb"/></g></g></g></g><g><g><path d="m36.724 47.315-28.217 28.218c-.645.644-1.007 1.519-1.007 2.43v151.456c0 1.898 1.539 3.437 3.437 3.437h142.069c1.898 0 3.437-1.539 3.437-3.437v-179.673c0-1.898-1.539-3.437-3.437-3.437h-113.851c-.912 0-1.786.362-2.431 1.006z" fill="#fee97d"/></g><g><path d="m41.057 229.419v-151.456c0-.912.362-1.786 1.007-2.43l28.218-28.218c.645-.645 1.519-1.007 2.43-1.007h-33.557c-.912 0-1.786.362-2.43 1.007l-28.218 28.218c-.645.644-1.007 1.519-1.007 2.43v151.456c0 1.898 1.539 3.437 3.437 3.437h33.557c-1.898 0-3.437-1.539-3.437-3.437z" fill="#fedf30"/></g></g><g><path d="m495.091 101.766h-331.148v-52.02c0-6.031-4.907-10.937-10.938-10.937h-19.005c-4.142 0-7.5 3.358-7.5 7.5s3.358 7.5 7.5 7.5h14.943v171.547h-133.943v-145.71l25.837-25.837h58.163c4.142 0 7.5-3.358 7.5-7.5s-3.358-7.5-7.5-7.5h-59.845c-2.92 0-5.666 1.137-7.734 3.204l-28.217 28.216c-2.066 2.066-3.204 4.813-3.204 7.734v151.456c0 6.031 4.906 10.937 10.937 10.937h40.16v220.631c0 6.729 5.475 12.205 12.205 12.205h331.698c4.142 0 7.5-3.358 7.5-7.5s-3.358-7.5-7.5-7.5h-328.903v-217.836h20.931c-4.612 11.14-7.033 23.151-7.033 35.506 0 24.867 9.787 48.349 27.556 66.119 17.77 17.77 41.251 27.556 66.119 27.556 10.14 0 20.156-1.634 29.77-4.856 1.886-.632 3.444-1.988 4.331-3.768.887-1.781 1.029-3.841.397-5.727l-24.074-71.824h14.906c4.142 0 7.5-3.358 7.5-7.5s-3.358-7.5-7.5-7.5h-25.33c-2.413 0-4.679 1.161-6.088 3.12s-1.79 4.476-1.023 6.764l24.89 74.258c-5.82 1.352-11.773 2.034-17.778 2.034-20.86 0-40.575-8.226-55.512-23.163s-23.163-34.651-23.163-55.512c0-12.51 2.968-24.604 8.561-35.506h49.449c6.031 0 10.938-4.906 10.938-10.937v-31.608c3.205-.406 6.45-.624 9.727-.624 20.86 0 40.575 8.226 55.512 23.163 13.134 13.133 21.079 29.959 22.806 48.012h-17.989c-4.142 0-7.5 3.358-7.5 7.5s3.358 7.5 7.5 7.5h25.845c4.142 0 7.5-3.358 7.5-7.5 0-24.867-9.787-48.349-27.556-66.119-17.77-17.77-41.251-27.556-66.119-27.556-3.271 0-6.514.19-9.727.526v-23.894h333.057v299.373h-67c-4.142 0-7.5 3.358-7.5 7.5s3.358 7.5 7.5 7.5h69.795c6.729 0 12.205-5.475 12.205-12.205v-309.669-32.644c0-9.324-7.585-16.909-16.909-16.909zm1.909 42.053h-333.057v-27.053h331.147c1.053 0 1.909.856 1.909 1.909v25.144z"/><path d="m94.816 400.963c-5.938 0-10.768 4.831-10.768 10.768v20.697c0 5.938 4.831 10.768 10.768 10.768h20.697c5.938 0 10.768-4.83 10.768-10.768v-20.697c0-5.938-4.831-10.768-10.768-10.768zm16.465 27.233h-12.233v-12.232h12.233z"/><path d="m141.656 414.58c-4.142 0-7.5 3.358-7.5 7.5s3.358 7.5 7.5 7.5h115.466c4.142 0 7.5-3.358 7.5-7.5s-3.358-7.5-7.5-7.5z"/><path d="m309.408 443.196h20.697c5.938 0 10.768-4.83 10.768-10.768v-20.697c0-5.938-4.831-10.768-10.768-10.768h-20.697c-5.938 0-10.768 4.831-10.768 10.768v20.697c.001 5.938 4.831 10.768 10.768 10.768zm4.233-27.233h12.232v12.232h-12.232z"/><path d="m356.249 429.58h115.466c4.142 0 7.5-3.358 7.5-7.5s-3.358-7.5-7.5-7.5h-115.466c-4.142 0-7.5 3.358-7.5 7.5s3.357 7.5 7.5 7.5z"/><path d="m303.292 300.789c0-4.142-3.358-7.5-7.5-7.5h-86.175c-2.413 0-4.679 1.161-6.088 3.12s-1.79 4.476-1.023 6.764l27.386 81.705c1.052 3.137 3.975 5.119 7.11 5.119.79 0 1.594-.126 2.384-.391 38.224-12.809 63.906-48.502 63.906-88.817zm-61.674 71.874-21.577-64.375h67.896c-2.684 28.249-20.389 52.857-46.319 64.375z"/><path d="m471.714 243.015h-120.772c-4.142 0-7.5 3.358-7.5 7.5s3.358 7.5 7.5 7.5h120.772c4.142 0 7.5-3.358 7.5-7.5s-3.358-7.5-7.5-7.5z"/><path d="m471.714 271.336h-120.772c-4.142 0-7.5 3.358-7.5 7.5s3.358 7.5 7.5 7.5h120.772c4.142 0 7.5-3.358 7.5-7.5s-3.358-7.5-7.5-7.5z"/><path d="m471.714 299.658h-120.772c-4.142 0-7.5 3.358-7.5 7.5s3.358 7.5 7.5 7.5h120.772c4.142 0 7.5-3.358 7.5-7.5s-3.358-7.5-7.5-7.5z"/><path d="m471.714 327.98h-120.772c-4.142 0-7.5 3.358-7.5 7.5s3.358 7.5 7.5 7.5h120.772c4.142 0 7.5-3.358 7.5-7.5s-3.358-7.5-7.5-7.5z"/><path d="m350.942 371.302h120.772c4.142 0 7.5-3.358 7.5-7.5s-3.358-7.5-7.5-7.5h-120.772c-4.142 0-7.5 3.358-7.5 7.5s3.358 7.5 7.5 7.5z"/><path d="m323.024 258.015h3.642c4.142 0 7.5-3.358 7.5-7.5s-3.358-7.5-7.5-7.5h-3.642c-4.142 0-7.5 3.358-7.5 7.5s3.358 7.5 7.5 7.5z"/><path d="m323.024 286.336h3.642c4.142 0 7.5-3.358 7.5-7.5s-3.358-7.5-7.5-7.5h-3.642c-4.142 0-7.5 3.358-7.5 7.5s3.358 7.5 7.5 7.5z"/><path d="m323.024 314.658h3.642c4.142 0 7.5-3.358 7.5-7.5s-3.358-7.5-7.5-7.5h-3.642c-4.142 0-7.5 3.358-7.5 7.5s3.358 7.5 7.5 7.5z"/><path d="m323.024 342.98h3.642c4.142 0 7.5-3.358 7.5-7.5s-3.358-7.5-7.5-7.5h-3.642c-4.142 0-7.5 3.358-7.5 7.5s3.358 7.5 7.5 7.5z"/><path d="m323.024 371.302h3.642c4.142 0 7.5-3.358 7.5-7.5s-3.358-7.5-7.5-7.5h-3.642c-4.142 0-7.5 3.358-7.5 7.5s3.358 7.5 7.5 7.5z"/><path d="m479.214 203.303c0-11.644-9.473-21.116-21.116-21.116h-162.456c-11.644 0-21.116 9.473-21.116 21.116s9.473 21.116 21.116 21.116h162.456c11.644 0 21.116-9.472 21.116-21.116zm-89.714 6.116h-93.858c-3.373 0-6.116-2.744-6.116-6.116s2.744-6.116 6.116-6.116h93.858zm15-12.232h53.598c3.373 0 6.116 2.744 6.116 6.116s-2.744 6.116-6.116 6.116h-53.598z"/><path d="m100.356 87.996c0-4.142-3.358-7.5-7.5-7.5s-7.5 3.358-7.5 7.5v26.948h-6.769v-35.806c0-4.142-3.358-7.5-7.5-7.5s-7.5 3.358-7.5 7.5v35.806h-6.769v-18.09c0-4.142-3.358-7.5-7.5-7.5s-7.5 3.358-7.5 7.5v18.09h-3.384c-4.142 0-7.5 3.358-7.5 7.5s3.358 7.5 7.5 7.5h87.074c4.142 0 7.5-3.358 7.5-7.5s-3.358-7.5-7.5-7.5h-3.384v-41.711c0-4.142-3.358-7.5-7.5-7.5s-7.5 3.358-7.5 7.5v41.711h-6.769v-26.948z"/><path d="m43.167 143.642h-4.732c-4.142 0-7.5 3.358-7.5 7.5s3.358 7.5 7.5 7.5h4.732c4.142 0 7.5-3.358 7.5-7.5s-3.358-7.5-7.5-7.5z"/><path d="m43.167 168.274h-4.732c-4.142 0-7.5 3.358-7.5 7.5s3.358 7.5 7.5 7.5h4.732c4.142 0 7.5-3.358 7.5-7.5s-3.358-7.5-7.5-7.5z"/><path d="m43.167 192.907h-4.732c-4.142 0-7.5 3.358-7.5 7.5s3.358 7.5 7.5 7.5h4.732c4.142 0 7.5-3.358 7.5-7.5s-3.358-7.5-7.5-7.5z"/><path d="m125.509 168.274h-61.52c-4.142 0-7.5 3.358-7.5 7.5s3.358 7.5 7.5 7.5h61.52c4.142 0 7.5-3.358 7.5-7.5s-3.358-7.5-7.5-7.5z"/><path d="m125.509 143.642h-61.52c-4.142 0-7.5 3.358-7.5 7.5s3.358 7.5 7.5 7.5h61.52c4.142 0 7.5-3.358 7.5-7.5s-3.358-7.5-7.5-7.5z"/><path d="m125.509 192.907h-61.52c-4.142 0-7.5 3.358-7.5 7.5s3.358 7.5 7.5 7.5h61.52c4.142 0 7.5-3.358 7.5-7.5s-3.358-7.5-7.5-7.5z"/></g></g></svg>