<svg id="Capa_1" enable-background="new 0 0 512 512" height="512" viewBox="0 0 512 512" width="512" xmlns="http://www.w3.org/2000/svg"><g><path d="m433.5 348.035h-25.344c5.102-12.385 7.933-25.945 7.933-40.171 0-41.751-24.24-77.838-59.413-94.964-3.747 20.731-13.74 39.287-27.962 53.652-14.203 14.345-25.163 31.558-31.422 50.733-1.251-.296-2.549-.469-3.889-.469h-74.805c-1.344 0-2.645.174-3.899.472-6.269-18.871-16.724-36.129-30.836-50.158-9.152-9.099-16.588-19.919-21.791-31.931-37.962 9.185-66.16 43.378-66.16 84.163 0 10.053 1.732 19.697 4.882 28.674h-22.294c-39.05 0-71 31.95-71 71 0 39.05 31.95 71 71 71h355c39.05 0 71-31.95 71-71 0-39.051-31.95-71.001-71-71.001z" fill="#c8effe"/><g><g><path d="m187.647 271.084c-1.234-1.342-2.488-2.666-3.784-3.955-9.142-9.089-16.572-19.895-21.774-31.891-37.287 9.108-65.349 42.541-66.159 82.339-.218 10.696 1.528 20.951 4.864 30.457h-22.294c-39.05 0-71 31.95-71 71 0 32.214 21.751 59.577 51.286 68.177-6.822-10.895-10.786-23.741-10.786-37.474 0-39.05 31.95-71 71-71 10.62 0 18.966-9.165 17.872-19.728-.364-3.518-.517-7.099-.443-10.731.699-34.275 21.612-63.829 51.218-77.194z" fill="#99e6fc"/></g></g><g><g><g><g><path d="m253.45 92.315c-54.128 1.316-98.276 45.35-99.726 99.475-.789 29.466 10.89 56.204 30.138 75.34 14.112 14.029 24.567 31.288 30.836 50.158 1.254-.297 2.555-.472 3.899-.472h74.805c1.34 0 2.638.173 3.889.469 6.259-19.175 17.219-36.388 31.422-50.733 18.297-18.48 29.599-43.894 29.599-71.955.001-57.354-47.19-103.685-104.862-102.282z" fill="#fed402"/></g></g><g><g><path d="m217.55 267.13c-19.249-19.136-30.927-45.874-30.138-75.34 1.32-49.282 38.042-90.193 85.462-98.113-6.299-1.046-12.791-1.523-19.424-1.362-54.128 1.316-98.276 45.35-99.726 99.475-.789 29.466 10.89 56.204 30.138 75.34 14.112 14.029 24.567 31.288 30.836 50.158 1.254-.297 2.555-.472 3.899-.472h29.624c-6.285-18.686-16.677-35.775-30.671-49.686z" fill="#fac600"/></g></g><g><circle cx="256" cy="194.597" fill="#fee97d" r="59.32"/></g><g><path d="m271.577 393.162c0-2.015.102-4.005.3-5.968h-49.554l4.314 19.987c3.001 13.903 15.297 23.828 29.52 23.828 8.798 0 16.849-3.8 22.426-9.98-4.467-8.296-7.006-17.784-7.006-27.867z" fill="#3e5959"/><path d="m251.806 407.181-4.021-18.632h-25.17l4.021 18.632c3.001 13.903 15.297 23.828 29.52 23.828 4.462 0 8.732-.977 12.585-2.745-8.435-3.871-14.875-11.539-16.935-21.083z" fill="#384949"/><path d="m311.282 337.497c.255-1.215.392-2.473.392-3.764 0-10.091-8.181-18.272-18.272-18.272h-74.805c-10.091 0-18.272 8.181-18.272 18.272s8.181 18.272 18.272 18.272h69.771c6.339-6.479 14.159-11.493 22.914-14.508z" fill="#7ca1b1"/><g><path d="m234 333.733c0-10.091 8.181-18.272 18.272-18.272h-33.674c-10.091 0-18.272 8.181-18.272 18.272s8.181 18.272 18.272 18.272h33.674c-10.091 0-18.272-8.18-18.272-18.272z" fill="#678d98"/></g><path d="m288.369 352.005h-69.771c-10.091 0-18.272 8.181-18.272 18.272 0 10.091 8.181 18.272 18.272 18.272h53.176c1.1-14.185 7.219-26.958 16.595-36.544z" fill="#678d98"/><g><path d="m234 370.277c0-10.091 8.181-18.272 18.272-18.272h-33.674c-10.091 0-18.272 8.181-18.272 18.272 0 10.091 8.181 18.272 18.272 18.272h33.674c-10.091 0-18.272-8.18-18.272-18.272z" fill="#537983"/></g></g></g><g><circle cx="256" cy="194.597" fill="#fe9901" r="25.852"/></g><g><path d="m255.296 194.597c0-9.712 5.359-18.169 13.278-22.587-3.723-2.077-8.009-3.265-12.574-3.265-14.278 0-25.852 11.574-25.852 25.852s11.574 25.852 25.852 25.852c4.565 0 8.851-1.188 12.574-3.265-7.919-4.418-13.278-12.875-13.278-22.587z" fill="#fb8801"/></g></g><g><g><circle cx="330.45" cy="393.162" fill="#05e39c" r="58.873"/></g><g><path d="m305.253 393.162c0-26.661 17.728-49.171 42.035-56.416-5.336-1.591-10.985-2.457-16.838-2.457-32.515 0-58.873 26.358-58.873 58.873s26.358 58.873 58.873 58.873c5.853 0 11.502-.866 16.838-2.457-24.307-7.245-42.035-29.755-42.035-56.416z" fill="#0ed290"/></g></g><g><path d="m256 66.201c4.143 0 7.5-3.358 7.5-7.5v-36.736c0-4.142-3.357-7.5-7.5-7.5-4.142 0-7.5 3.358-7.5 7.5v36.736c0 4.142 3.358 7.5 7.5 7.5z"/><path d="m82.338 203.126h36.736c4.142 0 7.5-3.358 7.5-7.5s-3.358-7.5-7.5-7.5h-36.736c-4.142 0-7.5 3.358-7.5 7.5s3.358 7.5 7.5 7.5z"/><path d="m392.926 203.126h36.736c4.143 0 7.5-3.358 7.5-7.5s-3.357-7.5-7.5-7.5h-36.736c-4.143 0-7.5 3.358-7.5 7.5s3.357 7.5 7.5 7.5z"/><path d="m352.821 106.306c1.919 0 3.839-.732 5.304-2.197l25.976-25.977c2.929-2.929 2.929-7.678-.001-10.606-2.928-2.93-7.677-2.929-10.606 0l-25.976 25.977c-2.929 2.929-2.929 7.678.001 10.606 1.463 1.465 3.383 2.197 5.302 2.197z"/><path d="m153.876 104.109c1.464 1.464 3.384 2.197 5.303 2.197s3.839-.732 5.303-2.197c2.929-2.929 2.929-7.678 0-10.606l-25.977-25.977c-2.929-2.929-7.678-2.929-10.606 0-2.929 2.929-2.929 7.678 0 10.606z"/><path d="m89 412.5h78c4.142 0 7.5-3.358 7.5-7.5s-3.358-7.5-7.5-7.5h-78c-4.142 0-7.5 3.358-7.5 7.5s3.358 7.5 7.5 7.5z"/><path d="m89 438.51h78c4.142 0 7.5-3.358 7.5-7.5s-3.358-7.5-7.5-7.5h-78c-4.142 0-7.5 3.358-7.5 7.5s3.358 7.5 7.5 7.5z"/><path d="m433.5 340.535h-14.719c3.193-10.56 4.807-21.507 4.807-32.671 0-42.644-23.734-79.845-58.683-99.099.598-4.663.908-9.392.908-14.168 0-22.132-6.561-43.47-18.972-61.708-2.329-3.424-6.993-4.311-10.42-1.981-3.424 2.331-4.312 6.996-1.98 10.42 10.711 15.739 16.372 34.159 16.372 53.269 0 25.133-9.741 48.813-27.43 66.678-13.489 13.625-23.995 29.646-30.693 46.686h-29.19v-46.977c33.326-3.741 59.319-32.079 59.319-66.387 0-36.844-29.975-66.819-66.819-66.819s-66.819 29.975-66.819 66.819c0 34.308 25.994 62.646 59.319 66.387v46.977h-29.219c-6.848-17.418-17.166-33.261-30.131-46.15-18.717-18.608-28.636-43.404-27.928-69.82.649-24.246 10.561-47.128 27.908-64.431s40.255-27.157 64.503-27.747c21.144-.511 41.271 5.775 58.25 18.186 3.343 2.444 8.035 1.715 10.48-1.629 2.444-3.344 1.715-8.037-1.629-10.481-19.673-14.379-43.023-21.673-67.466-21.071-28.11.684-54.65 12.091-74.732 32.122s-31.557 46.542-32.309 74.65c-.359 13.421 1.651 26.482 5.851 38.735-36.996 12.678-63.667 47.798-63.667 89.038 0 7.16.808 14.248 2.409 21.174h-12.32c-43.285 0-78.5 35.215-78.5 78.5s35.215 78.5 78.5 78.5h59.595c4.142 0 7.5-3.358 7.5-7.5s-3.358-7.5-7.5-7.5h-59.595c-35.014 0-63.5-28.486-63.5-63.5s28.486-63.5 63.5-63.5h22.294c2.432 0 4.712-1.179 6.119-3.163s1.763-4.526.958-6.821c-2.958-8.432-4.459-17.243-4.459-26.19 0-35.042 22.92-64.805 54.547-75.159 5.233 10.298 12.142 19.821 20.617 28.246 11.143 11.078 20.086 24.639 26.171 39.568-7.16 4.583-11.92 12.602-11.92 21.716 0 7.135 2.916 13.601 7.617 18.272-4.701 4.671-7.617 11.137-7.617 18.272 0 13.518 10.464 24.631 23.716 25.683l2.763 12.804c3.72 17.236 19.218 29.746 36.851 29.746 7.557 0 14.701-2.29 20.701-6.254 12.085 16.521 31.602 27.279 53.593 27.279 29.674 0 55.961-19.953 63.925-48.521 1.112-3.99-1.221-8.126-5.211-9.239-3.992-1.116-8.126 1.221-9.238 5.21-6.163 22.108-26.509 37.549-49.476 37.549-28.328 0-51.374-23.046-51.374-51.374 0-28.327 23.046-51.373 51.374-51.373 21.92 0 41.44 13.926 48.574 34.652 1.349 3.916 5.615 6 9.532 4.651 3.917-1.348 5.999-5.616 4.651-9.533-9.217-26.779-34.438-44.771-62.758-44.771-4.082 0-8.072.39-11.952 1.099-1.548-6.648-5.674-12.313-11.266-15.885 5.974-14.614 15.132-28.378 26.811-40.174 13.325-13.459 22.751-29.768 27.717-47.536 28.068 17.272 46.828 48.267 46.828 83.571 0 12.892-2.479 25.447-7.367 37.315-.953 2.313-.689 4.95.702 7.029 1.393 2.079 3.73 3.327 6.232 3.327h25.345c35.014 0 63.5 28.486 63.5 63.5s-28.486 63.5-63.5 63.5h-260.405c-4.142 0-7.5 3.358-7.5 7.5s3.358 7.5 7.5 7.5h260.405c43.285 0 78.5-35.215 78.5-78.5 0-43.283-35.215-78.498-78.5-78.498zm-177.5-127.586c-10.119 0-18.352-8.233-18.352-18.352s8.233-18.352 18.352-18.352 18.353 8.233 18.353 18.352-8.234 18.352-18.353 18.352zm-51.819-18.352c0-28.573 23.246-51.819 51.819-51.819s51.819 23.246 51.819 51.819c0 26.026-19.288 47.624-44.319 51.27v-18.779c14.789-3.413 25.853-16.68 25.853-32.491 0-18.39-14.962-33.352-33.353-33.352-18.39 0-33.352 14.962-33.352 33.352 0 15.811 11.063 29.078 25.852 32.491v18.779c-25.031-3.646-44.319-25.245-44.319-51.27zm51.976 228.913c-10.617 0-19.949-7.533-22.189-17.911l-2.061-9.549h32.243c.352 8.183 2.187 15.987 5.252 23.146-3.764 2.723-8.36 4.314-13.245 4.314zm9.047-42.461h-46.606c-5.939 0-10.772-4.832-10.772-10.772s4.833-10.772 10.772-10.772h54.679c-3.87 6.548-6.641 13.812-8.073 21.544zm20.165-36.544h-66.772c-5.939 0-10.772-4.833-10.772-10.772s4.833-10.772 10.772-10.772h74.805c5.444 0 9.945 4.062 10.662 9.312-6.923 3.012-13.233 7.168-18.695 12.232z"/><path d="m351.755 374.157-25.045 25.046-17.565-17.566c-2.93-2.929-7.678-2.929-10.607 0s-2.929 7.678 0 10.606l22.869 22.869c1.407 1.407 3.314 2.197 5.304 2.197s3.896-.79 5.304-2.197l30.349-30.349c2.929-2.929 2.929-7.678 0-10.606-2.931-2.928-7.679-2.928-10.609 0z"/></g></g></svg>