<svg height="512" viewBox="0 0 64 64" width="512" xmlns="http://www.w3.org/2000/svg"><g id="Data_Center-Server-Cloud-Network-Technology" data-name="Data Center-Server-Cloud-Network-Technology"><path d="m61 22a9 9 0 0 1 -9 9h-42a7 7 0 0 1 0-14 6.531 6.531 0 0 1 1 .08v-.08a6 6 0 0 1 10.1-4.38 10.988 10.988 0 0 1 20.6-3.8 6 6 0 0 1 10.3 4.18 9 9 0 0 1 9 9z" fill="#5aaae7"/><g fill="#ff9811"><circle cx="59" cy="37" r="2"/><circle cx="56" cy="49" r="2"/><circle cx="44" cy="56" r="2"/></g><path d="m43 37v5a2.5 2.5 0 0 1 -.22 1c-.59 1.33-2.35 2.47-4.78 3.19a22.627 22.627 0 0 1 -12 0c-2.43-.72-4.19-1.86-4.78-3.19a2.5 2.5 0 0 1 -.22-1v-7c0 2.76 4.92 5 11 5s11-2.24 11-5z" fill="#acabb1"/><path d="m32 23c-6.08 0-11 2.24-11 5 0 1.13.82 2.17 2.2 3a17.7 17.7 0 0 0 8.8 2 17.7 17.7 0 0 0 8.8-2c1.38-.83 2.2-1.87 2.2-3 0-2.76-4.92-5-11-5z" fill="#acabb1"/><circle cx="32" cy="59" fill="#ff9811" r="2"/><path d="m40.8 31a17.7 17.7 0 0 1 -8.8 2 17.7 17.7 0 0 1 -8.8-2c-1.38-.83-2.2-1.87-2.2-3v7c0 2.76 4.92 5 11 5s11-2.24 11-5v-7c0 1.13-.82 2.17-2.2 3z" fill="#d8d7da"/><circle cx="20" cy="56" fill="#ff9811" r="2"/><circle cx="8" cy="49" fill="#ff9811" r="2"/><circle cx="5" cy="37" fill="#ff9811" r="2"/><path d="m23 34h2v2h-2z"/><path d="m27 35h2v2h-2z"/><path d="m23 41h2v2h-2z"/><path d="m27 42h2v2h-2z"/><path d="m26 27h12v2h-12z"/><path d="m47 12h2v2h-2z"/><path d="m43 12h2v2h-2z"/><path d="m58 22h-2a4 4 0 0 1 -4 4v2a6.006 6.006 0 0 0 6-6z"/><path d="m8 37a3 3 0 1 0 -3 3 3 3 0 0 0 3-3zm-4 0a1 1 0 1 1 1 1 1 1 0 0 1 -1-1z"/><path d="m8 46a3 3 0 1 0 3 3 3 3 0 0 0 -3-3zm0 4a1 1 0 1 1 1-1 1 1 0 0 1 -1 1z"/><path d="m52 32a10 10 0 0 0 .93-19.96 6.992 6.992 0 0 0 -6.93-6.04 6.923 6.923 0 0 0 -4.05 1.29 11.993 11.993 0 0 0 -21.53 3.6 7 7 0 0 0 -10.34 5.11h-.08a8 8 0 0 0 0 16h10v4h-10v2h10v4h-6a1.033 1.033 0 0 0 -.71.29l-3 3 1.42 1.42 2.7-2.71h6.24a8.381 8.381 0 0 0 4.35 2.93v2.66l-2.71 2.7 1.42 1.42 3-3a1.033 1.033 0 0 0 .29-.71v-2.51a24.31 24.31 0 0 0 4 .49v6.02h2v-6.02a24.31 24.31 0 0 0 4-.49v2.51a1.033 1.033 0 0 0 .29.71l3 3 1.42-1.42-2.71-2.7v-2.66a8.381 8.381 0 0 0 4.35-2.93h6.24l2.7 2.71 1.42-1.42-3-3a1.033 1.033 0 0 0 -.71-.29h-6v-4h10v-2h-10v-4zm-10 10c0 1.89-4.28 4-10 4s-10-2.11-10-4v-3.59c2.11 1.58 5.73 2.59 10 2.59s7.89-1.01 10-2.59zm0-7c0 1.89-4.28 4-10 4s-10-2.11-10-4v-3.59c2.11 1.58 5.73 2.59 10 2.59s7.89-1.01 10-2.59zm-10-3c-5.72 0-10-2.11-10-4s4.28-4 10-4 10 2.11 10 4-4.28 4-10 4zm0-10c-6.84 0-12 2.58-12 6v2h-10a6 6 0 0 1 0-12 4.842 4.842 0 0 1 .84.07 1.056 1.056 0 0 0 .81-.27 1.1 1.1 0 0 0 .35-.8 5 5 0 0 1 8.42-3.65 1 1 0 0 0 1.67-.61 9.992 9.992 0 0 1 18.73-3.45.982.982 0 0 0 .74.52 1.028 1.028 0 0 0 .86-.29 4.946 4.946 0 0 1 3.58-1.52 5 5 0 0 1 5 5 1 1 0 0 0 1 1 8 8 0 0 1 0 16h-8v-2c0-3.42-5.16-6-12-6z"/><path d="m59 34a3 3 0 1 0 3 3 3 3 0 0 0 -3-3zm0 4a1 1 0 1 1 1-1 1 1 0 0 1 -1 1z"/><path d="m56 46a3 3 0 1 0 3 3 3 3 0 0 0 -3-3zm0 4a1 1 0 1 1 1-1 1 1 0 0 1 -1 1z"/><path d="m44 53a3 3 0 1 0 3 3 3 3 0 0 0 -3-3zm0 4a1 1 0 1 1 1-1 1 1 0 0 1 -1 1z"/><path d="m32 56a3 3 0 1 0 3 3 3 3 0 0 0 -3-3zm0 4a1 1 0 1 1 1-1 1 1 0 0 1 -1 1z"/><path d="m20 53a3 3 0 1 0 3 3 3 3 0 0 0 -3-3zm0 4a1 1 0 1 1 1-1 1 1 0 0 1 -1 1z"/></g></svg>