<svg id="Capa_1" enable-background="new 0 0 512 512" height="512" viewBox="0 0 512 512" width="512" xmlns="http://www.w3.org/2000/svg"><g><g><g><path d="m22.138 82.088v319.271c0 2.801 2.271 5.071 5.071 5.071h457.582c2.801 0 5.071-2.271 5.071-5.071v-319.271z" fill="#fdf6ec"/></g><g><path d="m53 401.359v-319.271h-30.862v319.271c0 2.801 2.271 5.071 5.071 5.071h30.862c-2.8 0-5.071-2.27-5.071-5.071z" fill="#fef1da"/></g><g><path d="m433.239 284.349h-165.296c-7.651 0-13.854-6.203-13.854-13.854 0-7.651 6.203-13.854 13.854-13.854h165.296c7.651 0 13.854 6.203 13.854 13.854.001 7.651-6.202 13.854-13.854 13.854z" fill="#c8effe"/></g><g><g><path d="m499.429 36.216h-486.858c-2.801 0-5.071 2.271-5.071 5.071v36.729c0 2.801 2.271 5.071 5.071 5.071h486.857c2.801 0 5.071-2.271 5.071-5.071v-36.728c.001-2.801-2.27-5.072-5.07-5.072z" fill="#7ca1b1"/></g></g><g><path d="m121.1 36.216h-108.529c-2.801 0-5.071 2.271-5.071 5.071v36.729c0 2.801 2.271 5.071 5.071 5.071h108.529z" fill="#537983"/></g><g><path d="m50 78.017v-36.73c0-2.801 2.271-5.071 5.071-5.071h-42.5c-2.801 0-5.071 2.271-5.071 5.071v36.729c0 2.801 2.271 5.071 5.071 5.071h42.5c-2.8.001-5.071-2.269-5.071-5.07z" fill="#3e5959"/></g><g><g><g><path d="m144.688 218.899 24.139 72.02c30.113-10.09 51.82-38.511 51.82-72.02z" fill="#fd5426"/></g><path d="m220.648 218.899c0-32.439-20.783-60.398-49.648-71.197v18.405c0 2.302-1.866 4.169-4.169 4.169h-80.3c-11.087 13.214-17.802 30.193-17.802 48.623 0 41.67 34.289 75.96 75.96 75.96 8.207 0 16.359-1.33 24.14-3.938l-24.14-72.022z" fill="#05e39c"/><path d="m94 218.899c0-18.434 6.721-35.412 17.814-48.623h-25.283c-11.087 13.214-17.802 30.193-17.802 48.623 0 41.67 34.289 75.96 75.96 75.96 4.261 0 8.506-.366 12.693-1.076-35.772-6.069-63.382-37.496-63.382-74.884z" fill="#0ed290"/><g><path d="m166.831 170.276h-111.348c-2.302 0-4.169-1.867-4.169-4.169v-42.81c0-2.302 1.867-4.169 4.169-4.169h111.348c2.302 0 4.169 1.867 4.169 4.169v42.81c0 2.303-1.867 4.169-4.169 4.169z" fill="#fff"/></g></g><g><g><path d="m433.239 181.158h-165.296c-7.651 0-13.854-6.203-13.854-13.854 0-7.652 6.203-13.854 13.854-13.854h165.296c7.651 0 13.854 6.203 13.854 13.854.001 7.651-6.202 13.854-13.854 13.854z" fill="#c8effe"/></g><g><path d="m390.122 181.158v-27.708h-122.179c-7.651 0-13.854 6.203-13.854 13.854 0 7.651 6.203 13.854 13.854 13.854z" fill="#01d0fb"/></g><g><path d="m279.968 167.304c0-7.652 6.203-13.854 13.854-13.854h-25.878c-7.652 0-13.854 6.203-13.854 13.854 0 7.651 6.203 13.854 13.854 13.854h25.878c-7.652 0-13.854-6.203-13.854-13.854z" fill="#01c0fa"/></g><g><path d="m433.239 232.753h-165.296c-7.651 0-13.854-6.203-13.854-13.854 0-7.652 6.203-13.854 13.854-13.854h165.296c7.651 0 13.854 6.203 13.854 13.854.001 7.652-6.202 13.854-13.854 13.854z" fill="#c8effe"/></g><g><path d="m267.943 205.045c-7.651 0-13.854 6.203-13.854 13.854s6.203 13.854 13.854 13.854h72.588v-27.709h-72.588z" fill="#01d0fb"/></g><g><path d="m279.557 218.899c0-7.651 6.203-13.854 13.854-13.854h-25.468c-7.652 0-13.854 6.203-13.854 13.854s6.203 13.854 13.854 13.854h25.468c-7.651 0-13.854-6.202-13.854-13.854z" fill="#01c0fa"/></g><g><path d="m267.943 256.64c-7.651 0-13.854 6.203-13.854 13.854 0 7.652 6.203 13.854 13.854 13.854h112.26v-27.708z" fill="#01d0fb"/></g><g><path d="m279.885 270.494c0-7.651 6.203-13.854 13.854-13.854h-25.796c-7.652 0-13.854 6.203-13.854 13.854 0 7.652 6.203 13.854 13.854 13.854h25.796c-7.651.001-13.854-6.202-13.854-13.854z" fill="#01c0fa"/></g></g></g></g><g><circle cx="256" cy="458.541" fill="#7ca1b1" r="17.243"/></g><g><path d="m255.514 458.541c0-6.48 3.579-12.119 8.864-15.065-2.482-1.383-5.336-2.178-8.379-2.178-9.523 0-17.243 7.72-17.243 17.243s7.72 17.243 17.243 17.243c3.043 0 5.897-.795 8.379-2.178-5.284-2.946-8.864-8.585-8.864-15.065z" fill="#678d98"/></g><g><g><path d="m85.314 166.107v-42.81c0-2.302 1.867-4.169 4.169-4.169h-34c-2.302 0-4.169 1.867-4.169 4.169v42.81c0 2.302 1.867 4.169 4.169 4.169h34c-2.303 0-4.169-1.866-4.169-4.169z" fill="#eef5f6"/></g></g><g><path d="m489.862 281.5c-4.143 0-7.5 3.357-7.5 7.5v109.931h-375.362c-4.143 0-7.5 3.357-7.5 7.5s3.357 7.5 7.5 7.5h141.5v21.032c-9.988 3.184-17.243 12.548-17.243 23.578 0 13.644 11.1 24.743 24.743 24.743s24.743-11.1 24.743-24.743c0-11.03-7.255-20.394-17.243-23.578v-21.032h221.291c6.932 0 12.571-5.64 12.571-12.571v-112.36c0-4.143-3.357-7.5-7.5-7.5zm-224.119 177.041c0 5.372-4.371 9.743-9.743 9.743s-9.743-4.371-9.743-9.743 4.371-9.743 9.743-9.743 9.743 4.371 9.743 9.743z"/><path d="m499.429 28.716h-486.858c-6.931 0-12.571 5.639-12.571 12.571v36.729c0 6.932 5.64 12.571 12.571 12.571h2.066v310.771c0 6.932 5.64 12.571 12.571 12.571h44.792c4.143 0 7.5-3.357 7.5-7.5s-3.357-7.5-7.5-7.5h-42.362v-308.341h163.362c4.143 0 7.5-3.357 7.5-7.5s-3.357-7.5-7.5-7.5h-64.4v-31.872h368.4v31.872h-269c-4.143 0-7.5 3.357-7.5 7.5s3.357 7.5 7.5 7.5h254.362v163.412c0 4.143 3.357 7.5 7.5 7.5s7.5-3.357 7.5-7.5v-163.412h2.066c6.932 0 12.571-5.64 12.571-12.571v-36.73c.001-6.932-5.639-12.571-12.57-12.571zm-385.829 46.872h-98.6v-31.872h98.6z"/><path d="m144.688 302.359c46.02 0 83.46-37.44 83.46-83.46 0-33.984-20.434-63.257-49.647-76.258v-19.345c0-6.435-5.234-11.669-11.669-11.669h-111.35c-6.435 0-11.669 5.234-11.669 11.669v42.811c0 6.435 5.234 11.669 11.669 11.669h16.633c-6.916 12.146-10.887 26.174-10.887 41.123.001 46.02 37.44 83.46 83.46 83.46zm28.73-21.343-18.307-54.617h57.617c-2.656 24.261-18.038 44.739-39.31 54.617zm5.082-114.909v-6.689c18.608 10.62 31.789 29.701 34.228 51.981h-68.041c-2.413 0-4.679 1.161-6.088 3.12-1.409 1.958-1.79 4.476-1.023 6.764l21.126 64.628c-4.526.945-9.212 1.448-14.015 1.448-37.748 0-68.459-30.711-68.459-68.46 0-15.422 5.13-29.666 13.769-41.123h76.834c6.435 0 11.669-5.234 11.669-11.669zm-119.687-3.331v-36.148h104.687v36.148z"/><path d="m246.589 167.304c0 11.775 9.58 21.354 21.354 21.354h165.296c11.775 0 21.354-9.579 21.354-21.354s-9.579-21.354-21.354-21.354h-165.296c-11.774-.001-21.354 9.578-21.354 21.354zm151.032-6.355h35.618c3.504 0 6.354 2.851 6.354 6.354s-2.851 6.354-6.354 6.354h-35.618zm-15 12.709h-114.678c-3.504 0-6.354-2.851-6.354-6.354s2.851-6.354 6.354-6.354h114.678z"/><path d="m267.943 240.254h165.296c11.775 0 21.354-9.579 21.354-21.354s-9.579-21.354-21.354-21.354h-165.296c-11.774 0-21.354 9.579-21.354 21.354s9.58 21.354 21.354 21.354zm80.088-27.709h85.208c3.504 0 6.354 2.851 6.354 6.354s-2.851 6.354-6.354 6.354h-85.208zm-80.088 0h65.088v12.709h-65.088c-3.504 0-6.354-2.851-6.354-6.354s2.85-6.355 6.354-6.355z"/><path d="m267.943 291.849h165.296c11.775 0 21.354-9.579 21.354-21.354 0-11.774-9.579-21.354-21.354-21.354h-165.296c-11.774 0-21.354 9.579-21.354 21.354s9.58 21.354 21.354 21.354zm119.76-27.708h45.536c3.504 0 6.354 2.851 6.354 6.354 0 3.504-2.851 6.354-6.354 6.354h-45.536zm-119.76 0h104.76v12.708h-104.76c-3.504 0-6.354-2.851-6.354-6.354 0-3.504 2.85-6.354 6.354-6.354z"/><circle cx="346.479" cy="111.78" r="7.5"/><circle cx="371.479" cy="111.78" r="7.5"/><circle cx="396.479" cy="111.78" r="7.5"/><circle cx="421.479" cy="111.78" r="7.5"/><circle cx="446.479" cy="111.78" r="7.5"/><path d="m73.429 378.431h376.3c4.143 0 7.5-3.357 7.5-7.5s-3.357-7.5-7.5-7.5h-15.829v-30.029c0-4.143-3.357-7.5-7.5-7.5s-7.5 3.357-7.5 7.5v30.029h-9.343v-40.172c0-4.143-3.357-7.5-7.5-7.5s-7.5 3.357-7.5 7.5v40.172h-9.344v-19.886c0-4.143-3.357-7.5-7.5-7.5s-7.5 3.357-7.5 7.5v19.886h-9.343v-9.743c0-4.143-3.357-7.5-7.5-7.5s-7.5 3.357-7.5 7.5v9.743h-9.343v-40.172c0-4.143-3.357-7.5-7.5-7.5s-7.5 3.357-7.5 7.5v40.172h-9.343v-30.029c0-4.143-3.357-7.5-7.5-7.5s-7.5 3.357-7.5 7.5v30.029h-9.343v-40.172c0-4.143-3.357-7.5-7.5-7.5s-7.5 3.357-7.5 7.5v40.172h-9.341v-19.886c0-4.143-3.357-7.5-7.5-7.5s-7.5 3.357-7.5 7.5v19.886h-9.343v-9.743c0-4.143-3.357-7.5-7.5-7.5s-7.5 3.357-7.5 7.5v9.743h-9.343v-30.029c0-4.143-3.357-7.5-7.5-7.5s-7.5 3.357-7.5 7.5v30.029h-9.343v-9.743c0-4.143-3.357-7.5-7.5-7.5s-7.5 3.357-7.5 7.5v9.743h-9.343v-19.886c0-4.143-3.357-7.5-7.5-7.5s-7.5 3.357-7.5 7.5v19.886h-9.343v-30.029c0-4.143-3.357-7.5-7.5-7.5s-7.5 3.357-7.5 7.5v30.029h-9.344v-40.172c0-4.143-3.357-7.5-7.5-7.5s-7.5 3.357-7.5 7.5v40.172h-9.341v-19.886c0-4.143-3.357-7.5-7.5-7.5s-7.5 3.357-7.5 7.5v19.886h-4.671c-4.143 0-7.5 3.357-7.5 7.5s3.357 7.5 7.5 7.5z"/><path d="m90.899 137.202h-14.586c-4.143 0-7.5 3.357-7.5 7.5s3.357 7.5 7.5 7.5h14.586c4.143 0 7.5-3.357 7.5-7.5s-3.357-7.5-7.5-7.5z"/><path d="m146 137.202h-36.171c-4.143 0-7.5 3.357-7.5 7.5s3.357 7.5 7.5 7.5h36.171c4.143 0 7.5-3.357 7.5-7.5s-3.357-7.5-7.5-7.5z"/></g></g></svg>