<svg id="Capa_1" enable-background="new 0 0 512 512" height="512" viewBox="0 0 512 512" width="512" xmlns="http://www.w3.org/2000/svg"><g><g><path d="m203.469 245.215h-27.284c-2.761 0-5 2.239-5 5v198.208h48.601v-189.01c-5.907-4.18-11.372-8.942-16.317-14.198z" fill="#fed402"/><g><path d="m201.399 245.215h-25.214c-2.761 0-5 2.239-5 5v198.208h25.214v-198.208c0-2.761 2.238-5 5-5z" fill="#fac600"/></g><g><path d="m304.352 448.423h-48.601v-129.524c0-2.761 2.239-5 5-5h38.601c2.761 0 5 2.239 5 5z" fill="#fd5426"/></g><g><path d="m286 313.899h-25.249c-2.761 0-5 2.239-5 5v129.524h25.249v-129.524c0-2.761 2.239-5 5-5z" fill="#ef4424"/></g><g><g><path d="m135.22 448.423h-48.601v-134.518c0-2.761 2.239-5 5-5h38.601c2.761 0 5 2.239 5 5z" fill="#fd5426"/></g></g><g><path d="m117 308.905h-25.381c-2.761 0-5 2.239-5 5v134.519h25.381v-134.519c0-2.762 2.239-5 5-5z" fill="#ef4424"/></g><path d="m383.918 245.215h-23.418c-6.008 6.385-12.783 12.039-20.183 16.811v186.398h48.601v-198.209c0-2.761-2.239-5-5-5z" fill="#fed402"/><path d="m340.317 262.026v186.398h25.082v-198.209c0-2.761 2.239-5 5-5h-9.899c-6.008 6.385-12.784 12.039-20.183 16.811z" fill="#fac600"/><g><path d="m473.484 448.423h-48.601v-275.834c0-2.761 2.239-5 5-5h38.601c2.761 0 5 2.239 5 5z" fill="#05e39c"/></g><g><path d="m455 167.589h-25.117c-2.761 0-5 2.239-5 5v275.834h25.117v-275.834c0-2.761 2.239-5 5-5z" fill="#0ed290"/></g></g><g><path d="m127.855 155.536c.001.058.009.114.009.172v30.475c0 .058-.008.114-.009.172h47.378c-.682-4.899-1.042-9.901-1.042-14.988 0-5.379.4-10.664 1.16-15.832h-47.496z" fill="#a8d3d8"/><g><path d="m7.5 170.947c0 13.938 11.299 25.238 25.238 25.238h85.127c5.523 0 10-4.477 10-10v-30.475c0-5.523-4.477-10-10-10h-85.127c-13.939-.001-25.238 11.298-25.238 25.237z" fill="#678d98"/></g><g><path d="m30.636 190.238c0-13.938 11.299-25.238 25.238-25.238h71.991v-9.291c0-5.523-4.477-10-10-10h-85.127c-13.938 0-25.238 11.299-25.238 25.238 0 13.468 10.551 24.47 23.838 25.197-.455-1.896-.702-3.872-.702-5.906z" fill="#537983"/></g><g><circle cx="281.984" cy="171.369" fill="#678d98" r="107.792"/></g><g><path d="m208 171.369c0-53.78 39.387-98.357 90.888-106.469-5.508-.868-11.153-1.323-16.904-1.323-59.532 0-107.792 48.26-107.792 107.792s48.26 107.792 107.792 107.792c5.751 0 11.396-.455 16.904-1.323-51.501-8.112-90.888-52.689-90.888-106.469z" fill="#537983"/></g><g><circle cx="281.984" cy="171.369" fill="#c8effe" r="75.416"/></g><g><path d="m240.169 171.369c0-35.808 25.095-65.846 58.615-73.506-5.407-1.235-11.025-1.91-16.8-1.91-41.584 0-75.416 33.832-75.416 75.416s33.832 75.416 75.416 75.416c5.776 0 11.394-.674 16.8-1.91-33.521-7.66-58.615-37.698-58.615-73.506z" fill="#99e6fc"/></g></g><g><g><path d="m127.695 279h-115.195c-2.761 0-5-2.239-5-5v-43.502c0-2.761 2.239-5 5-5h115.195c2.761 0 5 2.239 5 5v43.502c0 2.761-2.239 5-5 5z" fill="#01d0fb"/></g><g><path d="m41 274v-43.502c0-2.761 2.239-5 5-5h-33.5c-2.761 0-5 2.239-5 5v43.502c0 2.761 2.239 5 5 5h33.5c-2.761 0-5-2.239-5-5z" fill="#01c0fa"/></g></g><g><path d="m504.5 440.924h-23.517v-65.924c0-4.143-3.357-7.5-7.5-7.5s-7.5 3.357-7.5 7.5v65.924h-33.601v-265.835h33.601v164.911c0 4.143 3.357 7.5 7.5 7.5s7.5-3.357 7.5-7.5v-167.411c0-6.893-5.607-12.5-12.5-12.5h-38.601c-6.893 0-12.5 5.607-12.5 12.5v268.335h-20.965v-190.709c0-6.893-5.607-12.5-12.5-12.5h-7.697c13.257-18.775 21.056-41.666 21.056-66.346 0-63.573-51.72-115.293-115.292-115.293-55.582 0-102.101 39.535-112.919 91.96h-35.497c-2.85-5.809-8.809-9.827-15.704-9.827h-85.127c-18.051 0-32.737 14.686-32.737 32.737s14.686 32.738 32.737 32.738h29.263c4.143 0 7.5-3.357 7.5-7.5s-3.357-7.5-7.5-7.5h-29.263c-9.78 0-17.737-7.957-17.737-17.738 0-9.78 7.957-17.737 17.737-17.737h85.127c1.379 0 2.5 1.121 2.5 2.5v30.476c0 1.379-1.121 2.5-2.5 2.5h-20.864c-4.143 0-7.5 3.357-7.5 7.5s3.357 7.5 7.5 7.5h20.864c6.895 0 12.854-4.019 15.704-9.828h35.332c3.189 16.064 9.723 30.937 18.847 43.858h-11.563c-6.893 0-12.5 5.607-12.5 12.5v190.709h-20.964v-127.02c0-6.893-5.607-12.5-12.5-12.5h-38.601c-6.893 0-12.5 5.607-12.5 12.5v127.02h-71.619c-4.143 0-7.5 3.357-7.5 7.5s3.357 7.5 7.5 7.5h497c4.143 0 7.5-3.357 7.5-7.5s-3.357-7.5-7.5-7.5zm-337.559-262.068h-31.577v-15.82h31.631c-.198 2.753-.303 5.531-.303 8.333-.001 2.516.089 5.011.249 7.487zm-39.221 262.068h-33.601v-124.52h33.601zm53.971-269.555c0-55.302 44.991-100.293 100.293-100.293 55.301 0 100.292 44.991 100.292 100.293 0 55.301-44.991 100.292-100.292 100.292s-100.293-44.991-100.293-100.292zm30.595 269.555h-33.602v-188.209h21.677c3.729 3.741 7.715 7.224 11.925 10.429zm84.566 0h-33.601v-119.525h33.601zm35.964 0h-20.965v-122.025c0-6.893-5.607-12.5-12.5-12.5h-38.601c-6.893 0-12.5 5.607-12.5 12.5v122.024h-20.965v-168.085c16.285 8.814 34.917 13.823 54.698 13.823 18.234 0 35.489-4.262 50.832-11.831v166.094zm48.602 0h-33.602v-174.962c5.652-3.945 10.938-8.379 15.79-13.247h17.812z"/><path d="m281.984 254.284c14.183 0 28.209-3.678 40.563-10.636 3.609-2.033 4.887-6.606 2.854-10.216-2.033-3.608-6.607-4.888-10.216-2.854-10.112 5.695-21.593 8.706-33.202 8.706-37.449 0-67.916-30.467-67.916-67.915 0-37.449 30.467-67.916 67.916-67.916 37.448 0 67.915 30.467 67.915 67.916 0 13.521-3.984 26.59-11.521 37.796-2.312 3.437-1.399 8.097 2.038 10.409 3.437 2.31 8.097 1.397 10.409-2.038 9.207-13.689 14.074-29.653 14.074-46.167 0-45.72-37.195-82.916-82.915-82.916s-82.916 37.196-82.916 82.916 37.198 82.915 82.917 82.915z"/><path d="m289.484 186.53c0-1.499.948-2.806 2.359-3.252 14.334-4.531 23.692-18.199 22.758-33.238-1.018-16.396-14.149-29.527-30.546-30.546-9.131-.569-17.812 2.559-24.45 8.8-6.548 6.154-10.304 14.836-10.304 23.818 0 4.143 3.357 7.5 7.5 7.5s7.5-3.357 7.5-7.5c0-4.932 1.98-9.509 5.576-12.889 3.592-3.376 8.308-5.061 13.248-4.759 8.714.542 15.964 7.791 16.505 16.505.506 8.15-4.556 15.555-12.309 18.006-7.679 2.428-12.838 9.482-12.838 17.555v5.873c0 4.143 3.357 7.5 7.5 7.5s7.5-3.357 7.5-7.5v-5.873z"/><path d="m281.984 207.042c-4.143 0-7.5 3.357-7.5 7.5v1.266c0 4.143 3.357 7.5 7.5 7.5s7.5-3.357 7.5-7.5v-1.266c0-4.143-3.357-7.5-7.5-7.5z"/><path d="m12.5 286.5h115.194c6.893 0 12.5-5.607 12.5-12.5v-43.502c0-6.893-5.607-12.5-12.5-12.5h-115.194c-6.893 0-12.5 5.607-12.5 12.5v43.502c0 6.893 5.607 12.5 12.5 12.5zm2.5-53.502h110.194v38.502h-110.194z"/><path d="m47.417 244.749h-16.33c-4.143 0-7.5 3.357-7.5 7.5s3.357 7.5 7.5 7.5h16.33c4.143 0 7.5-3.357 7.5-7.5s-3.357-7.5-7.5-7.5z"/><path d="m109.107 244.749h-40.497c-4.143 0-7.5 3.357-7.5 7.5s3.357 7.5 7.5 7.5h40.497c4.143 0 7.5-3.357 7.5-7.5s-3.357-7.5-7.5-7.5z"/><path d="m61 326.37h-44c-4.143 0-7.5 3.357-7.5 7.5s3.357 7.5 7.5 7.5h44c4.143 0 7.5-3.357 7.5-7.5s-3.357-7.5-7.5-7.5z"/><path d="m61 351.633h-44c-4.143 0-7.5 3.357-7.5 7.5s3.357 7.5 7.5 7.5h44c4.143 0 7.5-3.357 7.5-7.5s-3.357-7.5-7.5-7.5z"/><path d="m68.5 384.623c0-4.143-3.357-7.5-7.5-7.5h-44c-4.143 0-7.5 3.357-7.5 7.5s3.357 7.5 7.5 7.5h44c4.143 0 7.5-3.357 7.5-7.5z"/><path d="m17 402.5c-4.143 0-7.5 3.357-7.5 7.5s3.357 7.5 7.5 7.5h19.725c4.143 0 7.5-3.357 7.5-7.5s-3.357-7.5-7.5-7.5z"/></g></g></svg>