<svg height="512pt" viewBox="0 0 512.10757 512" width="512pt" xmlns="http://www.w3.org/2000/svg"><path d="m181.332031 10.71875v85.335938c-.035156 11.765624-9.566406 21.296874-21.332031 21.332031h-85.332031zm0 0" fill="#768ba0"/><path d="m437.332031 32.054688v448c-.035156 11.765624-9.566406 21.296874-21.332031 21.332031h-320c-11.765625-.035157-21.296875-9.566407-21.332031-21.332031v-362.667969h85.332031c11.765625-.035157 21.296875-9.566407 21.332031-21.332031v-85.335938h234.667969c11.765625.035156 21.296875 9.566406 21.332031 21.335938zm0 0" fill="#a4b0c0"/><path d="m501.332031 308.855469c.296875 64.796875-51.996093 117.566406-116.796875 117.863281-64.800781.292969-117.570312-52-117.867187-116.800781-.292969-64.796875 52-117.570313 116.796875-117.863281h.535156l.535156 117.332031zm0 0" fill="#fed049"/><path d="m501.332031 308.855469-116.796875.53125-.535156-117.332031c64.59375 0 117.039062 52.207031 117.332031 116.800781zm0 0" fill="#49aaee"/><path d="m181.332031 213.386719c23.566407 0 42.667969 19.101562 42.667969 42.667969 0 23.5625-19.101562 42.664062-42.667969 42.664062h-128c-23.5625 0-42.664062-19.101562-42.664062-42.664062 0-23.566407 19.101562-42.667969 42.664062-42.667969zm0 0" fill="#f1f2f2"/><g fill="#474c54"><path d="m426.667969 480.054688c0 5.890624-4.777344 10.664062-10.667969 10.664062h-320c-5.890625 0-10.667969-4.773438-10.667969-10.664062v-149.335938h-21.332031v149.335938c0 17.671874 14.328125 32 32 32h320c17.671875 0 32-14.328126 32-32v-32h-21.332031zm0 0"/><path d="m85.332031 121.804688 85.335938-85.335938v59.585938c0 5.890624-4.777344 10.664062-10.667969 10.664062h-32v21.335938h32c17.671875 0 32-14.328126 32-32v-74.667969h224c5.890625 0 10.667969 4.777343 10.667969 10.667969v138.664062h21.332031v-138.664062c0-17.675782-14.328125-32.0000005-32-32.0000005h-234.667969c-2.828125 0-5.539062 1.1250005-7.539062 3.1250005l-106.667969 106.667968c-2 2-3.125 4.710938-3.125 7.539063v64h21.332031zm0 0"/><path d="m138.667969 330.71875c0 2.832031 1.125 5.542969 3.125 7.542969l32 32 15.082031-15.082031-28.875-28.875v-16.917969h21.332031c29.457031 0 53.335938-23.878907 53.335938-53.332031 0-29.457032-23.878907-53.335938-53.335938-53.335938h-128c-29.453125 0-53.332031 23.878906-53.332031 53.335938 0 29.453124 23.878906 53.332031 53.332031 53.332031h85.335938zm-117.335938-74.664062c-.015625-8.492188 3.351563-16.640626 9.355469-22.648438 6.003906-6.003906 14.152344-9.371094 22.644531-9.351562h128c17.675781 0 32 14.324218 32 32 0 17.671874-14.324219 32-32 32h-128c-17.671875 0-32-14.328126-32-32zm0 0"/><path d="m383.625 181.386719h-.210938c-70.691406.140625-127.886718 57.5625-127.746093 128.257812.144531 70.691407 57.566406 127.882813 128.257812 127.742188h.660157c70.691406-.265625 127.785156-57.789063 127.519531-128.480469s-57.785157-127.785156-128.480469-127.519531zm106.453125 116.855469-94.929687.425781-.429688-95.414063c50.234375 5.160156 90.003906 44.773438 95.359375 94.988282zm-105.597656 117.8125h-.542969c-56.625-.324219-103.125-44.828126-105.929688-101.382813-2.804687-56.554687 39.066407-105.441406 95.378907-111.363281l.457031 101.171875-50.535156 50.933593 15.144531 15.027344 50.003906-50.386718 101.71875-.460938c-5.316406 54.484375-50.953125 96.132812-105.695312 96.460938zm0 0"/><path d="m42.667969 245.386719h21.332031v21.332031h-21.332031zm0 0"/><path d="m85.332031 245.386719h106.667969v21.332031h-106.667969zm0 0"/><path d="m106.667969 448.054688h85.332031v21.332031h-85.332031zm0 0"/><path d="m106.667969 405.386719h64v21.332031h-64zm0 0"/><path d="m213.332031 448.054688h21.335938v21.332031h-21.335938zm0 0"/></g></svg>