<svg id="Icons" height="512" viewBox="0 0 60 60" width="512" xmlns="http://www.w3.org/2000/svg"><rect fill="#599eff" height="50" rx="2" width="50" x="5" y="5"/><rect fill="#97c0ff" height="36" rx="1" transform="matrix(0 1 -1 0 60 0)" width="36" x="12" y="12"/><path d="m39.6 34.27a3.861 3.861 0 0 1 .4 1.73 3.992 3.992 0 0 1 -3.01 3.87.57.57 0 0 1 .01.13 4 4 0 0 1 -7 2.64 4 4 0 0 1 -7-2.64.57.57 0 0 1 .01-.13 3.992 3.992 0 0 1 -3.01-3.87 3.861 3.861 0 0 1 .4-1.73 5 5 0 0 1 0-8.54 3.861 3.861 0 0 1 -.4-1.73 3.992 3.992 0 0 1 3.01-3.87.57.57 0 0 1 -.01-.13 4 4 0 0 1 7-2.64 4 4 0 0 1 7 2.64.57.57 0 0 1 -.01.13 3.992 3.992 0 0 1 3.01 3.87 3.861 3.861 0 0 1 -.4 1.73 5 5 0 0 1 0 8.54z" fill="#f97285"/><g fill="#373737"><path d="m47 11h-34a2 2 0 0 0 -2 2v3.669a1 1 0 0 0 2 0v-3.669h34v34h-34v-25.9a1 1 0 0 0 -2 0v25.9a2 2 0 0 0 2 2h34a2 2 0 0 0 2-2v-34a2 2 0 0 0 -2-2z"/><path d="m17 30a5.957 5.957 0 0 0 2.19 4.635 5 5 0 0 0 2.845 5.959 5 5 0 0 0 7.965 3.406 5 5 0 0 0 7.965-3.4 5 5 0 0 0 2.845-5.959 6 6 0 0 0 0-9.27 4.994 4.994 0 0 0 -2.845-5.958 5 5 0 0 0 -7.965-3.413 5 5 0 0 0 -7.965 3.4 4.994 4.994 0 0 0 -2.845 5.958 5.955 5.955 0 0 0 -2.19 4.642zm3.921-3.417a3.976 3.976 0 0 1 1.274-.5 1 1 0 1 0 -.4-1.96 5.9 5.9 0 0 0 -.762.225 2.845 2.845 0 0 1 -.033-.348 2.989 2.989 0 0 1 1.289-2.456 1 1 0 0 0 .836.456 1.019 1.019 0 0 0 .25-.031 1 1 0 0 0 .72-1.218 3.044 3.044 0 0 1 -.095-.651.155.155 0 0 0 0-.025.806.806 0 0 0 0-.085 2.982 2.982 0 0 1 4.67-2.466 4.981 4.981 0 0 0 -.67 2.476 1 1 0 0 0 2 0 3 3 0 0 1 6-.009.825.825 0 0 0 0 .086.129.129 0 0 0 0 .021 3.061 3.061 0 0 1 -.093.652 1 1 0 0 0 1.8.794 2.986 2.986 0 0 1 1.293 2.456 2.845 2.845 0 0 1 -.039.345 5.865 5.865 0 0 0 -.763-.225 1 1 0 1 0 -.4 1.96 3.979 3.979 0 0 1 1.273.5 4 4 0 0 1 0 6.833l-.007.006a3.984 3.984 0 0 1 -1.27.5 1 1 0 0 0 .206 1.981.976.976 0 0 0 .2-.02 5.9 5.9 0 0 0 .762-.225 2.845 2.845 0 0 1 .038.345 2.987 2.987 0 0 1 -1.3 2.466.988.988 0 0 0 -1.078-.435 1 1 0 0 0 -.722 1.216 3.108 3.108 0 0 1 .094.655c0 .018.01.032.012.049a.583.583 0 0 0 0 .059 2.982 2.982 0 0 1 -4.67 2.466 4.981 4.981 0 0 0 .664-2.476 1 1 0 0 0 -2 0 3 3 0 0 1 -6 .009c0-.019 0-.037 0-.056s.011-.033.011-.051a3.044 3.044 0 0 1 .094-.653 1 1 0 0 0 -.72-1.218.991.991 0 0 0 -1.08.435 2.987 2.987 0 0 1 -1.305-2.466 2.845 2.845 0 0 1 .039-.345 5.883 5.883 0 0 0 .761.225 1 1 0 1 0 .4-1.959 3.986 3.986 0 0 1 -1.272-.5l-.007-.006a4 4 0 0 1 0-6.833z"/><path d="m9 8a1 1 0 0 0 -1 1v1a1 1 0 0 0 2 0v-1a1 1 0 0 0 -1-1z"/><path d="m51 8a1 1 0 0 0 -1 1v1a1 1 0 0 0 2 0v-1a1 1 0 0 0 -1-1z"/><path d="m9 49a1 1 0 0 0 -1 1v1a1 1 0 0 0 2 0v-1a1 1 0 0 0 -1-1z"/><path d="m51 49a1 1 0 0 0 -1 1v1a1 1 0 0 0 2 0v-1a1 1 0 0 0 -1-1z"/><path d="m30 37a1 1 0 0 0 1-1v-12a1 1 0 0 0 -2 0v12a1 1 0 0 0 1 1z"/><path d="m24.991 33a1 1 0 0 0 .727-1.692 3.469 3.469 0 0 1 -.718-2.308 1 1 0 0 0 -2 0 5.311 5.311 0 0 0 1.293 3.707.984.984 0 0 0 .698.293z"/><path d="m34 32a1 1 0 0 0 2 0 5.306 5.306 0 0 0 -1.293-3.707.992.992 0 0 0 -1.4 0 1.008 1.008 0 0 0 -.03 1.408 3.452 3.452 0 0 1 .723 2.299z"/><path d="m59 9a1 1 0 0 0 0-2h-3a3 3 0 0 0 -3-3v-3a1 1 0 0 0 -2 0v3h-2v-3a1 1 0 0 0 -2 0v3h-2v-3a1 1 0 0 0 -2 0v3h-2v-3a1 1 0 0 0 -2 0v3h-2v-3a1 1 0 0 0 -2 0v3h-2v-3a1 1 0 0 0 -2 0v3h-2v-3a1 1 0 0 0 -2 0v3h-2v-3a1 1 0 0 0 -2 0v3h-2v-3a1 1 0 0 0 -2 0v3h-2v-3a1 1 0 0 0 -2 0v3h-2v-3a1 1 0 0 0 -2 0v3h-2v-3a1 1 0 0 0 -2 0v3a3 3 0 0 0 -3 3h-3a1 1 0 0 0 0 2h3v2h-3a1 1 0 0 0 0 2h3v2h-3a1 1 0 0 0 0 2h3v2h-3a1 1 0 0 0 0 2h3v2h-3a1 1 0 0 0 0 2h3v2h-3a1 1 0 0 0 0 2h3v2h-3a1 1 0 0 0 0 2h3v2h-3a1 1 0 0 0 0 2h3v2h-3a1 1 0 0 0 0 2h3v2h-3a1 1 0 0 0 0 2h3v2h-3a1 1 0 0 0 0 2h3v2h-3a1 1 0 0 0 0 2h3a3 3 0 0 0 3 3v3a1 1 0 0 0 2 0v-3h2v3a1 1 0 0 0 2 0v-3h2v3a1 1 0 0 0 2 0v-3h2v3a1 1 0 0 0 2 0v-3h2v3a1 1 0 0 0 2 0v-3h2v3a1 1 0 0 0 2 0v-3h2v3a1 1 0 0 0 2 0v-3h2v3a1 1 0 0 0 2 0v-3h2v3a1 1 0 0 0 2 0v-3h2v3a1 1 0 0 0 2 0v-3h2v3a1 1 0 0 0 2 0v-3h2v3a1 1 0 0 0 2 0v-3a3 3 0 0 0 3-3h3a1 1 0 0 0 0-2h-3v-2h3a1 1 0 0 0 0-2h-3v-2h3a1 1 0 0 0 0-2h-3v-2h3a1 1 0 0 0 0-2h-3v-2h3a1 1 0 0 0 0-2h-3v-2h3a1 1 0 0 0 0-2h-3v-2h3a1 1 0 0 0 0-2h-3v-2h3a1 1 0 0 0 0-2h-3v-2h3a1 1 0 0 0 0-2h-3v-2h3a1 1 0 0 0 0-2h-3v-2h3a1 1 0 0 0 0-2h-3v-2zm-5 44a1 1 0 0 1 -1 1h-46a1 1 0 0 1 -1-1v-46a1 1 0 0 1 1-1h46a1 1 0 0 1 1 1z"/></g></svg>