<svg id="icons" height="512" viewBox="0 0 60 60" width="512" xmlns="http://www.w3.org/2000/svg"><path d="m11 38a10 10 0 0 1 -2.21-19.75.493.493 0 0 0 .38-.59 8.288 8.288 0 0 1 -.13-2.45 7.988 7.988 0 0 1 11-6.61.5.5 0 0 0 .63-.23 14.022 14.022 0 0 1 26.29 5.19.5.5 0 0 0 .48.45 12 12 0 0 1 .56 23.95z" fill="#6ddcdd"/><path d="m48 31v25a3 3 0 0 1 -3 3h-30a3 3 0 0 1 -3-3v-25l1-1h34z" fill="#e4f1ff"/><path d="m48 26v5h-36v-5a3 3 0 0 1 3-3h30a3 3 0 0 1 3 3z" fill="#4b88a9"/><path d="m18 46.976a1.976 1.976 0 0 1 -1.414-3.39l2.586-2.586-2.586-2.586a2 2 0 0 1 2.828-2.828l4 4a2 2 0 0 1 0 2.828l-4 4a2 2 0 0 1 -1.414.562z" fill="#c7b14c"/><rect fill="#c7b14c" height="4" rx="2" width="10" x="27" y="43"/><g fill="#373737"><path d="m20.121 34.879a3 3 0 0 0 -4.242 4.242l1.879 1.879-1.879 1.879a3 3 0 0 0 0 4.242 3.04 3.04 0 0 0 4.242 0l4-4a3 3 0 0 0 0-4.242zm2.586 6.828-4 4a1.025 1.025 0 0 1 -1.414 0 1 1 0 0 1 0-1.414l2.586-2.586a1 1 0 0 0 0-1.414l-2.586-2.586a1 1 0 0 1 0-1.414 1.017 1.017 0 0 1 1.414 0l4 4a1 1 0 0 1 0 1.414z"/><path d="m35 42h-6a3 3 0 0 0 0 6h6a3 3 0 0 0 0-6zm0 4h-6a1 1 0 0 1 0-2h6a1 1 0 0 1 0 2z"/><path d="m47.905 13.032a15.023 15.023 0 0 0 -27.905-5.518 9.153 9.153 0 0 0 -4.233-.435 8.99 8.99 0 0 0 -7.725 8.037 9.346 9.346 0 0 0 .061 2.273 11.028 11.028 0 0 0 -7.189 6.211 1 1 0 1 0 1.832.8 9.014 9.014 0 0 1 6.26-5.173 1.493 1.493 0 0 0 .944-.661 1.463 1.463 0 0 0 .2-1.107 7.313 7.313 0 0 1 -.113-2.159 6.975 6.975 0 0 1 5.992-6.237 7.158 7.158 0 0 1 3.659.472 1.509 1.509 0 0 0 1.864-.691 13.022 13.022 0 0 1 24.415 4.836 1.5 1.5 0 0 0 1.438 1.329 10.98 10.98 0 0 1 10.595 10.991 11.067 11.067 0 0 1 -9 10.816v-10.816a4 4 0 0 0 -4-4h-30a4 4 0 0 0 -4 4v11a9.01 9.01 0 0 1 -9-9 1 1 0 0 0 -2 0 11.013 11.013 0 0 0 11 11v17a4 4 0 0 0 4 4h30a4 4 0 0 0 4-4v-17.164a13.073 13.073 0 0 0 11-12.836 12.981 12.981 0 0 0 -12.095-12.968zm-32.905 10.968h30a2 2 0 0 1 2 2v4h-34v-4a2 2 0 0 1 2-2zm30 34h-30a2 2 0 0 1 -2-2v-24h34v24a2 2 0 0 1 -2 2z"/><path d="m16 28h1a1 1 0 0 0 0-2h-1a1 1 0 0 0 0 2z"/><path d="m21 28h1a1 1 0 0 0 0-2h-1a1 1 0 0 0 0 2z"/><path d="m26 28h1a1 1 0 0 0 0-2h-1a1 1 0 0 0 0 2z"/><path d="m38 28h6a1 1 0 0 0 0-2h-6a1 1 0 0 0 0 2z"/></g></svg>