<svg id="icons" height="512" viewBox="0 0 60 60" width="512" xmlns="http://www.w3.org/2000/svg"><path d="m10 49v8a2.006 2.006 0 0 0 2 2h4v-10z" fill="#a3bdce"/><path d="m15 50.46a4 4 0 1 1 -2-7.46h7z" fill="#c4ddf0"/><path d="m50 49v8a2.006 2.006 0 0 1 -2 2h-4v-10z" fill="#a3bdce"/><path d="m45 50.46a4 4 0 1 0 2-7.46h-7z" fill="#c4ddf0"/><path d="m25 38h10v6h-10z" fill="#a3bdce"/><path d="m11 38a10 10 0 0 1 -2.21-19.75.493.493 0 0 0 .38-.59 8.288 8.288 0 0 1 -.13-2.45 7.988 7.988 0 0 1 11-6.61.5.5 0 0 0 .63-.23 14.022 14.022 0 0 1 26.29 5.19.5.5 0 0 0 .48.45 12 12 0 0 1 -.44 23.99z" fill="#6ddcdd"/><path d="m15 33.917a6 6 0 0 1 0-11.834l1 5.917z" fill="#4b88a9"/><path d="m45 33.917a6 6 0 0 0 0-11.834l-1 5.917z" fill="#4b88a9"/><path d="m20 43h20a5 5 0 0 1 5 5v10a1 1 0 0 1 -1 1h-28a1 1 0 0 1 -1-1v-10a5 5 0 0 1 5-5z" fill="#e4f1ff"/><path d="m41 59v-10a2 2 0 0 0 -2-2h-18a2 2 0 0 0 -2 2v10z" fill="#4b88a9"/><rect fill="#e4f1ff" height="22" rx="4" width="30" x="15" y="17"/><rect fill="#4b88a9" height="22" rx="1" transform="matrix(0 1 -1 0 58 -2)" width="14" x="23" y="17"/><g fill="#373737"><path d="m20 36h20a2 2 0 0 0 2-2v-12a2 2 0 0 0 -2-2h-20a2 2 0 0 0 -2 2v12a2 2 0 0 0 2 2zm0-14h20v12h-20z"/><path d="m11 39h5.031a4.952 4.952 0 0 0 2.969 1h5v2h-11a5.006 5.006 0 0 0 -5 5 4.952 4.952 0 0 0 1 2.969v7.031a3 3 0 0 0 3 3h36a3 3 0 0 0 3-3v-7.031a4.952 4.952 0 0 0 1-2.969 5.006 5.006 0 0 0 -5-5h-11v-2h5a4.952 4.952 0 0 0 2.969-1h3.031a13 13 0 0 0 .905-25.968 15.024 15.024 0 0 0 -27.905-5.518 9.15 9.15 0 0 0 -4.233-.435 8.991 8.991 0 0 0 -7.724 8.037 9.346 9.346 0 0 0 .061 2.273 11.029 11.029 0 0 0 -7.19 6.211 1 1 0 0 0 1.832.8 9.016 9.016 0 0 1 6.262-5.175 1.49 1.49 0 0 0 .942-.661 1.46 1.46 0 0 0 .2-1.106 7.311 7.311 0 0 1 -.113-2.159 6.977 6.977 0 0 1 5.991-6.238 7.15 7.15 0 0 1 3.662.475 1.507 1.507 0 0 0 1.862-.693 13.022 13.022 0 0 1 24.415 4.837 1.5 1.5 0 0 0 1.438 1.329 11 11 0 0 1 -.405 21.991h-1.424a4.95 4.95 0 0 0 .424-2v-.3a7 7 0 0 0 0-13.4v-.3a5.006 5.006 0 0 0 -5-5h-22a5.006 5.006 0 0 0 -5 5v.3a7 7 0 0 0 0 13.409v.291a4.95 4.95 0 0 0 .424 2h-3.424a9.01 9.01 0 0 1 -9-9 1 1 0 0 0 -2 0 11.013 11.013 0 0 0 11 11zm2 5h2.54a5.969 5.969 0 0 0 -1.54 4v1.8a2.926 2.926 0 0 1 -1 .2 3 3 0 0 1 0-6zm-1 14a1 1 0 0 1 -1-1v-5.424a4.95 4.95 0 0 0 2 .424 4.874 4.874 0 0 0 1-.114v6.114zm28 0h-20v-9a1 1 0 0 1 1-1h18a1 1 0 0 1 1 1zm8 0h-2v-6.114a4.874 4.874 0 0 0 1 .114 4.95 4.95 0 0 0 2-.424v5.424a1 1 0 0 1 -1 1zm2-11a3 3 0 0 1 -3 3 2.926 2.926 0 0 1 -1-.2v-1.8a5.969 5.969 0 0 0 -1.54-4h2.54a3 3 0 0 1 3 3zm-6 1v10h-2v-9a3 3 0 0 0 -3-3h-18a3 3 0 0 0 -3 3v9h-2v-10a4 4 0 0 1 4-4h20a4 4 0 0 1 4 4zm-10-6h-8v-2h8zm15-14a4.97 4.97 0 0 1 -3 4.568v-9.135a4.968 4.968 0 0 1 3 4.567zm-33-7a3 3 0 0 1 3-3h22a3 3 0 0 1 3 3v14a3 3 0 0 1 -3 3h-22a3 3 0 0 1 -3-3zm-5 7a4.968 4.968 0 0 1 3-4.567v9.135a4.97 4.97 0 0 1 -3-4.568z"/><path d="m25.707 50.293a1 1 0 0 0 -1.414 0l-2 2a1 1 0 0 0 0 1.414l2 2a1 1 0 0 0 1.414-1.414l-1.293-1.293 1.293-1.293a1 1 0 0 0 0-1.414z"/><path d="m35.707 50.293a1 1 0 0 0 -1.414 1.414l1.293 1.293-1.293 1.293a1 1 0 1 0 1.414 1.414l2-2a1 1 0 0 0 0-1.414z"/><path d="m31.447 50.105a1 1 0 0 0 -1.342.448l-2 4a1 1 0 0 0 1.79.894l2-4a1 1 0 0 0 -.448-1.342z"/><path d="m24 24a1 1 0 0 0 -1 1v2a1 1 0 0 0 2 0v-2a1 1 0 0 0 -1-1z"/><path d="m36 24a1 1 0 0 0 -1 1v2a1 1 0 0 0 2 0v-2a1 1 0 0 0 -1-1z"/><path d="m32.366 29.227a4.009 4.009 0 0 1 -4.726 0 1 1 0 1 0 -1.28 1.536 5.993 5.993 0 0 0 7.28 0 1 1 0 0 0 -1.274-1.541z"/></g></svg>