<?xml version="1.0" encoding="UTF-8"?>
<svg xmlns="http://www.w3.org/2000/svg" xmlns:xlink="http://www.w3.org/1999/xlink" xmlns:svgjs="http://svgjs.com/svgjs" version="1.1" width="512" height="512" x="0" y="0" viewBox="0 0 512 512" style="enable-background:new 0 0 512 512" xml:space="preserve" class="">
  <g>
    <path xmlns="http://www.w3.org/2000/svg" d="m512 256c0 141.386719-114.613281 256-256 256s-256-114.613281-256-256 114.613281-256 256-256 256 114.613281 256 256zm0 0" fill="#966857" data-original="#966857" style="" class=""/>
    <path xmlns="http://www.w3.org/2000/svg" d="m512 256c0-6.9375-.285156-13.8125-.828125-20.609375l-89.558594-89.558594-77.480469 99.433594-105.910156-105.90625-57.503906 255.980469 113.777344 113.777344c123.121094-18.566407 217.503906-124.816407 217.503906-253.117188zm0 0" fill="#805142" data-original="#805142" style="" class=""/>
    <path xmlns="http://www.w3.org/2000/svg" d="m62.585938 216.984375c0-57.976563 47.003906-104.980469 104.980468-104.980469 37.136719 0 69.773438 19.285156 88.433594 48.386719 18.664062-29.101563 51.296875-48.386719 88.433594-48.386719 57.980468 0 104.980468 47.003906 104.980468 104.980469 0 99-193.414062 239.324219-193.414062 239.324219s-193.414062-136.207032-193.414062-239.324219zm0 0" fill="#fffd00" data-original="#fa5d0f" style="" class=""/>
    <path xmlns="http://www.w3.org/2000/svg" d="m256 456.019531c.261719.1875 0 .289063 0 .289063s193.414062-140.324219 193.414062-239.324219c0-57.976563-47-104.980469-104.980468-104.980469-37.136719 0-69.769532 19.285156-88.433594 48.386719zm0 0" fill="#dddb00" data-original="#d13400" style="" class=""/>
    <path xmlns="http://www.w3.org/2000/svg" d="m62.585938 216.984375c0 20.894531 7.9375 43.144531 20.601562 65.34375h344.695312c13.199219-22.480469 21.53125-44.800781 21.53125-65.34375 0-11.238281-1.773437-22.0625-5.042968-32.214844h-376.742188c-3.269531 10.152344-5.042968 20.976563-5.042968 32.214844zm0 0" fill="#fffd00" data-original="#ffce00" style="" class=""/>
    <path xmlns="http://www.w3.org/2000/svg" d="m449.414062 216.984375c0-11.238281-1.773437-22.0625-5.042968-32.214844h-188.371094v97.558594h171.882812c13.199219-22.480469 21.53125-44.800781 21.53125-65.34375zm0 0" fill="#dddb00" data-original="#fdba12" style="" class=""/>
    <path xmlns="http://www.w3.org/2000/svg" d="m77.53125 271.761719c16.875 33.773437 45.875 67.945312 75.65625 97.554687h204.019531c29.90625-29.839844 59.234375-64.15625 76.515625-97.554687zm0 0" fill="#2860e8" data-original="#28e888" style="" class=""/>
    <path xmlns="http://www.w3.org/2000/svg" d="m433.722656 271.761719h-177.722656v97.554687h101.207031c29.90625-29.839844 59.234375-64.15625 76.515625-97.554687zm0 0" fill="#1a4abd" data-original="#23c16e" style="" class=""/>
    <path xmlns="http://www.w3.org/2000/svg" d="m367.578125 358.75h-224.785156c53.175781 55.277344 113.207031 97.558594 113.207031 97.558594s58.816406-42.675782 111.578125-97.558594zm0 0" fill="#ff0000" data-original="#4ab8f7" style="" class=""/>
    <path xmlns="http://www.w3.org/2000/svg" d="m256 456.308594s58.816406-42.675782 111.578125-97.558594h-111.578125zm0 0" fill="#bd0000" data-original="#368dcf" style="" class=""/>
  </g>
</svg>
