<?xml version="1.0" encoding="iso-8859-1"?>
<!-- Generator: Adobe Illustrator 19.0.0, SVG Export Plug-In . SVG Version: 6.00 Build 0)  -->
<svg version="1.1" id="Capa_1" xmlns="http://www.w3.org/2000/svg" xmlns:xlink="http://www.w3.org/1999/xlink" x="0px" y="0px"
	 viewBox="0 0 512 512" style="enable-background:new 0 0 512 512;" xml:space="preserve">
<path style="fill:#A4B0C0;" d="M362.667,480v10.667c0,5.867-4.8,10.667-10.667,10.667H160c-5.867,0-10.667-4.8-10.667-10.667V480
	l32-21.333v-64h149.333v64L362.667,480z"/>
<path style="fill:#F1F2F2;" d="M501.333,298.667V352c0,23.573-19.093,42.667-42.667,42.667h-128H181.333h-128
	c-23.573,0-42.667-19.093-42.667-42.667v-53.333H501.333z"/>
<path style="fill:#A4B0C0;" d="M501.333,298.667H10.667V53.333c0-23.573,19.093-42.667,42.667-42.667h405.333
	c23.573,0,42.667,19.093,42.667,42.667V298.667z"/>
<path style="fill:#FED049;" d="M448,53.333H64c-5.888,0-10.667,4.779-10.667,10.667v234.667h405.333V64
	C458.667,58.112,453.888,53.333,448,53.333z"/>
<path style="fill:#D0D7DF;" d="M373.333,181.333l29.653,29.653c-21.227,21.227-50.56,34.347-82.987,34.347
	c-64.853,0-117.333-52.48-117.333-117.333H320L373.333,181.333z"/>
<path style="fill:#A263E5;" d="M320,10.667c64.853,0,117.333,52.48,117.333,117.333c0,32.427-13.12,61.76-34.347,82.987L320,128
	V10.667z"/>
<path style="fill:#F1F2F2;" d="M117.333,64v42.667c0,5.867-4.8,10.667-10.667,10.667H85.333c-5.867,0-10.667-4.8-10.667-10.667V64
	c0-5.867,4.8-10.667,10.667-10.667h21.333C112.533,53.333,117.333,58.133,117.333,64z"/>
<g>
	<path style="fill:#474C54;" d="M458.667,0h-21.333c-5.899,0-10.667,4.779-10.667,10.667s4.768,10.667,10.667,10.667h21.333
		c17.643,0,32,14.357,32,32v192c0,5.888,4.768,10.667,10.667,10.667S512,251.221,512,245.333v-192C512,23.925,488.075,0,458.667,0z"
		/>
	<path style="fill:#474C54;" d="M501.333,288H64c-5.899,0-10.667,4.768-10.667,10.667c0,5.899,4.768,10.667,10.667,10.667h426.667
		V352c0,17.643-14.357,32-32,32H53.333c-17.643,0-32-14.357-32-32V53.333c0-17.643,14.357-32,32-32h213.333
		c5.899,0,10.667-4.779,10.667-10.667S272.565,0,266.667,0H53.333C23.925,0,0,23.925,0,53.333V352
		c0,29.408,23.925,53.333,53.333,53.333h117.333v47.627l-27.253,18.165c-2.965,1.984-4.747,5.312-4.747,8.875v10.667
		c0,11.765,9.568,21.333,21.333,21.333h192c11.765,0,21.333-9.568,21.333-21.333V480c0-3.563-1.781-6.891-4.747-8.875
		l-27.253-18.165v-15.627c0-5.899-4.768-10.667-10.667-10.667c-5.899,0-10.667,4.768-10.667,10.667v21.333
		c0,3.563,1.781,6.891,4.747,8.875L352,485.707v4.96H160v-4.96l27.253-18.165c2.965-1.984,4.747-5.312,4.747-8.875v-53.333h266.667
		C488.075,405.333,512,381.408,512,352v-53.333C512,292.768,507.232,288,501.333,288z"/>
	<path style="fill:#474C54;" d="M245.333,117.333c-5.899,0-10.667,4.779-10.667,10.667s4.768,10.667,10.667,10.667h70.251
		l50.208,50.208c4.171,4.171,10.912,4.171,15.083,0c4.171-4.171,4.171-10.912,0-15.083l-50.208-50.208V21.867
		c53.824,5.365,96,50.923,96,106.133c0,58.816-47.851,106.667-106.667,106.667S213.333,186.816,213.333,128
		c0-5.888-4.768-10.667-10.667-10.667S192,122.112,192,128c0,70.581,57.419,128,128,128s128-57.419,128-128S390.581,0,320,0
		c-5.899,0-10.667,4.779-10.667,10.667v106.667H245.333z"/>
	<path style="fill:#474C54;" d="M245.333,85.333C245.333,91.221,250.101,96,256,96c5.899,0,10.667-4.779,10.667-10.667v-32
		c0-5.888-4.768-10.667-10.667-10.667h-96c-5.899,0-10.667,4.779-10.667,10.667S154.101,64,160,64h85.333V85.333z"/>
	<path style="fill:#474C54;" d="M85.333,128h21.333c11.765,0,21.333-9.568,21.333-21.333V64c0-11.765-9.568-21.333-21.333-21.333
		H85.333C73.568,42.667,64,52.235,64,64v42.667C64,118.432,73.568,128,85.333,128z M85.333,64h21.333v42.667l-21.333,0.011V64z"/>
	<path style="fill:#474C54;" d="M74.667,170.667h42.667c5.899,0,10.667-4.779,10.667-10.667s-4.768-10.667-10.667-10.667H74.667
		C68.768,149.333,64,154.112,64,160S68.768,170.667,74.667,170.667z"/>
	<path style="fill:#474C54;" d="M160,192H74.667C68.768,192,64,196.779,64,202.667s4.768,10.667,10.667,10.667H160
		c5.899,0,10.667-4.779,10.667-10.667S165.899,192,160,192z"/>
	<path style="fill:#474C54;" d="M160,234.667H74.667c-5.899,0-10.667,4.779-10.667,10.667S68.768,256,74.667,256H160
		c5.899,0,10.667-4.779,10.667-10.667S165.899,234.667,160,234.667z"/>
</g>
<g>
</g>
<g>
</g>
<g>
</g>
<g>
</g>
<g>
</g>
<g>
</g>
<g>
</g>
<g>
</g>
<g>
</g>
<g>
</g>
<g>
</g>
<g>
</g>
<g>
</g>
<g>
</g>
<g>
</g>
</svg>
