<svg id="Icons" height="512" viewBox="0 0 60 60" width="512" xmlns="http://www.w3.org/2000/svg"><path d="m38 39v12.65a2.348 2.348 0 0 1 -4.56.79l-4.44-12.43z" fill="#d35a6d"/><path d="m35 39v3c0 3.314 3.582 6 8 6s8-2.686 8-6v-3z" fill="#af4459"/><path d="m59 34a6.009 6.009 0 0 1 -6 6h-23.57a10.023 10.023 0 0 0 -4.69 1.07 8 8 0 0 1 -11.68-6.07h-6.06a6.009 6.009 0 0 1 -6-6 23 23 0 0 1 23-23h7a28.005 28.005 0 0 1 28 28z" fill="#f97285"/><path d="m47 40v1c0 1.058-1.519 3-4 3s-4-1.942-4-3v-1z" fill="#d35a6d"/><g fill="#f1f2f5"><circle cx="9" cy="25" r="3"/><circle cx="16" cy="16" r="3"/><circle cx="28" cy="16" r="3"/><circle cx="39" cy="16" r="3"/><circle cx="50" cy="28" r="3"/><circle cx="38" cy="33" r="3"/><circle cx="24" cy="34" r="3"/></g><path d="m7 36h2a1 1 0 0 0 0-2h-2a5.009 5.009 0 0 1 -5-5 22.025 22.025 0 0 1 22-22h7a27.03 27.03 0 0 1 27 27 5.006 5.006 0 0 1 -5 5h-23.567a10.883 10.883 0 0 0 -5.159 1.187 6.911 6.911 0 0 1 -3.274.813 7.017 7.017 0 0 1 -6.948-6.126 7.317 7.317 0 0 1 -.009-1.689 7.011 7.011 0 0 1 9.086-5.86 4.907 4.907 0 0 0 4.915-1.264 6.922 6.922 0 0 1 4.956-2.061 7.022 7.022 0 0 1 5.251 2.373 1 1 0 0 0 1.5-1.326 9.027 9.027 0 0 0 -6.751-3.047 8.907 8.907 0 0 0 -6.376 2.652 2.893 2.893 0 0 1 -2.888.767 9.009 9.009 0 0 0 -11.68 7.547 9.384 9.384 0 0 0 .011 2.161 9 9 0 0 0 13.144 6.825 8.368 8.368 0 0 1 3.1-.9l4.189 11.728a3.348 3.348 0 0 0 6.5-1.13v-3.389a11.048 11.048 0 0 0 4 .739c4.963 0 9-3.141 9-7v-1h1a7.009 7.009 0 0 0 7-7 29.033 29.033 0 0 0 -29-29h-7a24.028 24.028 0 0 0 -24 24 7.009 7.009 0 0 0 7 7zm39 5a3.25 3.25 0 0 1 -6 0zm-9 10.65a1.348 1.348 0 0 1 -2.618.454l-3.967-11.104h3.585v1a6.434 6.434 0 0 0 3 5.2zm13-9.65c0 2.757-3.141 5-7 5s-7-2.243-7-5v-1h2c0 1.631 1.948 4 5 4s5-2.369 5-4h2z" fill="#373737"/><path d="m9 21a4 4 0 1 0 4 4 3.96 3.96 0 0 0 -.845-2.43l2.261-2.9a3.978 3.978 0 0 0 5.442-2.67h4.284a3.981 3.981 0 0 0 7.716 0h3.284a4 4 0 0 0 3.858 3 3.954 3.954 0 0 0 1.863-.482l5.79 6.3a3.668 3.668 0 0 0 -.6 2.735l-4.877 2.047a3.979 3.979 0 0 0 -7.1 1.679l-6.3.456a3.977 3.977 0 1 0 .153 1.994l6.3-.456a3.989 3.989 0 0 0 7.771-1.273 3.936 3.936 0 0 0 -.056-.557l4.88-2.039a4.012 4.012 0 1 0 1.313-5.922l-5.79-6.3a3.991 3.991 0 1 0 -7.205-3.182h-3.284a3.981 3.981 0 0 0 -7.716 0h-4.284a3.989 3.989 0 1 0 -7.013 3.43l-2.261 2.9a3.984 3.984 0 0 0 -1.584-.33zm15 15a2 2 0 1 1 2-2 2 2 0 0 1 -2 2zm14-1a2 2 0 1 1 2-2 2 2 0 0 1 -2 2zm-29-8a2 2 0 1 1 2-2 2 2 0 0 1 -2 2zm43 1a2 2 0 0 1 -3.846.765 2 2 0 1 1 3.846-.765zm-13-14a2 2 0 1 1 -2 2 2 2 0 0 1 2-2zm-11 0a2 2 0 1 1 -2 2 2 2 0 0 1 2-2zm-12 0a2 2 0 1 1 -2 2 2 2 0 0 1 2-2z" fill="#373737"/></svg>