<svg height="512pt" viewBox="-38 0 512 512" width="512pt" xmlns="http://www.w3.org/2000/svg"><path d="m349.902344 25.601562v409.597657c-.03125 9.414062-7.652344 17.039062-17.066406 17.066406h-307.203126c-9.414062-.027344-17.039062-7.652344-17.066406-17.066406v-341.332031l85.335938-85.332032h238.933594c9.414062.027344 17.035156 7.652344 17.066406 17.066406zm0 0" fill="#e5e8eb" fill-rule="evenodd"/><path d="m93.902344 8.535156v68.265625c-.03125 9.414063-7.652344 17.039063-17.066406 17.066407h-68.269532zm0 0" fill="#6692aa" fill-rule="evenodd"/><path d="m392.566406 385.40625v109.527344c-.003906 3.0625-1.652344 5.886718-4.316406 7.402344-2.664062 1.511718-5.933594 1.480468-8.566406-.082032l-25.429688-15.257812c-2.675781-1.621094-6.03125-1.621094-8.707031 0l-25.417969 15.242187c-2.632812 1.566407-5.902344 1.597657-8.566406.089844-2.667969-1.511719-4.316406-4.332031-4.328125-7.394531v-109.527344zm0 0" fill="#d9535f" fill-rule="evenodd"/><path d="m420.625 340.882812-2.730469 3.230469c-3.476562 4.039063-5.570312 9.078125-5.972656 14.390625l-.34375 4.265625c-.921875 10.804688-8.527344 19.863281-19.011719 22.636719-1.398437.359375-2.824218.589844-4.265625.683594l-4.265625.34375c-5.308594.460937-10.34375 2.546875-14.421875 5.972656l-3.242187 2.804688c-9.484375 8.09375-23.441406 8.09375-32.921875 0l-3.242188-2.804688c-4.078125-3.425781-9.117187-5.511719-14.421875-5.972656l-4.265625-.34375c-1.441406-.09375-2.871093-.324219-4.269531-.683594-10.488281-2.769531-18.101562-11.835938-19.019531-22.644531l-.339844-4.269531c-.40625-5.308594-2.5-10.351563-5.976563-14.386719l-2.730468-3.234375c-8.097656-9.523438-8.097656-23.515625 0-33.039063l2.730468-3.234375c3.480469-4.039062 5.570313-9.082031 5.976563-14.394531l.339844-4.269531c1.035156-12.402344 10.867187-22.253906 23.269531-23.3125l4.265625-.339844c5.324219-.449219 10.371094-2.5625 14.421875-6.042969l3.242188-2.730469c9.496093-8.054687 23.425781-8.054687 32.921874 0l3.246094 2.730469c4.050782 3.480469 9.097656 5.59375 14.417969 6.042969l4.269531.339844c12.414063 1.054687 22.257813 10.914062 23.285156 23.332031l.34375 4.265625c.402344 5.3125 2.496094 10.359375 5.972657 14.394531l2.730469 3.234375c8.09375 9.523438 8.097656 23.507813.007812 33.035156zm0 0" fill="#eb6371" fill-rule="evenodd"/><g fill="#232323"><path d="m25.632812 460.800781h273.066407v34.132813c0 9.425781 7.644531 17.066406 17.066406 17.066406 3.082031 0 6.105469-.839844 8.738281-2.433594l25.398438-15.246094 25.394531 15.222657c5.265625 3.136719 11.808594 3.210937 17.144531.191406 5.335938-3.019531 8.640625-8.671875 8.660156-14.800781v-103.738282c10.742188-5.300781 17.941407-15.820312 18.996094-27.753906l.339844-4.265625c.269531-3.539062 1.664062-6.898437 3.984375-9.582031l2.730469-3.234375c10.832031-12.683594 10.832031-31.359375 0-44.039063l-2.832032-3.363281c-2.269531-2.65625-3.632812-5.96875-3.890624-9.457031l-.34375-4.265625c-1.304688-16.617187-14.492188-29.824219-31.109376-31.15625l-4.269531-.339844c-3.554687-.300781-6.917969-1.726562-9.605469-4.070312l-3.203124-2.6875c-5.125-4.246094-11.40625-6.851563-18.03125-7.484375-1.210938-.6875-2.574219-1.054688-3.964844-1.074219-8.046875-.011719-15.832032 2.847656-21.957032 8.0625l-3.292968 2.765625c-2.679688 2.328125-6.03125 3.746094-9.566406 4.046875l-4.269532.339844c-16.625 1.359375-29.804687 14.589843-31.101562 31.222656l-.332032 4.265625c-.269531 3.554688-1.664062 6.925781-3.988281 9.628906l-2.71875 3.222656c-10.824219 12.835938-10.824219 31.597657 0 44.433594l2.832031 3.355469c2.265626 2.65625 3.628907 5.96875 3.890626 9.453125l.195312 2.382812.128906 1.652344v.265625c0 .394531.144532.769531.195313 1.167969.144531 1.121094.300781 2.238281.546875 3.320312.246094 1.085938.582031 2.144532.921875 3.199219.121093.351563.222656.71875.359375 1.066407.453125 1.238281.976562 2.445312 1.578125 3.621093l.109375.210938c3.347656 6.523437 8.699218 11.800781 15.265625 15.054687v52.574219h-273.066407c-4.710937 0-8.53125-3.820313-8.53125-8.535156v-238.933594c0-4.710937-3.820312-8.53125-8.535156-8.53125-4.710937 0-8.5312498 3.820313-8.5312498 8.53125v238.933594c0 14.140625 11.4609378 25.601562 25.5976558 25.601562zm333.074219 18.925781c-2.652343-1.617187-5.699219-2.46875-8.804687-2.464843-3.078125-.015625-6.097656.824219-8.722656 2.421875l-25.414063 15.25v-99.839844c1.023437.148438 2.027344.390625 3.003906.726562.496094.160157 1.015625.210938 1.503907.417969 1.535156.644531 2.972656 1.503907 4.265624 2.558594l3.304688 2.867187c12.675781 10.894532 31.417969 10.875 44.074219-.050781l3.089843-2.6875c1.34375-1.105469 2.839844-2.011719 4.445313-2.6875.496094-.167969 1.003906-.3125 1.515625-.429687 1-.332032 2.023438-.570313 3.066406-.714844v99.839844zm5.359375-217.003906c5.410156 4.664063 12.160156 7.484375 19.277344 8.066406l4.265625.339844c8.269531.664063 14.832031 7.242188 15.472656 15.515625l.347657 4.265625c.542968 7.070313 3.3125 13.789063 7.910156 19.191406l2.757812 3.269532c5.410156 6.328125 5.410156 15.652344 0 21.980468l-2.628906 3.125c-4.671875 5.417969-7.492188 12.183594-8.054688 19.316407l-.34375 4.214843c-.578124 7.203126-5.609374 13.265626-12.578124 15.164063-.945313.242187-1.910157.394531-2.882813.453125l-4.265625.34375c-7.125.601562-13.882812 3.40625-19.335938 8.027344l-3.183593 2.765625c-6.253907 5.390625-15.507813 5.410156-21.785157.050781l-3.414062-2.945312c-5.421875-4.554688-12.125-7.3125-19.183594-7.898438l-4.453125-.351562c-.628906-.058594-1.253906-.160157-1.871093-.308594-.234376-.117188-.476563-.226563-.722657-.324219-6.976562-1.863281-12.046875-7.886719-12.691406-15.078125l-.195313-2.398438-.144531-1.933593c-.558593-7.085938-3.347656-13.8125-7.960937-19.21875l-2.75-3.261719c-5.417969-6.21875-5.417969-15.484375 0-21.707031l2.628906-3.125c4.667969-5.421875 7.492188-12.191407 8.054688-19.328125l.351562-4.265625c.636719-8.269531 7.1875-14.847657 15.453125-15.519531l4.265625-.34375c7.097656-.574219 13.828125-3.382813 19.226562-8.019532l3.285157-2.765625c6.316406-5.363281 15.589843-5.363281 21.90625 0zm0 0"/><path d="m8.566406 162.132812c4.714844 0 8.535156-3.820312 8.535156-8.53125v-51.203124h59.734376c14.136718 0 25.597656-11.460938 25.597656-25.597657v-59.734375h230.402344c4.710937 0 8.53125 3.820313 8.53125 8.535156v179.199219c0 4.710938 3.820312 8.53125 8.535156 8.53125 4.710937 0 8.53125-3.820312 8.53125-8.53125v-179.199219c0-14.140624-11.460938-25.601562-25.597656-25.601562h-238.933594c-.179688 0-.335938.09375-.503906.101562-1.042969.101563-2.0625.355469-3.03125.75-.925782.417969-1.773438.996094-2.5 1.707032l-85.332032 85.335937c-.714844.722657-1.292968 1.570313-1.707031 2.5-.121094.253907-.1875.527344-.28125.792969-.246094.714844-.394531 1.457031-.445313 2.210938 0 .1875-.101562.347656-.101562.527343v59.734375c.03125 4.703125 3.863281 8.492188 8.566406 8.472656zm76.800782-133v47.667969c0 4.710938-3.820313 8.53125-8.53125 8.53125h-47.667969zm0 0"/><path d="m298.699219 145.066406h-238.933594c-4.710937 0-8.53125 3.820313-8.53125 8.535156 0 4.710938 3.820313 8.53125 8.53125 8.53125h238.933594c4.714843 0 8.535156-3.820312 8.535156-8.53125 0-4.714843-3.820313-8.535156-8.535156-8.535156zm0 0" fill-rule="evenodd"/><path d="m230.433594 324.265625c0-4.710937-3.820313-8.53125-8.53125-8.53125h-162.136719c-4.710937 0-8.53125 3.820313-8.53125 8.53125 0 4.714844 3.820313 8.535156 8.53125 8.535156h162.136719c4.710937 0 8.53125-3.820312 8.53125-8.535156zm0 0" fill-rule="evenodd"/><path d="m307.234375 196.265625c0-4.710937-3.820313-8.53125-8.535156-8.53125h-42.664063c-4.714844 0-8.535156 3.820313-8.535156 8.53125 0 4.714844 3.820312 8.535156 8.535156 8.535156h42.664063c4.714843 0 8.535156-3.820312 8.535156-8.535156zm0 0" fill-rule="evenodd"/><path d="m59.765625 204.800781h153.601563c4.714843 0 8.535156-3.820312 8.535156-8.535156 0-4.710937-3.820313-8.53125-8.535156-8.53125h-153.601563c-4.710937 0-8.53125 3.820313-8.53125 8.53125 0 4.714844 3.820313 8.535156 8.53125 8.535156zm0 0" fill-rule="evenodd"/><path d="m153.632812 358.398438c-4.710937 0-8.53125 3.820312-8.53125 8.535156 0 4.710937 3.820313 8.53125 8.53125 8.53125h8.535157c4.710937 0 8.53125-3.820313 8.53125-8.53125 0-4.714844-3.820313-8.535156-8.53125-8.535156zm0 0" fill-rule="evenodd"/><path d="m59.765625 358.398438c-4.710937 0-8.53125 3.820312-8.53125 8.535156 0 4.710937 3.820313 8.53125 8.53125 8.53125h51.203125c4.710938 0 8.53125-3.820313 8.53125-8.53125 0-4.714844-3.820312-8.535156-8.53125-8.535156zm0 0" fill-rule="evenodd"/><path d="m59.765625 247.464844h42.667969c4.714844 0 8.535156-3.820313 8.535156-8.53125 0-4.714844-3.820312-8.535156-8.535156-8.535156h-42.667969c-4.710937 0-8.53125 3.820312-8.53125 8.535156 0 4.710937 3.820313 8.53125 8.53125 8.53125zm0 0" fill-rule="evenodd"/><path d="m273.101562 238.933594c0-4.714844-3.820312-8.535156-8.535156-8.535156h-119.464844c-4.714843 0-8.535156 3.820312-8.535156 8.535156 0 4.710937 3.820313 8.53125 8.535156 8.53125h119.464844c4.714844 0 8.535156-3.820313 8.535156-8.53125zm0 0" fill-rule="evenodd"/><path d="m59.765625 290.132812h25.601563c4.714843 0 8.535156-3.820312 8.535156-8.53125 0-4.714843-3.820313-8.535156-8.535156-8.535156h-25.601563c-4.710937 0-8.53125 3.820313-8.53125 8.535156 0 4.710938 3.820313 8.53125 8.53125 8.53125zm0 0" fill-rule="evenodd"/><path d="m238.96875 281.601562c0-4.714843-3.820312-8.535156-8.535156-8.535156h-102.398438c-4.714844 0-8.535156 3.820313-8.535156 8.535156 0 4.710938 3.820312 8.53125 8.535156 8.53125h102.398438c4.714844 0 8.535156-3.820312 8.535156-8.53125zm0 0" fill-rule="evenodd"/></g></svg>