<svg id="Layer_1" height="512" viewBox="0 0 512 512" width="512" xmlns="http://www.w3.org/2000/svg" data-name="Layer 1"><path d="m360.85 109h-11.15l-270.7 345.73v9.7a31.411 31.411 0 0 0 31.39 31.57h250.46a31.215 31.215 0 0 0 31.15-31.57v-324.09a31.025 31.025 0 0 0 -31.15-31.34z" fill="#a9b6d8"/><path d="m281.01 16h-221.31a31.682 31.682 0 0 0 -31.7 31.57v380.6a31.911 31.911 0 0 0 31.7 31.83h262.52a31.974 31.974 0 0 0 31.78-31.83v-341.92z" fill="#d2e0f7"/><path d="m353.7 86.09v.16h-72.69v-70.25z" fill="#a9b6d8"/><path d="m455.945 239.89a28.229 28.229 0 0 0 -28.092 28.2l-.093 27.91h.06l56.055-.15.125-27.91v-.04a28.074 28.074 0 0 0 -28.055-28.01z" fill="#53d8d8"/><path d="m483.81 295.63-.32 144.35-28.02-.03v-.01l.37-144.35z" fill="#c16378"/><path d="m427.44 439.91 27.95 56.09 28.1-56.02z" fill="#c79a83"/><path d="m455.84 295.59-.37 144.35v.01l-28.03-.04.32-144.35h.06z" fill="#e87187"/><path d="m176.09 87.51a90.564 90.564 0 1 1 -86.73 64.24l.21-.62 17.8 5.94 68.99 22.99-23.68-71.04-5.59-16.76a90.1 90.1 0 0 1 29-4.75z" fill="#4ca987"/><path d="m152.68 109.02 23.68 71.04-68.99-22.99-17.8-5.94-16.21-5.4a68.677 68.677 0 0 1 68.66-68.67l5.07 15.2z" fill="#f3ce7d"/><path d="m58 428.17v-380.6a31.682 31.682 0 0 1 31.7-31.57h-30a31.682 31.682 0 0 0 -31.7 31.57v380.6a31.911 31.911 0 0 0 31.7 31.83h30a31.911 31.911 0 0 1 -31.7-31.83z" fill="#acb9cc"/><g fill="#284268"><path d="m455.887 234h-.044a34.013 34.013 0 0 0 -34.023 33.916l-.378 172.006a5.939 5.939 0 0 0 .635 2.672l27.951 56.09a6 6 0 0 0 5.358 3.316h.008a6 6 0 0 0 5.363-3.31l28.1-56.02a5.962 5.962 0 0 0 .641-2.675l.374-171.983a34 34 0 0 0 -33.985-34.012zm-22.141 67.566 16.079.021-.343 132.348-16.026-.021zm21.665 181.016-18.269-36.663 36.633.048zm22.093-48.61-16.022-.021.343-132.348 15.967.021zm.314-144.334-44.046-.065.048-21.633a22 22 0 0 1 22.023-21.94h.028a21.925 21.925 0 0 1 21.994 21.96z"/><path d="m360.849 103h-.849v-16.91a6.151 6.151 0 0 0 -1.983-4.319l-72.766-70.09a6.183 6.183 0 0 0 -4.239-1.681h-221.312a37.727 37.727 0 0 0 -37.7 37.568v380.6a37.954 37.954 0 0 0 37.7 37.832h13.151a37.456 37.456 0 0 0 37.534 36h250.464a37.258 37.258 0 0 0 37.151-37.568v-324.091a37.063 37.063 0 0 0 -37.151-37.341zm-73.849-72.88 52.005 49.88h-52.005zm-227.3 423.88a25.94 25.94 0 0 1 -25.7-25.833v-380.599a25.712 25.712 0 0 1 25.7-25.568h215.3v64.253a5.8 5.8 0 0 0 6.012 5.747h66.988v336.167a26.08 26.08 0 0 1 -25.865 25.833zm326.3 10.432a25.244 25.244 0 0 1 -25.151 25.568h-250.464a25.732 25.732 0 0 1 -25.534-24h237.284a38.093 38.093 0 0 0 37.865-37.833v-313.167h.849a25.051 25.051 0 0 1 25.151 25.341z"/><path d="m92.66 312a6 6 0 1 0 0 12h124.957a6 6 0 0 0 0-12z"/><path d="m289.233 350h-196.573a6 6 0 1 0 0 12h196.573a6 6 0 0 0 0-12z"/><path d="m261.023 387h-168.363a6 6 0 1 0 0 12h168.363a6 6 0 0 0 0-12z"/><path d="m176.094 274.8a96.647 96.647 0 1 0 -25.15-189.961l-3.227-9.683a6 6 0 0 0 -5.693-4.1 74.674 74.674 0 0 0 -74.663 74.673 6 6 0 0 0 4.1 5.693l10.793 3.6a96.647 96.647 0 0 0 93.84 119.778zm0-181.294a84.625 84.625 0 1 1 -82.415 65.317l80.785 26.923a6 6 0 0 0 7.589-7.59l-27.308-81.914a84.511 84.511 0 0 1 21.349-2.734zm-96.594 47.946a62.691 62.691 0 0 1 58.248-58.252l29.126 87.372z"/><path d="m54 40.583a6 6 0 0 0 -6 6v4.3a6 6 0 0 0 12 0v-4.3a6 6 0 0 0 -6-6z"/><path d="m54 65.878a6 6 0 0 0 -6 6v72a6 6 0 0 0 12 0v-72a6 6 0 0 0 -6-6z"/></g></svg>