<svg id="Layer_1" height="512" viewBox="0 0 512 512" width="512" xmlns="http://www.w3.org/2000/svg" data-name="Layer 1"><path d="m478.72 147.62a9.7 9.7 0 1 1 7.57 3.65 9.625 9.625 0 0 1 -7.57-3.65z" fill="#6d7486"/><path d="m140.36 293.85-.19 196.39h-39.85v-139.55l33.47-50.41a22.113 22.113 0 0 1 6.57-6.43z" fill="#e87187"/><path d="m299.58 288.96v201.28h-39.85v-199.86h31.73a22.96 22.96 0 0 0 8.1-1.47z" fill="#e87187"/><path d="m180.03 290.38h39.85v199.86h-39.85z" fill="#e87187"/><path d="m419.13 195.14v295.1h-39.85v-263.33l-.02-.03 39.85-31.76z" fill="#a5e2fb"/><path d="m180.03 290.38v199.86h-39.86l.19-196.39a22.073 22.073 0 0 1 11.91-3.47z" fill="#a5e2fb"/><path d="m379.28 226.91v263.33h-39.85v-231.55l-.03-.04 39.86-31.77z" fill="#e87187"/><path d="m458.98 163.36v326.88h-39.85v-295.1l-.02-.02z" fill="#e87187"/><path d="m219.88 290.38h39.85v199.86h-39.85z" fill="#a5e2fb"/><path d="m339.43 258.69v231.55h-39.85v-201.28l-.02-.05a23 23 0 0 0 6.36-3.58l33.48-26.68z" fill="#a5e2fb"/><path d="m60.47 410.7v79.54h-44.47v-12.57z" fill="#e87187"/><path d="m100.32 350.69v139.55h-39.85v-79.54-.01z" fill="#a5e2fb"/><path d="m401.72 45.71-9.09 57.25-11.06-11.85-38.99 36.09-27.65-28.14 39.66-36.86-10.87-11.66z" fill="#5fcda4"/><path d="m257.56 238.72a63.338 63.338 0 0 1 -44.82 18.49v-21.04a42.182 42.182 0 0 0 29.88-12.33z" fill="#edb740"/><path d="m257.56 149.44-14.94 14.88a42.182 42.182 0 0 0 -29.88-12.33v-21.04a63.338 63.338 0 0 1 44.82 18.49z" fill="#eadf53"/><path d="m276.13 194.08h-21.13a41.854 41.854 0 0 0 -12.38-29.76l14.94-14.88a62.751 62.751 0 0 1 18.57 44.64z" fill="#edb740"/><path d="m276.13 194.08q0 .99-.03 1.98a62.776 62.776 0 0 1 -18.54 42.66l-14.94-14.88a41.871 41.871 0 0 0 12.38-29.76z" fill="#eadf53"/><path d="m212.74 130.95v21.04a42.182 42.182 0 0 0 -29.88 12.33l-14.94-14.88a63.338 63.338 0 0 1 44.82-18.49z" fill="#edb740"/><path d="m212.74 236.17v21.04a63.338 63.338 0 0 1 -44.82-18.49l14.94-14.88a42.182 42.182 0 0 0 29.88 12.33z" fill="#eadf53"/><path d="m167.92 149.44 14.94 14.88a41.854 41.854 0 0 0 -12.38 29.76h-21.13a62.751 62.751 0 0 1 18.57-44.64z" fill="#eadf53"/><path d="m170.48 194.08a41.871 41.871 0 0 0 12.38 29.76l-14.94 14.88a62.751 62.751 0 0 1 -18.57-44.64z" fill="#edb740"/><path d="m242.79 164.151a42.611 42.611 0 1 1 -30.05-12.4 42.093 42.093 0 0 1 30.05 12.4z" fill="#d8a43d"/><path d="m212.69 224.009a42.3 42.3 0 0 1 15.05-69.538 42.645 42.645 0 0 0 -45.05 9.68 42.329 42.329 0 0 0 30.05 72.258 42.534 42.534 0 0 0 15-2.72 42.479 42.479 0 0 1 -15.05-9.68z" fill="#ad843a"/><path d="m16 477.67v12.33h26v-51.485z" fill="#a55b6b"/><g fill="#324d6d"><path d="m371.3 166.779a5.979 5.979 0 0 0 3.98-1.511l4.389-3.893a6 6 0 0 0 -7.963-8.977l-4.389 3.893a6 6 0 0 0 3.983 10.488z"/><path d="m212.739 263.213a69.272 69.272 0 0 0 69.361-66.969q.035-1.078.034-2.164a69.391 69.391 0 1 0 -69.391 69.133zm-6-12.314a57.252 57.252 0 0 1 -30.072-12.426l6.477-6.45a48.085 48.085 0 0 0 23.6 9.76zm12 0v-9.114a48.089 48.089 0 0 0 23.6-9.76l6.5 6.472a57.078 57.078 0 0 1 -30.1 12.403zm38.6-20.872-6.5-6.474a47.759 47.759 0 0 0 9.778-23.471h9.19a56.516 56.516 0 0 1 -12.473 29.943zm-.016-71.875a56.74 56.74 0 0 1 12.494 29.93h-9.2a47.758 47.758 0 0 0 -9.778-23.472zm-38.579-20.89a57.245 57.245 0 0 1 30.072 12.426l-6.476 6.45a48.1 48.1 0 0 0 -23.6-9.76zm-12 0v9.116a48.1 48.1 0 0 0 -23.595 9.76l-6.476-6.45a57.245 57.245 0 0 1 30.066-12.428zm6 20.731a36.089 36.089 0 1 1 -36.26 36.089 36.215 36.215 0 0 1 36.255-36.091zm-44.578.159 6.484 6.458a47.757 47.757 0 0 0 -9.777 23.472h-9.2a56.735 56.735 0 0 1 12.488-29.932zm-3.293 41.93a47.757 47.757 0 0 0 9.777 23.471l-6.484 6.458a56.735 56.735 0 0 1 -12.494-29.929z"/><path d="m212.739 200.2a2.186 2.186 0 1 1 0 4.352 2.453 2.453 0 0 1 -1.951-.92 6 6 0 0 0 -9.446 7.4 14.316 14.316 0 0 0 5.5 4.266 6 6 0 0 0 11.793 0 14.135 14.135 0 0 0 -5.9-27.093 2.186 2.186 0 1 1 0-4.352 2.454 2.454 0 0 1 1.952.92 6 6 0 1 0 9.446-7.4 14.293 14.293 0 0 0 -5.92-4.44 6 6 0 0 0 -11.872.415 14.13 14.13 0 0 0 6.394 26.857z"/><path d="m229.209 75.778a5.975 5.975 0 0 0 3.815-1.371l4.526-3.734a6 6 0 1 0 -7.635-9.257l-4.527 3.734a6 6 0 0 0 3.821 10.628z"/><path d="m170.482 124.223a5.975 5.975 0 0 0 3.815-1.371l46.455-38.322a6 6 0 0 0 -7.636-9.257l-46.455 38.327a6 6 0 0 0 3.821 10.628z"/><path d="m293.722 68.917a5.976 5.976 0 0 0 3.825-1.38l5.934-4.918a6 6 0 0 0 -7.657-9.239l-5.934 4.92a6 6 0 0 0 3.832 10.619z"/><path d="m246.066 108.409a5.974 5.974 0 0 0 3.825-1.38l34.9-28.925a6 6 0 1 0 -7.657-9.239l-34.9 28.925a6 6 0 0 0 3.832 10.619z"/><path d="m338.3 131.4a6 6 0 0 0 8.355.2l34.606-32.03 6.986 7.486a6 6 0 0 0 10.313-3.156l9.083-57.257a6 6 0 0 0 -6.425-6.919l-58 4.839a6 6 0 0 0 -3.887 10.072l6.775 7.26-35.257 32.773a6 6 0 0 0 -.195 8.6zm20.378-64.811a6 6 0 0 0 .3-8.488l-2.437-2.611 38.049-3.174-5.958 37.562-2.676-2.868a6 6 0 0 0 -8.463-.31l-34.715 32.14-19.241-19.583z"/><path d="m327.47 147.457a5.975 5.975 0 0 0 4.074-1.6l4.2-3.89a6 6 0 0 0 -8.152-8.807l-4.2 3.891a6 6 0 0 0 4.077 10.4z"/><path d="m312.96 146.711-4.2 3.891a6 6 0 1 0 8.151 8.806l4.2-3.89a6 6 0 0 0 -8.151-8.807z"/><path d="m315.385 218.245a5.986 5.986 0 0 0 4.084-1.605l44.016-40.911a6 6 0 1 0 -8.17-8.789l-44.015 40.91a6 6 0 0 0 4.086 10.4z"/><path d="m297.58 110.241a6 6 0 1 0 8.151 8.806l4.2-3.89a6 6 0 0 0 -8.152-8.807z"/><path d="m282.616 132.268a6 6 0 0 0 8.479.328l4.2-3.891a6 6 0 0 0 -8.151-8.807l-4.2 3.891a6 6 0 0 0 -.328 8.479z"/><path d="m478.7 155.308a15.791 15.791 0 1 0 -7.49-9.375l-169.034 134.7a17.261 17.261 0 0 1 -10.719 3.743h-139.187a28.113 28.113 0 0 0 -23.481 12.578l-106.789 160.835v-26.237h7.547a6 6 0 0 0 0-12h-7.547v-15.446h.774a6 6 0 0 0 0-12h-.774v-15.445h7.547a6 6 0 0 0 0-12h-7.547v-15.446h.774a6 6 0 0 0 0-12h-.774v-15.446h7.547a6 6 0 0 0 0-12h-7.547v-15.446h.774a6 6 0 0 0 0-12h-.774v-15.446h7.547a6 6 0 0 0 0-12h-7.547v-15.446h.774a6 6 0 1 0 0-12h-.774v-15.446h7.547a6 6 0 0 0 0-12h-7.547v-15.446h.774a6 6 0 0 0 0-12h-.774v-15.446h7.547a6 6 0 0 0 0-12h-7.547v-15.446h.774a6 6 0 1 0 0-12h-.774v-15.447h7.547a6 6 0 0 0 0-12h-7.547v-15.445h.774a6 6 0 1 0 0-12h-.774v-15.446h7.547a6 6 0 0 0 0-12h-7.547v-13.549a6 6 0 1 0 -12 0v468.48a6 6 0 0 0 6 6h480a6 6 0 0 0 0-12h-31.018v-318zm7.587-17.482a3.724 3.724 0 1 1 -3.711 3.723 3.721 3.721 0 0 1 3.713-3.723zm-431.814 346.414h-32.473v-4.757l32.473-48.907zm39.851 0h-27.851v-71.74l27.851-41.945zm39.856 0h-27.856v-131.755l28.016-42.194zm39.845 0h-27.845l.172-186.748a16.251 16.251 0 0 1 5.918-1.113h21.755zm39.852 0h-27.852v-187.861h27.852zm39.85 0h-27.85v-187.861h27.85zm39.851 0h-27.851v-187.861h25.732c.709 0 1.415-.038 2.119-.09zm39.851 0h-27.851v-191.5a29.065 29.065 0 0 0 4.079-2.717l23.772-18.945zm39.851 0h-27.851v-222.727l27.851-22.194zm39.851 0h-27.851v-254.484l27.851-22.194zm39.851 0h-27.851v-286.24l27.851-22.2z"/></g></svg>