<svg id="Icons" height="512" viewBox="0 0 60 60" width="512" xmlns="http://www.w3.org/2000/svg"><path d="m26 19h8v9h-8z" fill="#c3def0"/><path d="m40 15a4 4 0 0 0 0-8h-2v8z" fill="#c3def0"/><path d="m20 15a4 4 0 0 1 0-8h2v8z" fill="#c3def0"/><rect fill="#e4f2ff" height="18" rx="2" width="20" x="20" y="2"/><circle cx="26" cy="8" fill="#427ec4" r="2"/><circle cx="34" cy="8" fill="#427ec4" r="2"/><path d="m52 29v-6.693a1.307 1.307 0 0 0 -1.666-1.256l-20.334 5.949-20.334-5.949a1.307 1.307 0 0 0 -1.666 1.256v6.693z" fill="#e4f2ff"/><rect fill="#599eff" height="32" rx="2" width="50" x="5" y="27"/><rect fill="#f1f2f5" height="8" rx="1" width="15" x="35" y="34"/><g fill="#373737"><path d="m7 60h46a3 3 0 0 0 3-3v-28a3 3 0 0 0 -3-3v-3.693a2.306 2.306 0 0 0 -2.946-2.216l-15.054 4.409v-3.5h3a3 3 0 0 0 3-3v-2.1a5.009 5.009 0 0 0 4-4.9v-10a1 1 0 0 0 -2 0v6.026a4.954 4.954 0 0 0 -2-.926v-2.1a3 3 0 0 0 -3-3h-16a3 3 0 0 0 -3 3v2.1a4.954 4.954 0 0 0 -2 .925v-6.025a1 1 0 0 0 -2 0v10a5.009 5.009 0 0 0 4 4.9v2.1a3 3 0 0 0 3 3h3v3.5l-15.06-4.41a2.305 2.305 0 0 0 -2.94 2.217v3.693a3 3 0 0 0 -3 3v4.947a1 1 0 0 0 2 0v-4.947a1 1 0 0 1 1-1h22v27a1 1 0 0 0 2 0v-27h22a1 1 0 0 1 1 1v28a1 1 0 0 1 -1 1h-46a1 1 0 0 1 -1-1v-18.77a1 1 0 0 0 -2 0v18.77a3 3 0 0 0 3 3zm43.61-37.987a.293.293 0 0 1 .268.05.3.3 0 0 1 .122.244v3.693h-14.019zm-7.61-11.013a3 3 0 0 1 -2 2.816v-5.632a3 3 0 0 1 2 2.816zm-26 0a3 3 0 0 1 2-2.816v5.632a3 3 0 0 1 -2-2.816zm4 7v-14a1 1 0 0 1 1-1h16a1 1 0 0 1 1 1v14a1 1 0 0 1 -1 1h-16a1 1 0 0 1 -1-1zm6 3h6v4.08l-3 .878-3-.878zm-18 1.307a.3.3 0 0 1 .122-.244.294.294 0 0 1 .262-.052l13.635 3.989h-14.019z"/><path d="m51 41v-6a2 2 0 0 0 -2-2h-13a2 2 0 0 0 -2 2v6a2 2 0 0 0 2 2h13a2 2 0 0 0 2-2zm-15-6h13v6h-13z"/><path d="m29 8a3 3 0 1 0 -3 3 3 3 0 0 0 3-3zm-4 0a1 1 0 1 1 1 1 1 1 0 0 1 -1-1z"/><path d="m34 11a3 3 0 1 0 -3-3 3 3 0 0 0 3 3zm0-4a1 1 0 1 1 -1 1 1 1 0 0 1 1-1z"/><path d="m48 47a1 1 0 0 0 -1-1h-9a1 1 0 0 0 0 2h9a1 1 0 0 0 1-1z"/><path d="m40 50a1 1 0 0 0 0 2h5a1 1 0 0 0 0-2z"/><path d="m27 16v-2a1 1 0 0 0 -2 0v2a1 1 0 0 0 2 0z"/><path d="m29 16a1 1 0 0 0 2 0v-2a1 1 0 0 0 -2 0z"/><path d="m34 13a1 1 0 0 0 -1 1v2a1 1 0 0 0 2 0v-2a1 1 0 0 0 -1-1z"/></g></svg>