<svg id="Icons" height="512" viewBox="0 0 60 60" width="512" xmlns="http://www.w3.org/2000/svg"><rect fill="#c5e0f4" height="58" rx="4" width="34" x="13" y="1"/><path d="m21 1h18a0 0 0 0 1 0 0v3a2 2 0 0 1 -2 2h-14a2 2 0 0 1 -2-2v-3a0 0 0 0 1 0 0z" fill="#4b4b59"/><circle cx="25" cy="48" fill="#4b4b59" r="3"/><circle cx="40" cy="48" fill="#4b4b59" r="3"/><path d="m50.98 20.31-2.37 15a2.009 2.009 0 0 1 -1.98 1.69h-24.63l-5.32-19h32.32a2 2 0 0 1 1.98 2.31z" fill="#bdc2cc"/><g fill="#373737"><path d="m17 7a1 1 0 0 0 1-1v-1a1 1 0 0 0 -2 0v1a1 1 0 0 0 1 1z"/><path d="m43 7a1 1 0 0 0 1-1v-1a1 1 0 0 0 -2 0v1a1 1 0 0 0 1 1z"/><path d="m36 56a1 1 0 0 0 0-2h-12a1 1 0 0 0 0 2z"/><path d="m9 13h3v7a1 1 0 0 0 2 0v-6.843a.986.986 0 0 1 .447.572l1.27 4.541 5.2 18.573-2.417 3.857a3.469 3.469 0 0 0 2.94 5.3h.116a3.959 3.959 0 0 0 -.556 2 4 4 0 0 0 8 0 3.959 3.959 0 0 0 -.556-2h8.112a3.959 3.959 0 0 0 -.556 2 4 4 0 0 0 8 0 3.959 3.959 0 0 0 -.556-2h2.556v9a3 3 0 0 1 -3 3h-26a3 3 0 0 1 -3-3v-29a1 1 0 0 0 -2 0v29a5.006 5.006 0 0 0 5 5h26a5.006 5.006 0 0 0 5-5v-9h1a1 1 0 0 0 0-2h-1v-6.34a3.012 3.012 0 0 0 1.6-2.194l2.37-15a3.005 3.005 0 0 0 -2.97-3.466h-1v-12a5.006 5.006 0 0 0 -5-5h-26a5.006 5.006 0 0 0 -5 5v6h-3a1 1 0 0 0 0 2zm22 6v4h-4v-4zm6 0v4h-4v-4zm6 0v4h-4v-4zm5.437 11h-3.437v-5h4.227zm-.813 5.146a1.009 1.009 0 0 1 -.994.854h-1.63v-4h3.121zm-8.624.854v-4h4v4zm-6 0v-4h4v4zm-6 0v-4h4v4zm-4.241 0-1.12-4h3.361v4zm8.241-6h-4v-5h4zm2-5h4v5h-4zm-8 5h-3.921l-1.4-5h5.321zm18 0h-4v-5h4zm-18-7h-5.882l-1.118-4h7zm2 25a2 2 0 1 1 -2-2 2 2 0 0 1 2 2zm15 0a2 2 0 1 1 -2-2 2 2 0 0 1 2 2zm-20.56-4a1.467 1.467 0 0 1 -1.24-2.238l2.354-3.762h23.446v6zm28.324-24.648a.983.983 0 0 1 .228.8l-.449 2.848h-4.543v-4h4a.993.993 0 0 1 .764.352zm-11.764-17.352v2a1 1 0 0 1 -1 1h-14a1 1 0 0 1 -1-1v-2zm-21 0h3v2a3 3 0 0 0 3 3h14a3 3 0 0 0 3-3v-2h3a3 3 0 0 1 3 3v12h-28.562l-1.065-3.809a3.011 3.011 0 0 0 -2.373-2.144v-6.047a3 3 0 0 1 3-3z"/></g></svg>