<svg id="icons" height="512" viewBox="0 0 60 60" width="512" xmlns="http://www.w3.org/2000/svg"><path d="m59 9v47a3 3 0 0 1 -3 3h-52a3 3 0 0 1 -3-3v-47l1-1h56z" fill="#e4f1ff"/><path d="m59 4v5h-58v-5a3 3 0 0 1 3-3h52a3 3 0 0 1 3 3z" fill="#6e7689"/><g fill="#373737"><path d="m56 0h-52a4 4 0 0 0 -4 4v9a1 1 0 0 0 2 0v-3h56v46a2 2 0 0 1 -2 2h-52a2 2 0 0 1 -2-2v-38a1 1 0 0 0 -2 0v38a4 4 0 0 0 4 4h52a4 4 0 0 0 4-4v-52a4 4 0 0 0 -4-4zm2 8h-56v-4a2 2 0 0 1 2-2h52a2 2 0 0 1 2 2z"/><path d="m6 4h-1a1 1 0 0 0 0 2h1a1 1 0 0 0 0-2z"/><path d="m11 4h-1a1 1 0 0 0 0 2h1a1 1 0 0 0 0-2z"/><path d="m16 4h-1a1 1 0 0 0 0 2h1a1 1 0 0 0 0-2z"/><path d="m55 4h-6a1 1 0 0 0 0 2h6a1 1 0 0 0 0-2z"/><path d="m10.381 38.031a1 1 0 0 0 -.72 1.218 20.989 20.989 0 0 0 41.271-3.9l1.361 1.361a1 1 0 0 0 1.414-1.414l-3-3a1 1 0 0 0 -1.414 0l-3 3a1 1 0 0 0 1.414 1.414l1.218-1.217a18.993 18.993 0 0 1 -37.325 3.258 1 1 0 0 0 -1.219-.72z"/><path d="m15.934 43.563a17 17 0 0 0 28.115 0 1 1 0 0 0 -1.649-1.126 15 15 0 0 1 -24.808 0 1 1 0 1 0 -1.654 1.125z"/><path d="m44.066 24.438a17 17 0 0 0 -28.115 0 1 1 0 0 0 1.649 1.125 15 15 0 0 1 24.808 0 1 1 0 0 0 1.654-1.125z"/><path d="m30 13a21.011 21.011 0 0 0 -20.932 19.654l-1.361-1.361a1 1 0 0 0 -1.414 1.414l3 3a1 1 0 0 0 1.414 0l3-3a1 1 0 0 0 -1.414-1.414l-1.218 1.217a18.993 18.993 0 0 1 37.325-3.261 1 1 0 0 0 1.938-.5 20.99 20.99 0 0 0 -20.338-15.749z"/><path d="m20.293 35.121a5.868 5.868 0 0 0 1.707-4.121 3 3 0 0 0 -6 0v1a1 1 0 0 0 2 0v-1a1 1 0 0 1 2 0 3.853 3.853 0 0 1 -1.121 2.707l-1.172 1.172a5.868 5.868 0 0 0 -1.707 4.121 1 1 0 0 0 1 1h4a1 1 0 0 0 0-2h-2.865a3.851 3.851 0 0 1 .986-1.707z"/><path d="m28 40a1 1 0 0 0 1-1v-1a1 1 0 0 0 0-2v-6.376a1.622 1.622 0 0 0 -3.074-.725l-3.27 6.549a1.762 1.762 0 0 0 1.575 2.552h2.769v1a1 1 0 0 0 1 1zm-3.383-4 2.383-4.775v4.775z"/><path d="m34.03 27.758-3 12a1 1 0 0 0 .728 1.212 1.017 1.017 0 0 0 .242.03 1 1 0 0 0 .969-.758l3-12a1 1 0 1 0 -1.94-.484z"/><path d="m39.713 39.958a1.023 1.023 0 0 0 .287.042 1 1 0 0 0 .958-.713l3-10a1 1 0 0 0 -.958-1.287h-4a1 1 0 0 0 0 2h2.656l-2.614 8.713a1 1 0 0 0 .671 1.245z"/></g></svg>