<svg height="512pt" viewBox="0 0 512 512.00003" width="512pt" xmlns="http://www.w3.org/2000/svg"><path d="m352 501.332031h-320c-11.78125 0-21.332031-9.550781-21.332031-21.332031v-384l85.332031-85.332031h256c11.78125 0 21.332031 9.550781 21.332031 21.332031v448c0 11.78125-9.550781 21.332031-21.332031 21.332031zm0 0" fill="#f1f2f2"/><path d="m96 10.667969v64c-.035156 11.765625-9.566406 21.296875-21.332031 21.332031h-64zm0 0" fill="#d0d7df"/><path d="m160 341.332031v21.335938c-.035156 11.765625-9.566406 21.296875-21.332031 21.332031h-64c-11.769531-.035156-21.300781-9.566406-21.335938-21.332031v-21.335938c.035157-11.765625 9.566407-21.296875 21.335938-21.332031h64c11.765625.035156 21.296875 9.566406 21.332031 21.332031zm0 0" fill="#26de81"/><path d="m160 170.667969v21.332031c-.035156 11.765625-9.566406 21.296875-21.332031 21.332031h-64c-11.769531-.035156-21.300781-9.566406-21.335938-21.332031v-21.332031c.035157-11.769531 9.566407-21.300781 21.335938-21.335938h64c11.765625.035157 21.296875 9.566407 21.332031 21.335938zm0 0" fill="#26de81"/><path d="m501.332031 234.667969v64h-36.90625c-1.929687 5.953125-4.355469 11.730469-7.253906 17.277343l26.136719 26.132813-45.230469 45.230469-26.132813-26.136719c-5.546874 2.898437-11.324218 5.324219-17.277343 7.253906v36.90625h-64v-36.90625c-5.953125-1.929687-11.734375-4.355469-17.28125-7.253906l-26.132813 26.136719-45.226562-45.230469 26.132812-26.132813c-2.898437-5.546874-5.324218-11.324218-7.253906-17.277343h-36.90625v-64h36.90625c1.929688-5.953125 4.355469-11.734375 7.253906-17.28125l-26.132812-26.132813 45.226562-45.226562 26.132813 26.132812c5.546875-2.898437 11.328125-5.324218 17.28125-7.253906v-36.90625h64v36.90625c5.953125 1.929688 11.730469 4.355469 17.277343 7.253906l26.132813-26.132812 45.230469 45.226562-26.136719 26.132813c2.898437 5.546875 5.324219 11.328125 7.253906 17.28125zm-96 32c0-23.566407-19.101562-42.667969-42.664062-42.667969-23.566407 0-42.667969 19.101562-42.667969 42.667969 0 23.5625 19.101562 42.664062 42.667969 42.664062 23.5625 0 42.664062-19.101562 42.664062-42.664062zm0 0" fill="#a4b0c0"/><g fill="#474c54"><path d="m362.667969 480c0 5.890625-4.777344 10.667969-10.667969 10.667969h-320c-5.890625 0-10.667969-4.777344-10.667969-10.667969v-373.332031h53.335938c17.671875 0 32-14.328125 32-32v-53.335938h245.332031c5.890625 0 10.667969 4.777344 10.667969 10.667969v64h21.332031v-64c0-17.671875-14.328125-32-32-32h-256c-2.835938-.0078125-5.554688 1.121094-7.550781 3.136719l-85.335938 85.332031c-1.992187 2-3.113281 4.707031-3.113281 7.53125v384c0 17.671875 14.328125 32 32 32h320c17.671875 0 32-14.328125 32-32v-42.667969h-21.332031zm-288-394.667969h-38.253907l48.917969-48.914062v38.25c0 5.890625-4.773437 10.664062-10.664062 10.664062zm0 0"/><path d="m501.332031 224h-29.417969c-.585937-1.484375-1.203124-2.945312-1.855468-4.414062l20.789062-20.792969c4.164063-4.164063 4.164063-10.914063 0-15.082031l-45.226562-45.226563c-4.164063-4.164063-10.917969-4.164063-15.082032 0l-20.789062 20.789063c-1.472656-.660157-2.945312-1.269532-4.417969-1.855469v-29.417969c0-5.890625-4.773437-10.667969-10.664062-10.667969h-64c-5.890625 0-10.667969 4.777344-10.667969 10.667969v29.417969c-1.472656.585937-2.945312 1.195312-4.414062 1.855469l-20.792969-20.789063c-4.164063-4.164063-10.914063-4.164063-15.082031 0l-45.226563 45.226563c-4.164063 4.167968-4.164063 10.917968 0 15.082031l20.789063 20.792969c-.648438 1.46875-1.269532 2.929687-1.855469 4.414062h-29.417969c-5.890625 0-10.667969 4.777344-10.667969 10.667969v64c0 5.890625 4.777344 10.664062 10.667969 10.664062h29.417969c.585937 1.484375 1.207031 2.945313 1.855469 4.417969l-20.789063 20.789062c-4.164063 4.164063-4.164063 10.917969 0 15.082032l45.226563 45.226562c4.167968 4.164063 10.917968 4.164063 15.082031 0l20.792969-20.789062c1.46875.660156 2.941406 1.28125 4.414062 1.855468v29.417969c0 5.890625 4.777344 10.667969 10.667969 10.667969h64c5.890625 0 10.664062-4.777344 10.664062-10.667969v-29.417969c1.472657-.574218 2.945313-1.195312 4.417969-1.855468l20.789062 20.789062c4.164063 4.164063 10.917969 4.164063 15.082032 0l45.226562-45.226562c4.164063-4.164063 4.164063-10.917969 0-15.082032l-20.789062-20.789062c.652344-1.472656 1.269531-2.933594 1.855468-4.417969h29.417969c5.890625 0 10.667969-4.773437 10.667969-10.664062v-64c0-5.890625-4.777344-10.667969-10.667969-10.667969zm-10.664062 64h-26.242188c-4.628906 0-8.730469 2.984375-10.152343 7.390625-1.75 5.390625-3.949219 10.621094-6.570313 15.640625-2.144531 4.128906-1.363281 9.167969 1.929687 12.457031l18.632813 18.589844-30.1875 30.1875-18.589844-18.589844c-3.289062-3.285156-8.324219-4.0625-12.449219-1.921875-5.019531 2.621094-10.25 4.816406-15.636718 6.5625-4.394532 1.410156-7.382813 5.492188-7.402344 10.109375v26.242188h-42.667969v-26.242188c0-4.632812-2.988281-8.734375-7.402343-10.152343-5.386719-1.746094-10.617188-3.941407-15.636719-6.5625-4.125-2.136719-9.160157-1.363282-12.449219 1.921874l-18.589844 18.632813-30.1875-30.1875 18.59375-18.589844c3.289063-3.289062 4.070313-8.328125 1.929688-12.457031-2.625-5.019531-4.824219-10.25-6.570313-15.640625-1.417969-4.390625-5.496093-7.375-10.113281-7.390625h-26.238281v-42.667969h26.238281c4.632812.003907 8.734375-2.984375 10.15625-7.390625 1.746094-5.386718 3.945312-10.617187 6.570312-15.636718 2.140626-4.128907 1.359376-9.171876-1.929687-12.460938l-18.636719-18.589844 30.1875-30.1875 18.589844 18.59375c3.289062 3.28125 8.324219 4.058594 12.449219 1.917969 5.019531-2.621094 10.25-4.816406 15.636719-6.558594 4.398437-1.414062 7.386718-5.496093 7.402343-10.113281v-26.238281h42.667969v26.238281c0 4.632812 2.992188 8.738281 7.402344 10.15625 5.386718 1.742188 10.617187 3.9375 15.636718 6.558594 4.125 2.140625 9.160157 1.363281 12.449219-1.917969l18.589844-18.636719 30.1875 30.1875-18.589844 18.589844c-3.292969 3.289062-4.074219 8.332031-1.933593 12.460938 2.625 5.019531 4.824218 10.25 6.574218 15.636718 1.414063 4.390625 5.496094 7.375 10.109375 7.390625h26.242188zm0 0"/><path d="m362.667969 213.332031c-29.457031 0-53.335938 23.878907-53.335938 53.335938 0 29.453125 23.878907 53.332031 53.335938 53.332031 29.453125 0 53.332031-23.878906 53.332031-53.332031-.035156-29.441407-23.894531-53.300781-53.332031-53.335938zm0 85.335938c-17.675781 0-32-14.328125-32-32 0-17.675781 14.324219-32 32-32 17.671875 0 32 14.324219 32 32 0 17.671875-14.328125 32-32 32zm0 0"/><path d="m192 277.332031v-21.332031h-74.667969v-32h21.335938c17.671875 0 32-14.328125 32-32v-21.332031c0-17.675781-14.328125-32-32-32h-64c-17.675781 0-32 14.324219-32 32v21.332031c0 17.671875 14.324219 32 32 32h21.332031v85.332031h-21.332031c-17.675781 0-32 14.328125-32 32v21.335938c0 17.671875 14.324219 32 32 32h64c17.671875 0 32-14.328125 32-32v-21.335938c0-17.671875-14.328125-32-32-32h-21.335938v-32zm-128-85.332031v-21.332031c0-5.890625 4.777344-10.667969 10.667969-10.667969h64c5.890625 0 10.664062 4.777344 10.664062 10.667969v21.332031c0 5.890625-4.773437 10.667969-10.664062 10.667969h-64c-5.890625 0-10.667969-4.777344-10.667969-10.667969zm85.332031 149.332031v21.335938c0 5.890625-4.773437 10.664062-10.664062 10.664062h-64c-5.890625 0-10.667969-4.773437-10.667969-10.664062v-21.335938c0-5.890625 4.777344-10.664062 10.667969-10.664062h64c5.890625 0 10.664062 4.773437 10.664062 10.664062zm0 0"/><path d="m341.332031 96v-21.332031c0-17.675781-14.324219-32-32-32h-21.332031v21.332031h21.332031c5.890625 0 10.667969 4.777344 10.667969 10.667969v21.332031zm0 0"/><path d="m245.332031 42.667969h21.335938v21.332031h-21.335938zm0 0"/><path d="m42.667969 416v21.332031c0 17.675781 14.324219 32 32 32h21.332031v-21.332031h-21.332031c-5.890625 0-10.667969-4.777344-10.667969-10.667969v-21.332031zm0 0"/><path d="m117.332031 448h21.335938v21.332031h-21.335938zm0 0"/></g></svg>