<?xml version="1.0" encoding="iso-8859-1"?>
<!-- Generator: Adobe Illustrator 19.0.0, SVG Export Plug-In . SVG Version: 6.00 Build 0)  -->
<svg version="1.1" id="Capa_1" xmlns="http://www.w3.org/2000/svg" xmlns:xlink="http://www.w3.org/1999/xlink" x="0px" y="0px"
	 viewBox="0 0 512.002 512.002" style="enable-background:new 0 0 512.002 512.002;" xml:space="preserve">
<circle style="fill:#E5567E;" cx="256.11" cy="27.04" r="19.541"/>
<path style="opacity:0.1;enable-background:new    ;" d="M267.592,11.252c1.385,2.682,2.181,5.719,2.181,8.946
	c0,10.792-8.749,19.541-19.541,19.541c-4.295,0-8.254-1.403-11.479-3.752c3.247,6.288,9.795,10.595,17.36,10.595
	c10.792,0,19.541-8.749,19.541-19.541C275.654,20.544,272.47,14.804,267.592,11.252z"/>
<path style="fill:#7ED3E9;" d="M363.797,79.755H148.203c-38.508,0-69.724,31.217-69.724,69.725l0,0
	c0,38.508,31.217,69.725,69.724,69.725h215.594c38.508,0,69.724-31.217,69.724-69.725l0,0
	C433.521,110.971,402.305,79.755,363.797,79.755z"/>
<path style="opacity:0.1;enable-background:new    ;" d="M389.365,84.614c9.924,12.046,15.885,27.479,15.885,44.304
	c0,38.508-31.217,69.725-69.724,69.725H119.932c-9.03,0-17.649-1.735-25.568-4.86c12.788,15.523,32.157,25.42,53.839,25.42h215.594
	c38.508,0,69.725-31.217,69.725-69.725l0,0C433.522,120.001,415.219,94.814,389.365,84.614z"/>
<path style="fill:#6A95E6;" d="M347.46,276.274H164.54c-9.269,0-16.783-7.514-16.783-16.783v-23.505
	c0-9.269,7.514-16.783,16.783-16.783h182.92c9.269,0,16.783,7.514,16.783,16.783v23.505
	C364.242,268.76,356.728,276.274,347.46,276.274z"/>
<path style="opacity:0.1;enable-background:new    ;" d="M347.46,219.204h-0.248c0.136,0.859,0.226,1.733,0.226,2.63v23.505
	c0,9.269-7.514,16.783-16.783,16.783H147.984c1.265,8.016,8.185,14.153,16.557,14.153H347.46c9.269,0,16.783-7.514,16.783-16.783
	v-23.505C364.242,226.717,356.728,219.204,347.46,219.204z"/>
<path style="fill:#EAEAEA;" d="M337.52,276.274H174.48v169.401c0,7.401,6,13.401,13.401,13.401h136.238
	c7.401,0,13.401-6,13.401-13.401L337.52,276.274L337.52,276.274z"/>
<path style="fill:#E5567E;" d="M337.52,413.57H174.48v32.105c0,7.401,6,13.401,13.401,13.401h136.238
	c7.401,0,13.401-6,13.401-13.401L337.52,413.57L337.52,413.57z"/>
<g>
	<path style="fill:#3D4A58;" d="M349.454,504.5h35.202c6.591,0,11.934-5.343,11.934-11.934v-90.914
		c0-6.591-5.343-11.934-11.934-11.934h-35.202c-6.591,0-11.934,5.343-11.934,11.934v90.914
		C337.52,499.157,342.863,504.5,349.454,504.5z"/>
	<path style="fill:#3D4A58;" d="M162.546,504.5h-35.202c-6.591,0-11.934-5.343-11.934-11.934v-90.914
		c0-6.591,5.343-11.934,11.934-11.934h35.202c6.591,0,11.934,5.343,11.934,11.934v90.914
		C174.48,499.157,169.137,504.5,162.546,504.5z"/>
</g>
<path style="fill:#A9B3C7;" d="M174.48,345.387H98.16c-4.528,0-8.667-2.556-10.697-6.603l-29.437-58.721l21.393-10.725
	l26.127,52.118h68.934L174.48,345.387L174.48,345.387z"/>
<g>
	<path style="fill:#6A95E6;" d="M61.327,292.018c-17.815,1.012-35.2-9.041-42.641-26.36l-4.232-9.849
		c-0.891-2.074,0.068-4.477,2.141-5.368l19.976-8.583c2.074-0.891,4.477,0.068,5.368,2.141l4.232,9.85
		c2.993,6.969,11.099,10.206,18.066,7.208c3.488-1.498,6.157-4.308,7.477-7.884c1.262-3.417,1.005-7.214-0.433-10.561l-4.069-9.47
		c-0.891-2.074,0.068-4.477,2.141-5.368l19.976-8.583c2.074-0.891,4.477,0.068,5.368,2.141l4.232,9.85
		c4.604,10.717,4.76,22.585,0.438,33.419c-4.323,10.834-12.605,19.336-23.322,23.94C71.242,290.606,66.267,291.737,61.327,292.018z"
		/>
	<circle style="fill:#6A95E6;" cx="99.03" cy="332.11" r="19.811"/>
</g>
<path style="opacity:0.1;enable-background:new    ;" d="M109.12,315.088c1.757,2.958,2.784,6.4,2.784,10.09
	c0,10.941-8.869,19.81-19.811,19.81c-3.69,0-7.132-1.027-10.09-2.784c3.453,5.813,9.775,9.72,17.026,9.72
	c10.941,0,19.811-8.869,19.811-19.81C118.84,324.863,114.932,318.54,109.12,315.088z"/>
<path style="fill:#A9B3C7;" d="M337.52,345.387h76.32c4.528,0,8.667-2.556,10.697-6.603l29.437-58.721l-21.394-10.725
	l-26.127,52.118H337.52V345.387z"/>
<g>
	<path style="fill:#6A95E6;" d="M450.672,292.018c17.815,1.012,35.2-9.041,42.641-26.36l4.232-9.849
		c0.891-2.074-0.068-4.477-2.141-5.368l-19.976-8.583c-2.074-0.891-4.477,0.068-5.368,2.141l-4.232,9.85
		c-2.993,6.969-11.099,10.206-18.066,7.208c-3.488-1.498-6.156-4.308-7.477-7.884c-1.262-3.417-1.005-7.214,0.433-10.561l4.069-9.47
		c0.891-2.074-0.068-4.477-2.141-5.368l-19.976-8.583c-2.074-0.891-4.477,0.068-5.368,2.141l-4.232,9.85
		c-4.604,10.717-4.76,22.585-0.438,33.419c4.323,10.834,12.605,19.336,23.322,23.94
		C440.759,290.606,445.733,291.737,450.672,292.018z"/>
	<circle style="fill:#6A95E6;" cx="412.97" cy="332.11" r="19.811"/>
</g>
<path style="fill:#3D4A58;" d="M272.005,153.502c0,9.096-7.587,16.419-16.779,15.987c-8.608-0.405-15.231-7.821-15.231-16.439
	v-11.894c0-3.773,3.059-6.831,6.831-6.831h18.347c3.773,0,6.831,3.058,6.831,6.831v12.346H272.005z"/>
<path style="fill:#6A95E6;" d="M258.503,315.423h21.945v29.964h-29.964v-21.945C250.484,319.013,254.074,315.423,258.503,315.423z"
	/>
<path style="fill:#E5567E;" d="M280.448,315.423h21.945c4.429,0,8.019,3.59,8.019,8.019v21.945h-29.964L280.448,315.423
	L280.448,315.423z"/>
<path style="fill:#F6CE6E;" d="M250.484,345.387h29.964v29.964h-21.945c-4.429,0-8.019-3.59-8.019-8.019V345.387z"/>
<path style="fill:#6A95E6;" d="M280.448,345.387h29.964v21.945c0,4.429-3.59,8.019-8.019,8.019h-21.945L280.448,345.387
	L280.448,345.387z"/>
<circle style="fill:#E5567E;" cx="211.5" cy="330.12" r="13.235"/>
<path style="opacity:0.1;enable-background:new    ;" d="M174.48,276.274v24.473h143.207v128.18c0,7.401-6,13.401-13.401,13.401
	H174.48v3.347c0,7.402,6,13.401,13.401,13.401h136.238c7.402,0,13.401-6,13.401-13.401V276.274H174.48z"/>
<path style="opacity:0.1;enable-background:new    ;" d="M423.06,315.088c1.757,2.958,2.784,6.4,2.784,10.09
	c0,10.941-8.87,19.81-19.81,19.81c-3.69,0-7.132-1.027-10.09-2.784c3.453,5.813,9.775,9.72,17.026,9.72
	c10.941,0,19.81-8.87,19.81-19.81C432.781,324.863,428.873,318.54,423.06,315.088z"/>
<rect x="161.6" y="321.46" style="opacity:0.1;enable-background:new    ;" width="12.875" height="23.931"/>
<rect x="337.52" y="321.46" style="opacity:0.1;enable-background:new    ;" width="12.875" height="23.931"/>
<path style="opacity:0.15;enable-background:new    ;" d="M384.656,389.718h-1.463v89.451c0,6.591-5.343,11.934-11.934,11.934
	H337.52v1.463c0,6.591,5.343,11.934,11.934,11.934h35.202c6.591,0,11.934-5.343,11.934-11.934v-90.914
	C396.59,395.061,391.247,389.718,384.656,389.718z"/>
<path style="opacity:0.15;enable-background:new    ;" d="M162.546,389.718h-1.463v89.451c0,6.591-5.343,11.934-11.934,11.934
	H115.41v1.463c0,6.591,5.343,11.934,11.934,11.934h35.202c6.591,0,11.934-5.343,11.934-11.934v-90.914
	C174.48,395.061,169.137,389.718,162.546,389.718z"/>
<path d="M246.827,126.825c-7.902,0-14.332,6.43-14.332,14.332v11.894c0,12.828,9.83,23.34,22.379,23.93
	c0.383,0.018,0.765,0.027,1.146,0.027c6.07,0,11.787-2.283,16.204-6.497c4.627-4.414,7.281-10.614,7.281-17.009v-12.345
	c0-7.902-6.429-14.332-14.331-14.332L246.827,126.825L246.827,126.825z M264.505,153.502c0,2.349-0.937,4.534-2.636,6.156
	c-1.698,1.619-3.927,2.46-6.29,2.339c-4.457-0.209-8.084-4.223-8.084-8.946v-11.226h17.01L264.505,153.502L264.505,153.502z
	 M329.39,129.451v9.684c0,4.143,3.358,7.5,7.5,7.5c4.143,0,7.5-3.357,7.5-7.5v-9.684c0-4.143-3.357-7.5-7.5-7.5
	C332.747,121.951,329.39,125.309,329.39,129.451z M258.503,382.852h43.89c8.558,0,15.52-6.962,15.52-15.52v-43.89
	c0-8.558-6.962-15.52-15.52-15.52h-43.89c-8.558,0-15.52,6.962-15.52,15.52v43.89C242.983,375.89,249.945,382.852,258.503,382.852z
	 M257.983,323.442c0-0.286,0.233-0.52,0.52-0.52h43.89c0.286,0,0.52,0.233,0.52,0.52v43.89c0,0.286-0.233,0.52-0.52,0.52h-43.89
	c-0.286,0-0.52-0.233-0.52-0.52V323.442z M167.61,129.451v9.684c0,4.143,3.357,7.5,7.5,7.5s7.5-3.357,7.5-7.5v-9.684
	c0-4.143-3.357-7.5-7.5-7.5C170.968,121.951,167.61,125.309,167.61,129.451z M190.766,366.393c0,4.143,3.357,7.5,7.5,7.5h26.47
	c4.143,0,7.5-3.357,7.5-7.5s-3.357-7.5-7.5-7.5h-26.47C194.123,358.893,190.766,362.25,190.766,366.393z M504.553,249.902
	c-1.146-2.875-3.345-5.131-6.188-6.352l-19.978-8.585c-5.868-2.52-12.694,0.202-15.218,6.073l-4.232,9.851
	c-0.657,1.53-1.875,2.715-3.431,3.335c-1.555,0.62-3.251,0.598-4.784-0.059c-1.591-0.684-2.799-1.96-3.401-3.591
	c-0.547-1.479-0.441-3.304,0.288-5.002l4.07-9.472c1.221-2.843,1.262-5.991,0.116-8.865c-1.147-2.876-3.346-5.132-6.189-6.352
	L425.63,212.3c-5.868-2.52-12.695,0.201-15.219,6.072l-4.232,9.85c-5.394,12.558-5.576,26.465-0.513,39.158
	c2.562,6.421,6.315,12.14,11.021,16.925l-10.736,21.416c-5.234,1.393-9.853,4.305-13.357,8.234h-47.573v-30.183h2.439
	c13.39,0,24.282-10.893,24.282-24.282v-23.505c0-3.384-0.698-6.608-1.954-9.538c39.79-3.071,71.234-36.406,71.234-76.97
	c0-24.356-11.138-46.784-30.557-61.532c-3.3-2.506-8.003-1.862-10.509,1.437c-2.505,3.299-1.862,8.004,1.437,10.509
	c15.652,11.887,24.629,29.961,24.629,49.588c0,34.31-27.914,62.224-62.225,62.224H148.203c-34.31,0-62.225-27.914-62.225-62.225
	s27.914-62.224,62.225-62.224h215.594c4.581,0,9.146,0.499,13.57,1.482c4.048,0.898,8.05-1.65,8.949-5.693
	c0.899-4.043-1.65-8.05-5.693-8.949c-5.491-1.221-11.152-1.84-16.826-1.84H263.5V53.047c11.329-3.223,19.653-13.657,19.653-26.006
	c0-14.91-12.13-27.041-27.04-27.041c-14.91,0-27.041,12.131-27.041,27.041c0,12.267,8.214,22.645,19.428,25.941v19.272H148.203
	c-42.582,0-77.225,34.643-77.225,77.225c0,40.563,31.444,73.898,71.234,76.969c-1.256,2.93-1.954,6.154-1.954,9.538v23.505
	c0,13.39,10.894,24.282,24.283,24.282h2.439v30.183h-47.573c-3.505-3.929-8.123-6.84-13.357-8.234l-10.736-21.416
	c4.705-4.786,8.458-10.504,11.02-16.926c5.063-12.693,4.881-26.601-0.514-39.158l-4.231-9.852c-2.522-5.869-9.351-8.594-15.22-6.07
	l-19.974,8.582c-2.845,1.222-5.043,3.478-6.19,6.354c-1.146,2.874-1.104,6.023,0.117,8.867l4.069,9.471
	c0.73,1.697,0.835,3.52,0.289,4.999c-0.604,1.633-1.812,2.909-3.406,3.594c-1.531,0.657-3.225,0.678-4.78,0.058
	c-1.556-0.62-2.773-1.805-3.432-3.335l-4.231-9.851c-2.521-5.87-9.349-8.597-15.22-6.072l-19.974,8.583
	c-2.845,1.222-5.043,3.477-6.189,6.352s-1.105,6.023,0.116,8.867l4.232,9.85c8.079,18.804,26.748,30.97,47.067,30.97
	c0.183,0,0.368-0.014,0.552-0.016l13.08,26.09c-0.503,2.07-0.776,4.228-0.776,6.451c0,15.06,12.251,27.311,27.31,27.311
	c6.75,0,12.93-2.466,17.702-6.538h50.249v29.861c-1.427-0.335-2.906-0.53-4.434-0.53h-35.202c-3.005,0-5.842,0.706-8.384,1.929
	c-0.287,0.115-0.567,0.253-0.841,0.406c-0.075,0.041-0.145,0.088-0.22,0.13c-0.103,0.062-0.208,0.12-0.309,0.188
	c-5.778,3.372-9.68,9.624-9.68,16.783v90.914c0,10.716,8.719,19.434,19.435,19.434h35.201c10.716,0,19.434-8.718,19.434-19.434
	v-26.852c1.874,0.553,3.851,0.862,5.901,0.862h136.238c2.05,0,4.028-0.309,5.901-0.862v26.852c0,10.716,8.718,19.434,19.434,19.434
	h35.202c10.716,0,19.434-8.718,19.434-19.434v-90.914c0-7.16-3.903-13.412-9.682-16.784c-0.097-0.065-0.198-0.121-0.298-0.181
	c-0.077-0.043-0.151-0.093-0.229-0.135c-0.274-0.152-0.554-0.291-0.841-0.406c-2.542-1.223-5.378-1.928-8.383-1.928h-35.202
	c-1.527,0-3.007,0.195-4.434,0.53v-29.86h50.25c4.771,4.071,10.951,6.537,17.7,6.537c15.06,0,27.311-12.251,27.311-27.311
	c0-2.222-0.273-4.381-0.776-6.451l13.08-26.09c0.184,0.002,0.369,0.016,0.552,0.016c20.318,0,38.988-12.167,47.067-30.97
	l4.232-9.851C505.658,255.926,505.699,252.777,504.553,249.902z M244.072,27.041c0-6.64,5.401-12.041,12.041-12.041
	c6.639,0,12.04,5.401,12.04,12.041c0,6.639-5.401,12.04-12.04,12.04C249.474,39.081,244.072,33.68,244.072,27.041z M60.899,284.53
	v0.001c-15.168,0.839-29.342-7.916-35.322-21.834l-2.885-6.713l13.703-5.889l2.884,6.714c2.239,5.212,6.378,9.241,11.654,11.347
	c5.278,2.107,11.056,2.032,16.264-0.209c5.407-2.322,9.51-6.646,11.554-12.177c1.892-5.124,1.687-10.85-0.579-16.119l-2.722-6.334
	l13.703-5.888l2.884,6.713c3.813,8.878,3.943,18.708,0.364,27.68c-3.581,8.973-10.441,16.016-19.316,19.828
	C69.194,283.322,65.095,284.291,60.899,284.53z M74.902,296.991c1.384-0.46,2.754-0.979,4.104-1.559
	c1.407-0.604,2.773-1.275,4.106-1.992l6.53,13.025c-2.842,1.043-5.461,2.55-7.773,4.423L74.902,296.991z M99.029,344.425
	c-6.788,0-12.31-5.522-12.31-12.311c0-1.652,0.332-3.226,0.924-4.666c0.011-0.032,0.024-0.063,0.035-0.095
	c1.865-4.43,6.25-7.549,11.351-7.549c6.788,0,12.311,5.522,12.311,12.311C111.34,338.902,105.817,344.425,99.029,344.425z
	 M166.98,441.052l-17.638,17.638c-2.929,2.93-2.929,7.678,0,10.607c1.465,1.464,3.385,2.196,5.304,2.196s3.839-0.732,5.304-2.196
	l7.03-7.03v30.3c0,2.444-1.989,4.434-4.434,4.434h-35.201c-2.445,0-4.435-1.989-4.435-4.434v-8.685l7.032,7.032
	c1.464,1.464,3.384,2.196,5.303,2.196c1.919,0,3.839-0.732,5.304-2.197c2.929-2.929,2.929-7.678-0.001-10.606L122.91,462.67v-19.293
	l7.032,7.032c1.464,1.464,3.384,2.196,5.303,2.196c1.919,0,3.839-0.732,5.304-2.197c2.929-2.929,2.929-7.678-0.001-10.607
	l-17.638-17.637V402.87l7.031,7.031c1.465,1.464,3.385,2.196,5.304,2.196s3.839-0.732,5.304-2.196c2.929-2.93,2.929-7.678,0-10.607
	l-2.075-2.075h24.072c2.104,0,3.863,1.478,4.314,3.448l-17.518,17.519c-2.929,2.929-2.929,7.678,0.001,10.606
	c1.464,1.464,3.384,2.196,5.303,2.196c1.919,0,3.839-0.732,5.304-2.197l7.03-7.031V441.052L166.98,441.052z M166.98,337.887h-41.26
	c0.402-1.862,0.619-3.792,0.619-5.772c0-1.069-0.068-2.121-0.188-3.158h40.828L166.98,337.887L166.98,337.887z M362.658,418.185
	l-17.518-17.519c0.451-1.97,2.21-3.448,4.314-3.448h24.074l-2.076,2.076c-2.929,2.929-2.929,7.678,0.001,10.606
	c1.464,1.464,3.383,2.196,5.303,2.196c1.919,0,3.839-0.732,5.304-2.197l7.03-7.031v19.293L371.452,439.8
	c-2.929,2.93-2.929,7.678,0,10.607c1.465,1.464,3.385,2.196,5.304,2.196c1.919,0,3.839-0.732,5.304-2.196l7.03-7.03v19.291
	l-17.638,17.638c-2.929,2.93-2.929,7.678,0,10.607c1.465,1.464,3.385,2.196,5.304,2.196c1.919,0,3.839-0.732,5.304-2.196l7.03-7.03
	v8.684c0,2.444-1.989,4.434-4.434,4.434h-35.202c-2.444,0-4.434-1.989-4.434-4.434v-30.3l7.03,7.03
	c1.465,1.464,3.385,2.196,5.304,2.196c1.919,0,3.839-0.732,5.304-2.196c2.929-2.93,2.929-7.678,0-10.607l-17.638-17.638V421.76
	l7.03,7.031c1.465,1.465,3.384,2.197,5.304,2.197c1.919,0,3.839-0.732,5.303-2.196C365.587,425.862,365.587,421.113,362.658,418.185
	z M221.491,268.773c-4.143,0-7.5,3.357-7.5,7.5s3.357,7.5,7.5,7.5H330.02v122.296h-11.11c-4.143,0-7.5,3.357-7.5,7.5
	s3.357,7.5,7.5,7.5h11.11v24.605c0,3.254-2.648,5.901-5.901,5.901H187.881c-3.254,0-5.901-2.647-5.901-5.901v-24.605h107.871
	c4.143,0,7.5-3.357,7.5-7.5s-3.357-7.5-7.5-7.5H181.98V283.773h9.446c4.143,0,7.5-3.357,7.5-7.5s-3.357-7.5-7.5-7.5h-26.885
	c-5.119,0-9.283-4.164-9.283-9.282v-23.505c0-5.119,4.164-9.283,9.283-9.283H347.46c5.118,0,9.282,4.164,9.282,9.283v23.505
	c0,5.118-4.164,9.282-9.282,9.282H221.491z M345.021,337.888v-8.932h40.828c-0.12,1.037-0.188,2.09-0.188,3.158
	c0,1.981,0.217,3.911,0.62,5.773h-41.26V337.888z M412.971,344.425c-6.788,0-12.311-5.522-12.311-12.311
	c0-6.788,5.522-12.311,12.311-12.311c5.101,0,9.486,3.119,11.351,7.549c0.011,0.032,0.024,0.063,0.035,0.095
	c0.592,1.44,0.925,3.014,0.925,4.666C425.281,338.902,419.759,344.425,412.971,344.425z M430.131,310.889
	c-2.311-1.873-4.931-3.379-7.773-4.423l6.53-13.026c1.333,0.717,2.699,1.387,4.107,1.992c1.35,0.58,2.719,1.099,4.104,1.559
	L430.131,310.889z M486.423,262.697c-5.98,13.919-20.157,22.681-35.322,21.834v-0.001c-4.195-0.239-8.295-1.208-12.185-2.879
	c-8.876-3.814-15.736-10.857-19.317-19.829c-3.579-8.972-3.449-18.802,0.363-27.68l2.885-6.713l13.703,5.888l-2.723,6.335
	c-2.264,5.271-2.469,10.996-0.577,16.12c2.043,5.528,6.146,9.852,11.549,12.174c5.21,2.242,10.987,2.317,16.268,0.21
	c5.276-2.105,9.415-6.135,11.653-11.347l2.885-6.714l13.703,5.889L486.423,262.697z"/>
<g>
</g>
<g>
</g>
<g>
</g>
<g>
</g>
<g>
</g>
<g>
</g>
<g>
</g>
<g>
</g>
<g>
</g>
<g>
</g>
<g>
</g>
<g>
</g>
<g>
</g>
<g>
</g>
<g>
</g>
</svg>
