<svg id="icons" height="512" viewBox="0 0 60 60" width="512" xmlns="http://www.w3.org/2000/svg"><path d="m59 9v47a3 3 0 0 1 -3 3h-52a3 3 0 0 1 -3-3v-47l1-1h56z" fill="#e4f1ff"/><path d="m59 4v5h-58v-5a3 3 0 0 1 3-3h52a3 3 0 0 1 3 3z" fill="#6e7689"/><path d="m10 29h40v25h-40z" fill="#cecece"/><path d="m16 14h28a2 2 0 0 1 2 2v4a0 0 0 0 1 0 0h-32a0 0 0 0 1 0 0v-4a2 2 0 0 1 2-2z" fill="#a54759"/><path d="m51.82 25a2.017 2.017 0 0 0 -.41-.59l-5.41-5.41h-32l-5.41 5.41a2.041 2.041 0 0 0 -.59 1.42v2.17a2.006 2.006 0 0 0 2 2h40a2.006 2.006 0 0 0 2-2v-2.17a1.968 1.968 0 0 0 -.18-.83z" fill="#cd596b"/><path d="m33 25h6v5h-6z" fill="#a54759"/><path d="m21 25h6v5h-6z" fill="#a54759"/><path d="m8.18 25h5.82v5h-4a2.006 2.006 0 0 1 -2-2v-2.17a1.968 1.968 0 0 1 .18-.83z" fill="#a54759"/><path d="m14 25h7v5h-7z" fill="#eaeaea"/><path d="m23 19-2 6h-7l5-6z" fill="#fff"/><path d="m33 25h-6l1-6h4z" fill="#fff"/><path d="m27 25h6v5h-6z" fill="#eaeaea"/><path d="m39 25h7v5h-7z" fill="#eaeaea"/><path d="m46 25h-7l-2-6h4z" fill="#fff"/><path d="m52 25.83v2.17a2.006 2.006 0 0 1 -2 2h-4v-5h5.82a1.968 1.968 0 0 1 .18.83z" fill="#a54759"/><path d="m37 36h8a1 1 0 0 1 1 1v17a0 0 0 0 1 0 0h-10a0 0 0 0 1 0 0v-17a1 1 0 0 1 1-1z" fill="#a97866"/><rect fill="#4580c6" height="10" rx="1" width="16" x="15" y="36"/><g fill="#373737"><path d="m56 0h-52a4 4 0 0 0 -4 4v9a1 1 0 0 0 2 0v-3h56v46a2 2 0 0 1 -2 2h-52a2 2 0 0 1 -2-2v-38a1 1 0 0 0 -2 0v38a4 4 0 0 0 4 4h52a4 4 0 0 0 4-4v-52a4 4 0 0 0 -4-4zm2 8h-56v-4a2 2 0 0 1 2-2h52a2 2 0 0 1 2 2z"/><path d="m6 4h-1a1 1 0 0 0 0 2h1a1 1 0 0 0 0-2z"/><path d="m11 4h-1a1 1 0 0 0 0 2h1a1 1 0 0 0 0-2z"/><path d="m16 4h-1a1 1 0 0 0 0 2h1a1 1 0 0 0 0-2z"/><path d="m55 4h-6a1 1 0 0 0 0 2h6a1 1 0 0 0 0-2z"/><path d="m16 47h14a2 2 0 0 0 2-2v-8a2 2 0 0 0 -2-2h-14a2 2 0 0 0 -2 2v8a2 2 0 0 0 2 2zm0-10h14v8h-14z"/><path d="m6 53a1 1 0 0 0 0 2h48a1 1 0 0 0 0-2h-3v-22.184a3 3 0 0 0 2-2.816v-2.172a2.978 2.978 0 0 0 -.879-2.121l-5.121-5.121v-2.586a3 3 0 0 0 -3-3h-28a3 3 0 0 0 -3 3v2.586l-5.121 5.121a2.978 2.978 0 0 0 -.879 2.121v2.172a3 3 0 0 0 2 2.816v22.184zm39 0h-8v-16h8zm4 0h-2v-16a2 2 0 0 0 -2-2h-8a2 2 0 0 0 -2 2v16h-24v-22h38zm-29-27v3h-5v-3zm-3.865-2 3.334-4h2.144l-1.333 4zm9.865 2v3h-4v-3zm-3.613-2 1.333-4h3.1l-.667 4zm9.613 2v3h-4v-3zm-3.82-2 .667-4h2.306l.667 4zm5.667 0-.667-4h3.1l1.333 4zm4.153 2v3h-4v-3zm1.72-2-1.333-4h2.144l3.334 4zm5.28 2v3h-5v-3zm6 2a1 1 0 0 1 -1 1h-3v-3h4zm-1.414-4h-3.117l-3.333-4h2.45zm-34.586-8a1 1 0 0 1 1-1h28a1 1 0 0 1 1 1v2h-30zm-.586 4h2.45l-3.333 4h-3.117zm-5.414 6h4v3h-3a1 1 0 0 1 -1-1z"/><path d="m26.758 39.03-8 2a1 1 0 0 0 .242 1.97 1.017 1.017 0 0 0 .243-.03l8-2a1 1 0 0 0 -.484-1.94z"/><path d="m40 46a1 1 0 0 0 1-1v-1a1 1 0 0 0 -2 0v1a1 1 0 0 0 1 1z"/></g></svg>