<svg id="Layer_1" height="512" viewBox="0 0 64 64" width="512" xmlns="http://www.w3.org/2000/svg" data-name="Layer 1"><path d="m44 33.18v-2.36a1.11 1.11 0 0 0 -1.11-1.11 1.13 1.13 0 0 1 -1.08-.77 9.19 9.19 0 0 0 -.71-1.71 1.13 1.13 0 0 1 .22-1.31 1.1 1.1 0 0 0 0-1.56l-1.67-1.67a1.1 1.1 0 0 0 -1.56 0 1.13 1.13 0 0 1 -1.31.22 9.19 9.19 0 0 0 -1.71-.71 1.13 1.13 0 0 1 -.77-1.08 1.11 1.11 0 0 0 -1.12-1.12h-2.36a1.11 1.11 0 0 0 -1.11 1.11 1.09 1.09 0 0 1 -.71 1.07 10.51 10.51 0 0 0 -1.73.72 1.13 1.13 0 0 1 -1.31-.22 1.1 1.1 0 0 0 -1.56 0l-1.67 1.67a1.1 1.1 0 0 0 0 1.56 1.13 1.13 0 0 1 .22 1.31 9.19 9.19 0 0 0 -.71 1.71 1.13 1.13 0 0 1 -1.08.77 1.11 1.11 0 0 0 -1.16 1.12v2.36a1.11 1.11 0 0 0 1.11 1.11 1.13 1.13 0 0 1 1.08.77 9.19 9.19 0 0 0 .71 1.71 1.13 1.13 0 0 1 -.22 1.31 1.1 1.1 0 0 0 0 1.56l1.67 1.67a1.1 1.1 0 0 0 1.56 0 1.13 1.13 0 0 1 1.31-.22 9.19 9.19 0 0 0 1.71.71 1.13 1.13 0 0 1 .77 1.08 1.11 1.11 0 0 0 1.12 1.12h2.36a1.11 1.11 0 0 0 1.11-1.11 1.13 1.13 0 0 1 .77-1.08 9.19 9.19 0 0 0 1.71-.71 1.13 1.13 0 0 1 1.31.22 1.1 1.1 0 0 0 1.56 0l1.67-1.67a1.1 1.1 0 0 0 0-1.56 1.13 1.13 0 0 1 -.22-1.31 10.51 10.51 0 0 0 .73-1.78 1.09 1.09 0 0 1 1-.75 1.11 1.11 0 0 0 1.18-1.07z" fill="#65788f"/><circle cx="32" cy="32" fill="#fff" r="6"/><path d="m33.18 45h-2.36a2.12 2.12 0 0 1 -2.11-2.11.12.12 0 0 0 -.07-.12 11.73 11.73 0 0 1 -1.87-.77.14.14 0 0 0 -.15 0 2.11 2.11 0 0 1 -3 0l-1.62-1.64a2.1 2.1 0 0 1 0-3 .14.14 0 0 0 0-.15 10.87 10.87 0 0 1 -.78-1.87.12.12 0 0 0 -.12-.07 2.12 2.12 0 0 1 -2.1-2.09v-2.36a2.12 2.12 0 0 1 2.11-2.11.12.12 0 0 0 .12-.07 10.87 10.87 0 0 1 .77-1.87.14.14 0 0 0 0-.15 2.1 2.1 0 0 1 0-3l1.64-1.62a2.1 2.1 0 0 1 3 0 .13.13 0 0 0 .15 0 12.09 12.09 0 0 1 1.9-.79s0 0 0-.09a2.12 2.12 0 0 1 2.13-2.12h2.36a2.12 2.12 0 0 1 2.11 2.11.12.12 0 0 0 .07.12 11.73 11.73 0 0 1 1.87.78.14.14 0 0 0 .15 0 2.11 2.11 0 0 1 3 0l1.62 1.63a2.1 2.1 0 0 1 0 3 .14.14 0 0 0 0 .15 10.87 10.87 0 0 1 .78 1.87.12.12 0 0 0 .12.07 2.12 2.12 0 0 1 2.1 2.09v2.36a2.12 2.12 0 0 1 -2.11 2.11c-.07 0-.11 0-.11 0a11.35 11.35 0 0 1 -.79 1.9.14.14 0 0 0 0 .15 2.1 2.1 0 0 1 0 3l-1.63 1.66a2.1 2.1 0 0 1 -3 0 .13.13 0 0 0 -.15 0 11.73 11.73 0 0 1 -1.87.78.12.12 0 0 0 -.07.12 2.12 2.12 0 0 1 -2.09 2.1zm-6.46-5a2.15 2.15 0 0 1 1 .24 9.43 9.43 0 0 0 1.54.64 2.1 2.1 0 0 1 1.47 2 .11.11 0 0 0 .11.11h2.36a.11.11 0 0 0 .11-.11 2.1 2.1 0 0 1 1.47-2 9.43 9.43 0 0 0 1.54-.64 2.11 2.11 0 0 1 2.49.39.12.12 0 0 0 .16 0l1.64-1.63v-.16a2.11 2.11 0 0 1 -.39-2.49 9.32 9.32 0 0 0 .65-1.56 2.07 2.07 0 0 1 2-1.45.12.12 0 0 0 .13-.11v-2.41a.11.11 0 0 0 -.11-.11 2.11 2.11 0 0 1 -2-1.47 9.43 9.43 0 0 0 -.64-1.54 2.11 2.11 0 0 1 .39-2.49v-.16l-1.64-1.66a.12.12 0 0 0 -.16 0 2.11 2.11 0 0 1 -2.49.39 9.43 9.43 0 0 0 -1.54-.64 2.1 2.1 0 0 1 -1.47-2 .11.11 0 0 0 -.11-.11h-2.41a.11.11 0 0 0 -.11.11 2.1 2.1 0 0 1 -1.45 2 8.82 8.82 0 0 0 -1.56.64 2.11 2.11 0 0 1 -2.49-.39.12.12 0 0 0 -.16 0l-1.66 1.66v.16a2.11 2.11 0 0 1 .39 2.49 9.71 9.71 0 0 0 -.64 1.53 2.11 2.11 0 0 1 -2 1.48.11.11 0 0 0 -.11.11v2.36a.11.11 0 0 0 .11.11 2.11 2.11 0 0 1 2 1.47 9.43 9.43 0 0 0 .64 1.54 2.11 2.11 0 0 1 -.39 2.49v.21l1.66 1.66a.12.12 0 0 0 .16 0 2.1 2.1 0 0 1 1.51-.66z"/><path d="m32 39a7 7 0 1 1 7-7 7 7 0 0 1 -7 7zm0-12a5 5 0 1 0 5 5 5 5 0 0 0 -5-5z"/><circle cx="9" cy="9" fill="#97d2fb" r="6"/><circle cx="55" cy="9" fill="#36d9c5" r="6"/><circle cx="9" cy="55" fill="#ffe66d" r="6"/><circle cx="55" cy="55" fill="#d96d71" r="6"/><path d="m9 16a7 7 0 1 1 7-7 7 7 0 0 1 -7 7zm0-12a5 5 0 1 0 5 5 5 5 0 0 0 -5-5z"/><path d="m55 16a7 7 0 1 1 7-7 7 7 0 0 1 -7 7zm0-12a5 5 0 1 0 5 5 5 5 0 0 0 -5-5z"/><path d="m9 62a7 7 0 1 1 7-7 7 7 0 0 1 -7 7zm0-12a5 5 0 1 0 5 5 5 5 0 0 0 -5-5z"/><path d="m55 62a7 7 0 1 1 7-7 7 7 0 0 1 -7 7zm0-12a5 5 0 1 0 5 5 5 5 0 0 0 -5-5z"/><path d="m35 8h11v2h-11z"/><path d="m31 8h2v2h-2z"/><path d="m18 8h11v2h-11z"/><path d="m47 31h2v2h-2z"/><path d="m55 33h-4v-2h3v-13h2v14a1 1 0 0 1 -1 1z"/><path d="m10 46h-2v-14a1 1 0 0 1 1-1h4v2h-3z"/><path d="m15 31h2v2h-2z"/><path d="m35 54h11v2h-11z"/><path d="m31 54h2v2h-2z"/><path d="m18 54h11v2h-11z"/></svg>