<svg id="Icons" height="512" viewBox="0 0 60 60" width="512" xmlns="http://www.w3.org/2000/svg"><path d="m34.54 48h21.46a3 3 0 0 0 3-3v-41a3 3 0 0 0 -3-3h-22a3 3 0 0 0 -3 3v39.01z" fill="#477492"/><path d="m23 41h2a10.029 10.029 0 0 1 10 10v7a1 1 0 0 1 -1 1h-32a1 1 0 0 1 -1-1v-7a10.029 10.029 0 0 1 10-10z" fill="#ae97ec"/><path d="m23 35v6s-1 4-5 4-5-4-5-4v-6z" fill="#685446"/><path d="m31 14v6.11h-26v-6.11a9 9 0 0 1 9-9h12.07a.926.926 0 0 1 .72 1.51l-1.19 1.49-1.6 2h3a4 4 0 0 1 4 4z" fill="#493f3a"/><path d="m31 20.11v3.89a3 3 0 0 1 -3 3 12.456 12.456 0 0 1 -1.25 5c-1.25 2.5-3.75 5-8.75 5-10 0-10-10-10-10a3 3 0 0 1 -3-3v-3.89a2.08 2.08 0 0 1 1.67-2.08 2 2 0 0 1 2.33 1.97 3.388 3.388 0 0 1 2.8-3.32 12.537 12.537 0 0 0 5.59-2.46.964.964 0 0 1 1.22 0 12.537 12.537 0 0 0 5.59 2.46 3.355 3.355 0 0 1 2.8 3.32 2 2 0 0 1 2.33-1.97 2.08 2.08 0 0 1 1.67 2.08z" fill="#806856"/><circle cx="45" cy="25" fill="#fff" r="10"/><path d="m34.816 1a2.638 2.638 0 0 1 2.561 2 2.639 2.639 0 0 0 2.561 2h9.939a2.641 2.641 0 0 0 2.561-2 2.64 2.64 0 0 1 2.562-2z" fill="#56565c"/><g fill="#373737"><path d="m56 0h-22a4 4 0 0 0 -4 4v6.026a4.948 4.948 0 0 0 -3-1.026h-.92l1.492-1.865a1.929 1.929 0 0 0 -1.506-3.135h-12.066a10.011 10.011 0 0 0 -10 10v6.107 3.893a4.011 4.011 0 0 0 3.063 3.89c.21 1.878 1.121 6.25 4.937 8.58v3.53h-1a11.013 11.013 0 0 0 -11 11v7a2 2 0 0 0 2 2h32a2 2 0 0 0 2-2v-7a10.989 10.989 0 0 0 -.191-2h20.191a4 4 0 0 0 4-4v-41a4 4 0 0 0 -4-4zm-4.238 2a3.6 3.6 0 0 0 -.293.757 1.639 1.639 0 0 1 -1.591 1.243h-9.94a1.637 1.637 0 0 1 -1.59-1.242 3.612 3.612 0 0 0 -.294-.758zm-37.762 4h11.919l-2.4 3h-3.519a1 1 0 0 0 0 2h7a3 3 0 0 1 3 3v3.177a2.834 2.834 0 0 0 -.514-.135 3.021 3.021 0 0 0 -2.226.515 4.334 4.334 0 0 0 -2.89-1.857 11.674 11.674 0 0 1 -5.133-2.254 1.963 1.963 0 0 0 -2.485.009 11.651 11.651 0 0 1 -5.112 2.243 4.337 4.337 0 0 0 -2.6 1.484 4.408 4.408 0 0 0 -.295.385 3.018 3.018 0 0 0 -2.238-.519 2.8 2.8 0 0 0 -.507.129v-3.177a8.009 8.009 0 0 1 8-8zm-5 21a1 1 0 0 0 -1-1 2 2 0 0 1 -2-2v-3.89a1.086 1.086 0 0 1 .826-1.092 1.052 1.052 0 0 1 .174-.018.995.995 0 0 1 1 1 1 1 0 0 0 2 0 2.386 2.386 0 0 1 1.97-2.334 13 13 0 0 0 6-2.676 13.47 13.47 0 0 0 6.062 2.677 2.353 2.353 0 0 1 1.968 2.333 1 1 0 0 0 2 0 1 1 0 0 1 1.169-.983 1.087 1.087 0 0 1 .831 1.093v3.89a2 2 0 0 1 -2 2 1 1 0 0 0 -1 1 11.543 11.543 0 0 1 -1.145 4.555c-1.475 2.945-4.118 4.445-7.855 4.445-8.859 0-9-8.635-9-9zm9 11a12.566 12.566 0 0 0 4-.607v3.466a4.265 4.265 0 0 1 -4 3.141 4.266 4.266 0 0 1 -4-3.14v-3.47a12.589 12.589 0 0 0 4 .61zm16 20h-4v-8a1 1 0 0 0 -2 0v8h-20v-8a1 1 0 0 0 -2 0v8h-4v-7a9.01 9.01 0 0 1 9-9h1.284a6.084 6.084 0 0 0 11.432 0h1.284a9.01 9.01 0 0 1 9 9zm24-13a2 2 0 0 1 -2 2h-20.764a11.044 11.044 0 0 0 -3.236-4.479v-5.521a1 1 0 0 0 -2 0v4.214a10.928 10.928 0 0 0 -5-1.214h-1v-3.523a9.754 9.754 0 0 0 3.645-4.03 13.576 13.576 0 0 0 1.3-4.56 3.911 3.911 0 0 0 1.055-.437v3.55a1 1 0 0 0 2 0v-27a2 2 0 0 1 2-2h.816a1.637 1.637 0 0 1 1.591 1.242 3.634 3.634 0 0 0 3.531 2.758h9.94a3.633 3.633 0 0 0 3.53-2.758 1.64 1.64 0 0 1 1.592-1.242h1a2 2 0 0 1 2 2z"/><path d="m45 14a11 11 0 1 0 11 11 11.013 11.013 0 0 0 -11-11zm0 20a9 9 0 1 1 9-9 9.01 9.01 0 0 1 -9 9z"/><path d="m51 43h-12a1 1 0 0 0 0 2h12a1 1 0 0 0 0-2z"/><path d="m45 23a1 1 0 0 0 1-1v-3a1 1 0 0 0 -2 0v3a1 1 0 0 0 1 1z"/><path d="m49 21a1 1 0 0 0 -1 1 3 3 0 0 1 -6 0 1 1 0 0 0 -2 0 5.009 5.009 0 0 0 4 4.9v2.1h-1a1 1 0 0 0 0 2h4a1 1 0 0 0 0-2h-1v-2.1a5.009 5.009 0 0 0 4-4.9 1 1 0 0 0 -1-1z"/></g></svg>