<svg id="icons" height="512" viewBox="0 0 60 60" width="512" xmlns="http://www.w3.org/2000/svg"><path d="m59 9v39a3 3 0 0 1 -3 3h-52a3 3 0 0 1 -3-3v-39l1-1h56z" fill="#e6f1ff"/><path d="m59 4v5h-58v-5a3 3 0 0 1 3-3h52a3 3 0 0 1 3 3z" fill="#4c84c6"/><circle cx="30" cy="34" fill="#fff" r="21"/><path d="m46.82 46.58 7.3 7.313a3.009 3.009 0 0 1 0 4.248 3.046 3.046 0 0 1 -4.24 0l-7.3-7.313z" fill="#728693"/><path d="m33 24v-2a3 3 0 0 0 -6 0v2z" fill="#a54c5d"/><path d="m27 23h6a2 2 0 0 1 2 2v3a0 0 0 0 1 0 0h-10a0 0 0 0 1 0 0v-3a2 2 0 0 1 2-2z" fill="#a54c5d"/><path d="m37 29v8a6.979 6.979 0 0 1 -6 6.92 6.29 6.29 0 0 1 -2 0 6.979 6.979 0 0 1 -6-6.92v-8a2.006 2.006 0 0 1 2-2h10a2.006 2.006 0 0 1 2 2z" fill="#a54c5d"/><g fill="#373737"><path d="m56 0h-52a4 4 0 0 0 -4 4v7a1 1 0 0 0 2 0v-1h56v38a2.006 2.006 0 0 1 -2 2h-4.35l-3.53-3.54a22 22 0 1 0 -33.2 3.54h-10.92a2.006 2.006 0 0 1 -2-2v-33a1 1 0 0 0 -2 0v33a4 4 0 0 0 4 4h13.37a21.943 21.943 0 0 0 25.09.12s6.7 6.72 6.71 6.72a4.083 4.083 0 0 0 5.66.01 4.008 4.008 0 0 0 0-5.66l-1.19-1.19h2.36a4 4 0 0 0 4-4v-44a4 4 0 0 0 -4-4zm-26 54a20 20 0 1 1 20-20 20.02 20.02 0 0 1 -20 20zm23.41 3.43a2.039 2.039 0 0 1 -2.82 0l-6.52-6.53a22.253 22.253 0 0 0 2.83-2.83l6.51 6.53a2 2 0 0 1 0 2.83zm4.59-49.43h-56v-4a2.006 2.006 0 0 1 2-2h52a2.006 2.006 0 0 1 2 2z"/><path d="m38 35h5a1 1 0 0 0 0-2h-5v-2.22l2.177-.544a2.984 2.984 0 0 0 2.123-1.962l1.652-4.958a1 1 0 1 0 -1.9-.632l-1.652 4.958a1 1 0 0 1 -.707.655l-1.72.43a2.987 2.987 0 0 0 -1.973-2.543v-1.184a3 3 0 0 0 -2-2.816v-.184a4 4 0 0 0 -8 0v.184a3 3 0 0 0 -2 2.816v1.184a2.987 2.987 0 0 0 -1.972 2.543l-1.72-.43a1 1 0 0 1 -.707-.655l-1.653-4.958a1 1 0 0 0 -1.9.632l1.652 4.958a2.984 2.984 0 0 0 2.119 1.962l2.181.544v2.22h-5a1 1 0 0 0 0 2h5v2c0 .042.006.083.006.126l-2.182.635a3.013 3.013 0 0 0 -2.124 1.964l-1.65 4.96a1 1 0 0 0 .634 1.264 1.017 1.017 0 0 0 .316.051 1 1 0 0 0 .949-.685l1.651-4.955a1.036 1.036 0 0 1 .752-.67l1.945-.566a7.99 7.99 0 0 0 15.41 0l1.979.576a1.011 1.011 0 0 1 .716.655l1.651 4.96a1 1 0 0 0 .947.685 1.017 1.017 0 0 0 .315-.051 1 1 0 0 0 .634-1.264l-1.649-4.965a2.99 2.99 0 0 0 -2.088-1.949l-2.215-.645c0-.043.006-.084.006-.126zm-8-15a2 2 0 0 1 2 2h-4a2 2 0 0 1 2-2zm-1 22.91a6.006 6.006 0 0 1 -5-5.91v-8a1 1 0 0 1 1-1h4zm-3-16.91v-1a1 1 0 0 1 1-1h6a1 1 0 0 1 1 1v1zm10 11a6.006 6.006 0 0 1 -5 5.91v-14.91h4a1 1 0 0 1 1 1z"/><path d="m6 4h-1a1 1 0 0 0 0 2h1a1 1 0 0 0 0-2z"/><path d="m11 4h-1a1 1 0 0 0 0 2h1a1 1 0 0 0 0-2z"/><path d="m16 4h-1a1 1 0 0 0 0 2h1a1 1 0 0 0 0-2z"/><path d="m55 4h-6a1 1 0 0 0 0 2h6a1 1 0 0 0 0-2z"/></g></svg>